<?xml version="1.0" standalone="no"?>
<!DOCTYPE svg PUBLIC "-//W3C//DTD SVG 1.1//EN" "http://www.w3.org/Graphics/SVG/1.1/DTD/svg11.dtd" >
<svg xmlns="http://www.w3.org/2000/svg" xmlns:xlink="http://www.w3.org/1999/xlink" version="1.1">
<metadata>
Created by FontForge 20170731 at Wed Apr 14 10:14:43 2021
 By Aleksey,,,
Copyright (c) 2008, Haley Fiege (haley@kingdomofawesome.com), Copyright (c) 2012, Brenda Gallo (gbrenda1987@gmail.com)Copyright (c) 2013, Pablo Impallari (www.impallari.com|impallari@gmail.com), with no Reserved Font Name.
</metadata>
<defs>
<font id="Sniglet-ExtraBold" horiz-adv-x="1527" >
  <font-face 
    font-family="Sniglet"
    font-weight="800"
    font-stretch="normal"
    units-per-em="2048"
    panose-1="4 7 10 5 3 1 0 2 0 0"
    ascent="1638"
    descent="-410"
    x-height="1049.5"
    cap-height="1444"
    bbox="-138.067 -591.846 2281 1957.72"
    underline-thickness="102"
    underline-position="-307"
    unicode-range="U+000D-FB02"
  />
<missing-glyph horiz-adv-x="1134" 
d="M174 1223q3 76 25 104.5t63 30.5q57 33 173.5 53t194.5 24.5t134 4.5q43 0 65.5 -1t48.5 -9.5t37.5 -17.5t24.5 -37t17 -55.5t8.5 -84.5t5 -113.5t0.5 -152.5q0 -552 -10 -772q-3 -77 -26 -106.5t-63 -29.5q-58 -33 -174 -52.5t-193 -24t-134 -4.5q-43 0 -65.5 1
t-48.5 9.5t-37.5 17.5t-24.5 37t-17 55.5t-8.5 84.5t-5 113.5t-0.5 152.5q0 552 10 772zM766 848q0 205 8 401q-116 -14 -214 -26.5t-138.5 -17.5t-65.5 -7q13 -298 13 -627q0 -181 -9 -401q121 13 212.5 24.5t137 18t66.5 8.5q-10 286 -10 627z" />
    <glyph glyph-name="f_i" unicode="fi" horiz-adv-x="1966" 
d="M864 1051q6 2 16.5 5t41 8t58.5 6t62 -5.5t59.5 -21.5t43.5 -47t20 -78q3 -61 -22.5 -101.5t-63.5 -55t-76.5 -19.5t-66.5 -2l-27 3q2 -10 4 -27t7 -69t7 -102.5t-1 -119.5t-13 -128.5t-31.5 -120.5t-53 -105t-82 -72.5t-115.5 -31.5q-103 -5 -171.5 28t-103.5 99
t-51.5 162.5t-16.5 219t1 267.5q-6 -2 -16 -4.5t-39 -7t-55.5 -4.5t-59.5 8t-57 25t-42 51t-20 82q-2 47 17.5 82t51.5 53.5t72 27.5t77.5 8t70.5 -9q-1 8 -2 22t2 57t12.5 85t34.5 98.5t63 105.5q4 5 11 13t32.5 30.5t56 41t81.5 37t107 27t134.5 3t163.5 -28.5
q7 -2 18.5 -6t39.5 -19.5t49 -34.5t35.5 -53.5t9.5 -74.5q0 -5 -1 -14t-9.5 -31.5t-21.5 -39t-41.5 -30t-66.5 -12.5q-4 0 -10.5 -0.5t-24.5 -4t-33.5 -10t-31 -21.5t-23.5 -36q-2 -4 -4 -11t-5 -35t-1 -62zM1792 1358q9 -91 -56.5 -164.5t-166.5 -83.5q-104 -10 -183 47
t-90 150q-9 91 57.5 164t168.5 83q102 11 181.5 -46.5t88.5 -149.5zM1880 207q-8 -50 -28.5 -90t-46.5 -64t-55 -42t-57 -25.5t-50.5 -12t-36.5 -4.5h-13q-65 -2 -118.5 15.5t-84 44t-51.5 53.5t-29 46l-7 19q-31 83 -43 182.5t-7.5 181.5t13.5 152t18 110l10 40
q19 70 55.5 120.5t74.5 72.5t73.5 34t58.5 12l23 1q51 3 95.5 -9t74.5 -33t54.5 -47.5t38.5 -53t23.5 -49t12.5 -36.5l4 -14q3 -9 6.5 -26t11 -75.5t10 -123.5t-4.5 -168t-25 -211z" />
    <glyph glyph-name="f_l" unicode="fl" horiz-adv-x="1976" 
d="M864 1051q6 2 16.5 5t41 8t58.5 6t62 -5.5t59.5 -21.5t43.5 -47t20 -78q3 -61 -22.5 -101.5t-63.5 -55t-76.5 -19.5t-66.5 -2l-27 3q2 -10 4 -27t7 -69t7 -102.5t-1 -119.5t-13 -128.5t-31.5 -120.5t-53 -105t-82 -72.5t-115.5 -31.5q-103 -5 -171.5 28t-103.5 99
t-51.5 162.5t-16.5 219t1 267.5q-6 -2 -16 -4.5t-39 -7t-55.5 -4.5t-59.5 8t-57 25t-42 51t-20 82q-2 47 17.5 82t51.5 53.5t72 27.5t77.5 8t70.5 -9q-1 8 -2 22t2 57t12.5 85t34.5 98.5t63 105.5q4 5 11 13t32.5 30.5t56 41t81.5 37t107 27t134.5 3t163.5 -28.5
q7 -2 18.5 -6t39.5 -19.5t49 -34.5t35.5 -53.5t9.5 -74.5q0 -5 -1 -14t-9.5 -31.5t-21.5 -39t-41.5 -30t-66.5 -12.5q-4 0 -10.5 -0.5t-24.5 -4t-33.5 -10t-31 -21.5t-23.5 -36q-2 -4 -4 -11t-5 -35t-1 -62zM1249 414q-16 164 -13.5 327t13.5 285l11 121q1 8 2.5 23t9.5 57
t20.5 80t37.5 85t57 80.5t82.5 56.5t111.5 23h10t25.5 -3t38.5 -9t45.5 -20.5t50 -35t48.5 -54.5t44 -76.5t34 -103.5t21 -134q15 -223 13 -408.5t-13 -305.5l-10 -121q0 -7 -1.5 -18.5t-9.5 -44t-20 -62.5t-37.5 -66t-58 -61.5t-84 -42.5t-114.5 -15q-59 2 -108 27
t-80 64.5t-55.5 86.5t-37.5 93.5t-21 85t-10 62.5z" />
    <glyph glyph-name=".notdef" horiz-adv-x="1134" 
d="M174 1223q3 76 25 104.5t63 30.5q57 33 173.5 53t194.5 24.5t134 4.5q43 0 65.5 -1t48.5 -9.5t37.5 -17.5t24.5 -37t17 -55.5t8.5 -84.5t5 -113.5t0.5 -152.5q0 -552 -10 -772q-3 -77 -26 -106.5t-63 -29.5q-58 -33 -174 -52.5t-193 -24t-134 -4.5q-43 0 -65.5 1
t-48.5 9.5t-37.5 17.5t-24.5 37t-17 55.5t-8.5 84.5t-5 113.5t-0.5 152.5q0 552 10 772zM766 848q0 205 8 401q-116 -14 -214 -26.5t-138.5 -17.5t-65.5 -7q13 -298 13 -627q0 -181 -9 -401q121 13 212.5 24.5t137 18t66.5 8.5q-10 286 -10 627z" />
    <glyph glyph-name=".null" horiz-adv-x="0" 
 />
    <glyph glyph-name="nonmarkingreturn" horiz-adv-x="682" 
 />
    <glyph glyph-name="NULL" horiz-adv-x="0" 
 />
    <glyph glyph-name="NULL" horiz-adv-x="0" 
 />
    <glyph glyph-name="CR" unicode="&#xd;" horiz-adv-x="876" 
 />
    <glyph glyph-name="space" unicode=" " horiz-adv-x="876" 
 />
    <glyph glyph-name="exclam" unicode="!" horiz-adv-x="913" 
d="M127 836q-16 62 -18.5 157t3.5 159l5 65q0 7 2 18.5t10.5 45.5t21.5 65t39.5 69t61 65t88.5 45.5t119 18.5q5 0 14.5 -1t37.5 -7t54.5 -16t61.5 -31.5t63 -50t54 -75t40 -103.5q18 -74 24.5 -152.5t3 -138t-9.5 -108.5t-12 -75l-6 -26q-3 -10 -9 -27t-32 -60.5t-59 -77
t-93 -60.5t-132 -27q-59 0 -109 18t-83 47t-59.5 64t-41 70t-24 64t-12.5 47zM723 158q0 -92 -78 -156.5t-188 -64.5q-109 0 -186.5 64.5t-77.5 156.5t77.5 156.5t186.5 64.5q110 0 188 -64.5t78 -156.5z" />
    <glyph glyph-name="quotedbl" unicode="&#x22;" horiz-adv-x="917" 
d="M412 1389q6 -67 -13 -167t-45 -149q-2 -4 -5.5 -10.5t-15.5 -22.5t-26.5 -28.5t-38 -22t-49.5 -8.5q-27 2 -49.5 15t-35 31t-20.5 35.5t-11 29.5l-3 12q-2 9 -6 24t-11.5 59.5t-11 86.5t-1 94.5t15.5 93.5q14 46 40 73.5t56.5 35t58 6.5t52.5 -10q26 -12 40 -20.5
t33.5 -28t30.5 -51.5t15 -78zM827 1389q6 -67 -12.5 -167t-44.5 -149q-2 -4 -5.5 -10.5t-15.5 -22.5t-26.5 -28.5t-38 -22t-49.5 -8.5q-27 2 -49.5 15t-35 31t-20.5 35.5t-11 29.5l-3 12q-2 9 -6 24t-11.5 59.5t-11 86.5t-1 94.5t15.5 93.5q14 46 40 73.5t56.5 35t58 6.5
t52.5 -10q25 -11 39 -20t33.5 -28.5t30.5 -51.5t15 -78z" />
    <glyph glyph-name="numbersign" unicode="#" horiz-adv-x="1554" 
d="M1343 788q-48 -10 -114 -10l-21 -102q48 -3 82.5 -18.5t52 -33.5t27.5 -43t12 -40.5t2 -32.5q0 -11 -1 -22.5t-8.5 -35.5t-21 -41.5t-41.5 -32.5t-67 -18l-106 -8l-35 -129q-10 -36 -28.5 -62.5t-36.5 -39t-40 -20t-32.5 -8.5t-20.5 -1q-15 0 -30.5 3.5t-37 16t-38 33.5
t-28 60.5t-11.5 91.5q0 31 2 47q-115 0 -168 2l-31 -123q-11 -44 -33.5 -73t-49.5 -40t-44.5 -14.5t-34.5 -3.5q-5 0 -17 2t-35 12t-41.5 26t-33 48t-14.5 74q0 67 2 106l-63 7q-52 5 -87.5 25t-49.5 47.5t-18.5 47t-4.5 37.5q0 27 10 51t36 50t82 43t136 20q6 52 18 105
q-49 0 -86 15t-55 34t-28.5 43t-12.5 35.5t-2 17.5q0 25 3 41t14.5 40.5t41 43.5t76.5 33q51 14 123 20q28 111 57 169t58 75.5t76 17.5q75 0 118 -35.5t43 -109.5q0 -36 -8 -98q26 0 80 -1.5t80 -1.5q27 104 55 158.5t56.5 71t74.5 16.5q162 0 162 -151q0 -17 -10 -119
q57 -5 98 -20t61 -31.5t31 -41.5t13 -40.5t2 -38.5q0 -25 -5 -44.5t-18.5 -40t-43 -36t-73.5 -25.5zM715 705l131 -3l12 66l-131 6z" />
    <glyph glyph-name="dollar" unicode="$" horiz-adv-x="1196" 
d="M760 862q72 -18 129.5 -45.5t91 -58.5t57.5 -63.5t33.5 -62t14.5 -53t4 -37.5v-14q0 -80 -26 -144.5t-63.5 -103.5t-89.5 -67.5t-93 -41t-85 -19.5l-10 -105q-4 -32 -14 -57.5t-22.5 -40.5t-26.5 -25.5t-27.5 -14.5t-24.5 -6t-18 -1h-6q-6 -1 -15 -1.5t-32.5 5t-42 18.5
t-34.5 45t-18 78l-4 113q-80 12 -143.5 34.5t-100 48.5t-62.5 54.5t-36 54t-15 46.5t-4 34l1 12q0 51 19.5 89.5t50 59.5t68 34t75 16.5t68 4t49.5 -1.5l20 -3q-64 17 -115 45.5t-80.5 59.5t-51 65.5t-29.5 65t-12 55t-4 38.5l1 15q3 59 24 108.5t51 82.5t72.5 59t82 41
t84.5 25l8 129q5 55 22 94t37 56t40 26.5t33 9.5h13q3 0 8 -0.5t19.5 -4.5t27.5 -10.5t29.5 -21t29 -33.5t21.5 -50.5t11 -70.5q4 -78 4 -112q327 -37 327 -236q0 -58 -31 -99t-84 -61.5t-102 -29t-104 -10.5v-17z" />
    <glyph glyph-name="percent" unicode="%" horiz-adv-x="1521" 
d="M559 113q-23 -32 -50 -50t-49.5 -21t-41.5 -1t-30 7l-11 5l-6 3t-14 9t-19 16.5t-18 25t-13.5 33.5t-3.5 44.5t10 55.5q51 164 251 531t315 540q26 40 57.5 62t58.5 25t50.5 0t36.5 -10l14 -6q5 -1 12 -4t23 -16.5t25.5 -33t10 -57t-15.5 -83.5q-48 -131 -126.5 -290
t-156.5 -292.5t-149 -248t-115 -179.5zM629 1053q-25 -131 -119 -182.5t-215 -28.5q-114 22 -175.5 104.5t-41.5 194.5q23 121 110 190.5t222 44.5q131 -25 186.5 -115t32.5 -208zM1364 244q-17 -89 -69 -143t-119.5 -69t-145.5 -1q-115 22 -176 104.5t-41 194.5
q24 122 110.5 192t221.5 45q131 -25 186.5 -115t32.5 -208z" />
    <glyph glyph-name="ampersand" unicode="&#x26;" horiz-adv-x="1634" 
d="M358 956q-6 12 -15.5 33t-27 81.5t-20.5 116.5t17.5 125.5t72.5 121.5q80 80 186 108t207 2t172 -98q9 -9 22 -25t38 -67.5t33 -106t-12.5 -134.5t-80.5 -157q15 -15 39.5 -41.5t81.5 -105t92 -152.5q5 5 13 12.5t34 27.5t52 35.5t62.5 28.5t69 13.5t68.5 -15.5t64 -52
q31 -41 36.5 -87.5t-13.5 -88t-42.5 -77t-56.5 -66t-48.5 -44t-25.5 -20.5q6 -5 19 -18.5t35.5 -43t41 -61.5t30 -73.5t9.5 -81.5t-27.5 -83.5t-74.5 -79.5q-44 -32 -90.5 -42t-85.5 -0.5t-76 28.5t-65 44.5t-49.5 48.5t-32.5 38l-11 16q-7 -5 -19 -13.5t-51.5 -30.5
t-81.5 -38.5t-105 -30t-125.5 -14t-140 18t-150.5 59.5q-4 2 -11 6t-27.5 19t-40 32.5t-45 47t-46 62t-38.5 77.5t-28 93.5t-9.5 110.5t13.5 128q1 9 5 25.5t22 66t44 97t77 110t116 114.5zM715 410l-84 118q-36 -17 -55 -37.5t-20.5 -38t1.5 -32t9 -22.5l7 -9
q18 -23 39 -29.5t38.5 1t32.5 18.5t23 21z" />
    <glyph glyph-name="quotesingle" unicode="'" horiz-adv-x="458" 
d="M406 1389q6 -67 -13 -167t-45 -149q-2 -4 -5.5 -10.5t-15.5 -22.5t-26.5 -28.5t-38 -22t-49.5 -8.5q-27 2 -49.5 15t-35 31t-20.5 35.5t-11 29.5l-3 12q-2 9 -6 24t-11.5 59.5t-11 86.5t-1 94.5t15.5 93.5q14 46 40 73.5t56.5 35t58 6.5t52.5 -10q26 -12 40 -20.5
t33.5 -28t30.5 -51.5t15 -78z" />
    <glyph glyph-name="parenleft" unicode="(" horiz-adv-x="909" 
d="M299 1528q39 62 90.5 99.5t122 47t150.5 -27.5q56 -25 88.5 -64.5t39.5 -78t5.5 -73.5t-8.5 -57l-7 -22q-49 -138 -74 -279t-25.5 -256.5t9.5 -223t30.5 -187t39.5 -139.5t33 -91l14 -31q2 -4 4.5 -11t7 -28.5t5.5 -42.5t-6 -49.5t-22 -53t-46 -50t-76 -43.5
q-55 -19 -103.5 -19.5t-94.5 20t-84.5 49t-71.5 67.5t-56.5 75t-40.5 72q-73 152 -108 311t-33 292t21.5 258.5t53.5 221t65 167.5t54 109z" />
    <glyph glyph-name="parenright" unicode=")" horiz-adv-x="915" 
d="M614 -6q-39 -63 -90.5 -100t-121.5 -46.5t-150 27.5q-56 25 -88.5 64.5t-39.5 78t-6 73.5t8 57l7 22q49 138 74 279t25.5 256.5t-9.5 222.5t-30.5 186.5t-39.5 140t-33 91.5l-14 30q-2 4 -4.5 11t-7 28.5t-5 42.5t6 50t22 53.5t46.5 50t76 43.5q55 19 103.5 19.5
t94.5 -20t84 -49t71 -67.5t56.5 -75t40.5 -72q73 -152 108 -311t33 -292t-21.5 -258.5t-53.5 -221t-65 -167.5t-54 -109z" />
    <glyph glyph-name="asterisk" unicode="*" horiz-adv-x="1280" 
d="M500 1208q-1 5 -2.5 14t-3 34t1 48t13 51.5t28.5 48.5t51.5 34t79.5 14q5 0 14 -0.5t33 -6t44.5 -15t42.5 -29.5t33.5 -47.5t10.5 -72.5t-19 -101q6 2 16.5 4.5t41 7t58 4.5t61.5 -8.5t58.5 -26t41 -54t16.5 -87.5q0 -69 -26 -113.5t-62.5 -58t-73 -17.5t-62.5 1l-26 6
q7 -7 16.5 -20.5t27.5 -51t22.5 -72t-15.5 -76.5t-71 -73q-56 -31 -100.5 -28t-77.5 30t-54.5 58.5t-31.5 56.5l-11 26q-2 -4 -6.5 -11.5t-19.5 -26.5t-31.5 -33.5t-43 -27t-54 -14t-64 12.5t-73.5 47q-6 6 -14 16t-21.5 40.5t-14.5 61.5t21.5 73.5t73.5 80.5
q-6 2 -15.5 5.5t-35.5 16.5t-48 28t-45 39t-34 50t-8 61.5t26 72.5q34 54 80.5 77t89 16.5t80 -20t60.5 -29.5z" />
    <glyph glyph-name="plus" unicode="+" horiz-adv-x="1265" 
d="M1180 733q0 -4 0.5 -11t-1.5 -27.5t-7 -40t-17.5 -45t-31 -45.5t-49.5 -38.5t-70 -27.5q-101 -21 -115 -23q-3 -38 -7.5 -71.5t-7.5 -47.5l-4 -14q-8 -54 -35.5 -92t-60.5 -54t-64.5 -24.5t-53.5 -7.5h-21q-6 0 -16.5 1t-39 8t-53.5 19.5t-53 40t-45 64.5q-25 56 -41 156
q-35 3 -65 7t-43 6l-13 3q-53 8 -91 35.5t-53.5 60.5t-24 65t-7.5 54v21q0 6 1 16.5t8 39t19.5 53t40 52.5t64.5 45q51 24 154 41q11 86 22 127q12 49 38 85.5t54 53t54.5 26t43.5 10.5l17 1q1 -2 10.5 0t28 -1.5t40 -8t45.5 -17.5t45.5 -31t39.5 -48.5t27 -69.5
q17 -82 22 -114q76 -9 140 -25q50 -12 86.5 -38t53 -54t25.5 -54.5t10 -43.5z" />
    <glyph glyph-name="comma" unicode="," horiz-adv-x="667" 
d="M557 240q4 -82 -4 -150.5t-25 -114t-40 -80.5t-49.5 -54.5t-53.5 -32.5t-51.5 -16.5t-43.5 -4.5t-30 1l-12 1q-34 5 -46.5 24.5t-8.5 36.5l4 17q5 17 18 27t23 11l10 1q18 0 26.5 10.5t7.5 24.5t-1 28q-113 7 -175.5 79t-62.5 179q0 110 68 183t188 73q118 0 185.5 -68.5
t72.5 -174.5z" />
    <glyph glyph-name="hyphen" unicode="-" horiz-adv-x="1077" 
d="M809 827q52 -14 90.5 -40.5t56 -54.5t27.5 -54t11 -43l1 -17q1 -7 2 -19t-3.5 -45t-17 -61t-46 -57t-82.5 -43q-144 -39 -282.5 -41.5t-276.5 23.5q-54 9 -93.5 34t-57.5 54t-28 57.5t-11 47.5l-1 18q-1 4 -1 11t1.5 27.5t6 40t18 44.5t33 45.5t53.5 39.5t78 29
q122 27 252.5 28t200.5 -11z" />
    <glyph glyph-name="period" unicode="." horiz-adv-x="720" 
d="M616 238q0 -112 -68 -185t-190 -73q-121 0 -189.5 73.5t-68.5 184.5q0 110 69 184t189 74q121 0 189.5 -73.5t68.5 -184.5z" />
    <glyph glyph-name="slash" unicode="/" horiz-adv-x="878" 
d="M383 33q-20 -41 -47 -66.5t-52 -33.5t-47 -10t-35 1l-14 4q-5 1 -13.5 3.5t-29.5 16t-36.5 33t-25.5 57t-5 85.5q22 195 168 649.5t239 675.5q21 50 52.5 82t61.5 41t56.5 11t42.5 -2l17 -5q3 0 7.5 -1t18.5 -5.5t24 -12.5t24.5 -23t20.5 -37t11 -54t-4 -74
q-25 -158 -79 -354t-113 -362t-114.5 -310t-91.5 -226z" />
    <glyph glyph-name="zero" unicode="0" horiz-adv-x="1212" 
d="M1155 635q0 -146 -41 -265t-113.5 -198t-171 -121.5t-213.5 -42.5q-236 0 -387 168t-151 459q0 91 6 170t21.5 163.5t41 152.5t67 130t96.5 104t133 66.5t173 24.5q103 0 184.5 -25t137.5 -65.5t96.5 -104.5t63.5 -129t36 -153.5t17 -163t4 -170.5zM631 782
q-37 0 -58.5 -23t-21.5 -67q0 -36 21 -57t59 -21q39 0 56.5 22t17.5 54q0 44 -20.5 68t-53.5 24z" />
    <glyph glyph-name="one" unicode="1" horiz-adv-x="1007" 
d="M422 930q-5 -4 -14.5 -10.5t-37.5 -22.5t-55 -27.5t-63.5 -19t-67 -4t-60.5 24t-50 59.5q-36 78 -27.5 144t47.5 119t83 90t79 57l35 20q77 38 153 52t128.5 6.5t94.5 -20t63 -25.5l20 -13q75 -52 121 -174t58.5 -260t14 -268.5t-5.5 -215.5l-8 -86q-6 -77 -25 -138
t-45 -97.5t-56 -62.5t-59 -37t-53 -16.5t-38 -4.5h-15q-60 0 -108 25.5t-74.5 61.5t-44.5 72t-24 61l-5 26q-18 91 -21 195t6 187.5t21 153.5t23 109z" />
    <glyph glyph-name="two" unicode="2" horiz-adv-x="1191" 
d="M463 1446q78 6 147 -1.5t117 -24.5t87.5 -39t63.5 -45.5t40.5 -43.5t23.5 -32l6 -13q39 -73 52 -152t2 -148t-33.5 -135.5t-52.5 -118t-57 -91.5t-45 -61l-19 -21h19t46.5 -4.5t66 -13.5t69.5 -29.5t65 -49.5t45 -76.5t16 -106.5q-1 -45 -22 -82.5t-55 -63t-77.5 -44.5
t-91.5 -30t-95.5 -18t-90.5 -9t-76.5 -2.5t-53.5 0.5l-19 1q-70 0 -130 8.5t-103 22.5t-78 32t-57.5 38t-39 40t-25 38t-13.5 32t-6 22l-1 8q-8 71 3.5 127t51.5 107t69 78t97 81q14 12 22 18.5t21 16.5t23 19q30 25 53.5 53.5t39.5 60t15.5 64.5t-20.5 60t-48 40.5t-54 13
t-49.5 -4t-37.5 -9.5l-14 -6q-51 -10 -90.5 4t-59.5 41.5t-32.5 56.5t-15.5 50l-3 22q-2 56 18.5 104.5t56 80t79 57t87.5 39.5t80.5 23.5t59.5 12.5z" />
    <glyph glyph-name="three" unicode="3" horiz-adv-x="1265" 
d="M504 1452q17 1 46 2t107 -4t142.5 -18.5t130.5 -48t94 -85.5q31 -56 35 -116t-11.5 -106.5t-35 -85t-36.5 -58.5l-18 -21q59 -27 105.5 -72t70 -89.5t39 -86t19.5 -67.5l4 -25q7 -64 3 -118.5t-16.5 -100.5t-31 -84.5t-40.5 -68.5t-44.5 -53.5t-43.5 -40.5t-37 -27.5
t-26 -15.5l-10 -5q-84 -36 -171.5 -53t-160.5 -15.5t-142 11.5t-121 27.5t-92 33.5t-61 27l-20 12q-69 47 -100.5 100.5t-27 95.5t19.5 78t33 56l18 19q33 33 75 45t78.5 5.5t68.5 -17t51 -22.5l18 -11q36 -22 69.5 -31.5t56.5 -7t41 8t27 11.5l8 6q28 24 33 55.5t-3 50.5
l-9 19q-16 26 -50 39.5t-61 13.5h-26q-52 0 -93.5 11t-65.5 28.5t-41 39t-24 42.5t-10 38.5t-2 28.5v11q0 29 12 55.5t29 45.5t42.5 36t45.5 27t46 19.5t35 12t20 5.5q-93 -10 -160 -5t-111 21t-71.5 37.5t-41 45t-18.5 43.5t-4 33v13q1 50 24 91t59.5 66.5t81 44t88 27.5
t80 14t59.5 6z" />
    <glyph glyph-name="four" unicode="4" horiz-adv-x="1329" 
d="M1255 590q0 -46 -16 -81.5t-39.5 -52.5t-46.5 -27.5t-39 -12.5l-16 -2q1 -9 3 -24.5t2.5 -60t-5 -85t-24.5 -89.5t-49.5 -84.5t-85.5 -60t-128 -24.5q-53 0 -96.5 14.5t-71.5 39.5t-49 57t-31.5 67.5t-17 71t-7 67.5t0 57t2.5 40l2 14q-96 0 -179.5 11t-119.5 21l-35 11
q-66 18 -102 63.5t-40 104t6 125t33.5 129t46 114t39.5 82.5l17 31q51 90 112.5 157t119 101.5t115 55t105 23.5t84.5 1.5t57 -6.5l21 -6q66 -18 116.5 -64t79 -105.5t47.5 -127.5t25 -132.5t8.5 -116.5t0.5 -84l-2 -32q44 -1 76.5 -20t47.5 -45.5t23 -52.5t9 -44zM512 885
q-35 0 -60 -26.5t-22 -59.5q5 -76 82 -76q35 0 57.5 20.5t22.5 55.5q0 34 -22 60t-58 26z" />
    <glyph glyph-name="five" unicode="5" horiz-adv-x="1210" 
d="M326 1397q79 32 188.5 38.5t179.5 -3.5l70 -9q87 -14 148 -44.5t87 -64t39.5 -65.5t13.5 -53l-1 -20q-1 -48 -21.5 -87t-50.5 -63.5t-72.5 -42t-80 -26t-80 -13t-66.5 -5t-45 0.5q94 -6 173.5 -29.5t126 -52t79 -56.5t44.5 -46l13 -19q49 -79 66 -165.5t6.5 -153
t-28 -122t-35.5 -84.5l-17 -30q-50 -79 -137.5 -125.5t-176.5 -57.5t-171 -10.5t-134 9.5l-51 10q-81 24 -142 59t-93 72t-51.5 76t-23 73.5t-3 62t5.5 43.5l4 16q20 55 53.5 85.5t67.5 34.5t65 0t50 -13l20 -9q51 -26 90 -33t58 2t30.5 21.5t13.5 24.5l3 12q9 29 -3 55
t-35.5 42t-48 28t-42.5 17l-19 5q-58 20 -97.5 38.5t-77 49.5t-58 71.5t-32 101t-9.5 140.5q2 51 14 96t30.5 76t40.5 56.5t43.5 41t39 26t28.5 14.5z" />
    <glyph glyph-name="six" unicode="6" horiz-adv-x="1257" 
d="M1180 479q0 -102 -28.5 -184.5t-73.5 -132t-100 -86t-110 -53t-100 -25.5t-74 -10h-28q-80 0 -151 17t-123 46t-96 66.5t-73.5 78.5t-53 82.5t-37 79t-22 66.5t-11.5 46l-3 17q-13 115 -1.5 216.5t42.5 188t71 157t83 125.5t79 92t60 56l23 19q63 57 129.5 82t116.5 20.5
t91 -17.5t62 -28l22 -16q38 -29 59.5 -62.5t25 -64t-1.5 -61t-17 -55.5t-24 -44t-22 -29l-9 -11q-40 -46 -70 -83t-39 -51l-10 -14q87 0 157 -23.5t112.5 -61.5t73 -83.5t43.5 -91t20.5 -83.5t7.5 -62v-23zM645 561q-35 0 -60 -26.5t-22 -59.5q5 -76 82 -76q35 0 57.5 20.5
t22.5 55.5q0 34 -22 60t-58 26z" />
    <glyph glyph-name="seven" unicode="7" horiz-adv-x="1228" 
d="M604 952q-7 -2 -18 -5t-46.5 -10t-69.5 -12t-81 -7t-87 1.5t-81.5 16t-71 34t-48.5 59t-21 87.5q-3 84 27.5 149.5t81 102t112.5 61.5t124.5 32.5t114.5 10.5t84 0l33 -2q95 -4 175 -26t126.5 -51t79 -57.5t44.5 -47.5l12 -20q53 -79 53 -214t-37.5 -272t-83 -262.5
t-83.5 -204.5l-38 -79q-26 -65 -61.5 -113t-72 -73t-74.5 -40t-70.5 -16.5t-58.5 -0.5t-41 5l-15 4q-57 19 -96 53t-53.5 69t-21.5 67t-5 53l2 20q6 88 36 191t68 187.5t75 156.5t62 113z" />
    <glyph glyph-name="eight" unicode="8" horiz-adv-x="1280" 
d="M1202 438q0 -227 -154.5 -351t-406.5 -124t-405.5 124t-153.5 351q0 273 201 389q-110 99 -107 254q1 174 128 273.5t327 99.5q199 0 323.5 -98.5t124.5 -274.5q0 -170 -92 -256q108 -65 161.5 -164.5t53.5 -222.5zM647 559q-35 0 -60 -26.5t-22 -59.5q5 -76 82 -76
q35 0 57.5 20.5t22.5 55.5q0 34 -22 60t-58 26zM647 1100q-35 0 -60 -26.5t-22 -59.5q5 -76 82 -76q35 0 57.5 20.5t22.5 55.5q0 34 -22 60t-58 26z" />
    <glyph glyph-name="nine" unicode="9" horiz-adv-x="1247" 
d="M72 958q0 80 19 148.5t50.5 116t72.5 86t87 61.5t91.5 40.5t86.5 25t72.5 11.5t50.5 5h19q80 0 150 -17t121 -45.5t93.5 -65.5t70.5 -78t50 -82t34 -78t19.5 -65.5t9.5 -45.5l2 -17q13 -115 0.5 -216.5t-45 -189t-74 -159t-86.5 -127t-82 -93.5t-61 -57l-24 -20
q-49 -43 -99.5 -69.5t-91 -34t-78.5 -6t-66 11.5t-49 20t-31 18l-11 9q-51 41 -70.5 91t-10.5 92t25 78.5t33 57.5l17 21q39 45 68 82t39 51l9 14q-87 0 -156.5 23.5t-111.5 61t-72.5 83t-43.5 91t-20 83t-7 60.5v24zM637 967q-35 0 -60 -26.5t-22 -59.5q5 -76 82 -76
q35 0 57.5 20.5t22.5 55.5q0 34 -22 60t-58 26z" />
    <glyph glyph-name="colon" unicode=":" horiz-adv-x="694" 
d="M569 836q0 -101 -61 -165.5t-172 -64.5q-106 0 -168 65t-62 165q0 99 62 165t168 66q111 0 172 -65.5t61 -165.5zM569 193q0 -101 -61 -165.5t-172 -64.5q-106 0 -168 65t-62 165t62 166.5t168 66.5q111 0 172 -66t61 -167z" />
    <glyph glyph-name="semicolon" unicode=";" horiz-adv-x="690" 
d="M559 817q0 -101 -59 -164t-168 -63q-105 0 -165.5 64t-60.5 163q0 96 61 161.5t165 65.5q108 0 167.5 -65t59.5 -162zM551 199q5 -92 -7.5 -163t-35.5 -111.5t-52.5 -68t-60 -37t-55.5 -13t-41 -1.5l-16 2q-30 4 -41.5 20.5t-7.5 30.5l4 15q4 15 15.5 23t20.5 9l9 1
q15 0 21.5 9t5.5 22t-1 26q-99 7 -153 69t-54 156q0 98 59.5 161t166.5 63q102 0 160 -60.5t63 -152.5z" />
    <glyph glyph-name="less" unicode="&#x3c;" horiz-adv-x="970" 
d="M498 217l-26 17q-26 18 -62.5 45t-83 65t-91 84.5t-82 96.5t-60.5 108t-23 112q0 53 23.5 110.5t60 107.5t82.5 99.5t90 87t83.5 68t62 45.5t26.5 17q45 31 106 34t120 -25.5t93 -82.5q52 -90 32 -167.5t-99 -135.5q-76 -59 -164 -153q53 -52 108 -102.5t84 -74.5l29 -24
q6 -5 15.5 -14.5t27 -40.5t23 -64t-9 -83t-56.5 -99q-53 -62 -149.5 -72t-159.5 41z" />
    <glyph glyph-name="equal" unicode="=" horiz-adv-x="1097" 
d="M815 1126q52 -11 89.5 -31.5t55 -42t27.5 -41.5t11 -33l1 -13q1 -6 2 -15.5t-3.5 -35t-17 -47.5t-45 -45t-81.5 -34q-144 -31 -281.5 -32.5t-275.5 18.5q-53 7 -92 26.5t-56.5 42.5t-27.5 44.5t-11 36.5l-1 14q-1 3 -1.5 8.5t1 21.5t6.5 31t17.5 35t32 35.5t53.5 30
t77 22.5q121 22 251 23t200 -9zM815 672q52 -11 89.5 -31.5t55 -42.5t27.5 -42t11 -33l1 -13q1 -3 1.5 -8t0 -20t-3.5 -29t-13 -33t-25 -34.5t-42 -29.5t-63 -22q-145 -31 -281.5 -33t-275.5 18q-53 7 -92 26.5t-56.5 42t-27.5 44.5t-11 36l-1 15q-1 6 -1.5 16t6.5 37.5
t23 50.5t57 47t101 34q121 22 251 23t200 -9z" />
    <glyph glyph-name="greater" unicode="&#x3e;" horiz-adv-x="958" 
d="M459 1270l26 -18q26 -17 62.5 -44.5t83 -65t91 -84.5t82 -97t60.5 -108t23 -112q0 -72 -44 -153.5t-104 -145t-126 -119.5t-106 -84t-48 -32q-45 -31 -106.5 -34t-120.5 25.5t-93 82.5q-52 91 -31.5 168t99.5 135q76 59 164 153q-53 52 -108 102.5t-84 74.5l-29 24
q-6 5 -15.5 14.5t-27 40.5t-23 64t9 83t56.5 99q53 62 149.5 72t159.5 -41z" />
    <glyph glyph-name="question" unicode="?" horiz-adv-x="1323" 
d="M1042 125q0 -104 -74.5 -163.5t-195.5 -59.5q-116 0 -188 65.5t-72 161.5q0 108 70 168.5t190 60.5q119 0 194.5 -64.5t75.5 -168.5zM1075 594q-3 -6 -9.5 -16.5t-29 -37.5t-47.5 -49t-65.5 -42.5t-83 -27t-99.5 7t-116 50.5q-38 24 -57 61.5t-19 79t9 86t25.5 84
t31.5 71.5t27 51l11 18q-5 -5 -13.5 -13t-35.5 -29t-54.5 -37t-68 -30.5t-79 -17t-84 11.5t-85.5 47q-6 5 -15 13.5t-31.5 38t-38 61t-24 81t-0.5 99.5t43 115t97 129q6 6 18.5 16.5t53 36.5t85 44.5t113.5 32t139.5 9.5t162 -34t182.5 -89q88 -56 132 -149.5t46 -189.5
t-17.5 -195.5t-47.5 -171.5t-56 -115z" />
    <glyph glyph-name="at" unicode="@" horiz-adv-x="1454" 
d="M328 940q38 0 68 -10t45.5 -25t22 -25t9.5 -18q2 9 8 20t19 27t36 26.5t52 10.5q41 0 71.5 -26.5t44.5 -64t22.5 -75t9.5 -64.5l1 -26q0 -80 -12.5 -137.5t-27.5 -84.5t-39 -41t-36 -15.5t-29 -1.5h-5q-11 0 -24 2.5t-32 10.5t-33 28.5t-18 50.5q-1 -4 -3.5 -9.5t-14 -21
t-28 -27t-47.5 -21t-69 -9.5q-29 0 -43 2q-8 0 -22.5 2t-46.5 16t-56.5 38.5t-44.5 75.5t-20 120q0 20 2.5 41.5t10 55.5t24.5 62.5t42 55t67 42t96 15.5zM918 993q-5 15 -5 35q0 24 5.5 45t19 44t44 36.5t73.5 13.5q37 0 65 -12.5t42.5 -29.5t23 -40.5t10.5 -40.5t2 -34
q0 -11 19.5 -15.5t47 -9t55 -14.5t47 -38.5t19.5 -74.5q0 -40 -18 -67.5t-46.5 -38.5t-50.5 -15t-44 -4h-17q4 -35 4 -84q0 -43 -5 -81.5t-18 -79.5t-41 -65t-69 -24q-88 0 -119.5 52t-31.5 151q0 64 6 137q-22 -4 -51 -4q-26 0 -49 4.5t-47.5 16.5t-39 38t-14.5 64
q0 39 18 67.5t47.5 42t58.5 19.5t59 6zM1253 297q33 0 55 -8.5t31 -21.5t12 -22t3 -16q0 -6 -2 -13.5t-9 -19t-25 -20t-44 -10.5q-215 -14 -598 -14q-310 0 -471 8q-28 1 -48.5 8t-30.5 15.5t-15.5 17t-6.5 14.5v6q0 3 0.5 7.5t6.5 17t16 22t32 18t52 9.5q152 6 500 6z
M422 692q-16 0 -26.5 -11t-10.5 -30q0 -18 10.5 -27.5t26.5 -9.5t26.5 9.5t10.5 27.5q0 19 -10.5 30t-26.5 11z" />
    <glyph glyph-name="A" unicode="A" 
d="M1274 18q-7 -2 -19 -5.5t-49 -9.5t-72.5 -6t-82.5 10.5t-86 33.5q-55 33 -96.5 81t-62.5 95t-30.5 79.5t-11.5 53.5q-3 -24 -12.5 -54.5t-30 -78.5t-62 -95.5t-96.5 -80.5q-39 -23 -85 -34t-84 -10t-70.5 5.5t-51.5 9.5l-18 6q-60 21 -101 69t-57 101t-23 103t-5 83l2 32
q16 447 278 819q36 53 78.5 95.5t79 68.5t77 45t67.5 27t57 13t38.5 5h18.5h18.5t38.5 -5t57 -13t68 -27t77.5 -45t79 -68.5t79.5 -95.5q52 -75 92.5 -149t83.5 -176.5t69 -228.5t31 -265q1 -7 1.5 -18t-0.5 -45t-5 -66t-16.5 -74t-32 -75.5t-53.5 -63.5t-78 -46zM772 756
q-35 0 -60 -26.5t-22 -59.5q5 -76 82 -76q35 0 57.5 20.5t22.5 55.5q0 34 -22 60t-58 26z" />
    <glyph glyph-name="B" unicode="B" horiz-adv-x="1368" 
d="M764 1462q62 -2 117.5 -13t97 -28t77 -38t60 -43.5t44.5 -45t31.5 -43t19.5 -36t11 -24.5l3 -9q22 -89 13.5 -157t-38.5 -116t-62.5 -78.5t-58.5 -44.5l-26 -14q51 -16 92.5 -41t66.5 -52.5t44 -57.5t27.5 -57t13.5 -48.5t5 -33.5l1 -13q6 -92 -21 -167.5t-74.5 -123
t-106 -83t-118 -53t-109 -28t-80.5 -12.5l-32 -2q-74 -4 -141.5 1.5t-119 18t-97 30.5t-78 39t-59 42t-43.5 40.5t-28.5 35t-16.5 24.5l-5 9q-98 166 -98 450q0 126 20.5 241.5t41.5 168.5l20 53q30 76 79 134t104.5 90.5t115.5 53.5t114 27t98 7.5t69 -1.5zM692 1053
q-34 0 -58 -22.5t-24 -55.5q0 -37 20 -62.5t62 -25.5q38 0 60 26.5t22 61.5q0 32 -22 55t-60 23zM711 561q-35 0 -60 -26.5t-22 -59.5q5 -76 82 -76q35 0 57.5 20.5t22.5 55.5q0 34 -22 60t-58 26z" />
    <glyph glyph-name="C" unicode="C" horiz-adv-x="1423" 
d="M1018 872q-5 1 -13 2.5t-31.5 3t-45.5 0t-48.5 -9t-46.5 -20.5t-34.5 -39t-16.5 -61q-1 -7 -0.5 -19t11.5 -41.5t33 -50t73.5 -34t124.5 -5.5q7 1 18.5 2.5t45.5 2t65.5 -4t71 -19t70 -38t54.5 -66.5t31 -100q1 -9 2 -24t-4.5 -57.5t-19.5 -80.5t-50 -82.5t-89 -73.5
q-10 -6 -29.5 -15.5t-87.5 -28t-145 -25.5t-201.5 3.5t-257.5 47.5q-10 2 -26 7.5t-63 29t-89.5 54.5t-94 88.5t-88 127t-60 174t-20.5 225.5q-1 12 -0.5 32.5t9 82t25.5 120t56.5 133.5t94.5 135t147 114t207 80q15 4 41 9t103.5 12.5t152 4t172 -28t176.5 -71.5
q8 -5 21 -15t42 -45t46 -75.5t17 -105.5t-30 -136q-1 -2 -2.5 -5.5t-8 -14.5t-15 -21.5t-23.5 -23.5t-32 -23.5t-41.5 -20t-52.5 -14.5t-65.5 -4.5t-78.5 8.5z" />
    <glyph glyph-name="D" unicode="D" horiz-adv-x="1400" 
d="M1278 369q-26 -89 -78.5 -158.5t-115.5 -110t-133.5 -68.5t-136 -38.5t-118 -15t-84.5 -2.5l-32 1q-90 -1 -167 17t-122 44.5t-77.5 52.5t-45.5 45l-12 18q-35 60 -52.5 151t-19.5 149t-2 157v28q0 128 11 253.5t23 187.5l11 61q12 69 41.5 123.5t67 86.5t80.5 54
t83 30.5t73 12.5t53 3l20 -1q107 1 202.5 -16t163 -44.5t124 -61t92 -67t60 -61.5t34.5 -46l10 -17q8 -12 19.5 -34t36 -97.5t36 -158.5t3 -213t-47.5 -265zM711 786q-39 0 -60.5 -19t-21.5 -67q0 -45 21 -60t61 -15q35 0 57.5 20.5t22.5 54.5t-22 60t-58 26z" />
    <glyph glyph-name="E" unicode="E" horiz-adv-x="1368" 
d="M702 1456q171 -4 293.5 -32.5t174.5 -66t79 -74.5t27 -62v-25q1 -67 -28 -117.5t-77 -79t-106 -47t-116.5 -24t-106.5 -7.5t-78 1l-31 2q64 -10 114 -28t79 -37.5t49 -41t27 -41t10.5 -35t2.5 -25.5l-1 -9q0 -44 -20.5 -82t-47.5 -60t-62 -39t-53.5 -23t-33.5 -9
q104 1 187 -13t132 -37t84.5 -51t50 -56t22.5 -51.5t7 -37.5v-15q-3 -53 -34.5 -95t-79.5 -67.5t-105.5 -44t-114.5 -26t-104 -12t-76 -4.5h-29q-96 -2 -178.5 6.5t-142 25.5t-108.5 39t-80.5 47t-55.5 50.5t-36.5 48.5t-20 41t-9.5 28l-2 11q-20 100 -26.5 224t-2 229
t11.5 195.5t15 142.5l7 52q11 61 38 111t63.5 83.5t81.5 59.5t91.5 40.5t92.5 24t87 12t72 3t49 -0.5z" />
    <glyph glyph-name="F" unicode="F" horiz-adv-x="1273" 
d="M725 526q24 -127 20.5 -217.5t-28.5 -148.5t-60.5 -92t-76.5 -49t-75.5 -19t-57.5 -2l-23 2q-61 0 -113.5 20.5t-86.5 54t-61 73.5t-41.5 79.5t-24 73t-12.5 53.5l-3 21q-30 161 -30 356.5t15 310.5l15 115q15 80 59 142t103 97t126.5 58.5t132.5 31.5t118 10.5t85 0.5
l33 -2q85 -5 156.5 -17t120.5 -29t88.5 -37t63 -41.5t40 -42.5t23.5 -39.5t10.5 -32.5t3.5 -22v-9q3 -61 -22 -108.5t-67 -75t-93.5 -46.5t-103.5 -26t-95.5 -10t-70.5 -2l-27 1q56 -8 100 -23t70 -33t44.5 -38t26.5 -38.5t12 -33t3 -23.5v-9q0 -46 -16.5 -84t-42.5 -61.5
t-57.5 -41.5t-63.5 -26.5t-58 -13.5t-42 -6z" />
    <glyph glyph-name="G" unicode="G" horiz-adv-x="1544" 
d="M936 571q-35 15 -56 36t-26.5 40.5t-5.5 37t4 27.5l4 11q17 44 102.5 64.5t177.5 18.5t173 -15q42 -6 74.5 -23t44.5 -31l12 -14q29 -37 44.5 -111t17.5 -154t0 -154.5t-6 -122.5l-5 -48q-3 -45 -16 -81.5t-32 -59t-41.5 -39t-44 -24t-39.5 -12t-29 -5.5h-11
q-48 0 -89 10t-77 32t-56.5 64t-19.5 99q-34 -43 -94 -75.5t-159 -50t-224 6.5q-11 1 -29.5 5t-72.5 24.5t-103 49.5t-108.5 86t-102.5 129.5t-72.5 184.5t-29.5 246q-1 11 -0.5 31.5t8.5 81t24.5 118.5t54 134.5t90.5 140t141.5 124.5t199.5 97q9 3 25 6.5t65 11t98.5 9
t119 -5.5t132 -26t131.5 -59t125 -98q5 -5 13 -15t24.5 -42t25 -66t4.5 -85.5t-28 -102.5q-3 -7 -9.5 -18t-34 -35t-64 -36t-103.5 -8t-147 35q-6 2 -15.5 4.5t-37 7t-52.5 4.5t-55.5 -9t-53 -28t-38 -57.5t-16.5 -91.5q0 -6 0.5 -15t6 -35t14.5 -48.5t29 -46t47.5 -36.5
t71.5 -12.5t99 19.5z" />
    <glyph glyph-name="H" unicode="H" horiz-adv-x="1568" 
d="M750 1001h77v27t6 65.5t17 93t36 98.5t60 93t93 65.5t130 26.5q6 0 16 -1t40 -9t58 -22t63.5 -44.5t63.5 -71.5t51.5 -108t33.5 -149q20 -171 20 -350t-10 -272l-10 -93q-1 -8 -2.5 -20.5t-10.5 -50t-22 -71.5t-38.5 -75.5t-58 -71t-83 -49.5t-111.5 -20q-67 1 -121 27
t-87.5 67.5t-59 91t-37.5 99t-19 90.5t-8 67l-1 25h-76q-1 -10 -2.5 -26.5t-10 -64.5t-22 -91.5t-40.5 -97t-61.5 -91.5t-89 -65t-120.5 -27h-17t-42 6.5t-60 18.5t-66 40.5t-65 68t-50.5 105.5t-29.5 148q-17 237 -14 401.5t16 251.5l12 88q1 7 3 19.5t12 48t23.5 68
t39 72.5t56 68.5t77.5 48t101 19.5q73 0 131 -26t92.5 -67t59.5 -91t35.5 -99.5t16 -90.5t5.5 -67v-26z" />
    <glyph glyph-name="I" unicode="I" horiz-adv-x="860" 
d="M80 416q-15 99 -17 242t3 236l6 93q0 10 1.5 26t10 63.5t22 90.5t41.5 95.5t65 90.5t96.5 64.5t131.5 26.5q6 0 16.5 -1t41.5 -9t60 -21.5t66 -43.5t66 -70.5t53.5 -107t34.5 -147.5q20 -169 20 -346t-10 -270l-10 -92q-1 -7 -2.5 -20t-11 -50t-23 -70.5t-40 -74.5
t-60 -70.5t-86 -49t-115.5 -19.5q-69 1 -126 25.5t-93.5 62.5t-64 84.5t-41.5 92.5t-22.5 84t-10.5 61z" />
    <glyph glyph-name="J" unicode="J" horiz-adv-x="1120" 
d="M358 522q-7 96 -9.5 222t-1.5 204l1 78q0 9 0.5 24.5t6 60t16.5 85t34.5 90t56 85.5t86 61t120.5 26q4 0 11 0.5t29 -1.5t43.5 -7t51 -16.5t55 -29t53 -46.5t48.5 -66t36.5 -91t20.5 -118q14 -165 16.5 -315.5t-2.5 -218.5l-4 -68q0 -10 -1.5 -27t-11 -67.5t-25 -96.5
t-48 -103.5t-76.5 -100.5q-49 -48 -156 -75.5t-225.5 -28t-231.5 42t-167 125.5q-23 36 -25.5 80.5t12.5 82.5t46 65t69 30q54 4 91.5 17.5t52.5 29.5t22.5 31.5t6.5 25.5z" />
    <glyph glyph-name="K" unicode="K" horiz-adv-x="1499" 
d="M436 1460q76 2 136 -12t96.5 -37.5t61.5 -57t36 -64.5t15 -66.5t3 -57t-4 -41.5q33 117 133 203q57 49 116.5 67t104 8.5t80.5 -25.5t55 -33l19 -17q41 -41 62.5 -87t22.5 -88.5t-9 -85t-31 -80.5t-45.5 -72t-50 -61.5t-46.5 -47.5t-35 -31l-13 -10q82 -89 141 -171
t88.5 -144.5t44.5 -118.5t12 -96.5t-12.5 -74.5t-26 -55.5t-31 -36.5t-25.5 -21l-11 -7q-75 -45 -147.5 -53.5t-128.5 10.5t-108 58.5t-87 81.5t-65.5 89.5t-42 71t-17.5 37.5q1 -10 2 -21.5t-0.5 -43.5t-7 -60t-22 -64.5t-41 -64t-67 -52t-97.5 -34.5q-65 -11 -116.5 -1
t-91 36.5t-68 61t-48 72t-30.5 69t-16 51.5l-5 20q-3 13 -8 37.5t-15.5 103.5t-15 161t0.5 203.5t23 238.5q13 86 39 155.5t56 111.5t63.5 72.5t64 44t55 21t39.5 8.5h15z" />
    <glyph glyph-name="L" unicode="L" horiz-adv-x="1333" 
d="M727 582q97 52 180 71t138 8.5t98.5 -36t68 -60.5t40.5 -66.5t21 -54.5l5 -22q3 -14 3.5 -34.5t-3.5 -50t-13 -60.5t-29 -65.5t-47 -66.5t-70.5 -62t-97.5 -52t-129.5 -36.5t-164.5 -17.5q-82 -2 -154.5 10.5t-127 35t-101.5 53t-79.5 64.5t-59 68t-42 65t-26 55
t-14.5 38l-4 15q-27 79 -39.5 183.5t-10.5 198t8 176t13 131.5l8 48q12 71 36.5 128t54 91.5t62 59t62.5 34.5t54 15.5t39 5.5h14q94 3 162 -43.5t101 -123t51 -170t17.5 -187t-5 -171.5t-12.5 -127z" />
    <glyph glyph-name="M" unicode="M" horiz-adv-x="2021" 
d="M639 1466q74 0 133.5 -23t97 -57t65.5 -81t41.5 -88t21 -86t9 -65.5t1.5 -35.5q2 19 6 43t16.5 69t29.5 85.5t47.5 86.5t68.5 79t94.5 55t122.5 22q54 0 105.5 -17.5t90 -45t72.5 -60.5t57 -66.5t39.5 -61t24.5 -45.5l8 -17q41 -95 71.5 -204.5t44 -198t21.5 -163.5
t9 -117l1 -42q4 -94 -11 -169.5t-42 -120.5t-60.5 -78t-67.5 -47t-62 -21.5t-46 -7.5h-18q-68 0 -126 22.5t-98 60t-72 86.5t-51.5 103t-33.5 107.5t-20 102.5t-9 86.5t-3 59.5v23q-5 -65 -19 -116.5t-31.5 -81.5t-38 -51.5t-40 -30t-35.5 -12.5t-25 -3h-10q-60 0 -105 31
t-66.5 74.5t-35 87.5t-15.5 75l-3 31q0 -107 -12 -197.5t-32.5 -154t-47 -114.5t-56 -81.5t-58.5 -53.5t-55.5 -32.5t-47 -15t-32.5 -6.5h-12q-83 0 -149 24t-105 62t-66.5 84t-38 92t-16 84t-5.5 62l1 24q0 124 16 247.5t38.5 211t45 157t38.5 104.5l16 34q23 53 52 96.5
t59 73t62.5 52t62.5 35.5t58.5 21.5t51.5 11t40.5 3.5t27.5 0z" />
    <glyph glyph-name="N" unicode="N" horiz-adv-x="1685" 
d="M113 1130q1 7 4 18.5t15.5 44.5t29 63.5t47.5 68.5t68.5 65.5t94 48t122.5 23.5q68 3 127 -11.5t101.5 -39.5t78 -63t58.5 -76.5t41.5 -84.5t28 -82.5t16 -76.5t8.5 -59.5t3 -38.5q0 88 11 162.5t29.5 125.5t43 91t51.5 63.5t54 40.5t52 23.5t44 9.5t30 2h11
q53 2 97.5 -10t73.5 -32.5t52.5 -46t36 -51t20.5 -46.5t10 -34l3 -14q25 -132 32.5 -275t0.5 -251.5t-17.5 -198.5t-20.5 -138l-11 -48q-15 -71 -41.5 -126.5t-56 -87t-62.5 -53t-62.5 -29.5t-53.5 -11t-38 -2l-14 2q-86 -2 -160 28t-124 76.5t-90.5 110.5t-63 122t-39 119
t-22 93.5t-7.5 54.5q5 -107 -3 -196t-25.5 -149t-42.5 -107.5t-53.5 -74t-57 -45t-55.5 -24.5t-47.5 -8.5t-32.5 -1.5l-13 2q-65 -2 -118 21t-82.5 56.5t-49 67.5t-25.5 58l-7 24q-29 120 -39.5 258t-5 248.5t15 204t19.5 144.5z" />
    <glyph glyph-name="O" unicode="O" horiz-adv-x="1531" 
d="M805 1442q105 0 194.5 -23.5t152.5 -64t114 -92.5t82 -109.5t54 -115t34 -109.5t17 -92.5t7 -63.5v-24q0 -157 -36 -284.5t-94 -205.5t-127.5 -136t-139.5 -84.5t-128 -42t-94 -17.5l-36 -1q-118 0 -219 23.5t-171.5 64t-128 92.5t-92.5 109.5t-61 114.5t-38 109
t-18.5 92.5t-7.5 63.5l-1 24q0 173 40.5 309t105.5 215.5t143.5 135t157.5 76.5t144 31t105 7zM774 784q-35 0 -60 -26.5t-22 -59.5q5 -75 82 -75q35 0 57.5 20.5t22.5 54.5t-22 60t-58 26z" />
    <glyph glyph-name="P" unicode="P" horiz-adv-x="1509" 
d="M1419 948q4 -122 -28 -217.5t-86.5 -150t-121 -92t-134 -50t-123.5 -18t-92 -2.5l-35 2q24 -118 12 -196t-49 -122t-76.5 -65t-70.5 -26l-31 -5q-66 -7 -124 5.5t-99 37t-75 56.5t-55 65t-35 60.5t-20 45.5l-6 17q-36 119 -48 246t-4 223t21 175t26 121l13 42
q30 87 80.5 154.5t107 106.5t118 66t117.5 36t100.5 13.5t70.5 2.5l27 -2q98 -3 182 -23.5t142.5 -51.5t107 -71t78.5 -83t52 -86t33 -81.5t17 -68t7 -46.5zM795 989q-35 0 -60 -26.5t-22 -59.5q5 -76 82 -76q34 0 56.5 20.5t22.5 55.5t-21.5 60.5t-57.5 25.5z" />
    <glyph glyph-name="Q" unicode="Q" horiz-adv-x="1705" 
d="M1479 422q40 -30 66.5 -54.5t53 -63t34 -76.5t-4.5 -89.5t-49 -107.5q-43 -65 -99 -97.5t-107.5 -32.5t-100.5 17.5t-84.5 46t-52.5 58.5q-62 -26 -127.5 -41t-100.5 -17l-35 -2q-154 0 -279 38.5t-201.5 100t-133.5 136t-82.5 149.5t-40.5 136.5t-17 100.5l-1 38
q0 174 41.5 310.5t108 216t147 135t161.5 76.5t147.5 31t107.5 7l42 -2q137 0 248.5 -38.5t179.5 -100t118.5 -136.5t73.5 -149.5t36 -136t14 -99.5l2 -39q0 -182 -65 -315zM872 758q-35 0 -59.5 -26.5t-21.5 -59.5q5 -76 81 -76q35 0 57.5 20.5t22.5 55.5q0 34 -22 60
t-58 26z" />
    <glyph glyph-name="R" unicode="R" horiz-adv-x="1406" 
d="M1272 1063q14 -88 9.5 -160.5t-22.5 -129t-37.5 -95t-35.5 -58.5l-15 -20q81 -69 130 -137.5t63 -122.5t11.5 -103.5t-20.5 -85t-37 -62t-34 -39.5l-16 -13q-63 -50 -126.5 -60.5t-115 11.5t-101 65t-84.5 90.5t-64.5 98t-42.5 78.5t-17 40q10 -75 4 -131.5t-26 -97
t-45.5 -67.5t-54 -43t-52 -24t-39.5 -11l-15 -2q-56 -7 -105.5 2.5t-83.5 30.5t-62 48.5t-45 56t-29 52.5t-16 40l-5 15q-38 133 -53.5 266.5t-10.5 228.5t15.5 171.5t22.5 114.5l12 39q19 72 51 132t70.5 100t83 71.5t89 49.5t87.5 30t80.5 15.5t66 5t44.5 0.5l16 -1
q77 0 145.5 -13.5t118.5 -36.5t93 -52t72.5 -61t52.5 -64.5t36 -61.5t22 -51.5t12 -35.5zM717 922q-35 0 -60 -26.5t-22 -59.5q5 -76 82 -76q35 0 57.5 20.5t22.5 55.5q0 34 -22 60t-58 26z" />
    <glyph glyph-name="S" unicode="S" horiz-adv-x="1280" 
d="M627 942q98 -13 180.5 -36.5t139.5 -53t102.5 -63.5t72 -69t46 -68.5t27 -63t12 -51.5t3.5 -35v-13q0 -80 -18 -148t-49 -115.5t-71 -86.5t-84 -63t-88 -42t-84 -26.5t-71 -13.5t-49 -6h-18q-102 -7 -182.5 -1.5t-141.5 21t-106 37t-75.5 48t-50 53t-30 51t-15 44
t-5.5 31.5v11q-1 73 24 127.5t66 84t90.5 48t99 22.5t91 4.5t67.5 -3.5l25 -3q-76 17 -138.5 45.5t-104 61.5t-73 71t-48.5 75.5t-28 74t-14 67.5t-3.5 54.5t1.5 37.5l2 13q12 84 43.5 150t73 105.5t89.5 67t93 39t82 17t60 4.5h22q93 4 170.5 -1t132 -18t98.5 -31.5
t69.5 -41.5t44.5 -48.5t25 -51.5t10 -51.5t-1 -47.5q-6 -55 -37.5 -96.5t-77 -64t-99.5 -36.5t-107 -17.5t-96 -3.5t-70 3z" />
    <glyph glyph-name="T" unicode="T" horiz-adv-x="1468" 
d="M457 850q-9 -1 -24 -2t-58 0.5t-82.5 8t-87.5 25t-82.5 47t-58 78t-23.5 113.5q0 56 15 102.5t38.5 77t52.5 54t58 36t52.5 20.5t38.5 10l15 3q122 25 257 35t240.5 6.5t194.5 -11t137 -15.5l48 -8q51 -11 91.5 -31.5t65 -44.5t41.5 -50.5t24.5 -51t11 -44t3.5 -31.5v-12
q-2 -71 -24.5 -126t-56.5 -86t-74.5 -51.5t-80.5 -27.5t-73 -9.5t-54 -0.5l-20 2q20 -116 27 -225t3.5 -182.5t-10 -130t-13.5 -82.5l-7 -27q-11 -52 -32 -93.5t-46.5 -66t-53.5 -42t-53.5 -24.5t-46.5 -10.5t-34 -2.5h-12q-5 -1 -14 -1t-36.5 2.5t-53 9t-58.5 23
t-59.5 41.5t-50 67.5t-35.5 96.5q-26 123 -26 280.5t13 254.5z" />
    <glyph glyph-name="U" unicode="U" horiz-adv-x="1570" 
d="M440 1456q6 0 15.5 -0.5t37 -7t52.5 -17t55.5 -34t52.5 -55t37 -83t15 -114.5q0 -31 -0.5 -75.5t-1 -74t-0.5 -67t2 -62.5t5 -52.5t9 -45t14.5 -32.5t21.5 -22t29 -7q65 0 78 132q6 65 0 293v13q-2 64 13 115t40 81t55.5 52t61.5 31t57 13.5t42 4.5h16q78 4 141 -17.5
t97 -55t57 -68.5t30 -59l7 -25q26 -115 33 -240.5t-2 -222t-21 -176.5t-23 -123l-12 -43l-8.5 -25.5t-28 -62.5t-52 -88t-83.5 -93.5t-117.5 -88t-157.5 -61.5t-202 -24q-90 1 -171.5 17.5t-139 42t-106.5 56.5t-80 62t-53 56t-31 41l-9 16q-57 97 -90 224t-38.5 239
t-3 209.5t10.5 155.5l8 57q13 70 39 125t57 87t65 54.5t65 30.5t56.5 12t40.5 3z" />
    <glyph glyph-name="V" unicode="V" horiz-adv-x="1650" 
d="M858 868q2 14 5.5 39t20 95t38.5 132t63.5 134.5t92.5 120.5t128.5 71.5t167.5 3.5q68 -15 116 -51t72.5 -84t36.5 -106.5t9 -119.5t-11 -120.5t-22 -112.5t-26.5 -93t-21.5 -63l-9 -24q-3 -9 -8.5 -24.5t-25.5 -63.5t-42 -94t-58 -109t-74.5 -117.5t-90 -109.5
t-105.5 -94t-120.5 -63.5t-135.5 -24.5q-74 0 -144 21.5t-126 54t-109 85t-92 101t-78 116t-63 116t-51 115t-38.5 98.5t-27.5 81q-211 605 217 682q83 15 156.5 -10t124 -76t92 -116.5t66.5 -134t42.5 -125.5t24.5 -94z" />
    <glyph glyph-name="W" unicode="W" horiz-adv-x="2039" 
d="M1405 -16q-77 0 -139.5 23t-101 56.5t-67.5 81t-42 87.5t-21 85.5t-9 65t-1 35.5q-2 -18 -6.5 -42t-17 -68.5t-30.5 -85.5t-50 -86.5t-71 -78.5t-97.5 -55t-126.5 -22q-56 0 -109.5 17.5t-93.5 45t-75 60.5t-59 66.5t-41.5 61t-25.5 45.5l-8 17q-42 95 -73 204.5t-45 198
t-22 163.5t-9 117l-1 42q-5 91 10 164.5t42.5 118.5t62 78.5t70 48.5t65 23.5t47.5 9.5l19 1q77 0 140.5 -27.5t106 -70.5t75 -103.5t50.5 -116.5t30 -121t16 -106t6 -81q2 79 24 136t52.5 82t60.5 38t51 14h21q49 0 88.5 -17.5t63 -44.5t40.5 -60t24.5 -66t11 -60t3.5 -44
v-17q0 107 12.5 198t34 154.5t49 115.5t57.5 83.5t60.5 55t58 34t49 17t34.5 7.5h12q77 1 138.5 -22.5t99 -63t64.5 -87t39 -95t18.5 -87t6.5 -64.5v-25q0 -124 -15 -246t-37 -207t-43.5 -152.5t-36.5 -100.5l-15 -33q-39 -87 -97 -149t-113 -89t-104.5 -41.5t-79.5 -15.5
h-30z" />
    <glyph glyph-name="X" unicode="X" horiz-adv-x="1705" 
d="M823 1104q3 8 9 21t26.5 51.5t42.5 73.5t57.5 78t72.5 74.5t85.5 54t98 25t108.5 -20.5t119 -75q61 -53 87 -118.5t18 -127.5t-32 -124.5t-60 -114.5t-68.5 -92.5t-56.5 -62.5l-23 -23q10 -7 26 -20t58 -54t75 -83.5t62.5 -105t35 -122t-21.5 -130.5t-94 -134t-137 -86
t-129 -9.5t-116 48.5t-100.5 81.5t-80 97t-57 87.5t-29.5 59q-3 -8 -9 -21.5t-26.5 -52t-42.5 -74t-57.5 -79t-71.5 -75.5t-83.5 -54.5t-95.5 -24.5t-105.5 22.5t-114.5 78.5q-54 51 -83.5 106t-33 105.5t6.5 101.5t34.5 95t53 84.5t59.5 72t56 54.5t42 35l16 13
q-7 4 -19 12t-47 34.5t-65.5 54.5t-67.5 70t-61.5 83.5t-38 93t-7 100.5t40.5 103.5t97 104.5q58 46 117 65.5t110 13.5t100.5 -27t90.5 -55t77.5 -72t64 -76.5t47.5 -69.5t30 -50z" />
    <glyph glyph-name="Y" unicode="Y" horiz-adv-x="1515" 
d="M799 1120q23 85 58 151.5t71.5 104t75.5 63t73.5 33.5t61.5 11.5t43 1.5l16 -2q71 -8 124 -33.5t81.5 -59t46 -72t21 -75.5t3 -67.5t-3.5 -49.5l-4 -18q-20 -84 -65.5 -160t-96.5 -124.5t-99 -85t-79 -52.5l-32 -16q30 -96 35.5 -188.5t-7.5 -155.5t-30 -113t-32 -74
l-16 -24q-46 -65 -105 -93t-140 -28q-49 0 -93 9.5t-72 23.5t-49 28t-31 23l-9 10q-49 55 -75.5 133.5t-30 151.5t0 138t11.5 105l8 39q-8 3 -21.5 9t-52.5 28t-75.5 46.5t-82.5 65t-81 84t-63 102.5t-36 122q-10 73 0.5 134t34.5 100t55.5 68.5t65 44.5t61.5 24.5t46 11.5
l18 2q74 5 140.5 -13.5t113 -51.5t85 -74t62.5 -82.5t40.5 -76.5t22.5 -57z" />
    <glyph glyph-name="Z" unicode="Z" horiz-adv-x="1488" 
d="M500 803q-9 -1 -24.5 -1.5t-59.5 3t-84.5 12t-89.5 30t-84.5 53t-59.5 85.5t-24 123q-1 7 -0.5 19.5t10.5 47.5t30 66.5t66.5 70t112 65.5t174.5 44t246 15q221 -4 348.5 -39.5t174.5 -100t32 -166.5q-2 -11 -7 -31t-29 -81t-58 -122t-99.5 -145.5t-148.5 -158.5
q10 1 28 3t69.5 2.5t98.5 -5t104.5 -23.5t98.5 -48t69.5 -84t28.5 -126q0 -73 -22 -129.5t-53 -93t-88.5 -62t-102.5 -38t-123.5 -19t-122.5 -7.5t-127 -1h-36q-90 0 -136 1t-122.5 7t-119.5 20t-94 38.5t-82.5 65t-50.5 95.5q-29 97 -5 186.5t83.5 167.5t121.5 136t109 92z
" />
    <glyph glyph-name="bracketleft" unicode="[" horiz-adv-x="1263" 
d="M1024 45q54 -4 92 -20.5t53.5 -38t23.5 -42t7 -34.5v-14v-16t-8.5 -36.5t-24.5 -49t-54 -46t-91 -33.5q-115 -22 -229.5 -27.5t-192.5 1t-141 20.5t-114.5 46t-84 72t-56.5 85.5t-35.5 88t-18.5 77t-8 55.5l-1 21q-16 110 -18.5 412.5t3.5 549.5l5 248q-1 6 -1.5 16.5
t1.5 42.5t8 62.5t21 71.5t37 75q12 29 67.5 69t100.5 54q131 41 333.5 48t356.5 -25q49 -10 84 -29t49.5 -38t22 -37t7.5 -29l-1 -11q0 -5 -0.5 -13t-8.5 -30.5t-24.5 -41t-53 -37.5t-88.5 -27q-59 -9 -372 -29q3 -18 6 -58.5t4 -51.5q15 -183 12.5 -471.5t-9 -508
t-13.5 -321.5q161 13 354 0z" />
    <glyph glyph-name="backslash" unicode="\" horiz-adv-x="1013" 
d="M766 -68q-5 -2 -14 -3.5t-34 -0.5t-48.5 9t-51 33.5t-47.5 66.5q-14 31 -37.5 86.5t-88 218.5t-118 318t-109.5 354.5t-81 357.5q-8 59 -1 98t24 61t35 32.5t31 12.5l14 3q6 2 17 4.5t41.5 2t57.5 -10.5t59.5 -41.5t53.5 -81.5q93 -222 239.5 -676t168.5 -649
q5 -48 -4.5 -85.5t-27 -57t-35.5 -32.5t-31 -16z" />
    <glyph glyph-name="bracketright" unicode="]" horiz-adv-x="1191" 
d="M215 1475q-54 4 -92 20.5t-53.5 38t-23.5 42t-8 34.5l1 14v16t8.5 36.5t24.5 48.5t54 45.5t91 33.5q115 22 229.5 27.5t192.5 -1t141 -20.5t114.5 -46t84 -72t56.5 -85t35.5 -87.5t18.5 -77t8 -55.5l1 -21q16 -110 18.5 -412.5t-2.5 -549.5l-6 -248q1 -6 1.5 -16.5
t-1.5 -43t-8 -63t-21 -71.5t-37 -75q-12 -29 -67.5 -69t-100.5 -54q-131 -41 -333.5 -47.5t-356.5 25.5q-49 10 -84 28.5t-49 38t-21.5 37t-7.5 28.5l1 11v13.5t8.5 30.5t24.5 41t52.5 38t88.5 27q32 5 81.5 9.5t89.5 7t105.5 6t95.5 5.5q-3 18 -6 58.5t-4 52.5
q-15 183 -12.5 471.5t9 508t13.5 321.5q-161 -13 -354 0z" />
    <glyph glyph-name="asciicircum" unicode="^" horiz-adv-x="1300" 
d="M117 1116l17 26q18 26 45 62.5t65 83t84.5 91t96.5 82t108 60.5t112 23q53 0 110.5 -23.5t107.5 -60t99.5 -82.5t87 -90t68 -83.5t45.5 -62t17 -26.5q31 -45 34 -106t-25.5 -120t-82.5 -93q-90 -52 -167.5 -32t-135.5 99q-60 76 -154 164q-52 -53 -102 -108t-74 -84
l-24 -29q-5 -6 -14.5 -15.5t-41 -27t-64.5 -23t-83 9t-99 56.5q-62 53 -71.5 149.5t41.5 159.5z" />
    <glyph glyph-name="underscore" unicode="_" horiz-adv-x="1404" 
d="M1141 303q53 -6 91.5 -24.5t55.5 -41.5t26.5 -45t9.5 -36l1 -15q0 -3 0.5 -8.5t-0.5 -21t-5 -30.5t-14 -34t-25 -34.5t-41.5 -28.5t-59.5 -19q-149 -25 -409 -28.5t-458 14.5q-53 4 -92 23t-56.5 42t-27.5 45.5t-11 38.5l-1 15q0 3 -0.5 9t1.5 23t7.5 32.5t19 36t33.5 37
t54.5 30.5t78.5 20q175 24 380.5 24t323.5 -12z" />
    <glyph glyph-name="grave" unicode="`" horiz-adv-x="770" 
d="M373 1573q64 -21 147.5 -78.5t118.5 -101.5q3 -3 7.5 -9t14.5 -23.5t15 -35.5t4 -43.5t-12 -48.5q-13 -25 -34 -40t-42 -19t-40.5 -4.5t-31.5 2.5l-12 2q-9 1 -24.5 4t-59.5 13.5t-83.5 24t-87 37.5t-79.5 52q-36 31 -51 66t-9.5 66t18 55.5t30.5 43.5q19 18 34 28.5
t40 19.5t59 6.5t78 -17.5z" />
    <glyph glyph-name="a" unicode="a" horiz-adv-x="1441" 
d="M496 1051q81 8 147.5 -5t103.5 -34t64 -50t35 -44.5t12 -26.5q2 8 7.5 22t23.5 42.5t42 51t67 40.5t94 18q62 0 112.5 -29t82 -75t54.5 -101.5t33.5 -111t16.5 -101.5t7 -75l1 -29q5 -100 -2 -184t-22.5 -141t-37.5 -102t-47.5 -71.5t-51 -44.5t-49.5 -25t-42.5 -10.5
t-29.5 -2.5l-11 1q-1 2 -11.5 0t-29.5 2t-41.5 8.5t-46.5 19.5t-45 34.5t-37.5 53t-22.5 75.5q-2 -9 -8 -23.5t-35 -50.5t-70.5 -61.5t-122 -40.5t-181.5 -3q-8 0 -22.5 1.5t-55 12.5t-78 28.5t-83 54.5t-78 85.5t-55 127t-22.5 174.5q-1 11 -1.5 31t4.5 77.5t17.5 111
t43.5 119.5t76 116t121.5 88t173.5 47zM768 569q-35 0 -60 -26.5t-22 -59.5q5 -75 82 -75q35 0 57.5 20.5t22.5 54.5t-22 60t-58 26z" />
    <glyph glyph-name="b" unicode="b" horiz-adv-x="1392" 
d="M434 1567q71 -7 122.5 -42t76 -86t38 -111.5t12.5 -119t-5 -107t-10 -78.5l-6 -30q7 3 19 8t50.5 15t77.5 14.5t94.5 1t107 -19t110 -53t108.5 -93.5q86 -98 100.5 -272.5t-45.5 -296.5q-26 -56 -61 -102.5t-67 -74t-60 -46.5t-45 -26l-17 -7q-160 -70 -318.5 -63.5
t-290.5 68.5t-206 159q-68 89 -105 228.5t-40.5 274t2.5 256.5t18 198l12 75q1 7 3 20t12.5 49.5t24.5 69t40.5 71.5t58.5 66t81.5 43t107.5 11zM713 592q-35 0 -60 -26.5t-22 -59.5q5 -76 82 -76q35 0 57.5 20.5t22.5 55.5q0 34 -22 60t-58 26z" />
    <glyph glyph-name="c" unicode="c" horiz-adv-x="1167" 
d="M786 584q-6 2 -15.5 4t-34 4t-43.5 -2t-34.5 -20.5t-15.5 -45.5q0 -4 1 -10.5t8.5 -21t21.5 -23t43.5 -8t70.5 15.5q4 2 11.5 5t31 9t47 8t55.5 -2t61 -15.5t60.5 -38.5t55.5 -66q4 -7 10 -20t12.5 -51.5t1 -75.5t-37 -86.5t-88.5 -90.5l-16.5 -11t-46.5 -24.5t-75 -30.5
t-100 -23t-124 -8.5t-144 19.5t-162 54q-5 2 -14.5 7t-37 24.5t-52 43.5t-55 65.5t-52 89.5t-36.5 117t-15 146v24t6 60.5t18 89t39 100t64.5 103t100 89.5t140.5 67q7 2 20.5 6t54.5 12t82.5 11.5t100 0.5t112 -15.5t112.5 -42.5t108 -75l10.5 -10.5t21 -30.5t22.5 -51
t7.5 -70t-16.5 -88q-1 -2 -2.5 -5.5t-7.5 -14.5t-14 -21t-21.5 -23t-29.5 -23.5t-39 -20t-48.5 -14t-60 -4t-72.5 7.5z" />
    <glyph glyph-name="d" unicode="d" horiz-adv-x="1531" 
d="M1411 61q-28 -30 -63 -47t-67.5 -20t-65.5 0.5t-60 12.5t-48.5 18t-33.5 15l-12 7q-160 -83 -371.5 -90.5t-361.5 68.5q-7 4 -19 11t-45 32t-60.5 54t-56 76t-41.5 99q-17 67 -21 141.5t6.5 154.5t46 156.5t93.5 131.5q51 49 111.5 81.5t116 45.5t110.5 17.5t99.5 -0.5
t79.5 -11t54 -12l19 -7q-1 7 -3 19.5t-5.5 50t-4.5 74t2.5 86t12 92t28 86t47.5 74t72.5 50t100.5 19.5q63 0 115.5 -21t86.5 -54t60 -73t39.5 -80.5t22 -73.5t10.5 -54l2 -21q2 -16 4.5 -43.5t5.5 -111.5t0 -166.5t-17.5 -194t-41.5 -207.5q57 -27 89 -77t35 -105
t-15.5 -109.5t-55.5 -93.5zM811 569q-35 0 -60 -26.5t-22 -59.5q5 -75 82 -75q35 0 57.5 20.5t22.5 54.5t-22 60t-58 26z" />
    <glyph glyph-name="e" unicode="e" horiz-adv-x="1198" 
d="M735 424q42 -34 98 -51t102 -21.5t88.5 -13t70 -36.5t34.5 -81q1 -6 1.5 -16t-4.5 -38.5t-18 -53.5t-45 -54.5t-79 -48.5q-13 -4 -35.5 -10.5t-93.5 -17.5t-142.5 -12.5t-173 15t-194.5 54.5q-6 2 -16.5 7t-41 24.5t-58 43.5t-60.5 66t-56 90t-37.5 117.5t-11.5 147.5
q0 8 0.5 22.5t7.5 58t18.5 84.5t37 95.5t60 99.5t91 88t125.5 68q8 3 21.5 7t56 12t85.5 12t104.5 0.5t118 -16.5t120.5 -44.5t117 -79.5q5 -4 12.5 -12t27 -35t34.5 -58t27.5 -80t13.5 -102q1 -61 -23 -108.5t-64.5 -74.5t-93 -43.5t-110 -15t-115.5 10.5zM682 684
q-35 0 -60 -26.5t-22 -59.5q5 -76 82 -76q35 0 57.5 20.5t22.5 55.5q0 34 -22 60t-58 26z" />
    <glyph glyph-name="f" unicode="f" horiz-adv-x="1169" 
d="M864 1051q6 2 16.5 5t41 8t58.5 6t62 -5.5t59.5 -21.5t43.5 -47t20 -78q3 -61 -22.5 -101.5t-63.5 -55t-76.5 -19.5t-66.5 -2l-27 3q2 -10 4 -27t7 -69t7 -102.5t-1 -119.5t-13 -128.5t-31.5 -120.5t-53 -105t-82 -72.5t-115.5 -31.5q-103 -5 -171.5 28t-103.5 99
t-51.5 162.5t-16.5 219t1 267.5q-6 -2 -16 -4.5t-39 -7t-55.5 -4.5t-59.5 8t-57 25t-42 51t-20 82q-2 47 17.5 82t51.5 53.5t72 27.5t77.5 8t70.5 -9q-1 8 -2 22t2 57t12.5 85t34.5 98.5t63 105.5q4 5 11 13t32.5 30.5t56 41t81.5 37t107 27t134.5 3t163.5 -28.5
q7 -2 18.5 -6t39.5 -19.5t49 -34.5t35.5 -53.5t9.5 -74.5q0 -5 -1 -14t-9.5 -31.5t-21.5 -39t-41.5 -30t-66.5 -12.5q-4 0 -10.5 -0.5t-24.5 -4t-33.5 -10t-31 -21.5t-23.5 -36q-2 -4 -4 -11t-5 -35t-1 -62z" />
    <glyph glyph-name="g" unicode="g" horiz-adv-x="1392" 
d="M436 -545q-76 27 -120 68t-53.5 80.5t-7.5 75t11 57.5l10 22q17 37 48 61t64 32t64 11t50 1l20 -2q68 3 116.5 20t69 39t31.5 44t11 37v15q-14 -4 -39 -8.5t-96 -8.5t-135.5 4t-143 41.5t-133.5 92.5q-89 94 -118 252.5t17 284.5q21 57 51 108.5t58.5 83t54 55.5t40.5 34
l16 10q129 77 288.5 86t296.5 -38.5t228 -133.5q63 -59 106.5 -140.5t64 -164t30 -168t6.5 -159.5t-8 -133t-11 -92l-6 -34q-21 -119 -64.5 -213.5t-99.5 -153.5t-122.5 -101t-135 -60t-135 -27t-125 -5t-103 9t-70.5 11zM723 530q-35 0 -60 -26.5t-22 -59.5q5 -75 82 -75
q35 0 57.5 20.5t22.5 54.5t-22 60t-58 26z" />
    <glyph glyph-name="h" unicode="h" horiz-adv-x="1497" 
d="M1432 471q1 -9 1.5 -24.5t-2 -60.5t-10 -87t-28 -95t-50.5 -94t-81.5 -74.5t-118.5 -45.5l-54 -2q-163 4 -241 108q-50 68 -55 176q-19 289 -72 289q7 -88 7.5 -164t-2.5 -107l-3 -32q0 -6 -1.5 -15.5t-9.5 -38t-20 -54.5t-35.5 -57.5t-54 -54.5t-78.5 -38.5t-106 -15.5
t-106.5 15.5t-79.5 40.5t-55.5 55.5t-37 61t-21 55.5t-10.5 40l-2 16q-3 17 -6.5 47.5t-11 130.5t-10 205t3.5 262t24 310q0 7 1.5 18.5t9 45.5t19 65t35.5 68t55 64t81 45t111 17q182 -3 263 -154.5t69 -426.5l22 11t57 23t85 25.5t100.5 11t109.5 -11.5t104.5 -51
t94 -99.5t70.5 -164.5t39 -238z" />
    <glyph glyph-name="i" unicode="i" horiz-adv-x="796" 
d="M623 1358q9 -91 -57 -164.5t-167 -83.5q-104 -10 -182.5 47t-89.5 150q-9 91 57 164t168 83q102 11 182 -46.5t89 -149.5zM711 207q-8 -50 -28.5 -90t-46.5 -64t-55 -42t-57 -25.5t-50.5 -12t-35.5 -4.5h-14q-47 -2 -88.5 7t-70.5 24.5t-52.5 35t-38 39t-24 36
t-13.5 26.5l-4 10q-31 83 -43 182.5t-7 181.5t14 152t19 110l9 40q19 70 55.5 120.5t74.5 72.5t73.5 34t58.5 12l23 1q51 3 95.5 -9t74.5 -33t54.5 -47.5t38.5 -53t23.5 -49t13.5 -36.5l3 -14q3 -9 6.5 -26t11 -75.5t10 -123.5t-4.5 -168t-25 -211z" />
    <glyph glyph-name="j" unicode="j" horiz-adv-x="829" 
d="M672 1323q-4 -95 -86 -159.5t-191 -59.5q-109 6 -183.5 78t-70.5 168q6 95 87 159t190 58q110 -4 184.5 -76t69.5 -168zM711 -141q-1 -8 -4 -21.5t-15.5 -54t-29.5 -78.5t-48 -85.5t-69 -84.5q-49 -48 -117.5 -78t-131 -38.5t-118 -10t-88.5 3.5l-33 4q-55 8 -95 29.5
t-58 46t-28.5 48t-11.5 38.5l-1 16q-4 45 7 80.5t30 54t39 30.5t35 15l14 3q33 4 56 34.5t32 71t14 80t4 67.5v27q4 43 5 262.5t14 479.5q2 52 19.5 94t43 66.5t56 42.5t60 25.5t54.5 11t40 3.5h15q64 0 116 -13.5t84.5 -35.5t57 -48.5t36.5 -52.5t19 -48t8 -36l1 -13
q3 -17 7.5 -49t12 -133t9.5 -205t-7.5 -255t-33.5 -294z" />
    <glyph glyph-name="k" unicode="k" horiz-adv-x="1476" 
d="M739 1112q132 182 287 182q53 0 103.5 -22t74.5 -44l25 -22q69 -74 69 -172q0 -46 -16.5 -96.5t-40 -89.5t-46.5 -71t-39 -49l-17 -17q121 -76 211 -215.5t90 -264.5q0 -70 -42 -130t-104.5 -92t-126.5 -32q-75 0 -146 46.5t-119 108t-88 134.5t-57 114.5t-22 59.5
q0 -1 0.5 -8t1 -18t0.5 -23q0 -37 -3.5 -74.5t-13.5 -89t-32 -94.5t-54 -81.5t-84 -60.5t-118 -22q-64 0 -118 28t-86 66t-54.5 80t-31.5 67.5t-9 29.5q-53 212 -53 473q0 130 12 263t24 201l13 68q9 35 14 52.5t18 53.5t26 56t36.5 48t50.5 42.5t66 25.5t86 11
q65 0 117.5 -24t84.5 -57.5t55 -83t33.5 -87.5t16 -84t6 -59.5t0.5 -26.5z" />
    <glyph glyph-name="l" unicode="l" horiz-adv-x="806" 
d="M80 414q-16 164 -14 327t13 285l11 121q1 8 2.5 23t10 57t21 80t37.5 85t57 80.5t82.5 56.5t111.5 23h10t25.5 -3t38.5 -9t45.5 -20.5t50 -35t48.5 -54.5t44 -76.5t34 -103.5t21 -134q15 -223 13 -408.5t-12 -305.5l-11 -121q0 -7 -1.5 -18.5t-9.5 -44t-20.5 -62.5
t-37.5 -66t-58 -61.5t-84.5 -42.5t-114.5 -15q-59 2 -107.5 27t-80 64.5t-56 86.5t-37 93.5t-20.5 85t-10 62.5z" />
    <glyph glyph-name="m" unicode="m" horiz-adv-x="2035" 
d="M1665 1024q82 -26 141 -85t88 -132t45 -155.5t16 -159t-3.5 -139t-9.5 -100.5l-7 -38q-1 -5 -3.5 -14t-11.5 -34t-21.5 -48t-34.5 -51.5t-48.5 -48.5t-66 -34t-84.5 -14q-62 0 -112 21.5t-82 55t-56 78t-36 86t-18.5 84t-8 67.5t-0.5 40q-2 -23 -5 -45.5t-13.5 -69.5
t-25 -86t-41.5 -85t-60.5 -77.5t-84.5 -53t-112 -21.5t-113 21.5t-86.5 54.5t-62 79t-43 87t-26.5 87t-14.5 71t-5.5 47q0 -17 -1.5 -41.5t-9 -68.5t-19 -86t-34 -87.5t-51.5 -79.5t-75 -56t-102 -22q-51 0 -94 14t-71 37t-49.5 50.5t-33.5 55t-19.5 50.5t-9.5 37l-2 14
q-1 9 -2.5 24t-4 61.5t-3 93t4 111.5t14 122.5t28.5 120.5t46.5 112t70 89.5t96.5 60.5q95 35 181 39.5t150 -16t119.5 -58t92.5 -81t66 -90.5t43 -80.5t20 -57.5q7 24 20.5 56t41 77.5t63 86.5t89.5 78t116 57.5t147 19.5t178 -31z" />
    <glyph glyph-name="n" unicode="n" horiz-adv-x="1466" 
d="M1432 471q1 -9 1.5 -24.5t-2 -60.5t-10 -87t-28 -95t-50.5 -94t-81.5 -74.5t-118.5 -45.5l-54 -2q-163 4 -241 108q-50 68 -55 176q-19 289 -72 289q7 -88 7.5 -164t-2.5 -107l-3 -32q0 -6 -1.5 -15.5t-9.5 -37.5t-20 -54t-35.5 -57.5t-54 -54t-78.5 -38.5t-106 -17
q-55 -1 -101.5 14.5t-77.5 40.5t-56 55t-39 61t-23 56t-12 41l-3 16q-2 7 -5 21t-10 61t-11.5 98.5t-4.5 130.5t7 160q1 6 2.5 17.5t9.5 43.5t19.5 62t35 66.5t53.5 63.5t76.5 47.5t102.5 23.5q69 4 124 -5t86.5 -22.5t59.5 -39.5t38 -41t26 -42q8 5 23 13t60.5 27.5
t90 32.5t105.5 19.5t115 -3t110.5 -43.5t98.5 -92t73.5 -159.5t40.5 -236.5z" />
    <glyph glyph-name="o" unicode="o" horiz-adv-x="1200" 
d="M1106 238q-24 -45 -59.5 -85.5t-69 -66t-63.5 -44.5t-48 -28l-18 -8q-49 -20 -101 -31.5t-79 -12.5l-27 -1q-96 0 -178 18t-139 48t-103.5 69t-75 82t-49.5 86t-31 82t-15.5 69t-5.5 48l-1 18q0 129 33 230.5t85.5 161t116.5 100.5t128 57t116.5 23.5t85.5 5.5l33 -2
q85 0 157 -17.5t122.5 -47.5t91.5 -69t66.5 -82t44 -86t27 -82t13.5 -69t5 -48l1 -17q0 -178 -63 -301zM629 561q-35 0 -60 -26.5t-22 -59.5q5 -76 82 -76q35 0 57.5 20.5t22.5 55.5q0 34 -22 60t-58 26z" />
    <glyph glyph-name="p" unicode="p" horiz-adv-x="1404" 
d="M72 -156q-2 15 -5 41t-7 105.5t-3 157t12 184t32.5 199t65 189t103.5 165.5q93 107 250 156.5t323.5 34t297.5 -88.5q7 -4 18.5 -12t44 -35.5t59.5 -58.5t56 -82.5t43 -106.5q17 -67 17.5 -150.5t-15 -165.5t-52 -156.5t-87.5 -117.5q-74 -61 -160.5 -90.5t-156 -27.5
t-128.5 13t-92 25l-33 15q2 -7 4 -19.5t7 -50t7 -74t-0.5 -86t-11 -92t-28 -86t-48.5 -74t-75.5 -50t-106.5 -19.5t-110.5 19.5t-83.5 51.5t-59 70t-40 76t-23.5 70t-12.5 51zM752 561q-35 0 -60 -26.5t-22 -59.5q5 -76 82 -76q34 0 56.5 20.5t22.5 55.5t-21.5 60.5
t-57.5 25.5z" />
    <glyph glyph-name="q" unicode="q" horiz-adv-x="1488" 
d="M1108 -500q-56 0 -102 19t-75.5 50.5t-52 73t-33.5 87.5t-17.5 91.5t-7 87t0 73t2.5 50.5l2 19q-6 -4 -18 -9.5t-49 -18.5t-75 -21.5t-93.5 -11.5t-108 5.5t-114 35t-115.5 71.5q-59 48 -98 123.5t-52.5 158.5t-9 167t26.5 156q18 57 51 110t67 87t65 60.5t51 37.5l20 12
q149 78 338.5 83.5t353 -58t242.5 -175.5q66 -93 104 -235t45 -278t4.5 -259t-11.5 -198l-9 -76q-1 -7 -3 -18.5t-11.5 -44.5t-23 -63t-40 -66.5t-59.5 -63t-84 -44.5t-111 -18zM772 561q-35 0 -60 -26.5t-22 -59.5q5 -76 82 -76q35 0 57.5 20.5t22.5 55.5q0 34 -22 60
t-58 26z" />
    <glyph glyph-name="r" unicode="r" horiz-adv-x="1224" 
d="M649 918q39 56 90.5 91.5t96.5 46t84.5 13t62.5 -2.5l23 -5q58 -15 99.5 -46t60.5 -70t27 -71t9 -65q2 -49 -10 -93t-30.5 -71t-37 -47t-32.5 -28l-13 -9q-48 -28 -102.5 -34.5t-97 4.5t-78.5 26.5t-56 28.5l-20 14q18 -140 10.5 -241.5t-35.5 -168.5t-65.5 -108.5
t-79 -61.5t-76 -27.5t-57.5 -6.5h-23q-47 -1 -89 9t-71 27.5t-53 39t-39 43t-25 39.5t-14 29l-4 11q-27 82 -41 181.5t-14 182.5t3.5 154.5t9.5 112.5l6 41q16 73 54 125t80.5 74.5t83 34.5t66.5 12h27q64 2 115.5 -16t79 -45.5t46 -55.5t24.5 -47z" />
    <glyph glyph-name="s" unicode="s" horiz-adv-x="1148" 
d="M645 651q97 -12 174.5 -37.5t123 -56.5t78 -66t46 -67.5t20 -58.5t5.5 -42v-16q0 -73 -24.5 -133t-64 -97.5t-87.5 -65.5t-95.5 -41.5t-87 -21.5t-63.5 -10l-25 -1q-124 -5 -222.5 6t-157 32.5t-100.5 48.5t-59.5 55t-27 51.5t-8.5 38.5v15q-2 56 18.5 100.5t54.5 72
t76 48t84 29.5t77 14.5t57 5.5l22 1q-75 18 -134.5 44t-95.5 53t-61.5 56.5t-36.5 55t-16.5 46t-5.5 32.5v12q3 71 34 128t77 91t101.5 59t110.5 35.5t100 16.5t73 6h28q112 -2 194 -16.5t131.5 -36t78.5 -53.5t38.5 -65.5t7.5 -76.5q-2 -50 -27.5 -88t-64.5 -58
t-85.5 -32.5t-92 -15t-83.5 -2.5t-62 2z" />
    <glyph glyph-name="t" unicode="t" horiz-adv-x="1378" 
d="M393 1194q-1 8 -3 20.5t-2 50t5 71.5t23.5 75.5t48.5 71t84 49.5t125 20q69 0 123 -20t84.5 -52t51 -70.5t27.5 -77t9.5 -70.5t0.5 -52l-1 -20q8 1 22 2t54.5 -1t77 -8.5t81.5 -25.5t77.5 -47t54.5 -78t22 -114q0 -60 -20 -106.5t-52.5 -73.5t-71 -45.5t-77.5 -25
t-71.5 -9.5t-52.5 -2l-20 1q1 -9 2.5 -24t4.5 -61.5t3 -91.5t-4.5 -106.5t-14.5 -114.5t-30.5 -107t-49 -91.5t-74 -61.5t-101.5 -24q-163 0 -237.5 97t-72 250t12.5 341v7q-5 -1 -14.5 -2.5t-37.5 -3.5t-55 -2t-64.5 4.5t-69 14t-64 28.5t-55.5 46t-37.5 69t-14.5 94
q0 65 25.5 115.5t64.5 80t91 48.5t98.5 25.5t93.5 6.5z" />
    <glyph glyph-name="u" unicode="u" horiz-adv-x="1392" 
d="M420 1053q4 0 12 -1t30 -8t42.5 -17t45.5 -30.5t43.5 -47t31.5 -69.5t14 -94q0 -9 0.5 -32.5t0.5 -36.5t1 -36t3 -36.5t5 -32t8 -29.5t11.5 -21.5t16 -15.5t20.5 -5q43 0 52 47t11 198q0 55 13.5 99t34 71.5t45 47.5t49.5 29.5t45.5 15t32.5 5.5l13 1q55 3 101.5 -8
t77 -30.5t54.5 -44t36.5 -49t21 -45.5t10.5 -34l3 -13q16 -86 16 -166.5t-12.5 -151t-27 -122.5t-26.5 -82l-12 -30q-2 -7 -7.5 -18.5t-25.5 -45t-44.5 -63.5t-68 -67t-94 -62.5t-123.5 -42.5t-155 -15q-87 2 -163 15t-129 32t-97 41t-70.5 44t-45 40.5t-25.5 29.5l-7 11
q-47 69 -72.5 161t-28 174t1.5 154t12 115l8 43q12 56 36 98.5t52.5 66t59.5 39t60 20.5t52 6.5t37 -0.5z" />
    <glyph glyph-name="v" unicode="v" horiz-adv-x="1300" 
d="M664 621q2 21 7 55t33.5 118t70.5 143.5t125 98t190 15.5q71 -16 115 -55.5t58.5 -90.5t15.5 -109t-12 -113.5t-27 -100t-26 -72.5l-12 -27q-4 -10 -12.5 -28t-37 -69.5t-59.5 -98t-80 -104t-99.5 -98.5t-116.5 -69t-133 -28q-98 0 -189 46t-154.5 110t-119.5 148.5
t-85 145t-50 115.5q-19 48 -31 101.5t-12 118.5t18.5 118.5t70 97.5t132.5 60q68 13 128 -3.5t101.5 -53.5t76 -85t55 -98t34.5 -92t19 -69z" />
    <glyph glyph-name="w" unicode="w" horiz-adv-x="1724" 
d="M1217 -27q-92 0 -161.5 26.5t-105 61.5t-57 79t-26.5 71t-5 45q-3 -22 -10 -48t-31 -71t-59 -79.5t-99.5 -60.5t-146.5 -26q-64 0 -121.5 24.5t-94 59.5t-64.5 70t-40 59l-12 25q-60 115 -97 246.5t-45 205.5l-7 74q-6 68 6 123.5t35 90t52.5 60.5t59.5 38.5t55.5 19.5
t41.5 9l16 1q69 0 125.5 -19.5t94 -50t66.5 -74t45 -83.5t26 -86.5t13.5 -76t4.5 -58.5q2 59 22 101t47 60t54 28t46 10l19 1q44 0 79.5 -13.5t56.5 -34t36.5 -45.5t21.5 -50t9.5 -45.5t3.5 -33.5v-13q0 81 11 149.5t30 115.5t44 85t52 60t54 38t52 22.5t44 10t30 3.5l11 -1
q63 -1 113.5 -20t80.5 -48.5t51 -65t29.5 -70.5t13 -64.5t3.5 -47.5v-18q-3 -96 -18 -187.5t-34.5 -153.5t-38 -110t-31.5 -70l-12 -23q-36 -66 -84.5 -113.5t-91.5 -68.5t-80.5 -32t-59.5 -11z" />
    <glyph glyph-name="x" unicode="x" horiz-adv-x="1277" 
d="M641 879q4 7 12.5 19t35.5 43.5t55.5 55.5t73 46t89 26.5t100.5 -15.5t111 -69q44 -39 64.5 -85t20 -86t-14.5 -82.5t-33 -74t-42.5 -60.5t-36 -41.5t-19.5 -18.5q8 -6 22.5 -19t42 -44t49.5 -65t36.5 -80.5t12.5 -92.5t-31 -100t-87 -103q-76 -65 -150.5 -79.5t-127 7.5
t-98 64.5t-68.5 78t-33 60.5q-4 -8 -11 -21t-30.5 -47t-49.5 -60.5t-67 -51.5t-82.5 -31.5t-96 12.5t-108.5 68q-59 53 -89.5 109t-31.5 102.5t11 90.5t36 77.5t46.5 59t39.5 38.5l17 14q-6 5 -15 14.5t-32.5 39.5t-41.5 60.5t-32.5 75.5t-14.5 87t21.5 91.5t67.5 92.5
t92 67t85 28.5t75.5 -3t66 -25.5t55.5 -40t45 -45.5t32.5 -43t20.5 -31.5z" />
    <glyph glyph-name="y" unicode="y" horiz-adv-x="1456" 
d="M1241 1034q5 -2 13.5 -5.5t30.5 -20.5t39.5 -39.5t33 -65.5t19 -96t-10 -133t-47.5 -174q-43 -119 -94.5 -235t-94.5 -197.5t-79.5 -145.5t-56.5 -96l-21 -31q-4 -8 -11.5 -21t-33 -48.5t-53 -65.5t-71 -62t-88 -48.5t-102.5 -15t-116 29.5q-257 123 -28 602q5 11 7 16
l-71 66q-80 61 -150 136.5t-100 121.5l-31 45q-4 5 -10 15t-20 41t-23 62.5t-11.5 76t7.5 86.5t40.5 89.5t81.5 88.5q5 3 13 8t35.5 15t55.5 15t69.5 1.5t81.5 -18.5t88 -51t92 -91q23 -30 120 -168q75 136 132 203q170 198 364 110z" />
    <glyph glyph-name="z" unicode="z" horiz-adv-x="1212" 
d="M129 154q-15 62 -5.5 120t36.5 109.5t61.5 94.5t68.5 75t58 51t30 23h1q-4 2 -22.5 -0.5t-47.5 3.5t-62 12.5t-66 26.5t-59 46.5t-40.5 71.5t-11.5 102q0 6 0.5 15.5t9.5 36.5t26 52t56 54.5t93 50t143.5 33.5t201.5 10q181 -6 290.5 -40.5t149 -90t25.5 -136.5
q-1 -7 -4.5 -19.5t-20.5 -52t-41.5 -79.5t-72.5 -96.5t-109 -108.5h20.5t50 -4t71.5 -12.5t75.5 -28t71 -46.5t50 -72.5t20.5 -102.5q0 -45 -10.5 -83t-26.5 -65t-44.5 -48.5t-54 -35.5t-67.5 -23.5t-72 -14.5t-79.5 -7.5t-79 -3t-80.5 -0.5q-56 0 -89.5 0.5t-85.5 2.5
t-85 7.5t-75 13.5t-70 22t-55.5 32.5t-45.5 45t-27 59.5z" />
    <glyph glyph-name="braceleft" unicode="{" horiz-adv-x="1163" 
d="M887 119q41 -9 65.5 -30.5t30 -46t5 -47.5t-5.5 -39l-5 -15q-9 -29 -34 -52t-54.5 -35.5t-58 -21t-47.5 -11.5l-19 -3q-61 -5 -113.5 2.5t-84 21.5t-54 29t-30.5 26l-9 11q-31 40 -44 91t-9.5 95t11.5 82.5t17 61.5l9 22q2 4 4.5 10.5t8 26t8.5 37.5t2 40.5t-7.5 40
t-23.5 31.5t-43 19q-8 0 -20.5 2t-44.5 15.5t-56.5 35.5t-45.5 70t-22 112v9q1 64 21 111.5t47.5 70t55 35t46.5 14.5l19 2q36 6 54.5 29.5t19.5 52.5t-3.5 57t-12.5 47l-7 19q-4 9 -9.5 24t-16 59t-12.5 85t10.5 93t43.5 91q3 4 9 11.5t30.5 25.5t54.5 31t83 21t114 3
q7 -1 19.5 -3t45.5 -11.5t60 -22t53 -36t35 -52.5q1 -3 3 -8.5t5 -21t3 -30.5t-4.5 -34t-14.5 -34.5t-31 -28.5t-51 -19q-6 -1 -15.5 -4.5t-28.5 -22.5t-27 -46.5t0.5 -82t41.5 -124.5q23 -50 25 -97.5t-9.5 -79.5t-34 -61.5t-37.5 -42.5t-30 -24q15 -10 30.5 -24
t37.5 -43.5t33.5 -62t9.5 -80t-25 -96.5q-33 -71 -42.5 -125.5t1 -82.5t26 -45.5t29.5 -21.5z" />
    <glyph glyph-name="bar" unicode="|" horiz-adv-x="528" 
d="M410 16q-5 -32 -17 -57.5t-27 -40.5t-32 -25.5t-32.5 -14.5t-28.5 -6t-21 -2l-8 1q-6 -1 -17 -1.5t-38.5 5t-49 18.5t-40.5 45t-21 78q-16 394 -8.5 786t28.5 599q6 55 25.5 94t43.5 56t47 26.5t38 9.5h16q7 0 18 -1t39 -11.5t50.5 -28.5t42 -57t22.5 -92
q17 -394 10.5 -701t-23.5 -494z" />
    <glyph glyph-name="braceright" unicode="}" horiz-adv-x="1058" 
d="M252 137q6 1 15.5 4.5t28.5 22t27 46t-0.5 82t-41.5 124.5q-23 50 -24.5 97.5t10 79.5t34.5 61.5t38 42.5t30 24q-15 10 -30.5 23.5t-38 43.5t-34.5 62t-10 79.5t25 96.5q33 71 42.5 125.5t-1 82.5t-26 46t-30.5 22l-14 5q-41 9 -65.5 30.5t-29.5 46t-4 47.5t6 39l5 15
q8 29 33 52t54.5 36t57.5 22t47 12l19 3q61 4 114 -3.5t84.5 -22t54 -29.5t31.5 -26l9 -11q31 -39 43.5 -90t8.5 -95.5t-12 -83.5t-17 -61l-9 -23q-3 -7 -7.5 -19.5t-10.5 -45t-4 -58.5t19.5 -50.5t53.5 -30.5q4 0 10.5 -1t26 -6t37.5 -13.5t40 -26.5t38 -42t27 -62t12 -85
v-8q-1 -46 -12 -84t-28 -61.5t-37 -41.5t-40 -26.5t-36.5 -13.5t-26.5 -6l-11 -1q-36 -6 -54 -29.5t-19 -52.5t3.5 -56.5t11.5 -46.5l7 -19q4 -9 9.5 -24t16 -59t13 -85.5t-9.5 -93.5t-43 -91q-3 -4 -9.5 -11.5t-31 -25.5t-54.5 -31t-83.5 -21t-114.5 -3q-7 1 -19.5 3
t-45.5 11.5t-60 22t-52.5 36t-33.5 52.5q-2 6 -5.5 16t-5.5 37t4 49.5t30 44.5t65 31z" />
    <glyph glyph-name="asciitilde" unicode="~" horiz-adv-x="1015" 
d="M870 438q-34 -60 -80.5 -92t-92.5 -35t-94.5 7t-89.5 32.5t-74 43t-51 36.5l-19 16q-14 -52 -40 -83.5t-53.5 -40t-53 -9.5t-42.5 4l-16 5q-54 19 -82 75.5t-8 110.5q2 9 7 23t24.5 50t44 63.5t69 50.5t96.5 23.5t128 -31t163 -99.5l4 -8q21 62 69.5 93.5t108.5 12.5
q8 -2 20.5 -7t39.5 -25t42 -45.5t13 -71t-33 -99.5z" />
    <glyph glyph-name="uni00A0" unicode="&#xa0;" horiz-adv-x="876" 
 />
    <glyph glyph-name="exclamdown" unicode="&#xa1;" horiz-adv-x="913" 
d="M793 215q16 -62 18.5 -157t-3.5 -160l-5 -64q0 -7 -2 -18.5t-10.5 -46t-21.5 -65.5t-39.5 -68.5t-61 -65t-88.5 -46t-119 -18.5q-5 0 -14.5 1t-38 7t-55 16t-61.5 32t-63 50.5t-54 75t-40 103.5q-18 74 -24.5 152.5t-3 138t9.5 108.5t12 75l6 26q3 10 9 27t32 60.5
t59.5 77t93.5 60.5t132 27q59 0 109 -18t83 -47t59.5 -64t41 -70t24 -64t12.5 -47zM197 893q0 92 78 156.5t188 64.5q109 0 186.5 -64.5t77.5 -156.5t-77.5 -156.5t-186.5 -64.5q-110 0 -188 64.5t-78 156.5z" />
    <glyph glyph-name="cent" unicode="&#xa2;" horiz-adv-x="1136" 
d="M1053 643q4 -7 9.5 -18.5t11.5 -47.5t0.5 -70.5t-35 -81t-83.5 -85.5q-8 -6 -24 -16t-69 -31.5t-109 -32.5q-5 -78 -6 -86q-4 -51 -20 -87.5t-35 -52.5t-37.5 -24.5t-31.5 -9.5h-12q-5 0 -14 1t-31.5 10.5t-40.5 26.5t-33.5 53.5t-17.5 86.5l-4 88q-80 22 -141 51
q-5 2 -14 7t-34.5 23t-48.5 40.5t-51.5 61.5t-49 84t-34.5 110t-14 137v22.5t6 57t17 83.5t36 94t60.5 96.5t94.5 84t132 62.5q16 6 47 12l4 70q4 51 20 87.5t35.5 52.5t38 24.5t31.5 9.5h12q5 0 14 -1t31.5 -10.5t40.5 -26.5t33 -53.5t17 -86.5q0 -10 1 -30.5t1 -29.5
q136 -28 227 -114q4 -3 10 -9.5t20 -29t21.5 -47.5t7 -65t-15.5 -83q-1 -2 -2.5 -5.5t-7 -13.5t-13 -19.5t-20 -21.5t-27.5 -22t-36.5 -19t-45.5 -13.5t-56.5 -4.5t-67.5 7q-6 2 -15 4t-32.5 4t-41.5 -1.5t-32.5 -19.5t-14.5 -43q0 -4 1 -10t8.5 -20t20.5 -21.5t41.5 -7
t66.5 15.5q4 2 11 4.5t29 8t43.5 7.5t52 -2t57.5 -15t56 -36.5t52 -62.5z" />
    <glyph glyph-name="sterling" unicode="&#xa3;" horiz-adv-x="1443" 
d="M305 543q-44 -6 -82.5 -3t-70.5 23q-30 18 -47.5 46.5t-21 56t-3 52t3.5 39.5l4 15q14 38 40 63t53.5 34t53 12.5t41.5 1.5l17 -2q3 107 23.5 197.5t39.5 127.5l19 37q35 64 89.5 109t113 65t121 29.5t118.5 6t100.5 -9t70.5 -11.5l26 -7q153 -53 243 -225
q27 -54 31 -104t-9.5 -83t-31.5 -58t-33 -37l-16 -11q-78 -43 -145 -34t-95 49q-3 5 -12.5 18.5t-13.5 19t-13.5 16.5t-16 16t-16.5 11.5t-20 8.5t-22.5 2t-26.5 -4q-33 -9 -47.5 -41t-13.5 -60l2 -28q52 6 94 0t65.5 -17.5t40 -24.5t22.5 -23l5 -9q30 -53 26.5 -100
t-23.5 -79l-19 -32q-19 -24 -49 -37t-58.5 -14.5t-55 0t-42.5 5.5l-16 3q-6 -51 -2.5 -77t10.5 -33l8 -7q6 -3 17 -8t43 -15t63 -14t71 0.5t72 22.5q45 25 87 34.5t69 4.5t47.5 -13.5t29.5 -17.5l9 -8q47 -42 67.5 -89t16.5 -83.5t-14.5 -67.5t-23.5 -48l-13 -17
q-55 -62 -132 -96.5t-147.5 -39t-133.5 -1t-100 13.5l-38 10q-6 3 -16.5 7t-46 10.5t-73 7t-94 -10t-112.5 -34.5q-77 -31 -132 -25.5t-90.5 36.5t-56.5 66.5t-29 64.5l-8 28q-8 52 -1 91.5t25.5 67.5t42.5 47t50.5 30t48 17t35.5 7l14 2q-8 21 -9.5 52.5t0.5 53.5z" />
    <glyph glyph-name="currency" unicode="&#xa4;" horiz-adv-x="1200" 
d="M1067 731q0 -174 -88 -301q108 -171 108 -219q0 -26 -11.5 -46.5t-22.5 -28.5l-11 -7q-24 -16 -55 -16q-49 0 -88 41q-47 51 -115 131q-74 -23 -145 -23q-82 0 -168 21q-41 -51 -81.5 -99t-60.5 -70l-20 -22q-39 -41 -88 -41q-14 0 -27.5 4.5t-20.5 8.5l-7 4
q-5 3 -12.5 8t-20 26.5t-12.5 47.5q0 55 135 264q-44 53 -69 120t-28 108l-3 40q0 164 65 272q-127 185 -127 267q0 24 11 41t21 22l11 6q29 23 70 23q39 0 88.5 -47t126.5 -148q93 33 186 33q91 0 168 -23q81 106 134.5 156.5t93.5 50.5q18 0 35.5 -5.5t25.5 -11.5l8 -5
l5 -2.5t10 -7t13 -13t10.5 -20t4.5 -27.5q0 -75 -127 -266q34 -50 53.5 -113.5t22 -90t2.5 -42.5zM616 883q-83 0 -140.5 -59.5t-57.5 -137.5q0 -103 53.5 -151t144.5 -48q89 0 143 50t54 143q0 79 -52.5 141t-144.5 62z" />
    <glyph glyph-name="yen" unicode="&#xa5;" 
d="M1464 1083q-10 -62 -36.5 -114.5t-60 -87t-71.5 -62t-74 -43t-65 -25.5t-47 -13l-18 -3q16 -48 26 -104l205 -4q30 0 51 -10.5t30 -25.5t14 -29.5t5 -25.5v-10q0 -3 -0.5 -9t-5 -21.5t-12 -27.5t-24 -23t-38.5 -13q-97 -7 -215 -10l-6 -47l201 -4q30 0 51 -10.5t30 -25.5
t14 -29.5t5 -25.5v-10q0 -3 -0.5 -9t-5 -21t-12 -27t-24 -22.5t-38.5 -12.5q-74 -7 -270 -14q-7 -21 -15 -39.5t-12 -26.5l-4 -8q-68 -121 -245 -121q-49 0 -93 9.5t-72 23.5t-49 28t-31 24l-9 9q-41 47 -60 101q-146 4 -209 8q-44 3 -69 25.5t-28 43.5l-3 21v11t5 25
t14.5 32t32.5 26t55 13q102 4 157 4q0 8 -1 24t-1 23l-162 6q-44 3 -69 26t-28 44l-3 22v12t5.5 26.5t16 33.5t34.5 26t57 11q25 0 76.5 1t80.5 1l13 92q-8 1 -22 4t-55.5 15t-79 28t-84.5 45.5t-81.5 65.5t-60 90.5t-29.5 117.5q-5 72 8.5 131.5t38 97.5t56 67t63.5 43.5
t58.5 24t43.5 11.5l17 2q78 4 145.5 -15t112 -52t81 -74t56.5 -82.5t34 -76t19 -56.5l4 -21q23 85 59 151.5t74.5 104.5t79.5 64t77 34.5t65 12.5t46 2l17 -2q51 -6 93 -23t69 -40t48 -50.5t31.5 -57t17.5 -58.5t8 -54.5t0.5 -45t-1.5 -31.5z" />
    <glyph glyph-name="brokenbar" unicode="&#xa6;" horiz-adv-x="528" 
d="M410 883q-22 -43 -73.5 -63.5t-86.5 -20.5q-166 0 -172 75q-12 117 -12 250q0 216 32 365q9 44 57.5 68t112.5 24q66 0 117 -25.5t55 -68.5q13 -140 13 -227q0 -117 -10.5 -210.5t-19 -125t-13.5 -41.5zM410 -37q-22 -43 -73.5 -63.5t-86.5 -20.5q-166 0 -172 76
q-12 117 -12 233q0 212 32 361q9 44 57.5 68t112.5 24q66 0 117 -25.5t55 -68.5q13 -140 13 -244q0 -254 -43 -340z" />
    <glyph glyph-name="section" unicode="&#xa7;" horiz-adv-x="1148" 
d="M612 799q-33 0 -57.5 -24.5t-24.5 -55.5q0 -82 82 -82q35 0 57.5 20.5t22.5 55.5q0 34 -22 60t-58 26zM680 1063v-8q103 -21 182 -54.5t122.5 -66.5t71 -70.5t36 -63.5t8.5 -48q0 -99 -51 -171.5t-131 -117.5q47 -24 78.5 -56.5t43.5 -63.5t15.5 -48t3.5 -31
q0 -61 -25.5 -110.5t-63.5 -80.5t-90.5 -54.5t-99 -34.5t-97 -18t-75 -8t-43.5 -1q-127 0 -215 16t-135 46.5t-66.5 68t-19.5 88.5q0 48 22 84.5t55.5 57t80.5 33t89 16.5t89 4q22 0 49 -2t29 -2v8q-41 7 -70 13t-76.5 18t-82 25t-73.5 34t-64 45.5t-41.5 58t-16.5 72.5
q0 105 45 184t139 142q-45 23 -76 53.5t-43 60.5t-16 48t-4 32q0 62 25 112t63 81.5t90.5 55.5t98.5 35.5t96.5 18t75.5 8t44 1.5q127 0 215 -16.5t135.5 -47.5t67 -68.5t19.5 -87.5q0 -48 -22 -84.5t-55.5 -57t-80.5 -33.5t-89 -17t-89 -4q-20 0 -38.5 1.5t-28.5 3t-11 1.5
z" />
    <glyph glyph-name="dieresis" unicode="&#xa8;" horiz-adv-x="870" 
d="M399 1686q0 -69 -41.5 -114.5t-115.5 -45.5t-116 45.5t-42 114.5q0 67 42 112t116 45t115.5 -45t41.5 -112zM774 1686q0 -69 -42 -114.5t-116 -45.5t-115.5 45.5t-41.5 114.5q0 67 41.5 112t115.5 45t116 -45t42 -112z" />
    <glyph glyph-name="copyright" unicode="&#xa9;" horiz-adv-x="1406" 
d="M672 76q-119 0 -221.5 42.5t-179.5 121.5t-121 199t-44 268q0 190 67.5 333.5t204.5 225.5t329 82q268 0 430.5 -169.5t162.5 -455.5q0 -135 -38.5 -250.5t-114 -205t-197.5 -140.5t-278 -51zM678 213q119 0 211.5 41t149.5 111.5t86.5 161t29.5 194.5q0 116 -36 208.5
t-98 151.5t-142.5 90t-173.5 31q-207 0 -326 -132t-119 -361q0 -224 120.5 -360t297.5 -136zM721 1055q79 0 145 -31t66 -70q0 -63 -55 -63q-11 0 -66 14.5t-109 14.5q-88 0 -132 -50.5t-44 -144.5q0 -104 50 -160.5t141 -56.5q40 0 73.5 9.5t52 21t36.5 21t30 9.5
q47 0 47 -59q0 -36 -38.5 -66.5t-92 -46.5t-104.5 -16q-159 0 -246.5 86.5t-87.5 245.5q0 147 87 244.5t247 97.5z" />
    <glyph glyph-name="ordfeminine" unicode="&#xaa;" horiz-adv-x="1005" 
d="M385 1528q40 0 72.5 -9.5t50.5 -20.5t32.5 -28t18.5 -24t8 -16q0 4 4 14.5t15 26t26 29.5t40.5 24t56.5 10q51 0 88.5 -32t55 -78t27.5 -92.5t12 -78.5l1 -32q0 -70 -7.5 -126.5t-19 -92.5t-29 -62t-32 -38.5t-34 -20t-30 -8.5t-24.5 -1q-123 0 -139 117q-1 -5 -4 -12.5
t-17.5 -26.5t-34.5 -34t-58.5 -27t-86.5 -12q-15 0 -51 4q-10 0 -28.5 3t-57.5 20.5t-70 47.5t-55.5 93t-24.5 147q0 31 4 64.5t21.5 85.5t47 90.5t87 67t135.5 28.5zM467 1290q-35 0 -60.5 -27t-25.5 -59q0 -46 24 -67t62 -21q36 0 60 23.5t24 62.5q0 33 -22 60.5t-62 27.5
z" />
    <glyph glyph-name="guillemotleft" unicode="&#xab;" horiz-adv-x="1777" 
d="M498 23l-26 17q-26 18 -62.5 45t-83 65t-91 84.5t-82 96.5t-60.5 108t-23 112q0 72 44 153.5t104 145t126 119.5t106 84t48 32q66 49 167 28.5t152 -101.5q52 -90 32 -167.5t-99 -135.5q-76 -60 -164 -154q53 -52 108 -102.5t84 -74.5l29 -24q6 -5 15.5 -14.5t27 -40.5
t23 -64t-9 -83t-56.5 -99q-53 -62 -149.5 -71.5t-159.5 41.5zM1354 23l-26 17q-26 18 -62.5 45t-83 65t-91 84.5t-82 96.5t-60.5 108t-23 112q0 72 44 153.5t104 145t126 119.5t106 84t48 32q66 49 167 28.5t152 -101.5q52 -90 32 -167.5t-99 -135.5q-76 -60 -164 -154
q53 -52 108 -102.5t84 -74.5l29 -24q6 -5 15.5 -14.5t27 -40.5t23 -64t-9 -83t-56.5 -99q-53 -62 -149.5 -71.5t-159.5 41.5z" />
    <glyph glyph-name="logicalnot" unicode="&#xac;" horiz-adv-x="1404" 
d="M1116 918q43 -9 77.5 -28.5t56.5 -42.5t38 -57t24 -62.5t12.5 -67.5t5.5 -64t1 -61q0 -78 -18 -211q-11 -68 -64 -112t-125 -44q-29 0 -54 7.5t-52.5 32t-47 65.5t-32 113.5t-12.5 170.5q-160 -8 -254 -8q-175 0 -359 16q-76 7 -132 51t-56 123q0 20 5.5 41t22.5 51.5
t60 54t106 32.5q175 24 363 24q326 0 434 -24z" />
    <glyph glyph-name="uni00AD" unicode="&#xad;" horiz-adv-x="1077" 
d="M809 827q52 -14 90.5 -40.5t56 -54.5t27.5 -54t11 -43l1 -17q1 -7 2 -19t-3.5 -45t-17 -61t-46 -57t-82.5 -43q-144 -39 -282.5 -41.5t-276.5 23.5q-54 9 -93.5 34t-57.5 54t-28 57.5t-11 47.5l-1 18q-1 4 -1 11t1.5 27.5t6 40t18 44.5t33 45.5t53.5 39.5t78 29
q122 27 252.5 28t200.5 -11z" />
    <glyph glyph-name="registered" unicode="&#xae;" horiz-adv-x="1406" 
d="M672 508q-202 0 -334.5 141.5t-132.5 384.5q0 244 130 390.5t372 146.5q225 0 360 -141.5t135 -378.5q0 -114 -32.5 -211t-96 -172t-166.5 -117.5t-235 -42.5zM678 621q100 0 178 34t126.5 93.5t73.5 136t25 164.5q0 132 -51 225t-134.5 135.5t-190.5 42.5
q-174 0 -273.5 -110t-99.5 -306q0 -192 99 -303.5t247 -111.5zM807 784l-139 179h-82v-170q0 -37 -49 -37q-19 0 -27 8.5t-12 40t-4 102.5v279q0 84 40.5 126t137.5 42q104 0 165.5 -43.5t61.5 -139.5q0 -88 -32 -134t-101 -56l133 -162q19 -19 19 -35q0 -13 -20.5 -20.5
t-43.5 -7.5q-27 0 -47 28zM817 1155q0 105 -164 105q-39 0 -52 -27t-13 -117v-67l51 -2q43 0 71 3.5t54.5 14t39.5 33t13 57.5z" />
    <glyph glyph-name="macron" unicode="&#xaf;" horiz-adv-x="1077" 
d="M567 1585q203 0 296 -34.5t93 -114.5q0 -156 -368 -156q-451 0 -451 152q0 153 430 153z" />
    <glyph glyph-name="degree" unicode="&#xb0;" horiz-adv-x="798" 
d="M717 1167q0 -129 -86.5 -217t-218.5 -88q-134 0 -221 88t-87 217q0 128 87.5 217t220.5 89q132 0 218.5 -89t86.5 -217zM412 1339q-82 0 -128 -54.5t-46 -123.5t44.5 -112t129.5 -43q83 0 125.5 43t42.5 112q0 81 -47 129.5t-121 48.5z" />
    <glyph glyph-name="plusminus" unicode="&#xb1;" horiz-adv-x="1265" 
d="M1126 965q0 -21 -2 -37t-16 -44.5t-39 -49t-77 -41t-124 -31.5q-27 -248 -233 -248q-17 0 -35.5 3t-49 16.5t-56 36.5t-50 68t-36.5 105q-58 5 -102 16.5t-82.5 33t-59.5 60t-21 91.5q0 12 3.5 26t18.5 37t40 43t75 40t117 32q9 64 31 112t45.5 73.5t52 41t47 19.5
t33.5 4q21 0 40.5 -2.5t52 -16.5t58 -37t50.5 -70t37 -111q79 -9 136 -28t84 -38t42.5 -43.5t17.5 -36.5t2 -24zM911 401q78 -18 133.5 -62.5t55.5 -119.5q0 -18 -5 -36t-19.5 -41t-46.5 -42t-79 -30q-155 -35 -303 -35q-136 0 -256 16q-78 10 -135 57t-57 123q0 15 8 35.5
t26.5 47t59 49.5t96.5 34q123 23 268 23q67 0 130.5 -5t93.5 -9z" />
    <glyph glyph-name="twosuperior" unicode="&#xb2;" horiz-adv-x="776" 
d="M324 1587q54 0 100.5 -11t86 -35t62.5 -67.5t23 -101.5q0 -60 -27 -122t-53 -94l-27 -32q9 0 21 -1t39.5 -8t48.5 -20t38 -40.5t17 -65.5q0 -34 -20.5 -59t-49 -38.5t-67.5 -21.5t-67.5 -10t-57.5 -2q-30 0 -60 3t-67 12.5t-64 24.5t-46 43t-19 65q0 38 20.5 72t50 59
t58.5 49t49.5 51t20.5 55q0 29 -14 43.5t-33 14.5q-20 0 -48.5 -6.5t-35.5 -6.5q-33 0 -53 22.5t-24 44.5l-3 23q0 38 21 69t48.5 47t59 27t49.5 14t23 3z" />
    <glyph glyph-name="threesuperior" unicode="&#xb3;" horiz-adv-x="817" 
d="M139 1456q0 39 23.5 66.5t62.5 40.5t76 18.5t76 5.5q248 0 248 -147q0 -31 -13 -62t-22 -43t-17 -20q56 -26 88.5 -82t32.5 -125q0 -118 -83 -186t-208 -68q-35 0 -79 8t-91 24.5t-78.5 48t-31.5 71.5q0 33 12 56t30.5 32.5t31.5 12.5t24 3q25 0 69.5 -22.5t71.5 -22.5
q60 0 60 49q0 53 -72 53q-40 0 -67 11t-38 28.5t-14.5 30t-3.5 25.5q0 26 15.5 47.5t38 33t38.5 17t25 6.5l-2 6q-21 -8 -53 -8q-48 0 -81.5 11t-46.5 28t-17.5 29.5t-4.5 23.5z" />
    <glyph glyph-name="acute" unicode="&#xb4;" horiz-adv-x="700" 
d="M100 1366q35 44 119 101.5t148 78.5q44 15 78 17.5t59 -6.5t40 -19.5t34 -28.5q25 -27 39.5 -60.5t4.5 -81.5t-57 -89q-51 -44 -134.5 -77t-141.5 -43l-58 -11q-5 -1 -13 -2.5t-30 -2t-41 4t-40.5 19.5t-34.5 40q-17 42 -11 77.5t23 58.5z" />
    <glyph glyph-name="mu" unicode="&#xb5;" horiz-adv-x="1705" 
d="M195 739q0 6 1.5 15.5t9 37.5t19 54t34 57t51 53.5t74 38t99.5 15.5q57 0 100 -16.5t66.5 -43t38.5 -58.5t19 -64.5t4.5 -59t-1.5 -42.5l-3 -17q-2 -160 2 -196q11 -93 66 -103q9 -2 18 -2q29 0 46 31.5t21 77t4 90.5t-3 77l-3 31q-6 65 3 116.5t27.5 81.5t42.5 51.5
t49 30t45.5 12.5t34.5 3h13q57 -9 102 -38.5t70.5 -70t43.5 -87t24.5 -91.5t9 -82t1.5 -59l-1 -23q-2 -110 -23 -199t-54 -147t-75.5 -101.5t-89 -65.5t-92.5 -35.5t-87.5 -15t-73.5 0t-51 4.5l-19 4q0 -81 -7 -144.5t-27 -124t-53 -99.5t-87.5 -63t-128.5 -24
q-62 0 -110.5 31.5t-74 76t-42 89t-20.5 76.5l-5 31q-26 228 -28 449.5t9 329.5z" />
    <glyph glyph-name="paragraph" unicode="&#xb6;" horiz-adv-x="1437" 
d="M842 1395q77 -3 140 -14t101.5 -26t68 -32.5t43 -34.5t21.5 -30.5t10 -21.5l1 -9q6 -41 -6.5 -76.5t-35 -56.5t-46 -36.5t-41.5 -21.5l-17 -6l16 -278q32 -751 -54 -939q-25 -55 -60 -55q-55 0 -90.5 131t-46.5 318t-14.5 374t0.5 318l4 131h-50l3 -285q-1 -763 -94 -940
q-25 -47 -56 -47q-40 0 -69.5 48.5t-44.5 126.5t-24.5 171.5t-11 187.5t-1 172t3.5 126l2 49q-80 0 -144.5 19t-104.5 49t-69.5 66.5t-43 73t-21 66.5t-8.5 49l-1 19q0 78 25.5 142.5t68 107t98 75t117 49.5t123 28t117 13.5t98 2.5t67.5 -2z" />
    <glyph glyph-name="periodcentered" unicode="&#xb7;" horiz-adv-x="720" 
d="M616 510q0 -112 -68 -185t-190 -73q-121 0 -189.5 73.5t-68.5 184.5q0 110 69 184t189 74q121 0 189.5 -73.5t68.5 -184.5z" />
    <glyph glyph-name="cedilla" unicode="&#xb8;" horiz-adv-x="530" 
d="M59 61l185 -14v-131q102 -2 173.5 -56.5t71.5 -148.5q0 -100 -74.5 -156.5t-174.5 -56.5q-12 0 -37 1t-37 1q-38 0 -65 27t-27 65q0 74 92 74q7 0 24.5 -1t26.5 -1q82 0 82 53q0 33 -29 45q-33 11 -77 11q-68 0 -97 16q-37 18 -37 64v208z" />
    <glyph glyph-name="onesuperior" unicode="&#xb9;" horiz-adv-x="696" 
d="M311 1343q-55 -43 -106 -43q-32 0 -57 28.5t-25 72.5q0 78 80 132t164 54q47 0 82.5 -15t57 -45t35.5 -63t20.5 -81.5t8.5 -87t2 -91.5q0 -91 -12 -156t-27 -96.5t-38.5 -49.5t-38 -20.5t-33.5 -2.5q-42 0 -72 22t-44.5 60t-20.5 76t-6 81q0 54 7.5 110t15.5 86z" />
    <glyph glyph-name="ordmasculine" unicode="&#xba;" horiz-adv-x="856" 
d="M727 1042q-23 -43 -62 -77.5t-67 -48.5l-27 -13q-29 -12 -59.5 -18.5t-46.5 -6.5l-16 -1q-73 0 -132.5 17t-95.5 44.5t-63 60.5t-39.5 66.5t-19.5 61t-8 44.5l-1 17q0 67 15 121t38 89.5t56 61.5t63 40t65 22t57.5 10t43.5 2q69 0 125 -17t90 -42t59.5 -60.5t37 -64.5
t18.5 -61.5t7.5 -44.5t0.5 -21q0 -105 -39 -181zM438 1290q-37 0 -62.5 -25.5t-25.5 -58.5q0 -86 88 -86q36 0 61 21.5t25 60.5q0 34 -24 61t-62 27z" />
    <glyph glyph-name="guillemotright" unicode="&#xbb;" horiz-adv-x="1777" 
d="M1280 23q-63 -51 -159.5 -41.5t-149.5 71.5q-42 49 -57.5 98.5t-7.5 84t22 62.5t28 42l15 14q102 84 221 201q-39 42 -80 80.5t-62 56.5l-22 17q-79 58 -99 135.5t32 167.5q51 81 152 101.5t167 -28.5q8 -4 48 -32t106 -84t126 -119.5t104 -145t44 -153.5q0 -54 -23 -112
t-60.5 -108t-82 -96.5t-91 -84.5t-83 -65t-62.5 -45zM424 23q-63 -51 -159.5 -41.5t-149.5 71.5q-42 49 -57.5 98.5t-7.5 84t22 62.5t28 42l15 14q102 84 221 201q-39 42 -80 80.5t-62 56.5l-22 17q-79 58 -99.5 135t31.5 168q34 54 93 82t120.5 25t106.5 -34q8 -4 48 -32
t106 -84t126 -119.5t104 -145t44 -153.5q0 -54 -23 -112t-60.5 -108t-82 -96.5t-91 -84.5t-83 -65t-62.5 -45z" />
    <glyph glyph-name="onequarter" unicode="&#xbc;" horiz-adv-x="1794" 
d="M811 33q-20 -41 -47 -66.5t-52 -33.5t-47 -9.5t-35 1.5l-14 3q-5 1 -13.5 3.5t-29.5 16t-36.5 33t-25.5 57t-5 85.5q22 195 168 649.5t239 675.5q21 50 52.5 82t61.5 41t56.5 11t42.5 -2l17 -5q3 0 7.5 -1t18.5 -5.5t24 -12.5t24.5 -23t20.5 -37t11 -54t-4 -74
q-25 -158 -79 -354t-113 -362t-114.5 -310t-91.5 -226zM311 1343q-55 -43 -106 -43q-32 0 -57 28.5t-25 72.5q0 78 80 132t164 54q47 0 82.5 -15t57 -45t35.5 -63t20.5 -81.5t8.5 -87t2 -91.5q0 -91 -12 -156t-27 -96.5t-38.5 -49.5t-38 -20.5t-33.5 -2.5q-42 0 -72 22
t-44.5 60t-20.5 76t-6 81q0 54 7.5 110t15.5 86zM1772 303q0 -37 -20 -59t-40 -26l-20 -3q4 -18 4 -43q0 -22 -3 -42.5t-12.5 -45t-24.5 -42.5t-43 -30t-65 -12q-34 0 -59.5 12.5t-39.5 31t-22.5 43.5t-11 45t-2.5 42l2 41q-48 0 -90 5.5t-60 10.5l-18 5q-71 19 -71 104
q0 43 18 98t36 89l17 34q29 51 64 86.5t70 52.5t63 24t55 7q50 0 87.5 -23t57.5 -55t32 -76.5t15 -78t3 -68.5l-2 -37q22 -1 38.5 -10.5t24 -22.5t12 -26t5.5 -22v-9zM1399 473q-21 0 -37 -16t-16 -37q0 -53 53 -53q24 0 38.5 13.5t14.5 37.5q0 22 -14 38.5t-39 16.5z" />
    <glyph glyph-name="onehalf" unicode="&#xbd;" horiz-adv-x="1794" 
d="M729 33q-20 -41 -47 -66.5t-52 -33.5t-47 -10t-35 1l-13 4q-5 1 -13.5 3.5t-30 16t-37 33t-25.5 57t-5 85.5q22 195 168 649.5t239 675.5q21 50 52.5 82t61.5 41t56.5 11t42.5 -2l17 -5q3 0 7.5 -1t18.5 -5.5t24 -12.5t24.5 -23t20.5 -37t11 -54t-4 -74
q-25 -158 -79 -354t-113 -362t-114.5 -310t-91.5 -226zM311 1343q-55 -43 -106 -43q-32 0 -57 28.5t-25 72.5q0 78 80 132t164 54q47 0 82.5 -15t57 -45t35.5 -63t20.5 -81.5t8.5 -87t2 -91.5q0 -91 -12 -156t-27 -96.5t-38.5 -49.5t-38 -20.5t-33.5 -2.5q-42 0 -72 22
t-44.5 60t-20.5 76t-6 81q0 54 7.5 110t15.5 86zM1389 743q54 0 100.5 -11t86 -35t62.5 -67.5t23 -101.5q0 -38 -11 -77t-26.5 -68.5t-31.5 -53t-27 -35.5l-11 -13q9 0 21 -1t39.5 -8.5t48.5 -20t38 -40.5t17 -66q0 -34 -20.5 -59t-49 -38.5t-67.5 -21.5t-67.5 -10t-57.5 -2
q-30 0 -60 3t-67 12.5t-64 24.5t-46 43t-19 65q0 38 20.5 72t50 59.5t58.5 49t49.5 51t20.5 55.5q0 29 -14 43t-33 14q-20 0 -48.5 -6t-35.5 -6q-33 0 -53 22.5t-23 45.5l-4 22q0 38 21 68.5t48.5 47t59 27t49.5 13.5t23 3z" />
    <glyph glyph-name="threequarters" unicode="&#xbe;" horiz-adv-x="1794" 
d="M874 33q-20 -41 -47 -66.5t-52 -33.5t-47 -10t-35 1l-13 4q-5 1 -13.5 3.5t-30 16t-37 33t-25.5 57t-5 85.5q22 195 168.5 649t239.5 676q21 50 52.5 82t61 41t56.5 11t43 -2l16 -5q3 0 7.5 -1t18.5 -5.5t24.5 -12.5t25 -23t20.5 -37t11 -54t-4 -74q-25 -158 -79 -354
t-113.5 -362t-115 -310t-91.5 -226zM1772 315q0 -37 -20 -59t-40 -26l-20 -3q4 -18 4 -43q0 -22 -3 -42.5t-12.5 -45t-24.5 -42.5t-43 -30t-65 -12q-34 0 -59.5 12.5t-39.5 31t-22.5 43.5t-11 45t-2.5 42l2 41q-48 0 -90 5.5t-60 10.5l-18 5q-71 19 -71 104q0 43 18 98
t36 89l17 34q29 51 64 86.5t70 52.5t63 24t55 7q50 0 87.5 -23t57.5 -55t32 -76.5t15 -78t3 -68.5l-2 -36q22 -1 38.5 -10.5t24 -22.5t12 -26.5t5.5 -22.5v-9zM1399 485q-21 0 -37 -16t-16 -37q0 -53 53 -53q24 0 38.5 13.5t14.5 37.5q0 22 -14 38.5t-39 16.5zM139 1456
q0 39 23.5 66.5t62.5 40.5t76 18.5t76 5.5q248 0 248 -147q0 -31 -13 -62t-22 -43t-17 -20q56 -26 88.5 -82t32.5 -125q0 -118 -83 -186t-208 -68q-35 0 -79 8t-91 24.5t-78.5 48t-31.5 71.5q0 33 12 56t30.5 32.5t31.5 12.5t24 3q25 0 69.5 -22.5t71.5 -22.5q60 0 60 49
q0 53 -72 53q-40 0 -67 11t-38 28.5t-14.5 30t-3.5 25.5q0 26 15.5 47.5t38 33t38.5 17t25 6.5l-2 6q-21 -8 -53 -8q-48 0 -81.5 11t-46.5 28t-17.5 29.5t-4.5 23.5z" />
    <glyph glyph-name="questiondown" unicode="&#xbf;" horiz-adv-x="1323" 
d="M283 905q0 104 74.5 163.5t195.5 59.5q116 0 188 -65.5t72 -161.5q0 -108 -70 -168.5t-190 -60.5q-119 0 -194.5 64.5t-75.5 168.5zM250 436q3 6 9.5 16.5t29 37.5t47.5 49t65.5 42.5t83 27t99.5 -7t116 -50.5q38 -24 57 -61.5t19 -79t-9 -86t-25.5 -84t-31.5 -71.5
t-26 -51l-12 -18q5 5 13.5 13t35.5 29t54.5 37t68 30.5t79 17t84 -11.5t85.5 -47q6 -5 15 -13.5t31.5 -38t38 -61t24 -81t0.5 -99.5t-43 -115t-97 -129q-6 -6 -18.5 -16.5t-53 -36.5t-85 -44.5t-113.5 -32t-139.5 -9.5t-162 34t-182.5 89q-88 56 -132 149.5t-46 189.5
t17.5 195.5t47.5 171.5t56 115z" />
    <glyph glyph-name="Agrave" unicode="&#xc0;" 
d="M1274 18q-7 -2 -19 -5.5t-49 -9.5t-72.5 -6t-82.5 10.5t-86 33.5q-55 33 -96.5 81t-62.5 95t-30.5 79.5t-11.5 53.5q-3 -24 -12.5 -54.5t-30 -78.5t-62 -95.5t-96.5 -80.5q-39 -23 -85 -34t-84 -10t-70.5 5.5t-51.5 9.5l-18 6q-60 21 -101 69t-57 101t-23 103t-5 83l2 32
q16 447 278 819q36 53 78.5 95.5t79 68.5t77 45t67.5 27t57 13t38.5 5h18.5h18.5t38.5 -5t57 -13t68 -27t77.5 -45t79 -68.5t79.5 -95.5q52 -75 92.5 -149t83.5 -176.5t69 -228.5t31 -265q1 -7 1.5 -18t-0.5 -45t-5 -66t-16.5 -74t-32 -75.5t-53.5 -63.5t-78 -46zM729 1935
q64 -21 147.5 -78.5t118.5 -101.5q3 -3 7.5 -9t14.5 -23.5t15 -35.5t4 -43.5t-12 -48.5q-13 -25 -34 -40t-42 -19t-40.5 -4.5t-31.5 2.5l-12 2q-9 1 -24.5 4t-59.5 13.5t-83.5 24t-87 37.5t-79.5 52q-36 31 -51 66t-9.5 66t18 55.5t30.5 43.5q19 18 34 28.5t40 19.5t59 6.5
t78 -17.5zM772 756q-35 0 -60 -26.5t-22 -59.5q5 -76 82 -76q35 0 57.5 20.5t22.5 55.5q0 34 -22 60t-58 26z" />
    <glyph glyph-name="Aacute" unicode="&#xc1;" 
d="M1274 18q-7 -2 -19 -5.5t-49 -9.5t-72.5 -6t-82.5 10.5t-86 33.5q-55 33 -96.5 81t-62.5 95t-30.5 79.5t-11.5 53.5q-3 -24 -12.5 -54.5t-30 -78.5t-62 -95.5t-96.5 -80.5q-39 -23 -85 -34t-84 -10t-70.5 5.5t-51.5 9.5l-18 6q-60 21 -101 69t-57 101t-23 103t-5 83l2 32
q16 447 278 819q36 53 78.5 95.5t79 68.5t77 45t67.5 27t57 13t38.5 5h18.5h18.5t38.5 -5t57 -13t68 -27t77.5 -45t79 -68.5t79.5 -95.5q52 -75 92.5 -149t83.5 -176.5t69 -228.5t31 -265q1 -7 1.5 -18t-0.5 -45t-5 -66t-16.5 -74t-32 -75.5t-53.5 -63.5t-78 -46zM496 1745
q35 44 118.5 101.5t147.5 78.5q44 15 78 17.5t59 -6.5t40 -19.5t34 -28.5q18 -19 30.5 -43.5t18 -55.5t-9.5 -66t-51 -66q-51 -44 -134.5 -77t-141.5 -44l-58 -10q-5 -1 -13 -2.5t-30 -2t-41.5 4t-41 19.5t-34.5 40q-17 42 -10.5 77.5t23.5 59.5zM772 756q-35 0 -60 -26.5
t-22 -59.5q5 -76 82 -76q35 0 57.5 20.5t22.5 55.5q0 34 -22 60t-58 26z" />
    <glyph glyph-name="Acircumflex" unicode="&#xc2;" 
d="M1274 18q-7 -2 -19 -5.5t-49 -9.5t-72.5 -6t-82.5 10.5t-86 33.5q-55 33 -96.5 81t-62.5 95t-30.5 79.5t-11.5 53.5q-3 -24 -12.5 -54.5t-30 -78.5t-62 -95.5t-96.5 -80.5q-39 -23 -85 -34t-84 -10t-70.5 5.5t-51.5 9.5l-18 6q-60 21 -101 69t-57 101t-23 103t-5 83l2 32
q16 447 278 819q36 53 78.5 95.5t79 68.5t77 45t67.5 27t57 13t38.5 5h18.5h18.5t38.5 -5t57 -13t68 -27t77.5 -45t79 -68.5t79.5 -95.5q52 -75 92.5 -149t83.5 -176.5t69 -228.5t31 -265q1 -7 1.5 -18t-0.5 -45t-5 -66t-16.5 -74t-32 -75.5t-53.5 -63.5t-78 -46zM455 1724
q3 5 18.5 22.5t47.5 48t68 57t84.5 46t92.5 19.5q43 0 89.5 -20.5t81.5 -47.5t67 -58.5t46.5 -49t18.5 -23.5q28 -38 19.5 -86t-48.5 -76t-87 -19.5t-76 48.5l-15 17q-16 18 -42.5 42t-53.5 39q-35 -22 -67 -48t-47 -41l-15 -15q-3 -4 -8.5 -9.5t-23 -17.5t-35.5 -17
t-44.5 0t-52.5 26q-38 31 -43.5 78.5t25.5 84.5zM772 756q-35 0 -60 -26.5t-22 -59.5q5 -76 82 -76q35 0 57.5 20.5t22.5 55.5q0 34 -22 60t-58 26z" />
    <glyph glyph-name="Atilde" unicode="&#xc3;" 
d="M1274 18q-7 -2 -19 -5.5t-49 -9.5t-72.5 -6t-82.5 10.5t-86 33.5q-55 33 -96.5 81t-62.5 95t-30.5 79.5t-11.5 53.5q-3 -24 -12.5 -54.5t-30 -78.5t-62 -95.5t-96.5 -80.5q-39 -23 -85 -34t-84 -10t-70.5 5.5t-51.5 9.5l-18 6q-60 21 -101 69t-57 101t-23 103t-5 83l2 32
q16 447 278 819q36 53 78.5 95.5t79 68.5t77 45t67.5 27t57 13t38.5 5h18.5h18.5t38.5 -5t57 -13t68 -27t77.5 -45t79 -68.5t79.5 -95.5q52 -75 92.5 -149t83.5 -176.5t69 -228.5t31 -265q1 -7 1.5 -18t-0.5 -45t-5 -66t-16.5 -74t-32 -75.5t-53.5 -63.5t-78 -46zM1128 1669
q-34 -60 -80.5 -92t-92.5 -35t-94.5 7t-89.5 32.5t-74 43t-51 36.5l-19 16q-14 -52 -40 -83.5t-53.5 -40t-53 -10t-42.5 3.5l-16 5q-54 19 -82 76t-8 111q2 9 7 23t24.5 50t44 63.5t69 50.5t96.5 23.5t128 -31t163 -99.5l4 -9q21 62 70 94t109 13q8 -2 20 -7t39.5 -25
t42 -45.5t12.5 -71t-33 -99.5zM772 756q-35 0 -60 -26.5t-22 -59.5q5 -76 82 -76q35 0 57.5 20.5t22.5 55.5q0 34 -22 60t-58 26z" />
    <glyph glyph-name="Adieresis" unicode="&#xc4;" 
d="M1274 18q-7 -2 -19 -5.5t-49 -9.5t-72.5 -6t-82.5 10.5t-86 33.5q-55 33 -96.5 81t-62.5 95t-30.5 79.5t-11.5 53.5q-3 -24 -12.5 -54.5t-30 -78.5t-62 -95.5t-96.5 -80.5q-39 -23 -85 -34t-84 -10t-70.5 5.5t-51.5 9.5l-18 6q-60 21 -101 69t-57 101t-23 103t-5 83l2 32
q16 447 278 819q36 53 78.5 95.5t79 68.5t77 45t67.5 27t57 13t38.5 5h18.5h18.5t38.5 -5t57 -13t68 -27t77.5 -45t79 -68.5t79.5 -95.5q52 -75 92.5 -149t83.5 -176.5t69 -228.5t31 -265q1 -7 1.5 -18t-0.5 -45t-5 -66t-16.5 -74t-32 -75.5t-53.5 -63.5t-78 -46zM1112 1726
q0 -69 -42 -114t-116 -45t-115.5 45t-41.5 114q0 68 41.5 113t115.5 45t116 -45.5t42 -112.5zM737 1726q0 -69 -41.5 -114t-115.5 -45t-116 45t-42 114q0 67 42 112.5t116 45.5t115.5 -45t41.5 -113zM772 756q-35 0 -60 -26.5t-22 -59.5q5 -76 82 -76q35 0 57.5 20.5
t22.5 55.5q0 34 -22 60t-58 26z" />
    <glyph glyph-name="Aring" unicode="&#xc5;" 
d="M1010 1640q0 -117 -103 -190q161 -62 275 -225q52 -75 92.5 -149t83.5 -176.5t69 -228.5t31 -265q1 -7 1.5 -18t-0.5 -45t-5 -66t-16.5 -74t-32 -75.5t-53.5 -63.5t-78 -46q-7 -2 -19 -5.5t-49 -9.5t-72.5 -6t-82.5 10.5t-86 33.5q-55 33 -96.5 81t-62.5 95t-30.5 79.5
t-11.5 53.5q-3 -24 -12.5 -54.5t-30 -78.5t-62 -95.5t-96.5 -80.5q-39 -23 -85 -34t-84 -10t-70.5 5.5t-51.5 9.5l-18 6q-60 21 -101 69t-57 101t-23 103t-5 83l2 32q16 447 278 819q110 159 266 223q-50 31 -78 81.5t-28 110.5q0 97 74 166.5t178 69.5q103 0 176.5 -69.5
t73.5 -166.5zM758 1751q-55 0 -83 -30.5t-28 -78.5q0 -47 28 -75.5t85 -28.5q106 0 106 102q0 54 -28.5 82.5t-79.5 28.5zM772 756q-35 0 -60 -26.5t-22 -59.5q5 -76 82 -76q35 0 57.5 20.5t22.5 55.5q0 34 -22 60t-58 26z" />
    <glyph glyph-name="AE" unicode="&#xc6;" horiz-adv-x="2332" 
d="M2071 750q0 -48 -19 -85.5t-45.5 -58.5t-62 -35.5t-62 -19.5t-51.5 -6q74 1 136.5 -7.5t106 -24t78.5 -35.5t56.5 -42.5t36.5 -45t22 -43t10.5 -36.5t3.5 -25v-10q-2 -54 -30.5 -98t-72 -71t-95.5 -47.5t-103.5 -30.5t-94 -15.5t-69.5 -6.5l-26 -1q-270 -21 -449 47
q-36 -36 -86 -53q-7 -2 -19 -5.5t-49 -9.5t-72.5 -6t-82.5 10.5t-86 33.5q-55 33 -96.5 81t-62.5 95t-30.5 79.5t-11.5 53.5q-4 -24 -12.5 -54t-29.5 -78.5t-62 -96t-96 -80.5q-39 -23 -85 -34t-84 -10t-70.5 5.5t-51.5 9.5l-18 6q-60 21 -101.5 69t-57 100.5t-23 102.5
t-5.5 82l2 33q5 139 31.5 265t69.5 228.5t84.5 176.5t93.5 149q50 73 111 126t107 76.5t97.5 36.5t67.5 14t32 1t30.5 -1t62.5 -12t91 -31.5t102 -66.5t108 -110q27 56 77 99t108 68.5t121.5 42.5t122 23.5t105.5 9.5t75 2l28 -1q84 2 155 -5.5t120 -21t88 -31.5t62 -38.5
t39.5 -41t23 -39.5t10 -33.5t3.5 -22.5v-9q1 -67 -25 -119t-68.5 -82.5t-94.5 -51.5t-104 -29t-95.5 -11.5t-70.5 -2.5l-27 1q85 -7 145 -30t85 -50.5t37.5 -53.5t12.5 -44zM752 725q-35 0 -60 -26.5t-22 -59.5q5 -76 82 -76q34 0 56.5 20.5t22.5 55.5t-21.5 60.5
t-57.5 25.5z" />
    <glyph glyph-name="Ccedilla" unicode="&#xc7;" horiz-adv-x="1423" 
d="M1018 872q-5 1 -13 2.5t-31.5 3t-45.5 0t-48.5 -9t-46.5 -20.5t-34.5 -39t-16.5 -61q-1 -7 -0.5 -19t11.5 -41.5t33 -50t73.5 -34t124.5 -5.5q7 1 18.5 2.5t45.5 2t65.5 -4t71 -19t70 -38t54.5 -66.5t31 -100q1 -9 2 -24t-4.5 -57.5t-19.5 -80.5t-50 -82.5t-89 -73.5
q-13 -8 -39 -19t-112.5 -30.5t-182.5 -21.5v-70q102 -2 173.5 -56.5t71.5 -148.5q0 -100 -74.5 -156.5t-174.5 -56.5q-13 0 -37 1t-37 1q-38 0 -65 27t-27 65q0 74 92 74q7 0 24.5 -1t26.5 -1q82 0 82 53q0 33 -29 45q-33 11 -77 11q-68 0 -97 16q-37 18 -37 64v145
q-78 7 -202 41q-10 2 -26 7.5t-63 29t-89.5 54.5t-94 88.5t-88 127t-60 174t-20.5 225.5q-1 12 -0.5 32.5t9 82t25.5 120t56.5 133.5t94.5 135t147 114t207 80q15 4 41 9t103.5 12.5t152 4t172 -28t176.5 -71.5q8 -5 21 -15t42 -45t46 -75.5t17 -105.5t-30 -136
q-1 -2 -2.5 -5.5t-8 -14.5t-15 -21.5t-23.5 -23.5t-32 -23.5t-41.5 -20t-52.5 -14.5t-65.5 -4.5t-78.5 8.5z" />
    <glyph glyph-name="Egrave" unicode="&#xc8;" horiz-adv-x="1368" 
d="M702 1456q171 -4 293.5 -32.5t174.5 -66t79 -74.5t27 -62v-25q1 -67 -28 -117.5t-77 -79t-106 -47t-116.5 -24t-106.5 -7.5t-78 1l-31 2q64 -10 114 -28t79 -37.5t49 -41t27 -41t10.5 -35t2.5 -25.5l-1 -9q0 -44 -20.5 -82t-47.5 -60t-62 -39t-53.5 -23t-33.5 -9
q104 1 187 -13t132 -37t84.5 -51t50 -56t22.5 -51.5t7 -37.5v-15q-3 -53 -34.5 -95t-79.5 -67.5t-105.5 -44t-114.5 -26t-104 -12t-76 -4.5h-29q-96 -2 -178.5 6.5t-142 25.5t-108.5 39t-80.5 47t-55.5 50.5t-36.5 48.5t-20 41t-9.5 28l-2 11q-20 100 -26.5 224t-2 229
t11.5 195.5t15 142.5l7 52q11 61 38 111t63.5 83.5t81.5 59.5t91.5 40.5t92.5 24t87 12t72 3t49 -0.5zM618 1939q64 -21 148 -78.5t119 -101.5q3 -3 7.5 -9t14 -23.5t14.5 -35.5t4 -43.5t-12 -48.5q-13 -25 -34 -40t-42 -19t-40 -4.5t-31 2.5l-12 2q-9 1 -24.5 4t-59.5 13.5
t-83.5 24t-87 37.5t-79.5 52q-36 31 -51 66.5t-9.5 66.5t18 55.5t30.5 43.5q19 18 33.5 28t39.5 19.5t59 6.5t78 -18z" />
    <glyph glyph-name="Eacute" unicode="&#xc9;" horiz-adv-x="1368" 
d="M702 1456q171 -4 293.5 -32.5t174.5 -66t79 -74.5t27 -62v-25q1 -67 -28 -117.5t-77 -79t-106 -47t-116.5 -24t-106.5 -7.5t-78 1l-31 2q64 -10 114 -28t79 -37.5t49 -41t27 -41t10.5 -35t2.5 -25.5l-1 -9q0 -44 -20.5 -82t-47.5 -60t-62 -39t-53.5 -23t-33.5 -9
q104 1 187 -13t132 -37t84.5 -51t50 -56t22.5 -51.5t7 -37.5v-15q-3 -53 -34.5 -95t-79.5 -67.5t-105.5 -44t-114.5 -26t-104 -12t-76 -4.5h-29q-96 -2 -178.5 6.5t-142 25.5t-108.5 39t-80.5 47t-55.5 50.5t-36.5 48.5t-20 41t-9.5 28l-2 11q-20 100 -26.5 224t-2 229
t11.5 195.5t15 142.5l7 52q11 61 38 111t63.5 83.5t81.5 59.5t91.5 40.5t92.5 24t87 12t72 3t49 -0.5zM475 1745q35 44 118.5 101.5t147.5 78.5q44 15 78 17.5t59 -6.5t40 -19.5t34 -28.5q18 -19 30.5 -43.5t18 -55.5t-9.5 -66t-51 -66q-51 -44 -134.5 -77t-141.5 -44
l-58 -10q-5 -1 -13 -2.5t-30 -2t-41.5 4t-41 19.5t-34.5 40q-17 42 -10.5 77.5t22.5 59.5z" />
    <glyph glyph-name="Ecircumflex" unicode="&#xca;" horiz-adv-x="1368" 
d="M702 1456q171 -4 293.5 -32.5t174.5 -66t79 -74.5t27 -62v-25q1 -67 -28 -117.5t-77 -79t-106 -47t-116.5 -24t-106.5 -7.5t-78 1l-31 2q64 -10 114 -28t79 -37.5t49 -41t27 -41t10.5 -35t2.5 -25.5l-1 -9q0 -44 -20.5 -82t-47.5 -60t-62 -39t-53.5 -23t-33.5 -9
q104 1 187 -13t132 -37t84.5 -51t50 -56t22.5 -51.5t7 -37.5v-15q-3 -53 -34.5 -95t-79.5 -67.5t-105.5 -44t-114.5 -26t-104 -12t-76 -4.5h-29q-96 -2 -178.5 6.5t-142 25.5t-108.5 39t-80.5 47t-55.5 50.5t-36.5 48.5t-20 41t-9.5 28l-2 11q-20 100 -26.5 224t-2 229
t11.5 195.5t15 142.5l7 52q11 61 38 111t63.5 83.5t81.5 59.5t91.5 40.5t92.5 24t87 12t72 3t49 -0.5zM391 1708q3 5 18.5 22.5t47.5 48t68 57t84.5 46t92.5 19.5q43 0 89.5 -20.5t82 -47.5t67.5 -58.5t46.5 -49t18.5 -23.5q28 -38 19.5 -86t-48.5 -76t-87.5 -19.5
t-76.5 48.5l-15 17q-16 18 -42.5 42t-53.5 39q-35 -22 -67 -48t-47 -41l-15 -15q-3 -4 -8.5 -9.5t-22.5 -18t-35 -17.5t-44.5 0t-52.5 26q-38 31 -44 79t25 85z" />
    <glyph glyph-name="Edieresis" unicode="&#xcb;" horiz-adv-x="1368" 
d="M702 1456q171 -4 293.5 -32.5t174.5 -66t79 -74.5t27 -62v-25q1 -67 -28 -117.5t-77 -79t-106 -47t-116.5 -24t-106.5 -7.5t-78 1l-31 2q64 -10 114 -28t79 -37.5t49 -41t27 -41t10.5 -35t2.5 -25.5l-1 -9q0 -44 -20.5 -82t-47.5 -60t-62 -39t-53.5 -23t-33.5 -9
q104 1 187 -13t132 -37t84.5 -51t50 -56t22.5 -51.5t7 -37.5v-15q-3 -53 -34.5 -95t-79.5 -67.5t-105.5 -44t-114.5 -26t-104 -12t-76 -4.5h-29q-96 -2 -178.5 6.5t-142 25.5t-108.5 39t-80.5 47t-55.5 50.5t-36.5 48.5t-20 41t-9.5 28l-2 11q-20 100 -26.5 224t-2 229
t11.5 195.5t15 142.5l7 52q11 61 38 111t63.5 83.5t81.5 59.5t91.5 40.5t92.5 24t87 12t72 3t49 -0.5zM629 1729q0 -69 -42 -114.5t-116 -45.5t-116 45.5t-42 114.5q0 67 42 112t116 45t116 -45t42 -112zM1004 1729q0 -69 -42 -114.5t-116 -45.5t-116 45.5t-42 114.5
q0 67 42 112t116 45t116 -45t42 -112z" />
    <glyph glyph-name="Igrave" unicode="&#xcc;" horiz-adv-x="860" 
d="M80 416q-15 99 -17 242t3 236l6 93q0 10 1.5 26t10 63.5t22 90.5t41.5 95.5t65 90.5t96.5 64.5t131.5 26.5q6 0 16.5 -1t41.5 -9t60 -21.5t66 -43.5t66 -70.5t53.5 -107t34.5 -147.5q20 -169 20 -346t-10 -270l-10 -92q-1 -7 -2.5 -20t-11 -50t-23 -70.5t-40 -74.5
t-60 -70.5t-86 -49t-115.5 -19.5q-69 1 -126 25.5t-93.5 62.5t-64 84.5t-41.5 92.5t-22.5 84t-10.5 61zM408 1929q64 -21 147.5 -78.5t118.5 -101.5q3 -3 7.5 -9t14 -23.5t14.5 -35.5t4 -43.5t-12 -48.5q-13 -25 -34 -40t-42 -19t-40 -4.5t-31 2.5l-12 2q-9 1 -24.5 4
t-59.5 13.5t-83.5 24t-87 37.5t-79.5 52q-36 31 -51 66t-9.5 66t18 55.5t30.5 43.5q19 18 34 28.5t40 19.5t59 6.5t78 -17.5z" />
    <glyph glyph-name="Iacute" unicode="&#xcd;" horiz-adv-x="860" 
d="M80 416q-15 99 -17 242t3 236l6 93q0 10 1.5 26t10 63.5t22 90.5t41.5 95.5t65 90.5t96.5 64.5t131.5 26.5q6 0 16.5 -1t41.5 -9t60 -21.5t66 -43.5t66 -70.5t53.5 -107t34.5 -147.5q20 -169 20 -346t-10 -270l-10 -92q-1 -7 -2.5 -20t-11 -50t-23 -70.5t-40 -74.5
t-60 -70.5t-86 -49t-115.5 -19.5q-69 1 -126 25.5t-93.5 62.5t-64 84.5t-41.5 92.5t-22.5 84t-10.5 61zM199 1745q35 44 118.5 101.5t147.5 78.5q44 15 78 17.5t59 -6.5t40 -19.5t34 -28.5q18 -19 30.5 -43.5t18 -55.5t-9.5 -66t-51 -66q-51 -44 -134.5 -77t-141.5 -44
l-58 -10q-5 -1 -13 -2.5t-30 -2t-41.5 4t-41 19.5t-34.5 40q-17 42 -10.5 77.5t22.5 59.5z" />
    <glyph glyph-name="Icircumflex" unicode="&#xce;" horiz-adv-x="860" 
d="M80 416q-15 99 -17 242t3 236l6 93q0 10 1.5 26t10 63.5t22 90.5t41.5 95.5t65 90.5t96.5 64.5t131.5 26.5q6 0 16.5 -1t41.5 -9t60 -21.5t66 -43.5t66 -70.5t53.5 -107t34.5 -147.5q20 -169 20 -346t-10 -270l-10 -92q-1 -7 -2.5 -20t-11 -50t-23 -70.5t-40 -74.5
t-60 -70.5t-86 -49t-115.5 -19.5q-69 1 -126 25.5t-93.5 62.5t-64 84.5t-41.5 92.5t-22.5 84t-10.5 61zM121 1708q3 5 18.5 22.5t47.5 48t68 57t84.5 46t92.5 19.5q43 0 89.5 -20.5t81.5 -47.5t67 -58.5t46.5 -49t18.5 -23.5q28 -38 20 -86t-48 -76t-87.5 -19.5t-76.5 48.5
l-15 17q-16 18 -42.5 42t-53.5 39q-35 -22 -67 -48t-47 -41l-15 -15q-3 -4 -8.5 -9.5t-23 -18t-35.5 -17.5t-44.5 0t-52.5 26q-38 31 -43.5 79t25.5 85z" />
    <glyph glyph-name="Idieresis" unicode="&#xcf;" horiz-adv-x="860" 
d="M80 416q-15 99 -17 242t3 236l6 93q0 10 1.5 26t10 63.5t22 90.5t41.5 95.5t65 90.5t96.5 64.5t131.5 26.5q6 0 16.5 -1t41.5 -9t60 -21.5t66 -43.5t66 -70.5t53.5 -107t34.5 -147.5q20 -169 20 -346t-10 -270l-10 -92q-1 -7 -2.5 -20t-11 -50t-23 -70.5t-40 -74.5
t-60 -70.5t-86 -49t-115.5 -19.5q-69 1 -126 25.5t-93.5 62.5t-64 84.5t-41.5 92.5t-22.5 84t-10.5 61zM389 1686q0 -69 -42 -114.5t-116 -45.5t-115.5 45.5t-41.5 114.5q0 67 41.5 112t115.5 45t116 -45t42 -112zM764 1686q0 -69 -42 -114.5t-116 -45.5t-115.5 45.5
t-41.5 114.5q0 67 41.5 112t115.5 45t116 -45t42 -112z" />
    <glyph glyph-name="Eth" unicode="&#xd0;" horiz-adv-x="1665" 
d="M1542 369q-26 -89 -78.5 -158.5t-115.5 -110t-133.5 -68.5t-136 -38.5t-118 -15t-84.5 -2.5l-32 1q-90 -1 -167 17t-122 44.5t-77.5 52.5t-45.5 45l-12 18q-65 112 -72 309q-67 4 -119.5 16.5t-102.5 38.5t-78 75t-28 118q0 216 342 241q5 52 12.5 99t11.5 69l5 21
q12 69 41.5 123.5t67 86.5t80.5 54t83 30.5t73 12.5t53 3l20 -1q107 1 202.5 -16t163 -44.5t124 -61t92 -67t60 -61.5t34.5 -46l10 -17q8 -12 19.5 -34t36 -97.5t36 -158.5t3 -213t-47.5 -265zM975 786q-39 0 -60.5 -19t-21.5 -67q0 -45 21 -60t61 -15q35 0 57.5 20.5
t22.5 54.5t-22 60t-58 26z" />
    <glyph glyph-name="Ntilde" unicode="&#xd1;" horiz-adv-x="1685" 
d="M113 1130q1 7 4 18.5t15.5 44.5t29 63.5t47.5 68.5t68.5 65.5t94 48t122.5 23.5q68 3 127 -11.5t101.5 -39.5t78 -63t58.5 -76.5t41.5 -84.5t28 -82.5t16 -76.5t8.5 -59.5t3 -38.5q0 88 11 162.5t29.5 125.5t43 91t51.5 63.5t54 40.5t52 23.5t44 9.5t30 2h11
q53 2 97.5 -10t73.5 -32.5t52.5 -46t36 -51t20.5 -46.5t10 -34l3 -14q25 -132 32.5 -275t0.5 -251.5t-17.5 -198.5t-20.5 -138l-11 -48q-15 -71 -41.5 -126.5t-56 -87t-62.5 -53t-62.5 -29.5t-53.5 -11t-38 -2l-14 2q-86 -2 -160 28t-124 76.5t-90.5 110.5t-63 122t-39 119
t-22 93.5t-7.5 54.5q5 -107 -3 -196t-25.5 -149t-42.5 -107.5t-53.5 -74t-57 -45t-55.5 -24.5t-47.5 -8.5t-32.5 -1.5l-13 2q-65 -2 -118 21t-82.5 56.5t-49 67.5t-25.5 58l-7 24q-29 120 -39.5 258t-5 248.5t15 204t19.5 144.5zM1225 1667q-34 -60 -80.5 -92t-93 -35
t-94.5 7t-89.5 32.5t-74 43t-51.5 36.5l-19 16q-14 -52 -40 -83.5t-53.5 -40t-53 -10t-42.5 3.5l-16 5q-54 19 -82 76t-8 111q2 9 7 23t24.5 50t44.5 63.5t69.5 50.5t96.5 23.5t128 -31t163 -99.5l4 -9q22 62 70 94t108 13q8 -2 20.5 -7t39.5 -25t42 -45.5t13 -71t-33 -99.5
z" />
    <glyph glyph-name="Ograve" unicode="&#xd2;" horiz-adv-x="1531" 
d="M805 1442q105 0 194.5 -23.5t152.5 -64t114 -92.5t82 -109.5t54 -115t34 -109.5t17 -92.5t7 -63.5v-24q0 -157 -36 -284.5t-94 -205.5t-127.5 -136t-139.5 -84.5t-128 -42t-94 -17.5l-36 -1q-118 0 -219 23.5t-171.5 64t-128 92.5t-92.5 109.5t-61 114.5t-38 109
t-18.5 92.5t-7.5 63.5l-1 24q0 173 40.5 309t105.5 215.5t143.5 135t157.5 76.5t144 31t105 7zM774 784q-35 0 -60 -26.5t-22 -59.5q5 -75 82 -75q35 0 57.5 20.5t22.5 54.5t-22 60t-58 26zM748 1935q64 -21 147.5 -78.5t118.5 -101.5q3 -3 7.5 -9t14 -23.5t14.5 -35.5
t4 -43.5t-12 -48.5q-13 -25 -34 -40t-42 -19t-40 -4.5t-31 2.5l-12 2q-9 1 -24.5 4t-59.5 13.5t-83.5 24t-87 37.5t-79.5 52q-36 31 -51 66t-9.5 66t18 55.5t30.5 43.5q19 18 34 28.5t40 19.5t59 6.5t78 -17.5z" />
    <glyph glyph-name="Oacute" unicode="&#xd3;" horiz-adv-x="1531" 
d="M805 1442q105 0 194.5 -23.5t152.5 -64t114 -92.5t82 -109.5t54 -115t34 -109.5t17 -92.5t7 -63.5v-24q0 -157 -36 -284.5t-94 -205.5t-127.5 -136t-139.5 -84.5t-128 -42t-94 -17.5l-36 -1q-118 0 -219 23.5t-171.5 64t-128 92.5t-92.5 109.5t-61 114.5t-38 109
t-18.5 92.5t-7.5 63.5l-1 24q0 173 40.5 309t105.5 215.5t143.5 135t157.5 76.5t144 31t105 7zM774 784q-35 0 -60 -26.5t-22 -59.5q5 -75 82 -75q35 0 57.5 20.5t22.5 54.5t-22 60t-58 26zM512 1745q35 44 118.5 101.5t147.5 78.5q44 15 78 17.5t59 -6.5t40 -19.5t34 -28.5
q18 -19 30.5 -43.5t18 -55.5t-9.5 -66t-51 -66q-51 -44 -134.5 -77t-141.5 -44l-58 -10q-5 -1 -13 -2.5t-30 -2t-41.5 4t-41 19.5t-34.5 40q-17 42 -10.5 77.5t23.5 59.5z" />
    <glyph glyph-name="Ocircumflex" unicode="&#xd4;" horiz-adv-x="1531" 
d="M805 1442q105 0 194.5 -23.5t152.5 -64t114 -92.5t82 -109.5t54 -115t34 -109.5t17 -92.5t7 -63.5v-24q0 -157 -36 -284.5t-94 -205.5t-127.5 -136t-139.5 -84.5t-128 -42t-94 -17.5l-36 -1q-118 0 -219 23.5t-171.5 64t-128 92.5t-92.5 109.5t-61 114.5t-38 109
t-18.5 92.5t-7.5 63.5l-1 24q0 173 40.5 309t105.5 215.5t143.5 135t157.5 76.5t144 31t105 7zM465 1706q3 5 18.5 22.5t47.5 47.5t68 56.5t84.5 46t92.5 19.5q43 0 89.5 -20.5t81.5 -47.5t67 -58t46.5 -48.5t18.5 -23.5q28 -38 20 -86t-48 -76t-87.5 -19.5t-76.5 48.5
l-15 17q-16 18 -42.5 42t-53.5 39q-35 -22 -67 -48t-47 -41l-15 -15q-3 -4 -8.5 -9.5t-23 -18t-35.5 -17.5t-44.5 0t-52.5 26q-38 31 -43.5 79t25.5 85zM774 784q-35 0 -60 -26.5t-22 -59.5q5 -75 82 -75q35 0 57.5 20.5t22.5 54.5t-22 60t-58 26z" />
    <glyph glyph-name="Otilde" unicode="&#xd5;" horiz-adv-x="1531" 
d="M805 1442q105 0 194.5 -23.5t152.5 -64t114 -92.5t82 -109.5t54 -115t34 -109.5t17 -92.5t7 -63.5v-24q0 -157 -36 -284.5t-94 -205.5t-127.5 -136t-139.5 -84.5t-128 -42t-94 -17.5l-36 -1q-118 0 -219 23.5t-171.5 64t-128 92.5t-92.5 109.5t-61 114.5t-38 109
t-18.5 92.5t-7.5 63.5l-1 24q0 173 40.5 309t105.5 215.5t143.5 135t157.5 76.5t144 31t105 7zM1147 1655q-34 -60 -80.5 -92t-93 -35t-94.5 7t-89.5 32.5t-74 43t-51.5 36.5l-19 16q-14 -52 -40 -83.5t-53.5 -40t-53 -10t-42.5 3.5l-16 5q-54 19 -82 75.5t-8 110.5
q2 9 7 23t24.5 50t44.5 63.5t69.5 50.5t96.5 23.5t128 -31t163 -99.5l4 -8q22 62 70 94t108 13q8 -2 20.5 -7t39.5 -25t42 -45.5t13 -71t-33 -99.5zM774 784q-35 0 -60 -26.5t-22 -59.5q5 -75 82 -75q35 0 57.5 20.5t22.5 54.5t-22 60t-58 26z" />
    <glyph glyph-name="Odieresis" unicode="&#xd6;" horiz-adv-x="1531" 
d="M805 1442q105 0 194.5 -23.5t152.5 -64t114 -92.5t82 -109.5t54 -115t34 -109.5t17 -92.5t7 -63.5v-24q0 -157 -36 -284.5t-94 -205.5t-127.5 -136t-139.5 -84.5t-128 -42t-94 -17.5l-36 -1q-118 0 -219 23.5t-171.5 64t-128 92.5t-92.5 109.5t-61 114.5t-38 109
t-18.5 92.5t-7.5 63.5l-1 24q0 173 40.5 309t105.5 215.5t143.5 135t157.5 76.5t144 31t105 7zM774 784q-35 0 -60 -26.5t-22 -59.5q5 -75 82 -75q35 0 57.5 20.5t22.5 54.5t-22 60t-58 26zM748 1720q0 -69 -42 -114t-116 -45t-116 45t-42 114q0 67 42 112.5t116 45.5
t116 -45.5t42 -112.5zM1122 1720q0 -69 -41.5 -114t-115.5 -45t-116 45t-42 114q0 67 42 112.5t116 45.5t115.5 -45t41.5 -113z" />
    <glyph glyph-name="multiply" unicode="&#xd7;" horiz-adv-x="1097" 
d="M965 362q-5 -6 -14.5 -15.5t-40 -29t-63 -29t-80.5 -4t-95 34.5q-12 8 -45.5 30.5t-51.5 35.5q-29 -25 -55.5 -45.5t-38.5 -28.5l-12 -8q-44 -32 -90.5 -39.5t-81.5 4.5t-63 28.5t-43 31.5l-15 16q-2 2 -5.5 6t-13.5 18t-18 28.5t-16.5 37t-11.5 45t-0.5 51t12.5 56.5
q23 59 82 137q-23 26 -41.5 50.5t-25.5 36.5l-7 11q-32 44 -39.5 90t5 80.5t29.5 62.5t32 43l16 15q4 4 12 11t33 22t51.5 23.5t66 9t77.5 -14.5q53 -18 137 -78q63 50 106 74q43 26 87 33.5t75.5 -0.5t57 -20t38.5 -24l13 -11q6 -5 15 -14.5t28.5 -40t29 -62.5t3.5 -80
t-35 -94q-16 -26 -64 -96q51 -67 80 -117q27 -44 35 -88t-0.5 -75.5t-20 -56.5t-23.5 -38z" />
    <glyph glyph-name="Oslash" unicode="&#xd8;" horiz-adv-x="1531" 
d="M805 1442q148 0 270 -51q90 89 150 126t108 37q65 0 117.5 -43.5t52.5 -107.5q0 -17 -4.5 -36t-15 -40.5t-19 -38t-26.5 -41.5t-26.5 -37t-29.5 -39t-26 -34q46 -83 72 -180t29 -153l3 -56q0 -157 -36 -284.5t-94 -205.5t-127.5 -136t-139.5 -84.5t-128 -42t-94 -17.5
l-36 -1q-220 0 -373 78q-33 -38 -52 -58t-52.5 -49.5t-65.5 -43t-65 -13.5q-61 0 -106.5 46t-45.5 108q0 63 123 264q-44 79 -69 169.5t-28 141.5l-3 50q0 173 40.5 309t105.5 215.5t143.5 135t157.5 76.5t144 31t105 7zM774 784q-35 0 -60 -26.5t-22 -59.5q5 -75 82 -75
q35 0 57.5 20.5t22.5 54.5t-22 60t-58 26z" />
    <glyph glyph-name="Ugrave" unicode="&#xd9;" horiz-adv-x="1570" 
d="M440 1456q6 0 15.5 -0.5t37 -7t52.5 -17t55.5 -34t52.5 -55t37 -83t15 -114.5q0 -31 -0.5 -75.5t-1 -74t-0.5 -67t2 -62.5t5 -52.5t9 -45t14.5 -32.5t21.5 -22t29 -7q65 0 78 132q6 65 0 293v13q-2 64 13 115t40 81t55.5 52t61.5 31t57 13.5t42 4.5h16q78 4 141 -17.5
t97 -55t57 -68.5t30 -59l7 -25q26 -115 33 -240.5t-2 -222t-21 -176.5t-23 -123l-12 -43l-8.5 -25.5t-28 -62.5t-52 -88t-83.5 -93.5t-117.5 -88t-157.5 -61.5t-202 -24q-90 1 -171.5 17.5t-139 42t-106.5 56.5t-80 62t-53 56t-31 41l-9 16q-57 97 -90 224t-38.5 239
t-3 209.5t10.5 155.5l8 57q13 70 39 125t57 87t65 54.5t65 30.5t56.5 12t40.5 3zM694 1917q64 -21 148 -78.5t119 -101.5q3 -3 7.5 -9t14 -23.5t14.5 -35.5t4 -43.5t-12 -48.5q-13 -25 -34 -40t-42 -19t-40.5 -4.5t-31.5 2.5l-12 2q-9 1 -24.5 4t-59 13.5t-83 24t-87 37.5
t-79.5 52q-47 41 -57 89t4.5 81.5t39.5 60.5q19 18 34 28.5t40 19.5t59 6.5t78 -17.5z" />
    <glyph glyph-name="Uacute" unicode="&#xda;" horiz-adv-x="1570" 
d="M440 1456q6 0 15.5 -0.5t37 -7t52.5 -17t55.5 -34t52.5 -55t37 -83t15 -114.5q0 -31 -0.5 -75.5t-1 -74t-0.5 -67t2 -62.5t5 -52.5t9 -45t14.5 -32.5t21.5 -22t29 -7q65 0 78 132q6 65 0 293v13q-2 64 13 115t40 81t55.5 52t61.5 31t57 13.5t42 4.5h16q78 4 141 -17.5
t97 -55t57 -68.5t30 -59l7 -25q26 -115 33 -240.5t-2 -222t-21 -176.5t-23 -123l-12 -43l-8.5 -25.5t-28 -62.5t-52 -88t-83.5 -93.5t-117.5 -88t-157.5 -61.5t-202 -24q-90 1 -171.5 17.5t-139 42t-106.5 56.5t-80 62t-53 56t-31 41l-9 16q-57 97 -90 224t-38.5 239
t-3 209.5t10.5 155.5l8 57q13 70 39 125t57 87t65 54.5t65 30.5t56.5 12t40.5 3zM588 1747q35 44 118.5 101.5t147.5 78.5q44 15 78 17.5t59 -6.5t40 -19.5t34 -28.5q18 -19 30.5 -43.5t18 -55.5t-9.5 -66t-51 -66q-51 -44 -134.5 -77t-141.5 -44l-58 -10q-5 -1 -13 -2.5
t-30 -2t-41.5 4t-41 19.5t-34.5 40q-17 42 -10.5 77.5t23.5 59.5z" />
    <glyph glyph-name="Ucircumflex" unicode="&#xdb;" horiz-adv-x="1570" 
d="M440 1456q6 0 15.5 -0.5t37 -7t52.5 -17t55.5 -34t52.5 -55t37 -83t15 -114.5q0 -31 -0.5 -75.5t-1 -74t-0.5 -67t2 -62.5t5 -52.5t9 -45t14.5 -32.5t21.5 -22t29 -7q65 0 78 132q6 65 0 293v13q-2 64 13 115t40 81t55.5 52t61.5 31t57 13.5t42 4.5h16q78 4 141 -17.5
t97 -55t57 -68.5t30 -59l7 -25q26 -115 33 -240.5t-2 -222t-21 -176.5t-23 -123l-12 -43l-8.5 -25.5t-28 -62.5t-52 -88t-83.5 -93.5t-117.5 -88t-157.5 -61.5t-202 -24q-90 1 -171.5 17.5t-139 42t-106.5 56.5t-80 62t-53 56t-31 41l-9 16q-57 97 -90 224t-38.5 239
t-3 209.5t10.5 155.5l8 57q13 70 39 125t57 87t65 54.5t65 30.5t56.5 12t40.5 3zM485 1702q3 5 18.5 22.5t48 47.5t68.5 56.5t84.5 46t92.5 19.5q43 0 89.5 -20.5t81.5 -47.5t67 -58t46.5 -48.5t18.5 -23.5q28 -38 19.5 -86t-48.5 -76t-87.5 -19.5t-76.5 48.5l-15 17
q-15 18 -41.5 42t-53.5 39q-35 -22 -67 -48t-47 -41l-15 -16q-3 -4 -8.5 -9.5t-23 -17.5t-35.5 -17t-44.5 0t-52.5 26q-38 31 -44 79t25 85z" />
    <glyph glyph-name="Udieresis" unicode="&#xdc;" horiz-adv-x="1570" 
d="M440 1456q6 0 15.5 -0.5t37 -7t52.5 -17t55.5 -34t52.5 -55t37 -83t15 -114.5q0 -31 -0.5 -75.5t-1 -74t-0.5 -67t2 -62.5t5 -52.5t9 -45t14.5 -32.5t21.5 -22t29 -7q65 0 78 132q6 65 0 293v13q-2 64 13 115t40 81t55.5 52t61.5 31t57 13.5t42 4.5h16q78 4 141 -17.5
t97 -55t57 -68.5t30 -59l7 -25q26 -115 33 -240.5t-2 -222t-21 -176.5t-23 -123l-12 -43l-8.5 -25.5t-28 -62.5t-52 -88t-83.5 -93.5t-117.5 -88t-157.5 -61.5t-202 -24q-90 1 -171.5 17.5t-139 42t-106.5 56.5t-80 62t-53 56t-31 41l-9 16q-57 97 -90 224t-38.5 239
t-3 209.5t10.5 155.5l8 57q13 70 39 125t57 87t65 54.5t65 30.5t56.5 12t40.5 3zM756 1720q0 -69 -42 -114t-116 -45t-116 45t-42 114q0 67 42 112.5t116 45.5t116 -45.5t42 -112.5zM1130 1720q0 -69 -41.5 -114t-115.5 -45t-116 45t-42 114q0 67 42 112.5t116 45.5
t115.5 -45t41.5 -113z" />
    <glyph glyph-name="Yacute" unicode="&#xdd;" horiz-adv-x="1515" 
d="M799 1120q23 85 58 151.5t71.5 104t75.5 63t73.5 33.5t61.5 11.5t43 1.5l16 -2q71 -8 124 -33.5t81.5 -59t46 -72t21 -75.5t3 -67.5t-3.5 -49.5l-4 -18q-20 -84 -65.5 -160t-96.5 -124.5t-99 -85t-79 -52.5l-32 -16q30 -96 35.5 -188.5t-7.5 -155.5t-30 -113t-32 -74
l-16 -24q-46 -65 -105 -93t-140 -28q-49 0 -93 9.5t-72 23.5t-49 28t-31 23l-9 10q-49 55 -75.5 133.5t-30 151.5t0 138t11.5 105l8 39q-8 3 -21.5 9t-52.5 28t-75.5 46.5t-82.5 65t-81 84t-63 102.5t-36 122q-10 73 0.5 134t34.5 100t55.5 68.5t65 44.5t61.5 24.5t46 11.5
l18 2q74 5 140.5 -13.5t113 -51.5t85 -74t62.5 -82.5t40.5 -76.5t22.5 -57zM655 1747q35 44 119 101.5t148 78.5q44 15 78 17.5t59 -6.5t40 -19.5t34 -28.5q25 -27 39.5 -60.5t4.5 -81.5t-57 -89q-51 -44 -134.5 -77t-141.5 -44l-58 -10q-5 -1 -13 -2.5t-30 -2t-41 4
t-40.5 19.5t-34.5 40q-17 42 -11 77.5t22 59.5z" />
    <glyph glyph-name="Thorn" unicode="&#xde;" horiz-adv-x="1449" 
d="M1362 758q3 -81 -15.5 -148.5t-52.5 -112.5t-79 -80t-95.5 -54t-101.5 -32t-97.5 -16.5t-82 -5t-56.5 0.5l-22 1q19 -104 2 -171t-58 -103t-84 -52t-76 -18l-32 -2q-80 -3 -148 19.5t-108 57t-68.5 70t-39.5 60.5l-11 25q-53 148 -68.5 269.5t-15.5 285.5
q0 142 16.5 261.5t61.5 270.5q2 6 5.5 16t17.5 39t32 55t49.5 57t68 51.5t89.5 32t113 5.5q4 0 11 -0.5t29.5 -4t41.5 -10t47.5 -18t48.5 -29t43 -42.5t31 -58.5t13.5 -77t-9.5 -98.5q98 -3 181 -20t141 -43.5t104.5 -59.5t75 -69.5t49 -72.5t29.5 -68t14 -57t6 -40v-14z
M791 821q-35 0 -60 -26.5t-22 -59.5q5 -76 82 -76q34 0 56.5 20.5t22.5 55.5t-21.5 60.5t-57.5 25.5z" />
    <glyph glyph-name="germandbls" unicode="&#xdf;" horiz-adv-x="1345" 
d="M61 659q0 131 15 249.5t30 171.5l15 53q28 78 73 139t95.5 96.5t105 60.5t103.5 34t88.5 13.5t62.5 3.5l23 -1q79 -3 148.5 -19.5t117.5 -41t88 -53t63.5 -56.5t40 -51t22.5 -38l7 -14q29 -74 29.5 -144.5t-18.5 -118t-42.5 -84t-43.5 -53.5l-19 -18q60 -20 106.5 -54
t71 -69t40 -67t19.5 -52l5 -20q1 -8 2.5 -21.5t2 -54.5t-3 -80.5t-17 -92t-36 -96t-63.5 -85t-96 -67.5q-77 -36 -146.5 -39.5t-120 20t-87 56.5t-60.5 75q-42 75 -17 164.5t91 116.5q36 14 48 44t6 54l-5 23q-19 59 -94 59q-37 0 -59.5 -23.5t-22.5 -66.5q0 -34 1.5 -67.5
t2 -49.5t-4 -56t-14.5 -108q-11 -68 -34.5 -114t-57.5 -68t-67.5 -30.5t-77.5 -8.5t-83.5 14.5t-83.5 57.5t-76 112t-52.5 189t-20.5 276zM705 1069q-34 0 -58 -22.5t-24 -55.5q0 -37 20 -62.5t62 -25.5q38 0 59.5 26.5t21.5 61.5q0 78 -81 78z" />
    <glyph glyph-name="agrave" unicode="&#xe0;" horiz-adv-x="1441" 
d="M496 1051q81 8 147.5 -5t103.5 -34t64 -50t35 -44.5t12 -26.5q2 8 7.5 22t23.5 42.5t42 51t67 40.5t94 18q62 0 112.5 -29t82 -75t54.5 -101.5t33.5 -111t16.5 -101.5t7 -75l1 -29q5 -100 -2 -184t-22.5 -141t-37.5 -102t-47.5 -71.5t-51 -44.5t-49.5 -25t-42.5 -10.5
t-29.5 -2.5l-11 1q-1 2 -11.5 0t-29.5 2t-41.5 8.5t-46.5 19.5t-45 34.5t-37.5 53t-22.5 75.5q-2 -9 -8 -23.5t-35 -50.5t-70.5 -61.5t-122 -40.5t-181.5 -3q-8 0 -22.5 1.5t-55 12.5t-78 28.5t-83 54.5t-78 85.5t-55 127t-22.5 174.5q-1 11 -1.5 31t4.5 77.5t17.5 111
t43.5 119.5t76 116t121.5 88t173.5 47zM682 1550q64 -21 147.5 -78.5t118.5 -101.5q3 -3 7.5 -9t14.5 -23.5t15 -35.5t4 -43.5t-12 -48.5q-13 -25 -34 -40t-42 -19t-40.5 -4.5t-31.5 1.5l-12 3q-9 1 -24.5 4t-59.5 13.5t-83.5 24t-87 37.5t-79.5 52q-36 31 -51 66t-9.5 66
t18 55.5t30.5 43.5q19 18 34 28.5t40 19.5t59 6.5t78 -17.5zM768 569q-35 0 -60 -26.5t-22 -59.5q5 -75 82 -75q35 0 57.5 20.5t22.5 54.5t-22 60t-58 26z" />
    <glyph glyph-name="aacute" unicode="&#xe1;" horiz-adv-x="1441" 
d="M858 891q2 7 6.5 19t22.5 42t42 52.5t67.5 41.5t95.5 19q62 0 112.5 -29t82 -75t54.5 -101.5t33.5 -111t16.5 -101.5t7 -75l1 -29q5 -100 -2 -184t-22.5 -141t-37.5 -102t-47.5 -71.5t-51 -44.5t-49.5 -25t-42.5 -10.5t-29.5 -2.5l-11 1q-1 2 -11.5 0t-29.5 2t-41.5 8.5
t-46.5 19.5t-45 34.5t-37.5 53t-22.5 75.5q-2 -9 -8 -23.5t-35 -50.5t-70.5 -61.5t-122 -40.5t-181.5 -3q-8 0 -22.5 1.5t-55 12.5t-78 28.5t-83 54.5t-78 85.5t-55 127t-22.5 174.5q-1 11 -1.5 31t4.5 77.5t17.5 111t43.5 119.5t76 116t121.5 88t173.5 47q65 6 116 0.5
t89 -19.5t65.5 -32t45 -37t28 -35t14.5 -26zM768 569q-35 0 -60 -26.5t-22 -59.5q5 -75 82 -75q35 0 57.5 20.5t22.5 54.5t-22 60t-58 26zM514 1366q35 44 118.5 101.5t147.5 78.5q44 15 78 17.5t59 -6.5t40 -19.5t34 -28.5q18 -19 30.5 -43.5t18 -55.5t-9.5 -66t-51 -66
q-51 -44 -134.5 -77t-141.5 -43l-58 -11q-5 -1 -13 -2.5t-30 -2t-41.5 4t-41 19.5t-34.5 40q-17 42 -10.5 77.5t23.5 58.5z" />
    <glyph glyph-name="acircumflex" unicode="&#xe2;" horiz-adv-x="1441" 
d="M858 891q2 7 6.5 19t22.5 42t42 52.5t67.5 41.5t95.5 19q62 0 112.5 -29t82 -75t54.5 -101.5t33.5 -111t16.5 -101.5t7 -75l1 -29q5 -100 -2 -184t-22.5 -141t-37.5 -102t-47.5 -71.5t-51 -44.5t-49.5 -25t-42.5 -10.5t-29.5 -2.5l-11 1q-1 2 -11.5 0t-29.5 2t-41.5 8.5
t-46.5 19.5t-45 34.5t-37.5 53t-22.5 75.5q-2 -9 -8 -23.5t-35 -50.5t-70.5 -61.5t-122 -40.5t-181.5 -3q-8 0 -22.5 1.5t-55 12.5t-78 28.5t-83 54.5t-78 85.5t-55 127t-22.5 174.5q-1 11 -1.5 31t4.5 77.5t17.5 111t43.5 119.5t76 116t121.5 88t173.5 47q65 6 116 0.5
t89 -19.5t65.5 -32t45 -37t28 -35t14.5 -26zM416 1341q3 5 18.5 22.5t47.5 48t68 57t84.5 46t92.5 19.5q43 0 89.5 -20.5t81.5 -47.5t67 -58.5t46.5 -49t18.5 -23.5q28 -38 19.5 -85.5t-48.5 -75.5t-87 -20t-76 48l-16 18q-15 17 -41.5 41t-53.5 39q-35 -22 -67 -48t-47 -41
l-15 -15q-3 -4 -8.5 -9.5t-23 -17.5t-35.5 -17t-44.5 0t-52.5 26q-38 31 -43.5 78.5t25.5 84.5zM768 569q-35 0 -60 -26.5t-22 -59.5q5 -75 82 -75q35 0 57.5 20.5t22.5 54.5t-22 60t-58 26z" />
    <glyph glyph-name="atilde" unicode="&#xe3;" horiz-adv-x="1482" 
d="M496 1051q81 8 147.5 -5t103.5 -34t64 -50t35 -44.5t12 -26.5q2 8 7.5 22t23.5 42.5t42 51t67 40.5t94 18q62 0 112.5 -29t82 -75t54.5 -101.5t33.5 -111t16.5 -101.5t7 -75l1 -29q5 -100 -2 -184t-22.5 -141t-37.5 -102t-47.5 -71.5t-51 -44.5t-49.5 -25t-42.5 -10.5
t-29.5 -2.5l-11 1q-1 2 -11.5 0t-29.5 2t-41.5 8.5t-46.5 19.5t-45 34.5t-37.5 53t-22.5 75.5q-2 -9 -8 -23.5t-35 -50.5t-70.5 -61.5t-122 -40.5t-181.5 -3q-8 0 -22.5 1.5t-55 12.5t-78 28.5t-83 54.5t-78 85.5t-55 127t-22.5 174.5q-1 11 -1.5 31t4.5 77.5t17.5 111
t43.5 119.5t76 116t121.5 88t173.5 47zM1112 1288q-34 -60 -80.5 -92t-93 -35t-94.5 7t-89.5 32.5t-74 43t-51.5 36.5l-19 16q-14 -52 -40 -83.5t-53.5 -40t-52.5 -10t-42 3.5l-16 5q-54 19 -82.5 76t-8.5 111q2 9 7 23t24.5 50t44.5 63.5t69.5 50.5t96.5 23.5t128 -31
t163 -99.5l4 -8q21 62 69.5 93.5t108.5 12.5q8 -2 20.5 -7t39.5 -25t42 -45.5t13 -71t-33 -99.5zM768 569q-35 0 -60 -26.5t-22 -59.5q5 -75 82 -75q35 0 57.5 20.5t22.5 54.5t-22 60t-58 26z" />
    <glyph glyph-name="adieresis" unicode="&#xe4;" horiz-adv-x="1441" 
d="M496 1051q81 8 147.5 -5t103.5 -34t64 -50t35 -44.5t12 -26.5q2 8 7.5 22t23.5 42.5t42 51t67 40.5t94 18q62 0 112.5 -29t82 -75t54.5 -101.5t33.5 -111t16.5 -101.5t7 -75l1 -29q5 -100 -2 -184t-22.5 -141t-37.5 -102t-47.5 -71.5t-51 -44.5t-49.5 -25t-42.5 -10.5
t-29.5 -2.5l-11 1q-1 2 -11.5 0t-29.5 2t-41.5 8.5t-46.5 19.5t-45 34.5t-37.5 53t-22.5 75.5q-2 -9 -8 -23.5t-35 -50.5t-70.5 -61.5t-122 -40.5t-181.5 -3q-8 0 -22.5 1.5t-55 12.5t-78 28.5t-83 54.5t-78 85.5t-55 127t-22.5 174.5q-1 11 -1.5 31t4.5 77.5t17.5 111
t43.5 119.5t76 116t121.5 88t173.5 47zM1112 1348q0 -69 -42 -114.5t-116 -45.5t-115.5 45.5t-41.5 114.5q0 67 41.5 112t115.5 45t116 -45t42 -112zM737 1348q0 -69 -41.5 -114.5t-115.5 -45.5t-116 45.5t-42 114.5q0 67 42 112t116 45t115.5 -45t41.5 -112zM768 569
q-35 0 -60 -26.5t-22 -59.5q5 -75 82 -75q35 0 57.5 20.5t22.5 54.5t-22 60t-58 26z" />
    <glyph glyph-name="aring" unicode="&#xe5;" horiz-adv-x="1441" 
d="M496 1051q81 8 147.5 -5t103.5 -34t64 -50t35 -44.5t12 -26.5q2 8 7.5 22t23.5 42.5t42 51t67 40.5t94 18q62 0 112.5 -29t82 -75t54.5 -101.5t33.5 -111t16.5 -101.5t7 -75l1 -29q5 -100 -2 -184t-22.5 -141t-37.5 -102t-47.5 -71.5t-51 -44.5t-49.5 -25t-42.5 -10.5
t-29.5 -2.5l-11 1q-1 2 -11.5 0t-29.5 2t-41.5 8.5t-46.5 19.5t-45 34.5t-37.5 53t-22.5 75.5q-2 -9 -8 -23.5t-35 -50.5t-70.5 -61.5t-122 -40.5t-181.5 -3q-8 0 -22.5 1.5t-55 12.5t-78 28.5t-83 54.5t-78 85.5t-55 127t-22.5 174.5q-1 11 -1.5 31t4.5 77.5t17.5 111
t43.5 119.5t76 116t121.5 88t173.5 47zM1012 1329q0 -98 -73.5 -166.5t-176.5 -68.5q-105 0 -178.5 68.5t-73.5 166.5q0 97 74 166.5t178 69.5q103 0 176.5 -69.5t73.5 -166.5zM760 1440q-55 0 -83 -30.5t-28 -78.5q0 -47 28 -75.5t85 -28.5q106 0 106 102q0 54 -28.5 82.5
t-79.5 28.5zM768 569q-35 0 -60 -26.5t-22 -59.5q5 -75 82 -75q35 0 57.5 20.5t22.5 54.5t-22 60t-58 26z" />
    <glyph glyph-name="ae" unicode="&#xe6;" horiz-adv-x="2195" 
d="M1708 422q42 -34 98 -51t102 -21.5t88.5 -13t70 -36.5t34.5 -81q1 -6 1.5 -16t-4.5 -38.5t-18 -53.5t-45 -54.5t-79 -48.5q-13 -4 -35.5 -10.5t-93.5 -17.5t-142.5 -12.5t-173 15t-194.5 54.5q-11 4 -27 14q-36 -34 -77.5 -49.5t-64.5 -14.5l-24 1q-1 2 -11.5 0t-29.5 2
t-41 8.5t-46.5 19t-45 34t-37 53t-22.5 75.5q-2 -9 -8 -23.5t-35.5 -50.5t-70.5 -61t-122 -40t-182 -3q-8 0 -22.5 1.5t-55 12.5t-77.5 28t-82.5 54t-78 85.5t-55 127t-22.5 174.5q-1 11 -1.5 31t4.5 77.5t17 111t43 119.5t76 116t121.5 88t173.5 47q81 8 147.5 -5
t103.5 -34t64.5 -50t35.5 -44.5t12 -26.5q2 8 7.5 22t23.5 42.5t42 51.5t66.5 41t93.5 18q106 0 178 -82q50 29 88 41q8 3 21.5 7t56 12t85.5 12t104.5 0.5t118 -16.5t120.5 -44.5t117 -79.5q5 -4 12.5 -12t27 -35t34.5 -58t27.5 -80t13.5 -102q1 -61 -23 -108.5
t-64.5 -74.5t-93 -43.5t-110 -15t-115.5 10.5zM770 412q34 0 56 19t22 54q0 39 -22.5 62.5t-55.5 23.5q-32 0 -54 -23.5t-22 -62.5q0 -35 21.5 -54t54.5 -19zM1651 539q28 0 46.5 16t18.5 43q0 28 -16.5 44.5t-48.5 16.5t-48 -16.5t-16 -44.5q0 -59 64 -59z" />
    <glyph glyph-name="ccedilla" unicode="&#xe7;" horiz-adv-x="1167" 
d="M786 584q-6 2 -15.5 4t-34 4t-43.5 -2t-34.5 -20.5t-15.5 -45.5q0 -4 1 -10.5t8.5 -21t21.5 -23t43.5 -8t70.5 15.5q4 2 11.5 5t31 9t47 8t55.5 -2t61 -15.5t60.5 -38.5t55.5 -66q4 -7 10 -20t12.5 -51.5t1 -75.5t-37 -86.5t-88.5 -90.5q-13 -9 -37 -22.5t-100 -39.5
t-154 -32v-43q103 -2 174.5 -56.5t71.5 -148.5q0 -100 -75 -156.5t-175 -56.5q-13 0 -37 1t-37 1q-38 0 -65 27t-27 65q0 74 92 74q7 0 24 -1t27 -1q82 0 82 53q0 33 -29 45q-33 11 -77 11q-68 0 -97 16q-37 18 -37 64v116q-90 15 -192 60q-5 2 -14.5 7t-37 24.5t-52 43.5
t-55 65.5t-52 89.5t-36.5 117t-15 146v24t6 60.5t18 89t39 100t64.5 103t100 89.5t140.5 67q7 2 20.5 6t54.5 12t82.5 11.5t100 0.5t112 -15.5t112.5 -42.5t108 -75l10.5 -10.5t21 -30.5t22.5 -51t7.5 -70t-16.5 -88q-1 -2 -2.5 -5.5t-7.5 -14.5t-14 -21t-21.5 -23
t-29.5 -23.5t-39 -20t-48.5 -14t-60 -4t-72.5 7.5z" />
    <glyph glyph-name="egrave" unicode="&#xe8;" horiz-adv-x="1198" 
d="M735 424q42 -34 98 -51t102 -21.5t88.5 -13t70 -36.5t34.5 -81q1 -6 1.5 -16t-4.5 -38.5t-18 -53.5t-45 -54.5t-79 -48.5q-13 -4 -35.5 -10.5t-93.5 -17.5t-142.5 -12.5t-173 15t-194.5 54.5q-6 2 -16.5 7t-41 24.5t-58 43.5t-60.5 66t-56 90t-37.5 117.5t-11.5 147.5
q0 8 0.5 22.5t7.5 58t18.5 84.5t37 95.5t60 99.5t91 88t125.5 68q8 3 21.5 7t56 12t85.5 12t104.5 0.5t118 -16.5t120.5 -44.5t117 -79.5q5 -4 12.5 -12t27 -35t34.5 -58t27.5 -80t13.5 -102q1 -61 -23 -108.5t-64.5 -74.5t-93 -43.5t-110 -15t-115.5 10.5zM682 684
q-35 0 -60 -26.5t-22 -59.5q5 -76 82 -76q35 0 57.5 20.5t22.5 55.5q0 34 -22 60t-58 26zM569 1550q64 -21 148 -78.5t119 -101.5q3 -3 7.5 -9t14 -23.5t14.5 -35.5t4 -43.5t-12 -48.5q-13 -25 -34 -40t-42 -19t-40 -4.5t-31 1.5l-12 3q-9 1 -24.5 4t-59.5 13.5t-83.5 24
t-87 37.5t-79.5 52q-47 41 -57 89t4.5 81.5t39.5 60.5q19 18 34 28.5t40 19.5t59 6.5t78 -17.5z" />
    <glyph glyph-name="eacute" unicode="&#xe9;" horiz-adv-x="1198" 
d="M735 424q42 -34 98 -51t102 -21.5t88.5 -13t70 -36.5t34.5 -81q1 -6 1.5 -16t-4.5 -38.5t-18 -53.5t-45 -54.5t-79 -48.5q-13 -4 -35.5 -10.5t-93.5 -17.5t-142.5 -12.5t-173 15t-194.5 54.5q-6 2 -16.5 7t-41 24.5t-58 43.5t-60.5 66t-56 90t-37.5 117.5t-11.5 147.5
q0 8 0.5 22.5t7.5 58t18.5 84.5t37 95.5t60 99.5t91 88t125.5 68q8 3 21.5 7t56 12t85.5 12t104.5 0.5t118 -16.5t120.5 -44.5t117 -79.5q5 -4 12.5 -12t27 -35t34.5 -58t27.5 -80t13.5 -102q1 -61 -23 -108.5t-64.5 -74.5t-93 -43.5t-110 -15t-115.5 10.5zM682 684
q-35 0 -60 -26.5t-22 -59.5q5 -76 82 -76q35 0 57.5 20.5t22.5 55.5q0 34 -22 60t-58 26zM367 1366q35 44 118.5 101.5t147.5 78.5q44 15 78 17.5t59 -6.5t40 -19.5t34 -28.5q25 -27 39.5 -60.5t4.5 -81.5t-57 -89q-51 -44 -134.5 -77t-140.5 -43l-58 -11q-5 -1 -13 -2.5
t-30 -2t-41.5 4t-41 19.5t-34.5 40q-17 42 -10.5 77.5t22.5 58.5z" />
    <glyph glyph-name="ecircumflex" unicode="&#xea;" horiz-adv-x="1198" 
d="M735 424q42 -34 98 -51t102 -21.5t88.5 -13t70 -36.5t34.5 -81q1 -6 1.5 -16t-4.5 -38.5t-18 -53.5t-45 -54.5t-79 -48.5q-13 -4 -35.5 -10.5t-93.5 -17.5t-142.5 -12.5t-173 15t-194.5 54.5q-6 2 -16.5 7t-41 24.5t-58 43.5t-60.5 66t-56 90t-37.5 117.5t-11.5 147.5
q0 8 0.5 22.5t7.5 58t18.5 84.5t37 95.5t60 99.5t91 88t125.5 68q8 3 21.5 7t56 12t85.5 12t104.5 0.5t118 -16.5t120.5 -44.5t117 -79.5q5 -4 12.5 -12t27 -35t34.5 -58t27.5 -80t13.5 -102q1 -61 -23 -108.5t-64.5 -74.5t-93 -43.5t-110 -15t-115.5 10.5zM330 1341
q3 5 18.5 22.5t47.5 48t68 57t84.5 46t92.5 19.5q43 0 89.5 -20.5t81.5 -47.5t67 -58.5t46.5 -49t18.5 -23.5q28 -38 19.5 -85.5t-48.5 -75.5t-87 -20t-76 48l-16 18q-15 17 -41.5 41t-53.5 39q-35 -22 -67 -48t-47 -41l-15 -15q-3 -4 -8.5 -9.5t-23 -17.5t-35.5 -17
t-44.5 0t-52.5 26q-38 31 -43.5 78.5t25.5 84.5zM682 684q-35 0 -60 -26.5t-22 -59.5q5 -76 82 -76q35 0 57.5 20.5t22.5 55.5q0 34 -22 60t-58 26z" />
    <glyph glyph-name="edieresis" unicode="&#xeb;" horiz-adv-x="1198" 
d="M735 424q42 -34 98 -51t102 -21.5t88.5 -13t70 -36.5t34.5 -81q1 -6 1.5 -16t-4.5 -38.5t-18 -53.5t-45 -54.5t-79 -48.5q-13 -4 -35.5 -10.5t-93.5 -17.5t-142.5 -12.5t-173 15t-194.5 54.5q-6 2 -16.5 7t-41 24.5t-58 43.5t-60.5 66t-56 90t-37.5 117.5t-11.5 147.5
q0 8 0.5 22.5t7.5 58t18.5 84.5t37 95.5t60 99.5t91 88t125.5 68q8 3 21.5 7t56 12t85.5 12t104.5 0.5t118 -16.5t120.5 -44.5t117 -79.5q5 -4 12.5 -12t27 -35t34.5 -58t27.5 -80t13.5 -102q1 -61 -23 -108.5t-64.5 -74.5t-93 -43.5t-110 -15t-115.5 10.5zM682 684
q-35 0 -60 -26.5t-22 -59.5q5 -76 82 -76q35 0 57.5 20.5t22.5 55.5q0 34 -22 60t-58 26zM602 1348q0 -69 -42 -114.5t-116 -45.5t-115.5 45.5t-41.5 114.5q0 67 41.5 112t115.5 45t116 -45t42 -112zM977 1348q0 -69 -42 -114.5t-116 -45.5t-115.5 45.5t-41.5 114.5
q0 67 41.5 112t115.5 45t116 -45t42 -112z" />
    <glyph glyph-name="igrave" unicode="&#xec;" horiz-adv-x="796" 
d="M711 217q-8 -50 -28.5 -90.5t-46.5 -65t-55.5 -42t-57.5 -25.5t-50.5 -12.5t-36.5 -4.5h-14q-65 -2 -119.5 15.5t-85.5 44.5t-52.5 54.5t-29.5 46.5l-8 20q-31 84 -43 183.5t-7 182t14 153t19 110.5l9 40q20 71 57 121.5t75.5 73t74.5 34.5t59 12l23 1q52 3 97 -9
t75 -33.5t54.5 -48t38.5 -53.5t23.5 -49.5t13.5 -36.5l3 -14q3 -9 6.5 -26t11 -76t10 -124t-4.5 -169t-25 -213zM379 1550q64 -21 147.5 -78.5t118.5 -101.5q3 -3 7.5 -9t14.5 -23.5t15 -35.5t4 -43.5t-12 -48.5q-13 -25 -34 -40t-42 -19t-40.5 -4.5t-31.5 1.5l-12 3
q-9 1 -24.5 4t-59.5 13.5t-83.5 24t-87 37.5t-79.5 52q-36 31 -51 66t-9.5 66t18 55.5t30.5 43.5q19 18 34 28.5t40 19.5t59 6.5t78 -17.5z" />
    <glyph glyph-name="iacute" unicode="&#xed;" horiz-adv-x="796" 
d="M711 217q-8 -50 -28.5 -90.5t-46.5 -65t-55.5 -42t-57.5 -25.5t-50.5 -12.5t-36.5 -4.5h-14q-65 -2 -119.5 15.5t-85.5 44.5t-52.5 54.5t-29.5 46.5l-8 20q-31 84 -43 183.5t-7 182t14 153t19 110.5l9 40q20 71 57 121.5t75.5 73t74.5 34.5t59 12l23 1q52 3 97 -9
t75 -33.5t54.5 -48t38.5 -53.5t23.5 -49.5t13.5 -36.5l3 -14q3 -9 6.5 -26t11 -76t10 -124t-4.5 -169t-25 -213zM180 1366q35 44 118.5 101.5t147.5 78.5q44 15 78 17.5t59 -6.5t40 -19.5t34 -28.5q18 -19 30.5 -43.5t18 -55.5t-9.5 -66t-51 -66q-51 -44 -134.5 -77
t-141.5 -43l-58 -11q-5 -1 -13 -2.5t-30 -2t-41 4t-40.5 19.5t-34.5 40q-17 42 -11 77.5t23 58.5z" />
    <glyph glyph-name="icircumflex" unicode="&#xee;" horiz-adv-x="796" 
d="M711 217q-8 -50 -28.5 -90.5t-46.5 -65t-55.5 -42t-57.5 -25.5t-50.5 -12.5t-36.5 -4.5h-14q-65 -2 -119.5 15.5t-85.5 44.5t-52.5 54.5t-29.5 46.5l-8 20q-31 84 -43 183.5t-7 182t14 153t19 110.5l9 40q20 71 57 121.5t75.5 73t74.5 34.5t59 12l23 1q52 3 97 -9
t75 -33.5t54.5 -48t38.5 -53.5t23.5 -49.5t13.5 -36.5l3 -14q3 -9 6.5 -26t11 -76t10 -124t-4.5 -169t-25 -213zM92 1341q3 5 18.5 22.5t47.5 48t68 57t84.5 46t92.5 19.5q43 0 89.5 -20.5t82 -47.5t67.5 -58.5t46.5 -49t18.5 -23.5q28 -38 19.5 -85.5t-48.5 -75.5
t-87.5 -20t-76.5 48l-16 18q-15 17 -41.5 41t-53.5 39q-35 -22 -67 -48t-47 -41l-15 -15q-3 -4 -8.5 -9.5t-22.5 -17.5t-35 -17t-44.5 0t-52.5 26q-38 31 -44 78.5t25 84.5z" />
    <glyph glyph-name="idieresis" unicode="&#xef;" horiz-adv-x="796" 
d="M711 217q-8 -50 -28.5 -90.5t-46.5 -65t-55.5 -42t-57.5 -25.5t-50.5 -12.5t-36.5 -4.5h-14q-65 -2 -119.5 15.5t-85.5 44.5t-52.5 54.5t-29.5 46.5l-8 20q-31 84 -43 183.5t-7 182t14 153t19 110.5l9 40q20 71 57 121.5t75.5 73t74.5 34.5t59 12l23 1q52 3 97 -9
t75 -33.5t54.5 -48t38.5 -53.5t23.5 -49.5t13.5 -36.5l3 -14q3 -9 6.5 -26t11 -76t10 -124t-4.5 -169t-25 -213zM393 1348q0 -69 -41.5 -114.5t-115.5 -45.5t-116 45.5t-42 114.5q0 67 42 112t116 45t115.5 -45t41.5 -112zM768 1348q0 -69 -42 -114.5t-116 -45.5
t-115.5 45.5t-41.5 114.5q0 67 41.5 112t115.5 45t116 -45t42 -112z" />
    <glyph glyph-name="eth" unicode="&#xf0;" horiz-adv-x="1681" 
d="M1647 1288q0 -3 0.5 -7.5t-1 -18t-5.5 -26t-14 -29t-25 -29.5t-41.5 -24.5t-59.5 -16.5q-122 -12 -135 -13q5 -80 6.5 -129t1 -149t-13 -195t-37.5 -180q-33 -135 -103.5 -222.5t-205.5 -164.5q-160 -83 -371.5 -90.5t-361.5 67.5q-7 4 -19 11t-45 32t-60.5 54t-56 76.5
t-41.5 99.5q-17 67 -21 141.5t6.5 154.5t46 156.5t93.5 131.5q51 49 111.5 81.5t116 45.5t110.5 17.5t99.5 -0.5t79.5 -11t54 -13l19 -6q-6 35 -10 86q-86 4 -129 8q-53 3 -92 18.5t-57 35.5t-28 39t-11 32l-1 13q0 3 -0.5 8t1.5 19t7.5 28t19.5 31.5t34 31t54.5 25.5
t78.5 18q73 8 162 15q65 143 221 143q169 0 260 -145l178 -13q53 -5 91.5 -21t56 -35t27 -37.5t9.5 -31.5zM731 561q-35 0 -60 -26.5t-22 -59.5q5 -76 82 -76q35 0 57.5 20.5t22.5 55.5q0 34 -22 60t-58 26z" />
    <glyph glyph-name="ntilde" unicode="&#xf1;" horiz-adv-x="1466" 
d="M1432 471q1 -9 1.5 -24.5t-2 -60.5t-10 -87t-28 -95t-50.5 -94t-81.5 -74.5t-118.5 -45.5l-54 -2q-163 4 -241 108q-50 68 -55 176q-19 289 -72 289q7 -88 7.5 -164t-2.5 -107l-3 -32q0 -6 -1.5 -15.5t-9.5 -37.5t-20 -54t-35.5 -57.5t-54 -54t-78.5 -38.5t-106 -17
q-55 -1 -101.5 14.5t-77.5 40.5t-56 55t-39 61t-23 56t-12 41l-3 16q-2 7 -5 21t-10 61t-11.5 98.5t-4.5 130.5t7 160q1 6 2.5 17.5t9.5 43.5t19.5 62t35 66.5t53.5 63.5t76.5 47.5t102.5 23.5q69 4 124 -5t86.5 -22.5t59.5 -39.5t38 -41t26 -42q8 5 23 13t60.5 27.5
t90 32.5t105.5 19.5t115 -3t110.5 -43.5t98.5 -92t73.5 -159.5t40.5 -236.5zM1116 1288q-34 -60 -80.5 -92t-93 -35t-94.5 7t-89.5 32.5t-74 43t-51.5 36.5l-19 16q-14 -52 -40 -83.5t-53.5 -40t-52.5 -10t-42 3.5l-16 5q-54 19 -82.5 76t-8.5 111q2 9 7 23t24.5 50
t44.5 63.5t69.5 50.5t96.5 23.5t128 -31t163 -99.5l4 -8q21 62 69.5 93.5t108.5 12.5q8 -2 20.5 -7t39.5 -25t42 -45.5t13 -71t-33 -99.5z" />
    <glyph glyph-name="ograve" unicode="&#xf2;" horiz-adv-x="1200" 
d="M1106 238q-24 -45 -59.5 -85.5t-69 -66t-63.5 -44.5t-48 -28l-18 -8q-49 -20 -101 -31.5t-79 -12.5l-27 -1q-96 0 -178 18t-139 48t-103.5 69t-75 82t-49.5 86t-31 82t-15.5 69t-5.5 48l-1 18q0 129 33 230.5t85.5 161t116.5 100.5t128 57t116.5 23.5t85.5 5.5l33 -2
q85 0 157 -17.5t122.5 -47.5t91.5 -69t66.5 -82t44 -86t27 -82t13.5 -69t5 -48l1 -17q0 -178 -63 -301zM629 561q-35 0 -60 -26.5t-22 -59.5q5 -76 82 -76q35 0 57.5 20.5t22.5 55.5q0 34 -22 60t-58 26zM569 1550q64 -21 148 -78.5t119 -101.5q3 -3 7.5 -9t14 -23.5
t14.5 -35.5t4 -43.5t-12 -48.5q-13 -25 -34 -40t-42 -19t-40 -4.5t-31 1.5l-12 3q-9 1 -24.5 4t-59.5 13.5t-83.5 24t-87 37.5t-79.5 52q-47 41 -57 89t4.5 81.5t39.5 60.5q19 18 34 28.5t40 19.5t59 6.5t78 -17.5z" />
    <glyph glyph-name="oacute" unicode="&#xf3;" horiz-adv-x="1200" 
d="M1106 238q-24 -45 -59.5 -85.5t-69 -66t-63.5 -44.5t-48 -28l-18 -8q-49 -20 -101 -31.5t-79 -12.5l-27 -1q-96 0 -178 18t-139 48t-103.5 69t-75 82t-49.5 86t-31 82t-15.5 69t-5.5 48l-1 18q0 129 33 230.5t85.5 161t116.5 100.5t128 57t116.5 23.5t85.5 5.5l33 -2
q85 0 157 -17.5t122.5 -47.5t91.5 -69t66.5 -82t44 -86t27 -82t13.5 -69t5 -48l1 -17q0 -178 -63 -301zM629 561q-35 0 -60 -26.5t-22 -59.5q5 -76 82 -76q35 0 57.5 20.5t22.5 55.5q0 34 -22 60t-58 26zM371 1366q35 44 118.5 101.5t147.5 78.5q44 15 78 17.5t59 -6.5
t40 -19.5t34 -28.5q18 -19 30.5 -43.5t18 -55.5t-9.5 -66t-51 -66q-51 -44 -134.5 -77t-141.5 -43l-58 -11q-5 -1 -13 -2.5t-30 -2t-41.5 4t-41 19.5t-34.5 40q-17 42 -10.5 77.5t22.5 58.5z" />
    <glyph glyph-name="ocircumflex" unicode="&#xf4;" horiz-adv-x="1200" 
d="M1106 238q-24 -45 -59.5 -85.5t-69 -66t-63.5 -44.5t-48 -28l-18 -8q-49 -20 -101 -31.5t-79 -12.5l-27 -1q-96 0 -178 18t-139 48t-103.5 69t-75 82t-49.5 86t-31 82t-15.5 69t-5.5 48l-1 18q0 129 33 230.5t85.5 161t116.5 100.5t128 57t116.5 23.5t85.5 5.5l33 -2
q85 0 157 -17.5t122.5 -47.5t91.5 -69t66.5 -82t44 -86t27 -82t13.5 -69t5 -48l1 -17q0 -178 -63 -301zM322 1341q3 5 18.5 22.5t47.5 48t68 57t84.5 46t92.5 19.5q43 0 89.5 -20.5t81.5 -47.5t67 -58.5t46.5 -49t18.5 -23.5q28 -38 19.5 -85.5t-48.5 -75.5t-87.5 -20
t-76.5 48l-15 18q-15 17 -41.5 41t-53.5 39q-35 -22 -67 -48t-47 -41l-15 -15q-3 -4 -8.5 -9.5t-23 -17.5t-35.5 -17t-44.5 0t-52.5 26q-38 31 -43.5 78.5t25.5 84.5zM629 561q-35 0 -60 -26.5t-22 -59.5q5 -76 82 -76q35 0 57.5 20.5t22.5 55.5q0 34 -22 60t-58 26z" />
    <glyph glyph-name="otilde" unicode="&#xf5;" horiz-adv-x="1200" 
d="M1106 238q-24 -45 -59.5 -85.5t-69 -66t-63.5 -44.5t-48 -28l-18 -8q-49 -20 -101 -31.5t-79 -12.5l-27 -1q-96 0 -178 18t-139 48t-103.5 69t-75 82t-49.5 86t-31 82t-15.5 69t-5.5 48l-1 18q0 129 33 230.5t85.5 161t116.5 100.5t128 57t116.5 23.5t85.5 5.5l33 -2
q85 0 157 -17.5t122.5 -47.5t91.5 -69t66.5 -82t44 -86t27 -82t13.5 -69t5 -48l1 -17q0 -178 -63 -301zM985 1288q-34 -60 -80.5 -92t-93 -35t-94.5 7t-89.5 32.5t-74 43t-51.5 36.5l-19 16q-14 -52 -40 -83.5t-53.5 -40t-52.5 -10t-41 3.5l-17 5q-54 19 -82.5 76t-8.5 111
q2 9 7 23t24.5 50t44.5 63.5t69.5 50.5t96.5 23.5t128 -31t163 -99.5l4 -8q21 62 69.5 93.5t108.5 12.5q8 -2 20.5 -7t39.5 -25t42 -45.5t13 -71t-33 -99.5zM629 561q-35 0 -60 -26.5t-22 -59.5q5 -76 82 -76q35 0 57.5 20.5t22.5 55.5q0 34 -22 60t-58 26z" />
    <glyph glyph-name="odieresis" unicode="&#xf6;" horiz-adv-x="1200" 
d="M1106 238q-24 -45 -59.5 -85.5t-69 -66t-63.5 -44.5t-48 -28l-18 -8q-49 -20 -101 -31.5t-79 -12.5l-27 -1q-96 0 -178 18t-139 48t-103.5 69t-75 82t-49.5 86t-31 82t-15.5 69t-5.5 48l-1 18q0 129 33 230.5t85.5 161t116.5 100.5t128 57t116.5 23.5t85.5 5.5l33 -2
q85 0 157 -17.5t122.5 -47.5t91.5 -69t66.5 -82t44 -86t27 -82t13.5 -69t5 -48l1 -17q0 -178 -63 -301zM629 561q-35 0 -60 -26.5t-22 -59.5q5 -76 82 -76q35 0 57.5 20.5t22.5 55.5q0 34 -22 60t-58 26zM594 1348q0 -69 -42 -114.5t-116 -45.5t-115.5 45.5t-41.5 114.5
q0 67 41.5 112t115.5 45t116 -45t42 -112zM969 1348q0 -69 -42 -114.5t-116 -45.5t-116 45.5t-42 114.5q0 67 42 112t116 45t116 -45t42 -112z" />
    <glyph glyph-name="divide" unicode="&#xf7;" horiz-adv-x="1175" 
d="M770 1300q0 -88 -53 -144t-148 -56q-94 0 -147 56t-53 144q0 87 53 144t147 57q95 0 148 -57t53 -144zM770 242q0 -88 -53 -144.5t-148 -56.5q-94 0 -147 56.5t-53 144.5q0 87 53 143.5t147 56.5q95 0 148 -56.5t53 -143.5zM881 993q60 -14 104.5 -41t64.5 -55.5
t31.5 -54.5t12.5 -43l2 -17q1 -4 1.5 -10.5t0.5 -25.5t-4 -37.5t-15.5 -42.5t-29 -43.5t-49.5 -37.5t-74 -28q-168 -39 -330 -41.5t-322 23.5q-62 9 -108 34t-66.5 54t-32.5 57.5t-13 47.5l-1 18q-1 4 -1.5 11t1.5 27.5t7.5 40t20.5 45t38 46t62.5 40t90.5 29.5
q142 27 294 28t234 -11z" />
    <glyph glyph-name="oslash" unicode="&#xf8;" horiz-adv-x="1200" 
d="M1106 238q-24 -45 -59.5 -85.5t-69 -66t-63.5 -44.5t-48 -28l-18 -8q-49 -20 -101 -31.5t-79 -12.5l-27 -1q-137 0 -256 39q-4 -3 -30 -23.5t-34.5 -26.5t-31.5 -21t-37 -21t-34 -11.5t-38 -5.5q-63 0 -103 38t-40 98q0 80 86 184q-36 59 -56 126.5t-22 105.5l-2 38
q0 129 33 230.5t85.5 161t116.5 100.5t128 57t116.5 23.5t85.5 5.5l33 -2q103 0 188 -29q126 96 205 96q74 0 112 -34t38 -93q0 -86 -78 -204q28 -57 44 -120.5t18 -98.5l1 -35q0 -178 -63 -301zM629 561q-35 0 -60 -26.5t-22 -59.5q5 -76 82 -76q35 0 57.5 20.5t22.5 55.5
q0 34 -22 60t-58 26z" />
    <glyph glyph-name="ugrave" unicode="&#xf9;" horiz-adv-x="1392" 
d="M420 1053q4 0 12 -1t30 -8t42.5 -17t45.5 -30.5t43.5 -47t31.5 -69.5t14 -94q0 -9 0.5 -32.5t0.5 -36.5t1 -36t3 -36.5t5 -32t8 -29.5t11.5 -21.5t16 -15.5t20.5 -5q43 0 52 47t11 198q0 55 13.5 99t34 71.5t45 47.5t49.5 29.5t45.5 15t32.5 5.5l13 1q55 3 101.5 -8
t77 -30.5t54.5 -44t36.5 -49t21 -45.5t10.5 -34l3 -13q16 -86 16 -166.5t-12.5 -151t-27 -122.5t-26.5 -82l-12 -30q-2 -7 -7.5 -18.5t-25.5 -45t-44.5 -63.5t-68 -67t-94 -62.5t-123.5 -42.5t-155 -15q-87 2 -163 15t-129 32t-97 41t-70.5 44t-45 40.5t-25.5 29.5l-7 11
q-47 69 -72.5 161t-28 174t1.5 154t12 115l8 43q12 56 36 98.5t52.5 66t59.5 39t60 20.5t52 6.5t37 -0.5zM612 1550q64 -21 148 -78.5t119 -101.5q3 -3 7.5 -9t14 -23.5t14.5 -35.5t4 -43.5t-12 -48.5q-13 -25 -34 -40t-42 -19t-40 -4.5t-31 1.5l-12 3q-9 1 -24.5 4
t-59.5 13.5t-83.5 24t-87 37.5t-79.5 52q-47 41 -57 89t4.5 81.5t39.5 60.5q19 18 34 28.5t40 19.5t59 6.5t78 -17.5z" />
    <glyph glyph-name="uacute" unicode="&#xfa;" horiz-adv-x="1392" 
d="M420 1053q4 0 12 -1t30 -8t42.5 -17t45.5 -30.5t43.5 -47t31.5 -69.5t14 -94q0 -9 0.5 -32.5t0.5 -36.5t1 -36t3 -36.5t5 -32t8 -29.5t11.5 -21.5t16 -15.5t20.5 -5q43 0 52 47t11 198q0 55 13.5 99t34 71.5t45 47.5t49.5 29.5t45.5 15t32.5 5.5l13 1q55 3 101.5 -8
t77 -30.5t54.5 -44t36.5 -49t21 -45.5t10.5 -34l3 -13q16 -86 16 -166.5t-12.5 -151t-27 -122.5t-26.5 -82l-12 -30q-2 -7 -7.5 -18.5t-25.5 -45t-44.5 -63.5t-68 -67t-94 -62.5t-123.5 -42.5t-155 -15q-87 2 -163 15t-129 32t-97 41t-70.5 44t-45 40.5t-25.5 29.5l-7 11
q-47 69 -72.5 161t-28 174t1.5 154t12 115l8 43q12 56 36 98.5t52.5 66t59.5 39t60 20.5t52 6.5t37 -0.5zM492 1366q35 44 118.5 101.5t147.5 78.5q44 15 78 17.5t59 -6.5t40 -19.5t34 -28.5q25 -27 39.5 -60.5t4.5 -81.5t-57 -89q-51 -44 -134.5 -77t-141.5 -43l-57 -11
q-5 -1 -13 -2.5t-30 -2t-41.5 4t-41 19.5t-34.5 40q-17 42 -10.5 77.5t23.5 58.5z" />
    <glyph glyph-name="ucircumflex" unicode="&#xfb;" horiz-adv-x="1392" 
d="M420 1053q4 0 12 -1t30 -8t42.5 -17t45.5 -30.5t43.5 -47t31.5 -69.5t14 -94q0 -9 0.5 -32.5t0.5 -36.5t1 -36t3 -36.5t5 -32t8 -29.5t11.5 -21.5t16 -15.5t20.5 -5q43 0 52 47t11 198q0 55 13.5 99t34 71.5t45 47.5t49.5 29.5t45.5 15t32.5 5.5l13 1q55 3 101.5 -8
t77 -30.5t54.5 -44t36.5 -49t21 -45.5t10.5 -34l3 -13q16 -86 16 -166.5t-12.5 -151t-27 -122.5t-26.5 -82l-12 -30q-2 -7 -7.5 -18.5t-25.5 -45t-44.5 -63.5t-68 -67t-94 -62.5t-123.5 -42.5t-155 -15q-87 2 -163 15t-129 32t-97 41t-70.5 44t-45 40.5t-25.5 29.5l-7 11
q-47 69 -72.5 161t-28 174t1.5 154t12 115l8 43q12 56 36 98.5t52.5 66t59.5 39t60 20.5t52 6.5t37 -0.5zM383 1341q3 5 18.5 22.5t47.5 48t68 57t84.5 46t92.5 19.5q43 0 89.5 -20.5t81.5 -47.5t67 -58.5t46.5 -49t18.5 -23.5q28 -38 20 -85.5t-48 -75.5t-87.5 -20
t-76.5 48l-15 18q-16 17 -42.5 41t-53.5 39q-35 -22 -67 -48t-47 -41l-15 -15q-3 -4 -8.5 -9.5t-23 -17.5t-35.5 -17t-44.5 0t-52.5 26q-38 31 -43.5 78.5t25.5 84.5z" />
    <glyph glyph-name="udieresis" unicode="&#xfc;" horiz-adv-x="1392" 
d="M420 1053q4 0 12 -1t30 -8t42.5 -17t45.5 -30.5t43.5 -47t31.5 -69.5t14 -94q0 -9 0.5 -32.5t0.5 -36.5t1 -36t3 -36.5t5 -32t8 -29.5t11.5 -21.5t16 -15.5t20.5 -5q43 0 52 47t11 198q0 55 13.5 99t34 71.5t45 47.5t49.5 29.5t45.5 15t32.5 5.5l13 1q55 3 101.5 -8
t77 -30.5t54.5 -44t36.5 -49t21 -45.5t10.5 -34l3 -13q16 -86 16 -166.5t-12.5 -151t-27 -122.5t-26.5 -82l-12 -30q-2 -7 -7.5 -18.5t-25.5 -45t-44.5 -63.5t-68 -67t-94 -62.5t-123.5 -42.5t-155 -15q-87 2 -163 15t-129 32t-97 41t-70.5 44t-45 40.5t-25.5 29.5l-7 11
q-47 69 -72.5 161t-28 174t1.5 154t12 115l8 43q12 56 36 98.5t52.5 66t59.5 39t60 20.5t52 6.5t37 -0.5zM678 1348q0 -69 -42 -114.5t-116 -45.5t-116 45.5t-42 114.5q0 67 42 112t116 45t116 -45t42 -112zM1053 1348q0 -69 -42 -114.5t-116 -45.5t-116 45.5t-42 114.5
q0 67 42 112t116 45t116 -45t42 -112z" />
    <glyph glyph-name="yacute" unicode="&#xfd;" horiz-adv-x="1456" 
d="M1241 1034q5 -2 13.5 -5.5t30.5 -20.5t39.5 -39.5t33 -65.5t19 -96t-10 -133t-47.5 -174q-43 -119 -94.5 -235t-94.5 -197.5t-79.5 -145.5t-56.5 -96l-21 -31q-4 -8 -11.5 -21t-33 -48.5t-53 -65.5t-71 -62t-88 -48.5t-102.5 -15t-116 29.5q-257 123 -28 602q5 11 7 16
l-71 66q-80 61 -150 136.5t-100 121.5l-31 45q-4 5 -10 15t-20 41t-23 62.5t-11.5 76t7.5 86.5t40.5 89.5t81.5 88.5q5 3 13 8t35.5 15t55.5 15t69.5 1.5t81.5 -18.5t88 -51t92 -91q23 -30 120 -168q75 136 132 203q170 198 364 110zM514 1366q35 44 118.5 101.5t147.5 78.5
q44 15 78 17.5t59 -6.5t40 -19.5t34 -28.5q18 -19 30.5 -43.5t18 -55.5t-9.5 -66t-51 -66q-51 -44 -134.5 -77t-141.5 -43l-58 -11q-5 -1 -13 -2.5t-30 -2t-41.5 4t-41 19.5t-34.5 40q-17 42 -10.5 77.5t23.5 58.5z" />
    <glyph glyph-name="thorn" unicode="&#xfe;" horiz-adv-x="1394" 
d="M1260 872q81 -113 92 -288t-49 -297q-26 -56 -61 -102.5t-67 -74t-60 -46.5t-45 -26l-17 -7q-18 -8 -37.5 -14.5t-35.5 -10.5t-38.5 -6.5t-35 -4.5t-38 -1.5t-35 0.5t-38 2t-35 2.5t-37.5 4t-35 3.5q5 -30 9 -62.5t6 -88t-2 -104t-19.5 -103t-42 -93.5t-73 -66.5
t-109.5 -31.5q-53 -3 -100 13.5t-79 45t-59 64.5t-43 72.5t-27 66.5t-15 49l-5 19q-4 12 -10 35t-21.5 98.5t-26.5 155.5t-18.5 201t-3.5 241q0 164 20 350.5t40 291.5l20 104q1 7 3 19.5t11.5 47.5t23.5 67t40 70.5t58.5 65.5t82.5 44.5t109 14.5q71 -4 122.5 -38t76 -84.5
t37.5 -111t12 -120.5t-5 -109t-10 -80l-6 -30q8 3 22 6.5t57 11t85.5 10t101 -3.5t110 -23.5t105.5 -55t95 -93.5zM793 561q-35 0 -60 -26.5t-22 -59.5q5 -76 82 -76q34 0 56.5 20.5t22.5 55.5t-21.5 60.5t-57.5 25.5z" />
    <glyph glyph-name="ydieresis" unicode="&#xff;" horiz-adv-x="1456" 
d="M1241 1034q5 -2 13.5 -5.5t30.5 -20.5t39.5 -39.5t33 -65.5t19 -96t-10 -133t-47.5 -174q-43 -119 -94.5 -235t-94.5 -197.5t-79.5 -145.5t-56.5 -96l-21 -31q-4 -8 -11.5 -21t-33 -48.5t-53 -65.5t-71 -62t-88 -48.5t-102.5 -15t-116 29.5q-257 123 -28 602q5 11 7 16
l-71 66q-80 61 -150 136.5t-100 121.5l-31 45q-4 5 -10 15t-20 41t-23 62.5t-11.5 76t7.5 86.5t40.5 89.5t81.5 88.5q5 3 13 8t35.5 15t55.5 15t69.5 1.5t81.5 -18.5t88 -51t92 -91q23 -30 120 -168q75 136 132 203q170 198 364 110zM692 1348q0 -69 -41.5 -114.5
t-115.5 -45.5t-116 45.5t-42 114.5q0 67 42 112t116 45t115.5 -45t41.5 -112zM1067 1348q0 -69 -42 -114.5t-116 -45.5t-115.5 45.5t-41.5 114.5q0 67 41.5 112t115.5 45t116 -45t42 -112z" />
    <glyph glyph-name="dotlessi" unicode="&#x131;" horiz-adv-x="796" 
d="M711 217q-8 -50 -28.5 -90.5t-46.5 -65t-55.5 -42t-57.5 -25.5t-50.5 -12.5t-36.5 -4.5h-14q-65 -2 -119.5 15.5t-85.5 44.5t-52.5 54.5t-29.5 46.5l-8 20q-31 84 -43 183.5t-7 182t14 153t19 110.5l9 40q20 71 57 121.5t75.5 73t74.5 34.5t59 12l23 1q52 3 97 -9
t75 -33.5t54.5 -48t38.5 -53.5t23.5 -49.5t13.5 -36.5l3 -14q3 -9 6.5 -26t11 -76t10 -124t-4.5 -169t-25 -213z" />
    <glyph glyph-name="Lslash" unicode="&#x141;" horiz-adv-x="1488" 
d="M883 582q97 52 180 71t138 8.5t98.5 -36t68 -60.5t40.5 -66.5t21 -54.5l5 -22q3 -14 3.5 -34.5t-3.5 -50t-13 -60.5t-29 -65.5t-47 -66.5t-70.5 -62t-97.5 -52t-129.5 -36.5t-164.5 -17.5q-104 -3 -193.5 18t-150 56.5t-109 79t-77 87.5t-47.5 80.5t-26 59.5l-6 23
q-18 50 -32 129q-31 -8 -66 -8q-68 0 -110.5 40t-42.5 93q0 66 56.5 124t147.5 101q3 65 9.5 129.5t11.5 96.5l6 32q12 71 36.5 128t54 91.5t61.5 59t62 34.5t54 15.5t38 5.5h15q234 5 304 -287q57 11 82 11q79 0 122 -40.5t43 -88.5q0 -62 -60 -135t-163 -136
q-4 -50 -9 -98.5t-8 -71.5z" />
    <glyph glyph-name="lslash" unicode="&#x142;" horiz-adv-x="1144" 
d="M248 414l-6 55q-46 -8 -68 -8q-68 0 -111 40t-43 93q0 67 60 126t156 105q3 79 8.5 159.5t9.5 121.5l4 41q1 8 2.5 23t10 57t21 80t37.5 85t57 80.5t82.5 56.5t111.5 23q6 0 16 -0.5t39 -7.5t56.5 -21t62 -45t61.5 -74.5t49.5 -115.5t30.5 -162q56 9 63 9
q79 0 122.5 -40.5t43.5 -88.5q0 -60 -57.5 -131t-157.5 -134q0 -117 -5.5 -232t-11.5 -171l-5 -57q0 -7 -1.5 -18.5t-9.5 -44t-20.5 -62.5t-37.5 -66t-58 -61.5t-84.5 -42.5t-114.5 -15q-59 2 -107.5 27t-80 64.5t-56 86.5t-37 93.5t-20.5 85t-10 62.5z" />
    <glyph glyph-name="OE" unicode="&#x152;" horiz-adv-x="2299" 
d="M2025 750q0 -48 -19 -85.5t-45.5 -58.5t-61.5 -35.5t-61.5 -19.5t-51.5 -6q74 1 136.5 -7.5t106 -24t78.5 -35.5t56.5 -42.5t36.5 -45t22 -43t10.5 -36.5t3.5 -25v-10q-2 -54 -30.5 -98t-72 -71t-95.5 -47.5t-103.5 -30.5t-94 -15.5t-68.5 -6.5l-27 -1q-386 -29 -567 113
q-50 -37 -108 -64.5t-105 -40t-86.5 -19.5t-61.5 -8l-22 -1q-150 0 -272 38t-197 99t-130.5 135t-80.5 148t-40 135t-17 99l-1 38q0 173 40.5 309t106 215.5t144 135t157 76.5t144 31t105.5 7l41 -2q227 0 379 -109q53 45 130 76.5t149 44t136 18t103 4.5l39 -1
q84 2 155 -5.5t120 -21t88 -31.5t62 -38.5t39.5 -41t23 -39.5t10 -33.5t3.5 -22.5v-9q1 -67 -25 -119t-68.5 -82.5t-94.5 -51.5t-104 -29t-95.5 -11.5t-70.5 -2.5l-27 1q62 -5 110.5 -18.5t77 -31t48.5 -38t28 -39.5t11.5 -34.5t3.5 -24.5zM772 782q-35 0 -60 -26.5
t-22 -59.5q5 -75 82 -75q35 0 57.5 20.5t22.5 54.5t-22 60t-58 26z" />
    <glyph glyph-name="oe" unicode="&#x153;" horiz-adv-x="1921" 
d="M1425 403q42 -34 98 -51t102.5 -21t89 -12.5t70 -36.5t34.5 -81q1 -6 1.5 -16t-5 -38.5t-18 -53.5t-45 -54.5t-79.5 -48.5q-13 -4 -35.5 -10.5t-93.5 -17.5t-142.5 -12.5t-173 14.5t-194.5 54q-33 14 -76 45q-21 -14 -42 -25t-32 -16l-10 -4q-49 -20 -100.5 -31.5
t-78.5 -12.5l-27 -1q-96 0 -178 18t-139 48t-103.5 69t-75 82.5t-49.5 86.5t-31 82t-15.5 69t-6.5 48v18q0 102 20.5 186.5t55 141.5t79.5 102t94.5 70.5t99 43t94.5 23.5t79.5 8.5t55.5 0.5l20 -1q194 0 321 -92q53 35 105 53q8 3 21.5 7t56 12t85.5 12t104 1t117.5 -16.5
t120.5 -44.5t117 -79q5 -4 12.5 -12t27 -35t34.5 -58t27.5 -80t13.5 -102q1 -76 -35.5 -130.5t-95.5 -78.5t-131.5 -32t-143.5 9zM1391 682q-35 0 -60 -26.5t-22 -59.5q5 -76 82 -76q34 0 56.5 20.5t22.5 55.5t-21.5 60.5t-57.5 25.5zM637 582q-35 0 -60 -26.5t-22 -59.5
q5 -76 82 -76q35 0 57.5 20.5t22.5 55.5q0 34 -22 60t-58 26z" />
    <glyph glyph-name="Scaron" unicode="&#x160;" horiz-adv-x="1280" 
d="M627 942q98 -13 180.5 -36.5t139.5 -53t102.5 -63.5t72 -69t46 -68.5t27 -63t12 -51.5t3.5 -35v-13q0 -80 -18 -148t-49 -115.5t-71 -86.5t-84 -63t-88 -42t-84 -26.5t-71 -13.5t-49 -6h-18q-102 -7 -182.5 -1.5t-141.5 21t-106 37t-75.5 48t-50 53t-30 51t-15 44
t-5.5 31.5v11q-1 73 24 127.5t66 84t90.5 48t99 22.5t91 4.5t67.5 -3.5l25 -3q-76 17 -138.5 45.5t-104 61.5t-73 71t-48.5 75.5t-28 74t-14 67.5t-3.5 54.5t1.5 37.5l2 13q12 84 43.5 150t73 105.5t89.5 67t93 39t82 17t60 4.5h22q93 4 170.5 -1t132 -18t98.5 -31.5
t69.5 -41.5t44.5 -48.5t25 -51.5t10 -51.5t-1 -47.5q-6 -55 -37.5 -96.5t-77 -64t-99.5 -36.5t-107 -17.5t-96 -3.5t-70 3zM967 1726q-3 -5 -18.5 -22.5t-48 -47.5t-68.5 -56.5t-84.5 -46t-92.5 -19.5q-43 0 -89.5 20.5t-81.5 47.5t-67 58.5t-46.5 49t-18.5 23.5
q-28 38 -19.5 85.5t48.5 75.5t87.5 20t76.5 -48h-2l7 -8q7 -9 17 -19.5t23 -23.5t30.5 -26t34.5 -22q35 22 67 48t47 41l15 16q3 4 8.5 9.5t23 17.5t35.5 17t44.5 0t52.5 -26q38 -31 44 -79t-25 -85z" />
    <glyph glyph-name="scaron" unicode="&#x161;" horiz-adv-x="1148" 
d="M645 651q97 -12 174.5 -37.5t123 -56.5t78 -66t46 -67.5t20 -58.5t5.5 -42v-16q0 -73 -24.5 -133t-64 -97.5t-87.5 -65.5t-95.5 -41.5t-87 -21.5t-63.5 -10l-25 -1q-124 -5 -222.5 6t-157 32.5t-100.5 48.5t-59.5 55t-27 51.5t-8.5 38.5v15q-2 56 18.5 100.5t54.5 72
t76 48t84 29.5t77 14.5t57 5.5l22 1q-75 18 -134.5 44t-95.5 53t-61.5 56.5t-36.5 55t-16.5 46t-5.5 32.5v12q3 71 34 128t77 91t101.5 59t110.5 35.5t100 16.5t73 6h28q112 -2 194 -16.5t131.5 -36t78.5 -53.5t38.5 -65.5t7.5 -76.5q-2 -50 -27.5 -88t-64.5 -58
t-85.5 -32.5t-92 -15t-83.5 -2.5t-62 2zM915 1370q-3 -5 -18.5 -22.5t-47.5 -47.5t-68 -56.5t-84.5 -46t-92.5 -19.5q-43 0 -89.5 20.5t-81.5 47.5t-67 58t-46.5 48.5t-18.5 23.5q-28 38 -19.5 86t48.5 76t87.5 19.5t76.5 -48.5h-2l6 -6q5 -6 11.5 -13.5t17 -18.5t22 -21
t26.5 -20.5t29 -18.5q35 22 67 48t47 41l15 16q3 4 8.5 9.5t23 17.5t35.5 17t44.5 0t52.5 -26q38 -31 43.5 -79t-25.5 -85z" />
    <glyph glyph-name="Ydieresis" unicode="&#x178;" horiz-adv-x="1515" 
d="M799 1120q23 85 58 151.5t71.5 104t75.5 63t73.5 33.5t61.5 11.5t43 1.5l16 -2q71 -8 124 -33.5t81.5 -59t46 -72t21 -75.5t3 -67.5t-3.5 -49.5l-4 -18q-20 -84 -65.5 -160t-96.5 -124.5t-99 -85t-79 -52.5l-32 -16q30 -96 35.5 -188.5t-7.5 -155.5t-30 -113t-32 -74
l-16 -24q-46 -65 -105 -93t-140 -28q-49 0 -93 9.5t-72 23.5t-49 28t-31 23l-9 10q-49 55 -75.5 133.5t-30 151.5t0 138t11.5 105l8 39q-8 3 -21.5 9t-52.5 28t-75.5 46.5t-82.5 65t-81 84t-63 102.5t-36 122q-10 73 0.5 134t34.5 100t55.5 68.5t65 44.5t61.5 24.5t46 11.5
l18 2q74 5 140.5 -13.5t113 -51.5t85 -74t62.5 -82.5t40.5 -76.5t22.5 -57zM772 1749q0 -69 -42 -114.5t-116 -45.5t-115.5 45.5t-41.5 114.5q0 68 41.5 113t115.5 45t116 -45.5t42 -112.5zM1147 1749q0 -69 -42 -114.5t-116 -45.5t-116 45.5t-42 114.5q0 67 42 112.5
t116 45.5t116 -45.5t42 -112.5z" />
    <glyph glyph-name="Zcaron" unicode="&#x17d;" horiz-adv-x="1488" 
d="M500 803q-9 -1 -24.5 -1.5t-59.5 3t-84.5 12t-89.5 30t-84.5 53t-59.5 85.5t-24 123q-1 7 -0.5 19.5t10.5 47.5t30 66.5t66.5 70t112 65.5t174.5 44t246 15q221 -4 348.5 -39.5t174.5 -100t32 -166.5q-2 -11 -7 -31t-29 -81t-58 -122t-99.5 -145.5t-148.5 -158.5
q10 1 28 3t69.5 2.5t98.5 -5t104.5 -23.5t98.5 -48t69.5 -84t28.5 -126q0 -73 -22 -129.5t-53 -93t-88.5 -62t-102.5 -38t-123.5 -19t-122.5 -7.5t-127 -1h-36q-90 0 -136 1t-122.5 7t-119.5 20t-94 38.5t-82.5 65t-50.5 95.5q-29 97 -5 186.5t83.5 167.5t121.5 136t109 92z
M1038 1702q-3 -5 -18.5 -22.5t-47.5 -48t-68 -57t-84.5 -46t-92.5 -19.5q-43 0 -89.5 20.5t-81.5 47.5t-67 58.5t-46.5 49t-18.5 23.5q-28 38 -19.5 86t48.5 76t87 19.5t76 -48.5h-2l6 -6q5 -6 11.5 -13.5t17.5 -18.5t22.5 -21t26.5 -20.5t29 -18.5q35 22 67 48t47 41l15 15
q3 4 8.5 9.5t23 18t35.5 17.5t44.5 0t52.5 -26q38 -31 43.5 -79t-25.5 -85z" />
    <glyph glyph-name="zcaron" unicode="&#x17e;" horiz-adv-x="1212" 
d="M129 154q-15 62 -5.5 120t36.5 109.5t61.5 94.5t68.5 75t58 51t30 23h1q-4 2 -22.5 -0.5t-47.5 3.5t-62 12.5t-66 26.5t-59 46.5t-40.5 71.5t-11.5 102q0 6 0.5 15.5t9.5 36.5t26 52t56 54.5t93 50t143.5 33.5t201.5 10q181 -6 290.5 -40.5t149 -90t25.5 -136.5
q-1 -7 -4.5 -19.5t-20.5 -52t-41.5 -79.5t-72.5 -96.5t-109 -108.5h20.5t50 -4t71.5 -12.5t75.5 -28t71 -46.5t50 -72.5t20.5 -102.5q0 -45 -10.5 -83t-26.5 -65t-44.5 -48.5t-54 -35.5t-67.5 -23.5t-72 -14.5t-79.5 -7.5t-79 -3t-80.5 -0.5q-56 0 -89.5 0.5t-85.5 2.5
t-85 7.5t-75 13.5t-70 22t-55.5 32.5t-45.5 45t-27 59.5zM872 1380q-3 -5 -18.5 -22.5t-47.5 -47.5t-68 -56.5t-84.5 -46t-92.5 -19.5q-43 0 -89.5 20.5t-81.5 47.5t-67 58t-46.5 48.5t-18.5 23.5q-28 38 -19.5 86t48.5 76t87.5 20t76.5 -48h-2l7 -8q7 -9 17 -19.5t23 -23.5
t30.5 -26t34.5 -22q35 22 67 48t47 41l15 16q3 4 8.5 9.5t23 17.5t35.5 17t44.5 0t52.5 -26q38 -31 43.5 -79t-25.5 -85z" />
    <glyph glyph-name="florin" unicode="&#x192;" horiz-adv-x="1312" 
d="M932 1051q6 2 16.5 5t41 8t58.5 6t62 -5.5t59.5 -21.5t43.5 -47t20 -78q3 -61 -22.5 -101.5t-63.5 -55t-76.5 -19.5t-66.5 -2l-27 3q2 -15 4 -40.5t7 -105t6.5 -156.5t-1.5 -182.5t-12.5 -196t-31 -184.5t-53.5 -160.5t-82.5 -111t-115.5 -48.5q-86 -7 -148 27t-99 104
t-59 174t-29 238t-9 295.5t2 346.5q-6 -2 -16 -4.5t-38.5 -7t-55 -4.5t-59.5 8t-57 25t-42 51t-20 82q-2 47 17.5 82t51 53.5t71.5 27.5t77.5 8t70.5 -9q-1 8 -2 22t2.5 57t13 85t34.5 98.5t63 105.5q4 5 11 13t32.5 30.5t56 41t81.5 37t107 27t134.5 3t163.5 -28.5
q7 -2 18 -6t39.5 -19.5t49 -34.5t35 -53.5t9.5 -74.5q0 -5 -1 -14t-9 -31.5t-21.5 -39t-41.5 -30t-66 -12.5q-4 0 -10.5 -0.5t-24.5 -4t-33.5 -10t-31 -21.5t-23.5 -36q-2 -4 -4 -11t-5 -35t-1 -62z" />
    <glyph glyph-name="dotlessj" unicode="&#x237;" horiz-adv-x="829" 
d="M711 -141q-1 -8 -4 -21.5t-15.5 -54t-29.5 -78.5t-48 -85.5t-69 -84.5q-49 -48 -117.5 -78t-131 -38.5t-118 -10t-88.5 3.5l-33 4q-55 8 -95 29.5t-58 46t-28.5 48t-11.5 38.5l-1 16q-4 45 7 80.5t30 54t39 30.5t35 15l14 3q33 4 56 34.5t32 71t14 80t4 67.5v27
q4 43 5 262.5t14 479.5q2 52 19.5 94t43 66.5t56 42.5t60 25.5t54.5 11t40 3.5h15q64 0 116 -13.5t84.5 -35.5t57 -48.5t36.5 -52.5t19 -48t8 -36l1 -13q3 -17 7.5 -49t12 -133t9.5 -205t-7.5 -255t-33.5 -294z" />
    <glyph glyph-name="circumflex" unicode="&#x2c6;" horiz-adv-x="804" 
d="M94 1341q3 5 18.5 22.5t48 48t68.5 57t84.5 46t92.5 19.5q43 0 89.5 -20.5t81.5 -47.5t67 -58.5t46.5 -49t18.5 -23.5q28 -38 19.5 -85.5t-48.5 -75.5t-87.5 -20t-76.5 48l-15 18q-15 17 -41.5 41t-53.5 39q-35 -22 -67.5 -48t-47.5 -41l-15 -15q-3 -4 -8.5 -9.5
t-22.5 -17.5t-35 -17t-44.5 0t-52.5 26q-38 31 -44 78.5t25 84.5z" />
    <glyph glyph-name="caron" unicode="&#x2c7;" horiz-adv-x="843" 
d="M737 1268q-3 -5 -18.5 -22.5t-47.5 -48t-68 -57t-84.5 -46t-92.5 -19.5q-43 0 -89.5 20.5t-81.5 47.5t-67 58.5t-46.5 49t-18.5 23.5q-28 38 -19.5 86t48.5 76t87 19.5t76 -48.5h-2l5 -6q6 -6 12.5 -13.5t17.5 -18.5t22.5 -21t26.5 -20.5t29 -18.5q35 22 67 48t47 41
l15 15q3 4 8.5 9.5t23 18t35.5 17.5t44.5 0t52.5 -26q38 -31 43.5 -79t-25.5 -85z" />
    <glyph glyph-name="uni02C9" unicode="&#x2c9;" horiz-adv-x="1077" 
d="M567 1585q203 0 296 -34.5t93 -114.5q0 -156 -368 -156q-451 0 -451 152q0 153 430 153z" />
    <glyph glyph-name="breve" unicode="&#x2d8;" horiz-adv-x="804" 
d="M68 1413q0 50 32 85.5t72 35.5q29 0 55.5 -17t47 -41.5t40 -49t43 -41.5t48.5 -17q23 0 41.5 12t30.5 30t26.5 39t28.5 39t37.5 30t52.5 12q49 0 77.5 -35t28.5 -82q0 -93 -96.5 -178.5t-226.5 -85.5q-74 0 -139 25t-107.5 64t-67 85t-24.5 90z" />
    <glyph glyph-name="dotaccent" unicode="&#x2d9;" horiz-adv-x="796" 
d="M623 1358q9 -91 -57 -164.5t-167 -83.5q-104 -10 -182.5 47t-89.5 150q-9 91 57 164t168 83q102 11 182 -46.5t89 -149.5z" />
    <glyph glyph-name="ring" unicode="&#x2da;" horiz-adv-x="673" 
d="M586 1292q0 -98 -73.5 -166.5t-176.5 -68.5q-105 0 -178.5 68.5t-73.5 166.5q0 97 74 166.5t178 69.5q103 0 176.5 -69.5t73.5 -166.5zM334 1403q-55 0 -83 -30.5t-28 -78.5q0 -47 28 -75.5t85 -28.5q106 0 106 102q0 54 -28.5 82.5t-79.5 28.5z" />
    <glyph glyph-name="ogonek" unicode="&#x2db;" horiz-adv-x="636" 
d="M381 113l145 -82q-134 -84 -181.5 -149t-47.5 -120q0 -71 92 -71q94 0 94 -76q0 -38 -27.5 -64t-66.5 -26q-13 0 -37 -1t-37 -1q-95 0 -152 55t-57 158q0 93 71.5 185t203.5 192z" />
    <glyph glyph-name="tilde" unicode="&#x2dc;" horiz-adv-x="1044" 
d="M901 1288q-34 -60 -80.5 -92t-93 -35t-94.5 7t-89.5 32.5t-74 43t-51.5 36.5l-19 16q-14 -52 -40 -83.5t-53.5 -40t-52.5 -10t-41 3.5l-17 5q-54 19 -82.5 76t-8.5 111q2 9 7 23t24.5 50t44.5 63.5t69.5 50.5t96.5 23.5t128 -31t163 -99.5l4 -8q21 62 69.5 93.5
t108.5 12.5q8 -2 20.5 -7t39.5 -25t42 -45.5t13 -71t-33 -99.5z" />
    <glyph glyph-name="hungarumlaut" unicode="&#x2dd;" horiz-adv-x="1314" 
d="M100 1366q35 44 119 101.5t148 78.5q44 15 78 17.5t59 -6.5t40 -19.5t34 -28.5q25 -27 39.5 -60.5t4.5 -81.5t-57 -89q-51 -44 -134.5 -77t-141.5 -43l-58 -11q-5 -1 -13 -2.5t-30 -2t-41 4t-40.5 19.5t-34.5 40q-17 42 -11 77.5t23 58.5zM715 1366q35 44 118.5 101.5
t147.5 78.5q44 15 78 17.5t59 -6.5t40 -19.5t34 -28.5q18 -19 30.5 -43.5t18 -55.5t-9.5 -66t-51 -66q-51 -44 -134.5 -77t-141.5 -43l-58 -11q-5 -1 -13 -2.5t-30 -2t-41.5 4t-41 19.5t-34.5 40q-17 42 -10.5 77.5t22.5 58.5z" />
    <glyph glyph-name="uni03BC" unicode="&#x3bc;" horiz-adv-x="1705" 
d="M195 739q0 6 1.5 15.5t9 37.5t19 54t34 57t51 53.5t74 38t99.5 15.5q57 0 100 -16.5t66.5 -43t38.5 -58.5t19 -64.5t4.5 -59t-1.5 -42.5l-3 -17q-2 -160 2 -196q11 -93 66 -103q9 -2 18 -2q29 0 46 31.5t21 77t4 90.5t-3 77l-3 31q-6 65 3 116.5t27.5 81.5t42.5 51.5
t49 30t45.5 12.5t34.5 3h13q57 -9 102 -38.5t70.5 -70t43.5 -87t24.5 -91.5t9 -82t1.5 -59l-1 -23q-2 -110 -23 -199t-54 -147t-75.5 -101.5t-89 -65.5t-92.5 -35.5t-87.5 -15t-73.5 0t-51 4.5l-19 4q0 -81 -7 -144.5t-27 -124t-53 -99.5t-87.5 -63t-128.5 -24
q-62 0 -110.5 31.5t-74 76t-42 89t-20.5 76.5l-5 31q-26 228 -28 449.5t9 329.5z" />
    <glyph glyph-name="endash" unicode="&#x2013;" horiz-adv-x="1185" 
d="M834 838q52 -14 90.5 -40.5t56 -54.5t27.5 -54t11 -43l1 -17q1 -7 1.5 -18t-4 -42t-17.5 -58t-46 -56t-82 -45q-142 -47 -281 -54t-278 19q-54 9 -93.5 34t-57 54t-27.5 57.5t-11 47.5l-1 18q-1 4 -1.5 11t1 27.5t6.5 40t18 44.5t32.5 45.5t53.5 39.5t78 29q77 17 159 25
t144.5 7t113.5 -4.5t78 -8.5z" />
    <glyph glyph-name="emdash" unicode="&#x2014;" horiz-adv-x="1705" 
d="M1087 838q52 -11 90.5 -36.5t56 -54t28 -56t11.5 -45.5l1 -17q0 -4 0.5 -10.5t-1 -25.5t-5.5 -37.5t-14.5 -43t-26.5 -45t-43.5 -39.5t-63.5 -31q-148 -49 -387 -55t-420 33q-38 8 -69.5 24t-50.5 35t-33.5 40.5t-21 41t-10.5 35.5t-4 25l-1 10q-1 8 -1.5 20.5t6.5 47.5
t23.5 64.5t58 60t101.5 44.5q96 23 211 33t211 8t178 -7.5t129 -12.5z" />
    <glyph glyph-name="quoteleft" unicode="&#x2018;" horiz-adv-x="583" 
d="M72 1073q-4 89 8 157.5t35 107.5t51.5 66t58 36t54 12.5t39.5 1.5l16 -2q28 -4 38.5 -19.5t7.5 -29.5l-3 -14q-4 -15 -15 -23t-20 -9l-8 -1q-23 0 -27.5 -18.5t0.5 -37.5q94 -6 146.5 -66t52.5 -151q0 -93 -57 -154t-158 -61q-100 0 -157 58t-62 147z" />
    <glyph glyph-name="quoteright" unicode="&#x2019;" horiz-adv-x="606" 
d="M512 1276q4 -89 -8 -157.5t-35 -107.5t-51.5 -66t-58 -36t-54 -12.5t-39.5 -1.5l-16 2q-28 4 -39 20t-7 30l3 14q4 15 15 23t20 8l8 1q23 0 27 18.5t-1 37.5q-94 6 -146 66t-52 151q0 93 57 154t158 61q100 0 157 -58t62 -147z" />
    <glyph glyph-name="quotesinglbase" unicode="&#x201a;" horiz-adv-x="606" 
d="M512 211q4 -89 -8 -157.5t-35 -107.5t-51.5 -66t-58 -36t-54 -12.5t-39.5 -1.5l-16 2q-28 4 -39 20t-7 30l3 14q4 15 15 23t20 9h8q23 0 27 18.5t-1 37.5q-94 6 -146 66t-52 151q0 93 57 154t158 61q100 0 157 -58t62 -147z" />
    <glyph glyph-name="quotedblleft" unicode="&#x201c;" horiz-adv-x="1107" 
d="M573 1073q-4 89 8.5 157.5t35 107.5t51.5 66t58.5 36t54 12.5t39.5 1.5l16 -2q28 -4 39 -19.5t7 -29.5l-3 -14q-4 -15 -15 -23t-20 -9l-8 -1q-23 0 -27.5 -18.5t0.5 -37.5q94 -6 146.5 -66t52.5 -151q0 -93 -57 -154t-158 -61q-100 0 -157.5 58t-62.5 147zM72 1073
q-4 89 8 157.5t35 107.5t51.5 66t58 36t54 12.5t39.5 1.5l16 -2q28 -4 38.5 -19.5t7.5 -29.5l-3 -14q-4 -15 -15 -23t-20 -9l-8 -1q-23 0 -27.5 -18.5t0.5 -37.5q94 -6 146.5 -66t52.5 -151q0 -93 -57 -154t-158 -61q-100 0 -157 58t-62 147z" />
    <glyph glyph-name="quotedblright" unicode="&#x201d;" horiz-adv-x="1126" 
d="M522 1276q4 -89 -8 -157.5t-35 -107.5t-51.5 -66t-58 -36t-54 -12.5t-39.5 -1.5l-16 2q-28 4 -39 20t-7 30l3 14q4 15 15 23t20 8l8 1q23 0 27.5 18.5t-0.5 37.5q-94 6 -146.5 66t-52.5 151q0 93 57 154t158 61q100 0 157 -58t62 -147zM1024 1276q4 -89 -8 -157.5
t-35 -107.5t-51.5 -66t-58 -36t-54 -12.5t-39.5 -1.5l-16 2q-28 4 -39 20t-7 30l3 14q4 15 15 23t20 8l8 1q23 0 27 18.5t-1 37.5q-94 6 -146 66t-52 151q0 93 57 154t158 61q100 0 157 -58t62 -147z" />
    <glyph glyph-name="quotedblbase" unicode="&#x201e;" horiz-adv-x="1114" 
d="M522 203q4 -89 -8 -157.5t-35 -107.5t-51.5 -66t-58 -36t-54 -12.5t-39.5 -1.5l-16 2q-28 4 -39 19.5t-7 29.5l3 14q4 15 15 23t20 9l8 1q23 0 27.5 18t-0.5 37q-94 6 -146.5 66.5t-52.5 151.5q0 93 57 154t158 61q100 0 157 -58t62 -147zM1024 203q4 -89 -8 -157.5
t-35 -107.5t-51.5 -66t-58 -36t-54 -12.5t-39.5 -1.5l-16 2q-28 4 -39 19.5t-7 29.5l3 14q4 15 15 23t20 9l8 1q23 0 27 18t-1 37q-94 6 -146 66.5t-52 151.5q0 93 57 154t158 61q100 0 157 -58t62 -147z" />
    <glyph glyph-name="dagger" unicode="&#x2020;" horiz-adv-x="1312" 
d="M932 1212q59 19 125 19q71 0 123.5 -45t52.5 -137q0 -51 -20.5 -89t-53 -57.5t-65 -28t-64.5 -8.5l-53 4q18 -94 18 -233q0 -96 -12.5 -158.5t-47 -111.5t-99 -71t-164.5 -22q-55 0 -94.5 3t-73.5 12.5t-56 23t-40 38.5t-27.5 53.5t-16 74.5t-8.5 96.5t-2 122.5
q0 106 2 172q-49 -16 -106 -16q-70 0 -126 46.5t-56 143.5q0 86 65 133.5t148 47.5q29 0 75 -8q-4 24 -4 63q0 37 4.5 71.5t19.5 76.5t40.5 72t71 50.5t106.5 20.5q107 0 175 -12.5t106 -42.5t51.5 -70.5t13.5 -104.5t-8 -129z" />
    <glyph glyph-name="daggerdbl" unicode="&#x2021;" horiz-adv-x="1312" 
d="M932 324q8 -65 8 -129t-13.5 -104.5t-51.5 -70.5t-106 -42.5t-175 -12.5q-61 0 -106.5 20.5t-71 50.5t-40.5 72t-19.5 76.5t-4.5 71.5l4 63q-46 -8 -75 -8q-83 0 -148 47.5t-65 133.5q0 97 56 143.5t126 46.5q40 0 104 -16v202q-70 -14 -104 -14q-70 0 -126 46.5
t-56 143.5q0 86 65 133.5t148 47.5q29 0 75 -8q-4 24 -4 63q0 37 4.5 71.5t19.5 76.5t40.5 72t71 50.5t106.5 20.5q107 0 175 -12.5t106 -42.5t51.5 -70.5t13.5 -104.5t-8 -129q59 19 125 19q71 0 123.5 -45t52.5 -137q0 -51 -20.5 -89t-53 -57.5t-65 -28t-64.5 -8.5h-35
v-198q8 2 35 2q32 0 64.5 -8.5t65 -28t53 -57.5t20.5 -89q0 -92 -52.5 -137t-123.5 -45q-29 0 -60.5 4.5t-48.5 9.5z" />
    <glyph glyph-name="bullet" unicode="&#x2022;" horiz-adv-x="1107" 
d="M975 670q0 -181 -109.5 -298.5t-306.5 -117.5q-195 0 -305.5 118t-110.5 298q0 115 47 208t143 150t226 57q196 0 306 -118.5t110 -296.5z" />
    <glyph glyph-name="ellipsis" unicode="&#x2026;" horiz-adv-x="2162" 
d="M616 238q0 -112 -68 -185t-190 -73q-121 0 -189.5 73.5t-68.5 184.5q0 110 69 184t189 74q121 0 189.5 -73.5t68.5 -184.5zM1337 238q0 -112 -68 -185t-190 -73q-121 0 -189.5 73.5t-68.5 184.5q0 110 69 184t189 74q121 0 189.5 -73.5t68.5 -184.5zM2058 238
q0 -112 -68 -185t-190 -73q-121 0 -189.5 73.5t-68.5 184.5q0 110 69 184t189 74q121 0 189.5 -73.5t68.5 -184.5z" />
    <glyph glyph-name="perthousand" unicode="&#x2030;" horiz-adv-x="2164" 
d="M559 113q-23 -32 -50 -50t-49.5 -21t-41.5 -1t-30 7l-11 5l-6 3t-14 9t-19 16.5t-18 25t-13.5 33.5t-3.5 44.5t10 55.5q51 164 251 531t315 540q26 40 57.5 62t58.5 25t50.5 0t36.5 -10l14 -6q5 -1 12 -4t23 -16.5t25.5 -33t10 -57t-15.5 -83.5q-48 -131 -126.5 -290
t-156.5 -292.5t-149 -248t-115 -179.5zM629 1053q-25 -131 -119 -182.5t-215 -28.5q-114 22 -175.5 104.5t-41.5 194.5q23 121 110 190.5t222 44.5q131 -25 186.5 -115t32.5 -208zM1364 244q-17 -89 -69 -143t-119.5 -69t-145.5 -1q-115 22 -176 104.5t-41 194.5
q24 122 110.5 192t221.5 45q131 -25 186.5 -115t32.5 -208zM2040 244q-17 -89 -69 -143t-119.5 -69t-145.5 -1q-115 22 -176 104.5t-41 194.5q24 122 110.5 192t221.5 45q131 -25 186.5 -115t32.5 -208z" />
    <glyph glyph-name="guilsinglleft" unicode="&#x2039;" horiz-adv-x="921" 
d="M498 23l-26 17q-26 18 -62.5 45t-83 65t-91 84.5t-82 96.5t-60.5 108t-23 112q0 72 44 153.5t104 145t126 119.5t106 84t48 32q66 49 167 28.5t152 -101.5q52 -90 32 -167.5t-99 -135.5q-76 -60 -164 -154q53 -52 108 -102.5t84 -74.5l29 -24q6 -5 15.5 -14.5t27 -40.5
t23 -64t-9 -83t-56.5 -99q-53 -62 -149.5 -71.5t-159.5 41.5z" />
    <glyph glyph-name="guilsinglright" unicode="&#x203a;" horiz-adv-x="964" 
d="M459 1073l26 -17q26 -18 62.5 -45t83 -65t91 -84.5t82 -96.5t60.5 -108t23 -112q0 -53 -23.5 -110.5t-60 -107.5t-82.5 -99.5t-90 -87t-83.5 -68t-62 -45.5t-26.5 -17q-45 -31 -106.5 -34t-120.5 25.5t-93 82.5q-52 91 -31.5 168t99.5 135q76 60 164 154q-53 52 -108 102
t-84 74l-29 24q-6 5 -15.5 14.5t-27 40.5t-23 64t9 83t56.5 99q53 62 149.5 72t159.5 -41z" />
    <glyph glyph-name="fraction" unicode="&#x2044;" horiz-adv-x="876" 
d="M381 53q-20 -41 -47 -66.5t-52 -33t-47 -9.5t-35 2l-14 3q-5 1 -13.5 3.5t-29.5 16t-36.5 32.5t-25.5 56.5t-5 85.5q22 195 168 649.5t239 675.5q21 50 52.5 82t61.5 41t56.5 11t42.5 -2l17 -5q2 0 4.5 -0.5t12 -2.5t17 -6t19 -11.5t19.5 -18t17.5 -26t12.5 -35.5
t5 -46.5t-5 -59.5q-25 -158 -79 -354t-113 -362.5t-114.5 -310t-91.5 -226.5z" />
    <glyph glyph-name="foursuperior" unicode="&#x2074;" horiz-adv-x="841" 
d="M719 1159q0 -37 -20 -59t-40 -26l-20 -3q4 -18 4 -43q0 -29 -5.5 -54.5t-19.5 -54.5t-45 -46t-77 -17q-42 0 -71 18t-42 47t-18 55t-5 54l2 41q-48 0 -90 5.5t-60 10.5l-17 5q-72 19 -72 104q0 43 18 98t36 89l18 34q29 51 64 86.5t69.5 52.5t62.5 24t55 7q50 0 87.5 -23
t57.5 -55t32 -76.5t15 -78t3 -68.5l-2 -37q22 -1 38.5 -10.5t24 -22.5t12 -26t4.5 -22zM346 1329q-21 0 -37 -16t-16 -37q0 -53 53 -53q24 0 38.5 13.5t14.5 37.5q0 22 -14 38.5t-39 16.5z" />
    <glyph glyph-name="oneinferior" unicode="&#x2081;" horiz-adv-x="696" 
d="M311 319q-55 -43 -106 -43q-32 0 -57 28.5t-25 72.5q0 78 80 132t164 54q47 0 82.5 -15t57 -45t35.5 -63t20.5 -81.5t8.5 -87t2 -91.5q0 -91 -12 -156t-27 -96.5t-38.5 -49.5t-38 -20.5t-33.5 -2.5q-42 0 -72 22t-44.5 60t-20.5 76t-6 81q0 54 7.5 110t15.5 86z" />
    <glyph glyph-name="twoinferior" unicode="&#x2082;" horiz-adv-x="776" 
d="M324 563q54 0 100.5 -11t86 -35t62.5 -67.5t23 -101.5q0 -60 -27 -122t-53 -94l-27 -32q9 0 21 -1t39.5 -8t48.5 -20t38 -40.5t17 -65.5q0 -34 -20.5 -59t-49 -38.5t-67.5 -21.5t-67.5 -10t-57.5 -2q-30 0 -60 3t-67 12.5t-64 24.5t-46 43t-19 65q0 38 20.5 72t50 59
t58.5 49t49.5 51t20.5 55q0 29 -14 43.5t-33 14.5q-20 0 -48.5 -6.5t-35.5 -6.5q-33 0 -53 22.5t-24 44.5l-3 23q0 38 21 69t48.5 47t59 27t49.5 14t23 3z" />
    <glyph glyph-name="threeinferior" unicode="&#x2083;" horiz-adv-x="817" 
d="M139 432q0 39 23.5 66.5t62.5 40.5t76 18.5t76 5.5q248 0 248 -147q0 -31 -13 -62.5t-26 -47.5l-13 -15q56 -26 88.5 -82t32.5 -125q0 -118 -83 -186t-208 -68q-35 0 -79 8t-91 24.5t-78.5 48t-31.5 71.5q0 33 12 56t30.5 32.5t31.5 12.5t24 3q25 0 69.5 -22.5
t71.5 -22.5q60 0 60 49q0 53 -72 53q-40 0 -67 11t-38 28.5t-14.5 30t-3.5 25.5q0 43 36 68t71 32q-8 0 -24 1t-21 1q-48 0 -81.5 11t-46.5 28t-17.5 29.5t-4.5 23.5z" />
    <glyph glyph-name="fourinferior" unicode="&#x2084;" horiz-adv-x="841" 
d="M719 135q0 -37 -20 -59t-40 -26l-20 -3q4 -18 4 -43q0 -29 -5.5 -54.5t-19.5 -54.5t-45 -46t-77 -17q-42 0 -71 18t-42 47t-18 55t-5 54l2 41q-48 0 -90 5.5t-60 10.5l-17 5q-72 19 -72 104q0 43 18 98t36 89l18 34q29 51 64 86.5t69.5 52.5t62.5 24t55 7q50 0 87.5 -23
t57.5 -55t32 -76.5t15 -78t3 -68.5l-2 -37q22 -1 38.5 -10.5t24 -22.5t12 -26t4.5 -22zM346 305q-21 0 -37 -16t-16 -37q0 -53 53 -53q24 0 38.5 13.5t14.5 37.5q0 22 -14 38.5t-39 16.5z" />
    <glyph glyph-name="Euro" unicode="&#x20ac;" horiz-adv-x="1427" 
d="M283 1032q2 9 6 24.5t23 59.5t45 84.5t74.5 89.5t108 84.5t150 59.5t195.5 24q12 0 32 -1t76.5 -8.5t107.5 -19.5t111 -37t101 -57.5t64 -85t12 -116.5q0 -3 -1 -7.5t-4.5 -18.5t-9 -27.5t-16 -30.5t-24 -30.5t-34.5 -25t-46 -17t-59.5 -4t-74.5 12.5q-108 26 -157 16
t-57 -35l-7 -24q5 0 13.5 -0.5t33 -2.5t46 -6t48 -13t44.5 -21t28.5 -32t7.5 -44q-4 -33 -32.5 -53t-66.5 -24.5t-75.5 -4t-63.5 4.5l-26 4q-14 -29 0 -60q5 1 14 1.5t35.5 1.5t50.5 0.5t54 -5t52 -12.5t38.5 -23.5t19.5 -36.5q6 -37 -15 -64t-54.5 -39t-68 -19t-58.5 -8
l-25 -1q1 -4 3 -11t12.5 -21.5t27 -22.5t48.5 -7.5t73 17.5q32 13 69 21.5t82.5 11t84.5 -17t59 -60.5q22 -45 23.5 -93t-15.5 -92.5t-54 -85t-87.5 -71t-120 -49.5t-148.5 -22q-134 -5 -240.5 15t-195 68.5t-149 135.5t-90.5 211q-5 -1 -13.5 -3t-33 -4t-47 -1.5t-49.5 8
t-46.5 22t-33 42.5t-13.5 67q0 50 23 82t55.5 42t64.5 13t55 0l23 -4q-14 59 0 104q-5 -1 -13 -2t-30.5 -2.5t-43.5 0.5t-46.5 10t-44 22t-31 40.5t-12.5 62.5q0 50 24.5 80.5t59.5 39t70 10t59 -3.5z" />
    <glyph glyph-name="trademark" unicode="&#x2122;" horiz-adv-x="2242" 
d="M1686 1061h-13q-14 -146 -42.5 -201t-102.5 -55q-68 0 -103 63t-47 195h-12q-12 -110 -31 -186t-43 -114.5t-49 -54.5t-55 -16q-61 0 -106 22t-67 50.5t-35.5 67.5t-16 62.5t-2.5 45.5q0 76 9.5 152t22.5 129.5t27 96t23 64t10 21.5q20 47 48.5 81.5t54 52t55 27.5
t47 12.5t34.5 2.5q196 0 232 -268h8q4 21 8.5 41t15.5 54.5t28 62.5t40.5 54.5t58.5 42t76 15.5q45 0 86 -19t67.5 -46.5t46.5 -55t29 -46.5l9 -19q39 -90 61 -199.5t24 -173.5l3 -64q0 -73 -16.5 -126.5t-37.5 -79t-50 -40.5t-45 -17.5t-31 -2.5q-53 0 -93.5 25t-62.5 61.5
t-36.5 90t-19.5 96.5t-7 96zM315 1210q-12 -2 -30 -2q-25 0 -49 2.5t-56 13t-55.5 27t-40 48t-16.5 73.5q0 46 16.5 81.5t40 53.5t47.5 29.5t40 14.5l17 3q125 25 263 25q67 0 133 -5.5t99 -11.5l32 -6q38 -8 66 -25.5t42 -35.5t22 -39.5t9.5 -33t1.5 -21.5q0 -47 -16 -82
t-38.5 -53.5t-53 -29.5t-52.5 -14t-43 -3h-26q18 -105 18 -211q0 -71 -7.5 -125.5t-22 -88t-31 -56t-38 -33t-39 -14t-38.5 -3.5q-27 0 -45 2.5t-45.5 11t-46 29.5t-36.5 54t-27 89t-9 130q0 49 3.5 100.5t7.5 78.5z" />
    <glyph glyph-name="minus" unicode="&#x2212;" horiz-adv-x="1112" 
d="M809 827q52 -14 90.5 -40.5t56 -54.5t27.5 -54t11 -43l1 -17q1 -7 2 -19t-3.5 -45t-17 -61t-46 -57t-82.5 -43q-144 -39 -282.5 -41.5t-276.5 23.5q-54 9 -93.5 34t-57.5 54t-28 57.5t-11 47.5l-1 18q-1 4 -1 11t1.5 27.5t6 40t18 44.5t33 45.5t53.5 39.5t78 29
q122 27 252.5 28t200.5 -11z" />
    <glyph glyph-name="uni2215" unicode="&#x2215;" horiz-adv-x="876" 
d="M381 53q-20 -41 -47 -66.5t-52 -33t-47 -9.5t-35 2l-14 3q-5 1 -13.5 3.5t-29.5 16t-36.5 32.5t-25.5 56.5t-5 85.5q22 195 168 649.5t239 675.5q21 50 52.5 82t61.5 41t56.5 11t42.5 -2l17 -5q2 0 4.5 -0.5t12 -2.5t17 -6t19 -11.5t19.5 -18t17.5 -26t12.5 -35.5
t5 -46.5t-5 -59.5q-25 -158 -79 -354t-113 -362.5t-114.5 -310t-91.5 -226.5z" />
    <glyph glyph-name="uni2219" unicode="&#x2219;" horiz-adv-x="720" 
d="M616 510q0 -112 -68 -185t-190 -73q-121 0 -189.5 73.5t-68.5 184.5q0 110 69 184t189 74q121 0 189.5 -73.5t68.5 -184.5z" />
    </font>
</defs>
</svg>
