<?xml version="1.0" standalone="no"?>
<!DOCTYPE svg PUBLIC "-//W3C//DTD SVG 1.1//EN" "http://www.w3.org/Graphics/SVG/1.1/DTD/svg11.dtd" >
<svg xmlns="http://www.w3.org/2000/svg" xmlns:xlink="http://www.w3.org/1999/xlink" version="1.1">
<metadata>
Created by FontForge 20170731 at Wed Apr 14 10:36:22 2021
 By Aleksey,,,
Joe Prince, Admix Designs. (c) 2008 - 2012
</metadata>
<defs>
<font id="Bemio" horiz-adv-x="2088" >
  <font-face 
    font-family="Bemio"
    font-weight="400"
    font-stretch="normal"
    units-per-em="2048"
    panose-1="2 0 0 0 0 0 0 0 0 0"
    ascent="1536"
    descent="-512"
    x-height="1085"
    cap-height="1384"
    bbox="-352 -883 3928 2329"
    underline-thickness="102"
    underline-position="-204"
    unicode-range="U+0020-FB06"
  />
<missing-glyph horiz-adv-x="874" 
d="M0 1384h874v-1384h-874v1384zM172 418l164 274l-164 273v-547zM436 858l215 354h-428zM651 172l-215 354l-213 -354h428zM539 692l163 -274v547z" />
    <glyph glyph-name="f_f" unicode="ff" horiz-adv-x="1679" 
d="M1382 1540q174 0 301 -51l-34 -287q-28 4 -50 4q-28 0 -47 -3t-39 -13.5t-30 -34.5t-10 -61v-9h172v-358h-172v-727h-523v727h-252v-727h-522v727h-115v358h115v5q0 219 128.5 324.5t350.5 105.5q129 0 218.5 -31t168.5 -82q112 133 340 133zM698 1090v-5h252v5
q0 35 2 51q-59 45 -131 45q-123 0 -123 -96z" />
    <glyph glyph-name="fi" unicode="fi" horiz-adv-x="1572" 
d="M950 0v727h-252v-727h-522v727h-115v358h115v5q0 104 35.5 184.5t93 130t138.5 80.5t163.5 43t177.5 12q267 0 453 -65l-41 -312q-38 13 -115 28t-143 15q-48 0 -83 -3t-74.5 -13.5t-61 -34.5t-21.5 -61v-9h775v-1085h-523z" />
    <glyph glyph-name="fl" unicode="fl" horiz-adv-x="1574" 
d="M823 1540q82 0 154.5 -8.5t149 -27.5t136.5 -55t108.5 -87t75 -127.5t26.5 -171.5v-1063h-523v1085q0 50 -31 85.5t-90 35.5q-131 0 -131 -112v-9h172v-358h-172v-727h-522v727h-115v358h115v5q0 104 37.5 184.5t98 130t146.5 80.5t174.5 43t190.5 12z" />
    <glyph glyph-name="f_f_i" unicode="ffi" horiz-adv-x="2347" 
d="M1724 0v727h-251v-727h-523v727h-252v-727h-522v727h-115v358h115v5q0 219 128.5 324.5t350.5 105.5q75 0 140 -11t118 -33.5t82.5 -39t71.5 -43.5q152 147 492 147q266 0 452 -65l-41 -312q-38 13 -115 28t-143 15q-38 0 -65.5 -1.5t-62.5 -8t-57.5 -18t-38 -33
t-15.5 -51.5v-9h774v-1085h-523zM698 1085h252v5q0 35 2 51q-59 45 -131 45q-123 0 -123 -96v-5z" />
    <glyph glyph-name="f_f_l" unicode="ffl" horiz-adv-x="2349" 
d="M1724 0v1085q0 50 -30.5 85.5t-89.5 35.5q-131 0 -131 -112v-9h172v-358h-172v-727h-523v727h-252v-727h-522v727h-115v358h115v5q0 219 128.5 324.5t350.5 105.5q76 0 141 -11.5t119 -34.5t82.5 -39t71.5 -44l-2 -5q165 154 530 154q82 0 154.5 -8.5t149 -27.5
t136.5 -55t108.5 -87t75 -127.5t26.5 -171.5v-1063h-523zM698 1090v-5h252v5q0 35 2 51q-59 45 -131 45q-123 0 -123 -96z" />
    <glyph glyph-name="f_b" unicode="fb" horiz-adv-x="2289" 
d="M823 1540q82 0 154.5 -8.5t149 -27.5t136.5 -55t108.5 -87t75 -127.5t26.5 -171.5v-88q127 137 309 137q133 0 238 -76.5t161.5 -205.5t56.5 -285t-56.5 -286.5t-161.5 -208t-238 -77.5q-98 0 -183 44t-147 122v-139h-502v1085q0 50 -31 85.5t-90 35.5q-131 0 -131 -112
v-9h172v-358h-172v-727h-522v727h-115v358h115v5q0 104 37.5 184.5t98 130t146.5 80.5t174.5 43t190.5 12zM1581 362q66 0 109 53.5t43 129.5t-43 129t-109 53t-108.5 -52.5t-42.5 -129.5t42.5 -130t108.5 -53z" />
    <glyph glyph-name="f_iogonek" unicode="f&#x12f;" horiz-adv-x="1572" 
d="M784 1540q267 0 453 -65l-41 -312q-38 13 -115 28t-143 15q-48 0 -83 -3t-74.5 -13.5t-61 -34.5t-21.5 -61v-9h775v-1085q-82 -61 -122 -110t-40 -99q0 -45 27.5 -64.5t64.5 -19.5q72 0 113 41l79 -51q-40 -58 -112 -93.5t-164 -35.5q-60 0 -111.5 15.5t-89 55
t-37.5 97.5q0 38 16 75.5t37 64t53.5 54t52 40.5t46.5 30h-336v727h-252v-727h-522v727h-115v358h115v5q0 104 35.5 184.5t93 130t138.5 80.5t163.5 43t177.5 12z" />
    <glyph glyph-name="f_dotlessi" unicode="f&#x131;" horiz-adv-x="1572" 
d="M950 0v727h-252v-727h-522v727h-115v358h115v5q0 104 25 184.5t65.5 130t98 80.5t116.5 43t127 12q174 0 301 -51l-35 -287q-28 4 -49 4q-28 0 -47 -3t-39.5 -13.5t-30.5 -34.5t-10 -61v-9h775v-1085h-523z" />
    <glyph glyph-name="f_j" unicode="fj" horiz-adv-x="1572" 
d="M784 1540q267 0 453 -65l-41 -312q-38 13 -115 28t-143 15q-48 0 -83 -3t-74.5 -13.5t-61 -34.5t-21.5 -61v-9h775v-976q0 -97 -22 -175t-56.5 -131.5t-89 -94t-108 -63.5t-125.5 -38.5t-129 -21.5t-130 -9l-37 330q29 10 47 17.5t45 23t42.5 33t27.5 45t12 61.5v641
h-252v-727h-522v727h-115v358h115v5q0 104 35.5 184.5t93 130t138.5 80.5t163.5 43t177.5 12z" />
    <glyph glyph-name="f_k" unicode="fk" horiz-adv-x="2248" 
d="M1886 643l377 -643h-555l-235 442v-442h-523v1085q0 50 -31 85.5t-90 35.5q-131 0 -131 -112v-9h172v-358h-172v-727h-522v727h-115v358h115v5q0 104 37.5 184.5t98 130t146.5 80.5t174.5 43t190.5 12q82 0 154.5 -8.5t149 -27.5t136.5 -55t108.5 -87t75 -127.5
t26.5 -171.5v-328l221 350h526z" />
    <glyph glyph-name="f_kacute" unicode="f&#x1e31;" horiz-adv-x="2248" 
d="M1720 1978l-336 -317h-297l226 317h407zM1886 643l377 -643h-555l-235 442v-442h-523v1085q0 50 -31 85.5t-90 35.5q-131 0 -131 -112v-9h172v-358h-172v-727h-522v727h-115v358h115v5q0 104 37.5 184.5t98 130t146.5 80.5t174.5 43t190.5 12q82 0 154.5 -8.5t149 -27.5
t136.5 -55t108.5 -87t75 -127.5t26.5 -171.5v-328l221 350h526z" />
    <glyph glyph-name="f_kcaron" unicode="f&#x1e9;" horiz-adv-x="2248" 
d="M2025 1974l-243 -317h-398l-243 317h297l145 -143l146 143h296zM1886 643l377 -643h-555l-235 442v-442h-523v1085q0 50 -31 85.5t-90 35.5q-131 0 -131 -112v-9h172v-358h-172v-727h-522v727h-115v358h115v5q0 104 37.5 184.5t98 130t146.5 80.5t174.5 43t190.5 12
q82 0 154.5 -8.5t149 -27.5t136.5 -55t108.5 -87t75 -127.5t26.5 -171.5v-328l221 350h526z" />
    <glyph glyph-name="f_kcedilla" unicode="f&#xb8;" horiz-adv-x="2248" 
d="M1886 643l377 -643h-555l-235 442v-442h-134l-77 -119q101 -3 170 -51t69 -121q0 -81 -66 -133.5t-190 -52.5q-152 0 -287 53l54 119q250 -53 250 53q0 62 -177 72l105 180h-240v1085q0 50 -31 85.5t-90 35.5q-131 0 -131 -112v-9h172v-358h-172v-727h-522v727h-115v358
h115v5q0 104 37.5 184.5t98 130t146.5 80.5t174.5 43t190.5 12q82 0 154.5 -8.5t149 -27.5t136.5 -55t108.5 -87t75 -127.5t26.5 -171.5v-328l221 350h526z" />
    <glyph glyph-name="f_kcommaaccent" unicode="f&#x137;" horiz-adv-x="2248" 
d="M1380 -150h381v-294l-182 -269h-188l147 240h-158v323zM1886 643l377 -643h-555l-235 442v-442h-523v1085q0 50 -31 85.5t-90 35.5q-131 0 -131 -112v-9h172v-358h-172v-727h-522v727h-115v358h115v5q0 104 37.5 184.5t98 130t146.5 80.5t174.5 43t190.5 12
q82 0 154.5 -8.5t149 -27.5t136.5 -55t108.5 -87t75 -127.5t26.5 -171.5v-328l221 350h526z" />
    <glyph glyph-name="f_kdotbelow" unicode="f&#x1e33;" horiz-adv-x="2248" 
d="M1886 643l377 -643h-555l-235 442v-442h-523v1085q0 50 -31 85.5t-90 35.5q-131 0 -131 -112v-9h172v-358h-172v-727h-522v727h-115v358h115v5q0 104 37.5 184.5t98 130t146.5 80.5t174.5 43t190.5 12q82 0 154.5 -8.5t149 -27.5t136.5 -55t108.5 -87t75 -127.5
t26.5 -171.5v-328l221 350h526zM1415 -418v268h334v-268h-334z" />
    <glyph glyph-name="f_klinebelow" unicode="f&#x1e35;" horiz-adv-x="2248" 
d="M1186 -356v206h731v-206h-731zM1886 643l377 -643h-555l-235 442v-442h-523v1085q0 50 -31 85.5t-90 35.5q-131 0 -131 -112v-9h172v-358h-172v-727h-522v727h-115v358h115v5q0 104 37.5 184.5t98 130t146.5 80.5t174.5 43t190.5 12q82 0 154.5 -8.5t149 -27.5t136.5 -55
t108.5 -87t75 -127.5t26.5 -171.5v-328l221 350h526z" />
    <glyph glyph-name="f_lacute" unicode="f&#x13a;" horiz-adv-x="1574" 
d="M950 0v1085q0 50 -31 85.5t-90 35.5q-131 0 -131 -112v-9h172v-358h-172v-727h-522v727h-115v358h115v5q0 104 37.5 184.5t98 130t146.5 80.5t174.5 43t190.5 12q82 0 154.5 -8.5t149 -27.5t136.5 -55t108.5 -87t75 -127.5t26.5 -171.5v-1063h-523zM1632 1919l-336 -317
h-297l226 317h407z" />
    <glyph glyph-name="f_lcaron" unicode="f&#x13e;" horiz-adv-x="1851" 
d="M950 0v1085q0 50 -31 85.5t-90 35.5q-131 0 -131 -112v-9h172v-358h-172v-727h-522v727h-115v358h115v5q0 104 37.5 184.5t98 130t146.5 80.5t174.5 43t190.5 12q82 0 154.5 -8.5t149 -27.5t136.5 -55t108.5 -87t75 -127.5t26.5 -171.5v-1063h-523zM1604 1513h381v-294
l-183 -269h-188l147 240h-157v323z" />
    <glyph glyph-name="f_f_b" unicode="ffb" horiz-adv-x="3063" 
d="M2556 1112q133 0 238 -76.5t162 -205.5t57 -285t-57 -286.5t-162 -208t-238 -77.5q-98 0 -183 44t-147 122v-139h-502v1085q0 50 -30.5 85.5t-89.5 35.5q-131 0 -131 -112v-9h172v-358h-172v-727h-523v727h-252v-727h-522v727h-115v358h115v5q0 219 128.5 324.5
t350.5 105.5q76 0 141 -11.5t119 -34.5t82.5 -39t71.5 -44l-2 -5q165 154 530 154q82 0 154.5 -8.5t149 -27.5t136.5 -55t108.5 -87t75 -127.5t26.5 -171.5v-88q127 137 309 137zM2355 362q66 0 109 53.5t43 129.5t-43 129t-109 53t-108.5 -52.5t-42.5 -129.5t42.5 -130
t108.5 -53zM698 1090v-5h252v5q0 35 2 51q-59 45 -131 45q-123 0 -123 -96z" />
    <glyph glyph-name="f_f_f" unicode="fff" horiz-adv-x="2453" 
d="M2157 1540q174 0 301 -51l-35 -287q-28 4 -49 4q-28 0 -47 -3t-39.5 -13.5t-30.5 -34.5t-10 -61v-9h172v-358h-172v-727h-523v727h-251v-727h-523v727h-252v-727h-522v727h-115v358h115v5q0 219 128.5 324.5t350.5 105.5q72 0 134.5 -10.5t114.5 -32t82 -37t71 -41.5
q126 135 373 135q92 0 174 -20.5t126 -42.5t95 -56q112 125 332 125zM1473 1090v-5h251v5q0 44 2 67q-54 43 -131 43q-54 0 -88 -27t-34 -83zM698 1090v-5h252v5q0 35 2 51q-59 45 -131 45q-123 0 -123 -96z" />
    <glyph glyph-name="f_f_h" unicode="ffh" horiz-adv-x="3053" 
d="M1597 1540q82 0 154.5 -8.5t149 -27.5t136.5 -55t108.5 -87t75 -127.5t26.5 -171.5v-78q124 127 323 127q165 0 278 -107.5t113 -267.5v-737h-522v621q0 41 -28 70.5t-68 29.5t-68 -29.5t-28 -70.5v-621h-523v1085q0 50 -30.5 85.5t-89.5 35.5q-131 0 -131 -112v-9h172
v-358h-172v-727h-523v727h-252v-727h-522v727h-115v358h115v5q0 219 128.5 324.5t350.5 105.5q76 0 141 -11.5t119 -34.5t82.5 -39t71.5 -44l-2 -5q165 154 530 154zM698 1085h252v5q0 35 2 51q-59 45 -131 45q-123 0 -123 -96v-5z" />
    <glyph glyph-name="f_f_iacute" unicode="ff&#xb4;" horiz-adv-x="2347" 
d="M1724 0v727h-251v-727h-523v727h-252v-727h-522v727h-115v358h115v5q0 219 128.5 324.5t350.5 105.5q129 0 218.5 -31t168.5 -82q112 133 340 133q174 0 301 -51l-34 -287q-28 4 -50 4q-28 0 -47 -3t-39 -13.5t-30 -34.5t-10 -61v-9h774v-1085h-523zM2408 1526l-335 -318
h-297l225 318h407zM698 1085h252v5q0 35 2 51q-59 45 -131 45q-123 0 -123 -96v-5z" />
    <glyph glyph-name="f_f_iogonek" unicode="ff&#x12f;" horiz-adv-x="2347" 
d="M1559 1540q266 0 452 -65l-41 -312q-38 13 -115 28t-143 15q-38 0 -65.5 -1.5t-62.5 -8t-57.5 -18t-38 -33t-15.5 -51.5v-9h774v-1085q-82 -61 -122 -110t-40 -99q0 -45 27.5 -64.5t64.5 -19.5q72 0 113 41l80 -51q-40 -58 -112.5 -93.5t-164.5 -35.5q-60 0 -111.5 15.5
t-89 55t-37.5 97.5q0 38 16 75.5t37 64t53.5 54t52 40.5t46.5 30h-336v727h-251v-727h-523v727h-252v-727h-522v727h-115v358h115v5q0 219 128.5 324.5t350.5 105.5q75 0 140 -11t118 -33.5t82.5 -39t71.5 -43.5q152 147 492 147zM698 1085h252v5q0 35 2 51q-59 45 -131 45
q-123 0 -123 -96v-5z" />
    <glyph glyph-name="f_f_dotlessi" unicode="ff&#x131;" horiz-adv-x="2347" 
d="M1724 0v727h-251v-727h-523v727h-252v-727h-522v727h-115v358h115v5q0 219 128.5 324.5t350.5 105.5q129 0 218.5 -31t168.5 -82q112 133 340 133q174 0 301 -51l-34 -287q-28 4 -50 4q-28 0 -47 -3t-39 -13.5t-30 -34.5t-10 -61v-9h774v-1085h-523zM698 1085h252v5
q0 35 2 51q-59 45 -131 45q-123 0 -123 -96v-5z" />
    <glyph glyph-name="f_f_j" unicode="ffj" horiz-adv-x="2347" 
d="M1559 1540q266 0 452 -65l-41 -312q-38 13 -115 28t-143 15q-38 0 -65.5 -1.5t-62.5 -8t-57.5 -18t-38 -33t-15.5 -51.5v-9h774v-976q0 -97 -22 -175t-56.5 -131.5t-89 -94t-108 -63.5t-125.5 -38.5t-129 -21.5t-130 -9l-37 330q29 10 47 17.5t45 23t42.5 33t27.5 45
t12 61.5v641h-251v-727h-523v727h-252v-727h-522v727h-115v358h115v5q0 219 128.5 324.5t350.5 105.5q75 0 140 -11t118 -33.5t82.5 -39t71.5 -43.5q152 147 492 147zM698 1090v-5h252v5q0 35 2 51q-59 45 -131 45q-123 0 -123 -96z" />
    <glyph glyph-name="f_f_k" unicode="ffk" horiz-adv-x="3022" 
d="M1597 1540q82 0 154.5 -8.5t149 -27.5t136.5 -55t108.5 -87t75 -127.5t26.5 -171.5v-328l221 350h526l-334 -442l377 -643h-555l-235 442v-442h-523v1085q0 50 -30.5 85.5t-89.5 35.5q-131 0 -131 -112v-9h172v-358h-172v-727h-523v727h-252v-727h-522v727h-115v358h115
v5q0 219 128.5 324.5t350.5 105.5q76 0 141 -11.5t119 -34.5t82.5 -39t71.5 -44l-2 -5q165 154 530 154zM698 1090v-5h252v5q0 35 2 51q-59 45 -131 45q-123 0 -123 -96z" />
    <glyph glyph-name="f_f_t" unicode="fft" horiz-adv-x="2516" 
d="M1382 1540q174 0 301 -51l-34 -287q-28 4 -50 4q-28 0 -47 -3t-39 -13.5t-30 -34.5t-10 -61v-9h251v252h523v-252h188v-358h-188v-289q0 -60 37 -88t90 -28q23 0 55 4l41 -289q-63 -28 -158 -46t-192 -18q-396 0 -396 338v416h-251v-727h-523v727h-252v-727h-522v727
h-115v358h115v5q0 219 128.5 324.5t350.5 105.5q129 0 218.5 -31t168.5 -82q112 133 340 133zM698 1090v-5h252v5q0 35 2 51q-59 45 -131 45q-123 0 -123 -96z" />
    <glyph glyph-name="t_f" unicode="tf" horiz-adv-x="1732" 
d="M1436 1540q174 0 301 -51l-35 -287q-28 4 -49 4q-28 0 -47 -3t-39.5 -13.5t-30.5 -34.5t-10 -61v-9h172v-358h-172v-727h-522v727h-314v-289q0 -60 37 -88t90 -28q23 0 55 4l41 -289q-63 -28 -158 -46t-192 -18q-395 0 -395 338v416h-113v358h113v252h522v-252h314v5
q0 104 25 184.5t65.5 130t98 80.5t116.5 43t127 12z" />
    <glyph glyph-name="t_i" unicode="ti" horiz-adv-x="1626" 
d="M1004 0v727h-314v-289q0 -60 37 -88t90 -28q23 0 55 4l41 -289q-63 -28 -158 -46t-192 -18q-395 0 -395 338v416h-113v358h113v252h522v-252h836v-1085h-522zM1532 1513v-323h-535v323h535z" />
    <glyph glyph-name="t_iacute" unicode="t&#xed;" horiz-adv-x="1626" 
d="M55 727v358h113v252h522v-252h836v-1085h-522v727h-314v-289q0 -60 37 -88t90 -28q23 0 55 4l41 -289q-63 -28 -158 -46t-192 -18q-395 0 -395 338v416h-113zM1688 1526l-336 -318h-297l225 318h408z" />
    <glyph glyph-name="t_ibreve" unicode="t&#x12d;" horiz-adv-x="1626" 
d="M55 727v358h113v252h522v-252h836v-1085h-522v727h-314v-289q0 -60 37 -88t90 -28q23 0 55 4l41 -289q-63 -28 -158 -46t-192 -18q-395 0 -395 338v416h-113zM1460 1516h187q-13 -155 -115 -235.5t-268 -80.5t-268 80.5t-115 235.5h186q14 -61 69 -92t128 -31t127.5 31
t68.5 92z" />
    <glyph glyph-name="t_icircumflex" unicode="t&#xee;" horiz-adv-x="1626" 
d="M55 727v358h113v252h522v-252h836v-1085h-522v727h-314v-289q0 -60 37 -88t90 -28q23 0 55 4l41 -289q-63 -28 -158 -46t-192 -18q-395 0 -395 338v416h-113zM1462 1526l244 -318h-297l-145 144l-146 -144h-297l244 318h397z" />
    <glyph glyph-name="t_idieresis" unicode="t&#xef;" horiz-adv-x="1626" 
d="M55 727v358h113v252h522v-252h836v-1085h-522v727h-314v-289q0 -60 37 -88t90 -28q23 0 55 4l41 -289q-63 -28 -158 -46t-192 -18q-395 0 -395 338v416h-113zM1356 1225v268h334v-268h-334zM840 1225v268h334v-268h-334z" />
    <glyph glyph-name="t_igrave" unicode="t`" horiz-adv-x="1626" 
d="M55 727v358h113v252h522v-252h836v-1085h-522v727h-314v-289q0 -60 37 -88t90 -28q23 0 55 4l41 -289q-63 -28 -158 -46t-192 -18q-395 0 -395 338v416h-113zM1188 1208l-336 318h408l225 -318h-297z" />
    <glyph glyph-name="t_imacron" unicode="t&#x12b;" horiz-adv-x="1626" 
d="M55 727v358h113v252h522v-252h836v-1085h-522v727h-314v-289q0 -60 37 -88t90 -28q23 0 55 4l41 -289q-63 -28 -158 -46t-192 -18q-395 0 -395 338v416h-113zM899 1247v207h731v-207h-731z" />
    <glyph glyph-name="t_iogonek" unicode="t&#x12f;" horiz-adv-x="1626" 
d="M55 727v358h113v252h522v-252h836v-1085q-82 -61 -122 -110t-40 -99q0 -45 27.5 -64.5t64.5 -19.5q72 0 113 41l80 -51q-40 -58 -112.5 -93.5t-164.5 -35.5q-44 0 -84.5 9.5t-75.5 28.5t-56 52.5t-21 77.5q0 38 16 75.5t36.5 64t53 54t52 40.5t46.5 30h-335v727h-314
v-289q0 -60 37 -88t90 -28q23 0 55 4l41 -289q-63 -28 -158 -46t-192 -18q-395 0 -395 338v416h-113zM1532 1513v-323h-535v323h535z" />
    <glyph glyph-name="t_itilde" unicode="t&#x129;" horiz-adv-x="1626" 
d="M55 727v358h113v252h522v-252h836v-1085h-522v727h-314v-289q0 -60 37 -88t90 -28q23 0 55 4l41 -289q-63 -28 -158 -46t-192 -18q-395 0 -395 338v416h-113zM850 1204q0 50 17.5 104.5t49.5 102.5t82 78.5t109 30.5q68 0 126.5 -26t102 -51.5t74.5 -25.5t59.5 32.5
t40.5 80.5h170q-1 -76 -34 -152t-94.5 -128t-133.5 -52q-53 0 -99.5 15.5t-74.5 34.5t-64 34.5t-69 15.5q-32 0 -58.5 -28t-37.5 -66h-166z" />
    <glyph glyph-name="t_t" unicode="tt" horiz-adv-x="1796" 
d="M690 727v-289q0 -60 37 -88t90 -28q23 0 55 4l41 -289q-63 -28 -158 -46t-192 -18q-395 0 -395 338v416h-113v358h113v252h522v-252h314v252h522v-252h188v-358h-188v-289q0 -60 37 -88t90 -28q23 0 55 4l41 -289q-63 -28 -158 -46t-192 -18q-395 0 -395 338v416h-314z
" />
    <glyph glyph-name="t_dotlessi" unicode="t&#x131;" horiz-adv-x="1626" 
d="M55 727v358h113v252h522v-252h836v-1085h-522v727h-314v-289q0 -60 37 -88t90 -28q23 0 55 4l41 -289q-63 -28 -158 -46t-192 -18q-395 0 -395 338v416h-113z" />
    <glyph glyph-name="t_t_f" unicode="ttf" horiz-adv-x="2568" 
d="M690 727v-289q0 -60 37 -88t90 -28q23 0 55 4l41 -289q-63 -28 -158 -46t-192 -18q-395 0 -395 338v416h-113v358h113v252h522v-252h314v252h522v-252h313v5q0 104 25 184.5t65.5 130t98 80.5t116.5 43t127 12q174 0 301 -51l-35 -287q-28 4 -49 4q-28 0 -47 -3
t-39.5 -13.5t-30.5 -34.5t-10 -61v-9h172v-358h-172v-727h-522v727h-313v-289q0 -60 37 -88t90 -28q23 0 55 4l41 -289q-63 -28 -158 -46t-192 -18q-395 0 -395 338v416h-314z" />
    <glyph glyph-name="t_t_i" unicode="tti" horiz-adv-x="2461" 
d="M690 727v-289q0 -60 37 -88t90 -28q23 0 55 4l41 -289q-63 -28 -158 -46t-192 -18q-395 0 -395 338v416h-113v358h113v252h522v-252h314v252h522v-252h835v-1085h-522v727h-313v-289q0 -60 37 -88t90 -28q23 0 55 4l41 -289q-63 -28 -158 -46t-192 -18q-395 0 -395 338
v416h-314zM2367 1513v-323h-534v323h534z" />
    <glyph glyph-name="t_t_iacute" unicode="tt&#xed;" horiz-adv-x="2461" 
d="M690 727v-289q0 -60 37 -88t90 -28q23 0 55 4l41 -289q-63 -28 -158 -46t-192 -18q-395 0 -395 338v416h-113v358h113v252h522v-252h314v252h522v-252h835v-1085h-522v727h-313v-289q0 -60 37 -88t90 -28q23 0 55 4l41 -289q-63 -28 -158 -46t-192 -18q-395 0 -395 338
v416h-314zM2523 1526l-336 -318h-297l226 318h407z" />
    <glyph glyph-name="t_t_ibreve" unicode="tt&#x12d;" horiz-adv-x="2461" 
d="M690 727v-289q0 -60 37 -88t90 -28q23 0 55 4l41 -289q-63 -28 -158 -46t-192 -18q-395 0 -395 338v416h-113v358h113v252h522v-252h314v252h522v-252h835v-1085h-522v727h-313v-289q0 -60 37 -88t90 -28q23 0 55 4l41 -289q-63 -28 -158 -46t-192 -18q-395 0 -395 338
v416h-314zM2296 1516h186q-13 -155 -115 -235.5t-268 -80.5t-268 80.5t-115 235.5h187q14 -61 68.5 -92t127.5 -31t128 31t69 92z" />
    <glyph glyph-name="t_t_icircumflex" unicode="tt&#xee;" horiz-adv-x="2461" 
d="M690 727v-289q0 -60 37 -88t90 -28q23 0 55 4l41 -289q-63 -28 -158 -46t-192 -18q-395 0 -395 338v416h-113v358h113v252h522v-252h314v252h522v-252h835v-1085h-522v727h-313v-289q0 -60 37 -88t90 -28q23 0 55 4l41 -289q-63 -28 -158 -46t-192 -18q-395 0 -395 338
v416h-314zM2298 1526l244 -318h-297l-146 144l-145 -144h-297l244 318h397z" />
    <glyph glyph-name="t_t_idieresis" unicode="tt&#xef;" horiz-adv-x="2461" 
d="M690 727v-289q0 -60 37 -88t90 -28q23 0 55 4l41 -289q-63 -28 -158 -46t-192 -18q-395 0 -395 338v416h-113v358h113v252h522v-252h314v252h522v-252h835v-1085h-522v727h-313v-289q0 -60 37 -88t90 -28q23 0 55 4l41 -289q-63 -28 -158 -46t-192 -18q-395 0 -395 338
v416h-314zM2191 1225v268h334v-268h-334zM1675 1225v268h334v-268h-334z" />
    <glyph glyph-name="t_t_igrave" unicode="tt&#xec;" horiz-adv-x="2461" 
d="M690 727v-289q0 -60 37 -88t90 -28q23 0 55 4l41 -289q-63 -28 -158 -46t-192 -18q-395 0 -395 338v416h-113v358h113v252h522v-252h314v252h522v-252h835v-1085h-522v727h-313v-289q0 -60 37 -88t90 -28q23 0 55 4l41 -289q-63 -28 -158 -46t-192 -18q-395 0 -395 338
v416h-314zM2023 1208l-335 318h407l225 -318h-297z" />
    <glyph glyph-name="t_t_imacron" unicode="tt&#x12b;" horiz-adv-x="2461" 
d="M690 727v-289q0 -60 37 -88t90 -28q23 0 55 4l41 -289q-63 -28 -158 -46t-192 -18q-395 0 -395 338v416h-113v358h113v252h522v-252h314v252h522v-252h835v-1085h-522v727h-313v-289q0 -60 37 -88t90 -28q23 0 55 4l41 -289q-63 -28 -158 -46t-192 -18q-395 0 -395 338
v416h-314zM1735 1247v207h731v-207h-731z" />
    <glyph glyph-name="t_t_iogonek" unicode="tt&#x12f;" horiz-adv-x="2461" 
d="M55 727v358h113v252h522v-252h314v252h522v-252h835v-1085q-82 -61 -121.5 -110t-39.5 -99q0 -45 27.5 -64.5t64.5 -19.5q71 0 112 41l80 -51q-40 -58 -112 -93.5t-164 -35.5q-60 0 -111.5 15.5t-89 55t-37.5 97.5q0 38 16 75.5t37 64t53.5 54t52 40.5t46.5 30h-336v727
h-313v-289q0 -60 37 -88t90 -28q23 0 55 4l41 -289q-63 -28 -158 -46t-192 -18q-395 0 -395 338v416h-314v-289q0 -60 37 -88t90 -28q23 0 55 4l41 -289q-63 -28 -158 -46t-192 -18q-395 0 -395 338v416h-113zM2367 1513v-323h-534v323h534z" />
    <glyph glyph-name="t_t_itilde" unicode="tt&#x129;" horiz-adv-x="2461" 
d="M690 727v-289q0 -60 37 -88t90 -28q23 0 55 4l41 -289q-63 -28 -158 -46t-192 -18q-395 0 -395 338v416h-113v358h113v252h522v-252h314v252h522v-252h835v-1085h-522v727h-313v-289q0 -60 37 -88t90 -28q23 0 55 4l41 -289q-63 -28 -158 -46t-192 -18q-395 0 -395 338
v416h-314zM1686 1204q0 50 17.5 104.5t49.5 102.5t82 78.5t109 30.5q68 0 126.5 -26t102 -51.5t74.5 -25.5t59.5 32.5t40.5 80.5h170q-1 -76 -34 -152t-94.5 -128t-133.5 -52q-53 0 -99.5 15.5t-74.5 34.5t-64 34.5t-69 15.5q-32 0 -59 -28t-38 -66h-165z" />
    <glyph glyph-name="t_t_dotlessi" unicode="tt&#x131;" horiz-adv-x="2461" 
d="M690 727v-289q0 -60 37 -88t90 -28q23 0 55 4l41 -289q-63 -28 -158 -46t-192 -18q-395 0 -395 338v416h-113v358h113v252h522v-252h314v252h522v-252h835v-1085h-522v727h-313v-289q0 -60 37 -88t90 -28q23 0 55 4l41 -289q-63 -28 -158 -46t-192 -18q-395 0 -395 338
v416h-314z" />
    <glyph glyph-name=".notdef" horiz-adv-x="874" 
d="M0 1384h874v-1384h-874v1384zM172 418l164 274l-164 273v-547zM436 858l215 354h-428zM651 172l-215 354l-213 -354h428zM539 692l163 -274v547z" />
    <glyph glyph-name=".null" horiz-adv-x="0" 
 />
    <glyph glyph-name="nonmarkingreturn" horiz-adv-x="682" 
 />
    <glyph glyph-name="space" unicode=" " horiz-adv-x="491" 
 />
    <glyph glyph-name="exclam" unicode="!" horiz-adv-x="706" 
d="M96 1159v225h514v-225l-84 -643h-346zM113 0v410h481v-410h-481z" />
    <glyph glyph-name="quotedbl" unicode="&#x22;" horiz-adv-x="1052" 
d="M94 1245v139h352v-139l-20 -495h-311zM606 1245v139h352v-139l-20 -495h-311z" />
    <glyph glyph-name="numbersign" unicode="#" horiz-adv-x="1357" 
d="M846 1196h280l-32 -248h206v-250h-239l-27 -200h193v-250h-226l-32 -248h-281l33 248h-176l-33 -248h-281l33 248h-207v250h240l27 200h-193v250h225l33 248h281l-33 -248h176zM604 698l-26 -200h176l26 200h-176z" />
    <glyph glyph-name="dollar" unicode="$" horiz-adv-x="1294" 
d="M567 993q0 -28 29 -49.5t76 -34.5t107.5 -30t123.5 -34.5t123.5 -50t107.5 -74t76 -109.5t29 -154q0 -216 -124 -333.5t-349 -141.5v-312h-205v305q-268 8 -495 101q19 87 28.5 130t10.5 47.5t1.5 7t1.5 6.5t10.5 48.5t28.5 130.5q119 -53 222.5 -81.5t232.5 -28.5
q127 0 127 63q0 31 -36.5 51.5t-95 35t-129 31t-141 46.5t-129 73.5t-94.5 120t-36 177.5q1 207 132.5 329t360.5 144v192h205v-192q202 -11 416 -74l-80 -356q-188 78 -408 78q-63 0 -95 -13.5t-32 -48.5z" />
    <glyph glyph-name="percent" unicode="%" horiz-adv-x="1720" 
d="M309 -20l897 1425h205l-899 -1425h-203zM393 670q-164 0 -252 101t-88 269t88 269.5t252 101.5t252 -101.5t88 -269.5t-88 -269t-252 -101zM393 1214q-44 0 -69 -47t-25 -127t25 -127t69 -47t69 47t25 127t-25 127t-69 47zM1327 -27q-164 0 -252 101.5t-88 269.5
t88 269.5t252 101.5t252 -101.5t88 -269.5t-88 -269.5t-252 -101.5zM1327 518q-44 0 -69 -47t-25 -127t25 -127t69 -47t69 47t25 127t-25 127t-69 47z" />
    <glyph glyph-name="ampersand" unicode="&#x26;" horiz-adv-x="1452" 
d="M1419 874v-348h-112v-16q0 -91 -18.5 -168t-63.5 -146.5t-114.5 -117.5t-178 -76.5t-248.5 -28.5q-95 0 -182 12.5t-168.5 42t-141 73.5t-95.5 112t-36 152q0 128 74.5 222t192.5 124q-224 100 -224 315q0 186 161.5 285.5t436.5 99.5q238 0 482 -80l-62 -366
q-63 25 -163 44t-191 19q-174 0 -174 -80q0 -74 160 -74h37v-348h-62q-151 0 -151 -82q0 -46 40 -67t103 -21q89 0 130.5 39t41.5 99v380h526z" />
    <glyph glyph-name="quotesingle" unicode="'" horiz-adv-x="540" 
d="M94 1245v139h352v-139l-20 -495h-311z" />
    <glyph glyph-name="parenleft" unicode="(" horiz-adv-x="753" 
d="M760 -401h-418q-151 242 -221 463.5t-70 469.5t70 470t221 464h418q-154 -202 -232.5 -441.5t-78.5 -492.5t78.5 -491.5t232.5 -441.5z" />
    <glyph glyph-name="parenright" unicode=")" horiz-adv-x="753" 
d="M412 -401h-418q154 203 232.5 441.5t78.5 491.5t-78.5 492.5t-232.5 441.5h418q151 -242 220.5 -464t69.5 -470t-69.5 -469.5t-220.5 -463.5z" />
    <glyph glyph-name="asterisk" unicode="*" horiz-adv-x="1026" 
d="M967 965l-74 -25l-215 -45l147 -160l47 -65l-204 -148l-45 64l-109 190l-108 -190l-46 -64l-204 148l47 63l147 162l-215 43l-76 25l78 239l76 -24l199 -91l-25 218v79h252v-79l-25 -215l199 90l76 24z" />
    <glyph glyph-name="plus" unicode="+" horiz-adv-x="1173" 
d="M1114 680v-318h-364v-362h-326v362h-365v318h365v362h326v-362h364z" />
    <glyph glyph-name="comma" unicode="," horiz-adv-x="675" 
d="M98 410h482v-373l-232 -342h-239l188 305h-199v410z" />
    <glyph glyph-name="hyphen" unicode="-" horiz-adv-x="872" 
d="M774 692v-317h-676v317h676z" />
    <glyph glyph-name="period" unicode="." horiz-adv-x="677" 
d="M98 0v410h482v-410h-482z" />
    <glyph glyph-name="slash" unicode="/" horiz-adv-x="1103" 
d="M49 -57l668 1472h340l-668 -1472h-340z" />
    <glyph glyph-name="zero" unicode="0" horiz-adv-x="1409" 
d="M705 1411q161 0 284 -53t200 -149.5t115.5 -226.5t38.5 -290t-38.5 -290t-115.5 -226.5t-200 -149.5t-284 -53t-284 53t-200 149.5t-116 226.5t-39 290t39 290t116 226.5t200 149.5t284 53zM705 354q63 0 85.5 84t22.5 254t-22.5 254t-85.5 84t-86 -84t-23 -254t23 -254
t86 -84z" />
    <glyph glyph-name="one" unicode="1" horiz-adv-x="999" 
d="M360 0v786h-333v301q407 0 422 297h432v-1384h-521z" />
    <glyph glyph-name="two" unicode="2" horiz-adv-x="1341" 
d="M655 1411q104 0 188 -11.5t161.5 -42.5t129.5 -80t82.5 -127.5t30.5 -182.5q0 -68 -20.5 -131.5t-53.5 -115.5t-88 -107t-111 -100t-136 -101h424v-412h-1186v395q68 43 161.5 98.5t154.5 91.5t128.5 81t107 79.5t65.5 74t26 77.5q0 59 -46 80.5t-149 21.5
q-155 0 -374 -90l-74 389q109 42 277 77.5t302 35.5z" />
    <glyph glyph-name="three" unicode="3" horiz-adv-x="1306" 
d="M961 711q120 -29 207 -122.5t87 -215.5q0 -87 -36.5 -156t-98.5 -114t-148.5 -75t-181 -42.5t-202.5 -12.5q-305 0 -545 80l53 400q202 -84 402 -84q219 0 219 73q0 80 -154 80h-274v357h233q152 0 152 67q0 72 -168 72q-87 0 -186 -20t-164 -46l-62 377q246 82 496 82
q278 0 437 -100t159 -299q0 -105 -63.5 -182t-161.5 -119z" />
    <glyph glyph-name="four" unicode="4" horiz-adv-x="1406" 
d="M1331 627v-379h-135v-248h-481v248h-678v387l547 749h612v-757h135zM463 616h262v357z" />
    <glyph glyph-name="five" unicode="5" horiz-adv-x="1284" 
d="M88 700l102 684h984v-387h-533l-18 -114q62 4 94 4q80 0 152.5 -15.5t138.5 -50.5t114 -87t76.5 -130.5t28.5 -175.5q0 -99 -36.5 -177.5t-98 -130t-147.5 -85t-179.5 -48t-200.5 -14.5q-247 0 -514 78l55 385q190 -82 349 -82q99 0 154 27t55 78q0 59 -56 85.5
t-139 26.5q-71 0 -176 -18z" />
    <glyph glyph-name="six" unicode="6" horiz-adv-x="1363" 
d="M872 915q112 0 198 -34.5t139 -97t79.5 -145t26.5 -181.5q0 -218 -164 -351t-463 -133q-308 0 -466.5 189.5t-158.5 529.5q0 164 53 300t145 227.5t216.5 141.5t267.5 50q279 0 492 -104l-74 -326q-57 24 -143 41.5t-176 17.5q-111 0 -183.5 -50.5t-85.5 -160.5
q140 86 297 86zM705 324q49 0 72.5 38.5t23.5 96.5q0 60 -23 98.5t-73 38.5q-48 0 -72.5 -39t-24.5 -98t23.5 -97t73.5 -38z" />
    <glyph glyph-name="seven" unicode="7" horiz-adv-x="1214" 
d="M35 1384h1157v-370q-118 -148 -199.5 -291t-137.5 -331t-64 -392h-539q6 231 102.5 466t263.5 492h-583v426z" />
    <glyph glyph-name="eight" unicode="8" horiz-adv-x="1363" 
d="M1024 707q279 -86 279 -345q0 -93 -31.5 -162.5t-84.5 -112.5t-134.5 -69t-169.5 -35.5t-201 -9.5t-201 9.5t-169.5 35.5t-134.5 69t-84.5 112.5t-31.5 162.5q0 259 279 345q-113 38 -171 118t-58 215q0 186 148.5 278.5t422.5 92.5t422.5 -92.5t148.5 -278.5
q0 -135 -58 -215t-171 -118zM682 1135q-42 0 -62 -37.5t-20 -96.5q0 -60 22.5 -95.5t59.5 -35.5t59.5 35.5t22.5 95.5q0 59 -20 96.5t-62 37.5zM682 260q100 0 100 150q0 161 -100 161t-100 -161q0 -150 100 -150z" />
    <glyph glyph-name="nine" unicode="9" horiz-adv-x="1378" 
d="M524 469q-116 0 -206 36t-146 100t-84.5 148t-28.5 183q0 214 168.5 344.5t454.5 130.5q165 0 289 -54t198 -151t110 -221t36 -274q0 -341 -179 -539.5t-511 -198.5q-136 0 -276 28t-240 77l73 352q72 -32 170 -54t189 -22q93 0 151 23t82.5 59.5t34.5 95.5
q-37 -19 -67 -31t-88 -22t-130 -10zM676 1059q-52 0 -76.5 -40t-24.5 -99t25 -98.5t76 -39.5q52 0 76 39t24 99q0 58 -25 98.5t-75 40.5z" />
    <glyph glyph-name="colon" unicode=":" horiz-adv-x="714" 
d="M117 0v410h481v-410h-481zM117 676v409h481v-409h-481z" />
    <glyph glyph-name="semicolon" unicode=";" horiz-adv-x="712" 
d="M117 676v409h481v-409h-481zM117 410h481v-373l-231 -342h-240l188 305h-198v410z" />
    <glyph glyph-name="less" unicode="&#x3c;" horiz-adv-x="1138" 
d="M57 690l983 383v-346l-591 -205l591 -205v-346l-983 383v336z" />
    <glyph glyph-name="equal" unicode="=" horiz-adv-x="1259" 
d="M1157 434v-317h-1055v317h1055zM1157 928v-318h-1055v318h1055z" />
    <glyph glyph-name="greater" unicode="&#x3e;" horiz-adv-x="1138" 
d="M98 1073l983 -383v-336l-983 -383v346l592 205l-592 205v346z" />
    <glyph glyph-name="question" unicode="?" horiz-adv-x="1062" 
d="M516 989q0 70 -117 70q-131 0 -284 -58l-66 326q217 84 459 84q107 0 193.5 -17t156.5 -54t108 -101.5t38 -153.5q0 -71 -28 -135.5t-68 -111.5t-80.5 -90.5t-68.5 -92t-28 -96.5v-43h-409v70q0 46 20 89.5t48.5 79.5t57 71t48.5 77.5t20 85.5zM291 0v410h481v-410h-481z
" />
    <glyph glyph-name="at" unicode="@" horiz-adv-x="1581" 
d="M770 -178q-148 0 -278.5 54.5t-221.5 146.5t-143.5 217.5t-52.5 263.5q0 160 65.5 305.5t173 247.5t250 162.5t291.5 60.5q196 0 350 -84.5t238 -231.5t84 -329q0 -121 -35.5 -217t-93.5 -152.5t-125.5 -86t-138.5 -29.5q-52 0 -91 16t-60 42t-31.5 47t-16.5 44
q-49 -71 -120 -110t-150 -39q-149 0 -234.5 96t-85.5 241q0 191 126 329t298 138q82 0 146 -34.5t100 -94.5l18 99h232l-88 -467q-2 -26 -4 -57.5t16 -58t55 -26.5q78 0 130 81.5t52 238.5q0 248 -157.5 399.5t-417.5 151.5q-133 0 -258 -54.5t-217.5 -145t-148.5 -216.5
t-56 -262q0 -167 81 -303.5t219.5 -213.5t303.5 -77q190 0 354 104l52 -75q-194 -121 -410 -121zM745 342q84 0 148.5 70t64.5 188q0 69 -38 113.5t-105 44.5q-94 0 -155.5 -74t-61.5 -180q0 -73 40 -117.5t107 -44.5z" />
    <glyph glyph-name="A" unicode="A" horiz-adv-x="1552" 
d="M1094 1384l485 -1384h-535l-63 231h-410l-61 -231h-537l484 1384h637zM776 981l-117 -426h234z" />
    <glyph glyph-name="B" unicode="B" horiz-adv-x="1466" 
d="M1425 387q0 -83 -29.5 -149t-86.5 -110.5t-129.5 -75.5t-168.5 -48t-192.5 -24t-212.5 -7q-249 0 -487 29v1374q278 35 481 35q95 0 180.5 -7.5t174 -25t158.5 -49t126 -76t86.5 -110.5t30.5 -148q0 -106 -52 -179t-135 -114q29 -6 61.5 -20t67.5 -41t63 -61.5t46 -85
t18 -107.5zM627 1069v-227q18 -2 75 -2q46 0 83 8.5t66.5 37t29.5 75.5q0 42 -28.5 68.5t-64.5 35t-79 8.5q-42 0 -82 -4zM719 324q35 0 68 6t65.5 19t52 38.5t19.5 61.5q0 126 -211 126q-46 0 -86 -4v-245q14 -2 92 -2z" />
    <glyph glyph-name="C" unicode="C" horiz-adv-x="1361" 
d="M952 381q147 0 267 51l102 -373q-258 -86 -502 -86q-344 0 -553 194.5t-209 524.5q0 220 95.5 383.5t267.5 249.5t399 86q244 0 502 -86l-102 -373q-122 52 -267 52q-168 0 -260 -82t-92 -230t92 -229.5t260 -81.5z" />
    <glyph glyph-name="D" unicode="D" horiz-adv-x="1601" 
d="M651 1411q265 0 466 -83.5t315 -249t114 -394.5q0 -127 -33.5 -232t-88.5 -177t-134.5 -127.5t-162.5 -88t-182 -52.5t-183.5 -27t-175.5 -7q-189 0 -467 29v1374q231 35 532 35zM651 367q16 -2 62 -2q149 0 222 93.5t73 250.5q0 154 -76 238.5t-215 84.5q-50 0 -66 -2
v-663z" />
    <glyph glyph-name="E" unicode="E" horiz-adv-x="1347" 
d="M1262 995h-623v-121h545v-360h-545v-127h623v-387h-1143v1384h1143v-389z" />
    <glyph glyph-name="F" unicode="F" horiz-adv-x="1253" 
d="M1204 991h-557v-170h488v-407h-488v-414h-528v1384h1085v-393z" />
    <glyph glyph-name="G" unicode="G" horiz-adv-x="1495" 
d="M952 768h465v-690q-243 -105 -575 -105q-169 0 -312.5 48.5t-249 138t-165.5 225.5t-60 303q0 219 104 384t287.5 252t419.5 87q154 0 261.5 -16t230.5 -49l-68 -381q-165 49 -319 49q-373 0 -373 -326q0 -79 26.5 -141.5t71 -99.5t97.5 -56.5t110 -19.5q21 0 49 4v393z
" />
    <glyph glyph-name="H" unicode="H" horiz-adv-x="1642" 
d="M993 1384h531v-1384h-531v514h-344v-514h-530v1384h530v-497h344v497z" />
    <glyph glyph-name="I" unicode="I" horiz-adv-x="772" 
d="M653 1384v-1384h-534v1384h534z" />
    <glyph glyph-name="J" unicode="J" horiz-adv-x="1085" 
d="M203 1384h778v-811q0 -600 -598 -600q-208 0 -367 76l93 363q81 -23 141 -23q100 0 150.5 32t50.5 124v440h-248v399z" />
    <glyph glyph-name="K" unicode="K" horiz-adv-x="1536" 
d="M1100 762l461 -762h-611l-297 563v-563h-534v1384h534v-491l297 491h574z" />
    <glyph glyph-name="L" unicode="L" horiz-adv-x="1198" 
d="M653 1384v-995h525v-389h-1059v1384h534z" />
    <glyph glyph-name="M" unicode="M" horiz-adv-x="1800" 
d="M1145 1384h536v-1384h-497v707l-279 -443h-12l-277 443v-707h-497v1384h536l244 -452z" />
    <glyph glyph-name="N" unicode="N" horiz-adv-x="1667" 
d="M1059 1384h489v-1384h-506l-434 711v-711h-489v1384h532l408 -706v706z" />
    <glyph glyph-name="O" unicode="O" horiz-adv-x="1677" 
d="M840 1411q232 0 408.5 -85.5t275 -249t98.5 -384.5t-98.5 -384.5t-275 -249t-408.5 -85.5q-233 0 -410 85.5t-276 249t-99 384.5t99 384.5t276 249t410 85.5zM840 371q120 0 181.5 83t61.5 238q0 156 -61.5 239t-181.5 83q-122 0 -184 -83t-62 -239q0 -155 62 -238
t184 -83z" />
    <glyph glyph-name="P" unicode="P" horiz-adv-x="1456" 
d="M616 1411q116 0 224 -15t216.5 -53.5t188.5 -98t130 -155t50 -217.5q0 -118 -47 -212.5t-124.5 -154t-180 -97t-211 -49.5t-219.5 -3v-356h-524v1378q217 33 497 33zM639 1020v-293q38 -3 77.5 1t84.5 17t73.5 47t28.5 85q0 39 -20 68.5t-51 44t-67.5 24t-69 8.5
t-56.5 -2z" />
    <glyph glyph-name="Q" unicode="Q" horiz-adv-x="1679" 
d="M1475 39l157 -238q-69 -64 -157.5 -106t-179.5 -59t-181.5 -5t-165 51t-130 114t-75.5 179q-312 27 -499 217t-187 498q0 221 99 385t276 250t410 86q232 0 408.5 -86t275 -250t98.5 -385q0 -236 -113 -405.5t-311 -247.5q32 -39 83.5 -46t97.5 7t94 41zM596 692
q0 -156 62.5 -241.5t183.5 -85.5q120 0 181.5 85.5t61.5 241.5t-61.5 239t-181.5 83q-122 0 -184 -83t-62 -239z" />
    <glyph glyph-name="R" unicode="R" horiz-adv-x="1519" 
d="M1186 569q216 -42 287 -569h-531q-21 108 -40 182t-43 122t-41.5 74t-52 38t-57.5 14t-73 2h-2v-432h-514v1370q96 16 248.5 28.5t283.5 12.5q127 0 235.5 -12.5t213 -46t178 -86.5t118 -138.5t44.5 -197.5q0 -246 -254 -361zM678 756q39 0 76 5.5t78 19.5t65.5 44.5
t24.5 73.5q0 41 -22.5 70t-59.5 43t-73 20t-75 6q-29 0 -61 -4v-276q14 -2 47 -2z" />
    <glyph glyph-name="S" unicode="S" horiz-adv-x="1300" 
d="M586 989q0 -16 22.5 -28t61 -22t88 -21t104.5 -27.5t109.5 -38.5t104 -56.5t88 -78.5t61 -109t22.5 -143q0 -248 -159.5 -370t-442.5 -122q-306 0 -575 105l84 375q116 -56 218.5 -84.5t237.5 -28.5q115 0 115 51q0 18 -28 31.5t-74 22.5t-105 24.5t-120 34.5t-119.5 55
t-104.5 83t-73.5 122.5t-26.5 169.5q1 152 75.5 260.5t206 162.5t308.5 54q256 0 530 -80l-84 -373q-75 34 -185.5 58t-224.5 24q-57 0 -85.5 -11t-28.5 -40z" />
    <glyph glyph-name="T" unicode="T" horiz-adv-x="1361" 
d="M948 989v-989h-534v989h-394v395h1321v-395h-393z" />
    <glyph glyph-name="U" unicode="U" horiz-adv-x="1546" 
d="M907 1384h535v-837q0 -289 -174 -431.5t-496 -142.5t-495 142.5t-173 431.5v837h535v-831q0 -84 27.5 -128t105.5 -44q79 0 107 44.5t28 127.5v831z" />
    <glyph glyph-name="V" unicode="V" horiz-adv-x="1533" 
d="M401 0l-413 1384h544l234 -919l235 919h547l-418 -1384h-729z" />
    <glyph glyph-name="W" unicode="W" horiz-adv-x="2258" 
d="M1722 1384h531l-309 -1384h-652l-164 778l-165 -778h-648l-309 1384h529l139 -942l209 942h487l211 -942z" />
    <glyph glyph-name="X" unicode="X" horiz-adv-x="1525" 
d="M12 1384h553l197 -389l194 389h557l-387 -667l408 -717h-553l-219 422l-219 -422h-553l405 717z" />
    <glyph glyph-name="Y" unicode="Y" horiz-adv-x="1464" 
d="M961 1384h538l-500 -890v-494h-534v494l-502 890h541l225 -499z" />
    <glyph glyph-name="Z" unicode="Z" horiz-adv-x="1351" 
d="M98 1384h1159v-380l-520 -613h533v-391h-1202v317l583 676h-553v391z" />
    <glyph glyph-name="bracketleft" unicode="[" horiz-adv-x="784" 
d="M743 -399h-637v1865h637v-262h-286v-1337h286v-266z" />
    <glyph glyph-name="backslash" unicode="\" horiz-adv-x="1103" 
d="M387 1415l668 -1472h-340l-668 1472h340z" />
    <glyph glyph-name="bracketright" unicode="]" horiz-adv-x="784" 
d="M678 -399h-637v266h287v1337h-287v262h637v-1865z" />
    <glyph glyph-name="asciicircum" unicode="^" horiz-adv-x="1181" 
d="M588 1085l-162 -417h-354l321 716h389l322 -716h-354z" />
    <glyph glyph-name="underscore" unicode="_" horiz-adv-x="1501" 
d="M246 -254v178h1009v-178h-1009z" />
    <glyph glyph-name="grave" unicode="`" horiz-adv-x="808" 
d="M424 1208l-336 318h408l225 -318h-297z" />
    <glyph glyph-name="a" unicode="a" horiz-adv-x="1329" 
d="M639 1112q301 0 451.5 -119t150.5 -352v-641h-516v100q-137 -127 -317 -127q-160 0 -264.5 102t-104.5 247q0 172 121 261t346 89q40 0 109 -7t104 -14v11q0 100 -191 100q-184 0 -340 -60l-71 324q222 86 522 86zM731 403v37q-30 6 -76 6q-60 0 -93.5 -27t-33.5 -73
q0 -38 24 -61t66 -23q59 0 86 39t27 102z" />
    <glyph glyph-name="b" unicode="b" horiz-adv-x="1441" 
d="M934 1112q133 0 238 -76.5t162 -205.5t57 -285t-57 -286.5t-162 -208t-238 -77.5q-98 0 -183 44t-147 122v-139h-502v1513h523v-538q127 137 309 137zM733 362q66 0 109 53.5t43 129.5t-43 129t-109 53t-108.5 -52.5t-42.5 -129.5t42.5 -130t108.5 -53z" />
    <glyph glyph-name="c" unicode="c" horiz-adv-x="1103" 
d="M782 350q113 0 209 45l68 -350q-206 -72 -402 -72q-279 0 -443.5 157t-164.5 413q0 254 165 411.5t443 157.5q190 0 402 -74l-68 -336q-105 43 -209 43q-62 0 -107.5 -17.5t-69 -47.5t-34 -62t-10.5 -69q0 -36 10.5 -68.5t34 -63.5t69 -49t107.5 -18z" />
    <glyph glyph-name="d" unicode="d" horiz-adv-x="1441" 
d="M526 1112q171 0 291 -133v534h522v-1513h-501v139q-62 -78 -147 -122t-183 -44q-133 0 -238 77.5t-162 208t-57 286.5t59.5 285t169 205.5t246.5 76.5zM709 362q66 0 108.5 53t42.5 130t-42.5 129.5t-108.5 52.5t-109 -53t-43 -129t43 -129.5t109 -53.5z" />
    <glyph glyph-name="e" unicode="e" horiz-adv-x="1253" 
d="M1202 422h-682q57 -117 297 -117q134 0 285 51l53 -307q-194 -76 -463 -76q-134 0 -249.5 36t-204.5 106t-140 183t-51 257q0 124 47.5 230t127.5 176.5t187 110.5t226 40q166 0 287 -52.5t187.5 -147t89.5 -218t3 -272.5zM506 666h270q-8 64 -39.5 103.5t-89.5 39.5
q-112 0 -141 -143zM506 666h270h-270z" />
    <glyph glyph-name="f" unicode="f" horiz-adv-x="905" 
d="M608 1540q174 0 301 -51l-35 -287q-28 4 -49 4q-28 0 -47 -3t-39.5 -13.5t-30.5 -34.5t-10 -61v-9h172v-358h-172v-727h-522v727h-115v358h115v5q0 104 25 184.5t65.5 130t98 80.5t116.5 43t127 12z" />
    <glyph glyph-name="g" unicode="g" horiz-adv-x="1437" 
d="M836 1085h501v-913q0 -315 -149.5 -455.5t-489.5 -140.5q-153 0 -263 23t-170.5 64.5t-87.5 91.5t-27 112q0 96 64 170t183 110q-158 35 -254 168t-96 308q0 134 57.5 245.5t163 177.5t238.5 66q199 0 330 -141v114zM696 750q-61 0 -100 -49.5t-39 -120.5
q0 -72 38.5 -122t100.5 -50t102 50t40 122q0 71 -40 120.5t-102 49.5zM827 -4v143q-8 -1 -21.5 -3t-48 -13t-61 -27t-48 -47.5t-21.5 -71.5q0 -51 25 -77.5t71 -26.5q48 0 76 31.5t28 91.5z" />
    <glyph glyph-name="h" unicode="h" horiz-adv-x="1431" 
d="M1339 737v-737h-522v621q0 41 -28 70.5t-68 29.5t-68 -29.5t-28 -70.5v-621h-523v1513h523v-528q124 127 323 127q165 0 278 -107.5t113 -267.5z" />
    <glyph glyph-name="i" unicode="i" horiz-adv-x="727" 
d="M102 0v1085h523v-1085h-523zM631 1513v-323h-535v323h535z" />
    <glyph glyph-name="j" unicode="j" horiz-adv-x="729" 
d="M104 1085h523v-976q0 -97 -22 -175t-56.5 -131.5t-89 -94t-108 -63.5t-125.5 -38.5t-129 -21.5t-130 -9l-37 330q29 10 47 17.5t45 23t42.5 33t27.5 45t12 61.5v999zM633 1513v-323h-535v323h535z" />
    <glyph glyph-name="k" unicode="k" horiz-adv-x="1400" 
d="M1415 0h-555l-235 442v-442h-523v1513h523v-778l221 350h526l-334 -442z" />
    <glyph glyph-name="l" unicode="l" horiz-adv-x="727" 
d="M102 0v1513h523v-1513h-523z" />
    <glyph glyph-name="m" unicode="m" horiz-adv-x="2125" 
d="M1649 1112q165 0 275 -107t110 -268v-737h-523v621q0 42 -25.5 71t-64.5 29t-65.5 -29t-26.5 -71v-621h-522v621q0 42 -25.5 71t-64.5 29t-65.5 -29t-26.5 -71v-621h-523v1085h500v-110q57 62 148 99.5t194 37.5q99 0 182.5 -42.5t135.5 -115.5q54 60 152 109t235 49z
" />
    <glyph glyph-name="n" unicode="n" horiz-adv-x="1431" 
d="M1339 737v-737h-522v621q0 41 -28 70.5t-68 29.5t-68 -29.5t-28 -70.5v-621h-523v1085h506v-106q133 133 340 133q165 0 278 -107.5t113 -267.5z" />
    <glyph glyph-name="o" unicode="o" horiz-adv-x="1400" 
d="M702 1112q133 0 251 -39t208 -110t142.5 -180t52.5 -240t-52.5 -240t-142.5 -180.5t-208 -110.5t-251 -39t-252 39t-209 110t-143 180t-53 241t53 241t143 180t209 109.5t252 38.5zM700 352q67 0 110.5 56t43.5 135t-43.5 134.5t-110.5 55.5t-110 -55.5t-43 -134.5
t43 -135t110 -56z" />
    <glyph glyph-name="p" unicode="p" horiz-adv-x="1441" 
d="M915 -27q-170 0 -290 133v-503h-523v1482h502v-139q62 78 147 122t183 44q133 0 238 -77.5t162 -207.5t57 -286t-59.5 -285.5t-169.5 -206t-247 -76.5zM733 727q-66 0 -108.5 -52.5t-42.5 -129.5t42.5 -130t108.5 -53t109 53.5t43 129.5t-43 129t-109 53z" />
    <glyph glyph-name="q" unicode="q" horiz-adv-x="1441" 
d="M508 -27q-133 0 -238 76.5t-162 206t-57 285.5t57 286t162 207.5t238 77.5q98 0 183 -44t147 -122v139h501v-1482h-522v508q-128 -138 -309 -138zM709 727q-66 0 -109 -53t-43 -129t43 -129.5t109 -53.5t108.5 53t42.5 130t-42.5 129.5t-108.5 52.5z" />
    <glyph glyph-name="r" unicode="r" horiz-adv-x="976" 
d="M946 696q-153 20 -237 -55.5t-84 -234.5v-406h-523v1085h488v-192q10 23 15 33.5t18.5 35t24 38t29 35t36 32.5t43.5 24t53 17t62.5 3.5t74.5 -9.5v-406z" />
    <glyph glyph-name="s" unicode="s" horiz-adv-x="1120" 
d="M588 756q0 -15 26.5 -25t68.5 -18.5t93.5 -20.5t102.5 -37t93 -60.5t68.5 -98t26.5 -144.5q0 -188 -139 -283.5t-387 -95.5q-262 0 -494 125l47 312q73 -49 171.5 -80t197.5 -31q86 0 86 41q0 13 -26 22t-67 17t-90.5 20t-99.5 36t-91 59t-67 96t-26 141
q0 188 142.5 284.5t391.5 96.5q210 0 418 -88l-45 -297q-58 26 -144.5 46t-148.5 20q-50 0 -79 -7t-29 -30z" />
    <glyph glyph-name="t" unicode="t" horiz-adv-x="960" 
d="M55 727v358h113v252h522v-252h189v-358h-189v-289q0 -60 37 -88t90 -28q23 0 55 4l41 -289q-63 -28 -158 -46t-192 -18q-395 0 -395 338v416h-113z" />
    <glyph glyph-name="u" unicode="u" horiz-adv-x="1431" 
d="M92 348v737h522v-620q0 -41 28.5 -70.5t68.5 -29.5t68 29.5t28 70.5v620h522v-1085h-506v106q-133 -133 -340 -133q-165 0 -278 107.5t-113 267.5z" />
    <glyph glyph-name="v" unicode="v" horiz-adv-x="1318" 
d="M811 1085h522l-381 -1085h-585l-381 1085h522l151 -641z" />
    <glyph glyph-name="w" unicode="w" horiz-adv-x="1955" 
d="M1432 1085h526l-328 -1085h-506l-145 494l-150 -494h-503l-328 1085h532l105 -591l153 591h371l162 -591z" />
    <glyph glyph-name="x" unicode="x" horiz-adv-x="1384" 
d="M1040 567l355 -567h-555l-148 324l-147 -324h-555l354 567l-317 518h503l162 -284l162 284h504z" />
    <glyph glyph-name="y" unicode="y" horiz-adv-x="1425" 
d="M803 1085h522v-913q0 -315 -149.5 -455.5t-489.5 -140.5q-123 0 -219 15.5t-157 42t-101 64t-56 79t-16 90.5q0 93 60.5 165.5t173.5 110.5q-137 10 -210 85t-73 200v657h522v-587q0 -43 28.5 -73t68.5 -30t68 30t28 73v587zM803 -6v145q-8 -1 -20.5 -3.5t-45 -15
t-57.5 -29.5t-45.5 -49.5t-20.5 -72.5q0 -42 21 -69t67 -27q101 0 101 121z" />
    <glyph glyph-name="z" unicode="z" horiz-adv-x="1161" 
d="M1077 772l-391 -422h401v-350h-1028v295l418 440h-381v350h981v-313z" />
    <glyph glyph-name="braceleft" unicode="{" horiz-adv-x="874" 
d="M588 1081v-215q0 -266 -203 -331q203 -65 203 -332v-215q0 -65 25 -96t85 -31h136v-258h-177q-204 0 -311.5 95.5t-107.5 289.5v286q0 47 -36 80t-82 47t-100 17v233q51 2 98 16t83.5 47.5t36.5 80.5v286q0 194 107.5 289.5t311.5 95.5h177v-258h-136q-60 0 -85 -31
t-25 -96z" />
    <glyph glyph-name="bar" unicode="|" horiz-adv-x="452" 
d="M106 -397v1863h240v-1863h-240z" />
    <glyph glyph-name="braceright" unicode="}" horiz-adv-x="874" 
d="M287 866v215q0 65 -25.5 96t-85.5 31h-135v258h176q204 0 312 -95.5t108 -289.5v-286q0 -47 36.5 -80.5t83 -47.5t97.5 -16v-233q-54 -3 -100 -17t-81.5 -47t-35.5 -80v-286q0 -194 -108 -289.5t-312 -95.5h-176v258h135q60 0 85.5 31t25.5 96v215q0 268 202 332
q-202 64 -202 331z" />
    <glyph glyph-name="asciitilde" unicode="~" horiz-adv-x="1374" 
d="M68 401q0 55 14 114t45 118.5t75 106.5t109.5 76.5t141.5 29.5q81 0 155.5 -24t120.5 -52t97 -52t89 -24q60 0 98 50.5t56 121.5h244q-1 -77 -27 -157t-73.5 -149.5t-124 -114t-168.5 -44.5q-78 0 -149 23.5t-114.5 51.5t-98 51.5t-105.5 23.5q-58 0 -94.5 -46
t-49.5 -104h-241z" />
    <glyph glyph-name="uni00A0" unicode="&#xa0;" horiz-adv-x="491" 
 />
    <glyph glyph-name="exclamdown" unicode="&#xa1;" horiz-adv-x="677" 
d="M82 -299v225l84 643h346l84 -643v-225h-514zM98 676v409h482v-409h-482z" />
    <glyph glyph-name="cent" unicode="&#xa2;" horiz-adv-x="1126" 
d="M569 1372h205v-203q134 -16 275 -61l-56 -272q-79 28 -190 28q-64 0 -114.5 -15.5t-81.5 -40t-51 -59t-28 -69t-8 -72.5q0 -46 13.5 -88.5t43.5 -82t88.5 -63.5t137.5 -24q111 0 190 31l60 -289q-138 -45 -279 -59v-293h-205v295q-240 28 -378 181.5t-138 385.5
q0 229 138.5 383.5t377.5 183.5v203z" />
    <glyph glyph-name="sterling" unicode="&#xa3;" horiz-adv-x="1286" 
d="M778 1411q243 0 447 -68l-82 -380q-130 36 -234 36q-194 0 -194 -147q0 -32 6 -72h287v-162h-267q7 -126 -28 -243h458v-375h-1060v184q94 127 119 229t10 205h-177v162h144q-21 111 -21 176q0 148 80.5 252.5t212 153.5t299.5 49z" />
    <glyph glyph-name="currency" unicode="&#xa4;" horiz-adv-x="1421" 
d="M1274 557q0 -166 -90 -305l182 -182l-166 -166l-182 182q-142 -92 -307 -92q-163 0 -305 92l-183 -182l-168 166l183 182q-91 140 -91 305q0 167 91 307l-183 183l168 165l183 -182q139 90 305 90q168 0 307 -90l182 182l166 -165l-182 -183q90 -139 90 -307zM711 256
q126 0 214.5 88t88.5 213q0 126 -88.5 214.5t-214.5 88.5q-125 0 -214 -88.5t-89 -214.5q0 -124 89 -212.5t214 -88.5z" />
    <glyph glyph-name="yen" unicode="&#xa5;" horiz-adv-x="1507" 
d="M1462 1384l-311 -616h176v-162h-258l-55 -112v-58h313v-162h-313v-274h-520v274h-314v162h314v58l-58 112h-256v162h174l-309 616h512l197 -518l196 518h512z" />
    <glyph glyph-name="brokenbar" unicode="&#xa6;" horiz-adv-x="565" 
d="M115 1360h336v-701h-336v701zM115 379h336v-778h-336v778z" />
    <glyph glyph-name="section" unicode="&#xa7;" horiz-adv-x="1075" 
d="M612 66q0 23 -30 39.5t-78.5 29t-106.5 26t-116 35t-106.5 50.5t-78.5 78.5t-30 113.5q0 178 165 240q-102 85 -102 235q0 164 118 257.5t318 93.5q186 0 400 -72l-62 -256q-177 63 -319 63q-111 0 -111 -65q0 -20 23 -35.5t61 -26t86.5 -23.5t99 -26t99 -35.5t86.5 -51
t61 -74t23 -101.5q0 -174 -164 -239q108 -81 108 -236q0 -164 -118 -257t-318 -93q-205 0 -430 88l62 256q185 -80 348 -80q112 0 112 66zM659 479q0 28 -25 47.5t-56 29t-85 22.5q-7 1 -10 2q-67 -11 -67 -60q0 -22 12.5 -38t41 -27.5t54 -18.5t70.5 -16q65 11 65 59z" />
    <glyph glyph-name="dieresis" unicode="&#xa8;" horiz-adv-x="1179" 
d="M170 1225v268h334v-268h-334zM686 1225v268h334v-268h-334z" />
    <glyph glyph-name="copyright" unicode="&#xa9;" horiz-adv-x="1468" 
d="M735 1323q182 0 336.5 -90t244 -244.5t89.5 -337.5q0 -137 -53 -261t-142.5 -213t-213.5 -142t-261 -53t-261 53t-214.5 142t-143.5 213t-53 261q0 182 90 337t245 245t337 90zM735 72q157 0 290.5 77.5t211.5 211t78 290.5q0 119 -46 226.5t-124 185.5t-185 124t-225 46
q-158 0 -292 -78t-211.5 -212t-77.5 -292q0 -118 46 -225t123.5 -184.5t185 -123.5t226.5 -46zM819 514q57 0 139 33l62 -211q-143 -47 -268 -47q-173 0 -279 98t-106 264q0 167 107 266t278 99q119 0 268 -49l-62 -211q-78 32 -137 32q-71 0 -111 -38t-40 -99q0 -59 40 -98
t109 -39z" />
    <glyph glyph-name="ordfeminine" unicode="&#xaa;" horiz-adv-x="1036" 
d="M504 1239q424 0 424 -319v-437h-365v68q-97 -86 -223 -86q-113 0 -186.5 69t-73.5 168q0 117 85 177.5t245 60.5q91 0 149 -14v8q0 67 -133 67q-130 0 -242 -40l-49 221q156 57 369 57zM569 758v24q-14 4 -53 4q-42 0 -66 -18t-24 -49q0 -26 16.5 -41.5t46.5 -15.5
q41 0 60.5 27t19.5 69z" />
    <glyph glyph-name="guillemotleft" unicode="&#xab;" horiz-adv-x="1671" 
d="M903 1042l-428 -493l428 -494h-461l-393 494l393 493h461zM1624 1042l-428 -493l428 -494h-461l-393 494l393 493h461z" />
    <glyph glyph-name="logicalnot" unicode="&#xac;" horiz-adv-x="1333" 
d="M70 684v305h1155v-645h-310v340h-845z" />
    <glyph glyph-name="registered" unicode="&#xae;" horiz-adv-x="1468" 
d="M1081 772q0 -61 -29 -106t-71 -72q51 -37 78.5 -101t46.5 -192h-283q-7 64 -17.5 106t-26 63t-31.5 29t-39 9v-207h-283v692q156 23 270 23q80 0 145.5 -12t121.5 -38.5t87 -75.5t31 -118zM702 813v-133q45 -3 77 16t32 52q0 32 -30.5 50t-78.5 15zM735 1323
q182 0 336.5 -90t244 -244.5t89.5 -337.5q0 -137 -53 -261t-142.5 -213t-213.5 -142t-261 -53t-261 53t-214.5 142t-143.5 213t-53 261q0 182 90 337t245 245t337 90zM735 72q157 0 290.5 77.5t211.5 211t78 290.5q0 119 -46 226.5t-124 185.5t-185 124t-225 46
q-158 0 -292 -78t-211.5 -212t-77.5 -292q0 -118 46 -225t123.5 -184.5t185 -123.5t226.5 -46z" />
    <glyph glyph-name="macron" unicode="&#xaf;" horiz-adv-x="1058" 
d="M156 1247v207h731v-207h-731z" />
    <glyph glyph-name="degree" unicode="&#xb0;" horiz-adv-x="716" 
d="M358 1446q126 0 216 -89.5t90 -215.5t-90 -215.5t-216 -89.5q-127 0 -216 89.5t-89 215.5t89 215.5t216 89.5zM358 1004q57 0 97.5 40t40.5 97t-40.5 97t-97.5 40t-97 -40t-40 -97t40 -97t97 -40z" />
    <glyph glyph-name="plusminus" unicode="&#xb1;" horiz-adv-x="1234" 
d="M1145 920v-318h-365v-207h-325v207h-365v318h365v206h325v-206h365zM90 0v317h1055v-317h-1055z" />
    <glyph glyph-name="twosuperior" unicode="&#xb2;" horiz-adv-x="829" 
d="M403 1706q63 0 113.5 -7t97 -25t78 -47.5t50 -76.5t18.5 -110q0 -93 -59 -166.5t-177 -157.5h244v-256h-713v244q34 21 89 53.5t89 52t75 47.5t64.5 49t39.5 45.5t16 47.5q0 25 -27 38t-71 13q-120 0 -228 -53l-47 239q68 28 169 49t179 21z" />
    <glyph glyph-name="threesuperior" unicode="&#xb3;" horiz-adv-x="829" 
d="M600 1286q72 -18 124 -74t52 -129q0 -64 -32.5 -112t-90 -75t-127 -39.5t-151.5 -12.5q-191 0 -326 49l31 246q122 -52 227 -52q131 0 131 41q0 43 -82 43h-159v220h125q29 0 46.5 2t31.5 10t14 24q0 23 -25 30t-76 7q-98 0 -196 -39l-37 232q135 49 297 49
q167 0 262.5 -59.5t95.5 -180.5q0 -62 -38 -108.5t-97 -71.5z" />
    <glyph glyph-name="acute" unicode="&#xb4;" horiz-adv-x="864" 
d="M743 1526l-335 -318h-297l225 318h407z" />
    <glyph glyph-name="mu" unicode="&#xb5;" horiz-adv-x="1421" 
d="M102 -397v1482h523v-641q0 -41 28 -70.5t68 -29.5t68 29.5t28 70.5v641h522v-1085h-450v92q-82 -119 -211 -119q-43 0 -92 19v-389h-484z" />
    <glyph glyph-name="paragraph" unicode="&#xb6;" horiz-adv-x="1200" 
d="M1133 1384v-133h-172v-1423h-158v1423h-168v-1423h-158v848h-71q-149 0 -253 103t-104 251t104 251t253 103h727z" />
    <glyph glyph-name="periodcentered" unicode="&#xb7;" horiz-adv-x="677" 
d="M98 444v410h482v-410h-482z" />
    <glyph glyph-name="cedilla" unicode="&#xb8;" horiz-adv-x="696" 
d="M74 -424l53 119q250 -53 250 53q0 62 -176 72l143 246l164 16l-131 -201q101 -3 170 -51t69 -121q0 -81 -66 -133.5t-190 -52.5q-151 0 -286 53z" />
    <glyph glyph-name="onesuperior" unicode="&#xb9;" horiz-adv-x="829" 
d="M319 860v469h-200v184q244 0 254 179h270v-832h-324z" />
    <glyph glyph-name="ordmasculine" unicode="&#xba;" horiz-adv-x="1095" 
d="M549 1239q127 0 231 -44.5t168 -134t64 -208.5q0 -118 -64 -207.5t-168.5 -134.5t-230.5 -45q-127 0 -231.5 44.5t-169 134t-64.5 208.5q0 120 64.5 209.5t169 133.5t231.5 44zM547 723q48 0 78 37.5t30 91.5t-30 91.5t-78 37.5t-78.5 -37.5t-30.5 -91.5t30.5 -91.5
t78.5 -37.5z" />
    <glyph glyph-name="guillemotright" unicode="&#xbb;" horiz-adv-x="1671" 
d="M1196 549l-428 493h461l393 -493l-393 -494h-461zM475 549l-428 493h461l393 -493l-393 -494h-461z" />
    <glyph glyph-name="onequarter" unicode="&#xbc;" horiz-adv-x="2283" 
d="M2056 831v-448h80v-233h-80v-150h-303v150h-399v231l321 450h381zM1759 377v207l-145 -207h145zM147 1229q244 0 254 178h271v-832h-324v469h-201v185zM1444 1434h313l-917 -1473h-314z" />
    <glyph glyph-name="onehalf" unicode="&#xbd;" horiz-adv-x="2283" 
d="M117 1229q244 0 254 178h270v-832h-324v469h-200v185zM1819 846q63 0 113 -7t97 -25t78 -47.5t49.5 -76.5t18.5 -110q0 -93 -59 -166.5t-177 -157.5h244v-256h-713v244q34 21 89 53.5t89 52t75 47.5t64.5 49t39.5 45.5t16 47.5q0 25 -27 38t-71 13q-119 0 -227 -53
l-48 239q68 28 169.5 49t179.5 21zM1413 1434h313l-917 -1473h-313z" />
    <glyph glyph-name="threequarters" unicode="&#xbe;" horiz-adv-x="2283" 
d="M2095 831v-448h80v-233h-80v-150h-303v150h-399v231l321 450h381zM1798 377v207l-145 -207h145zM1462 1434h314l-918 -1473h-313zM659 1001q72 -18 124.5 -73.5t52.5 -128.5q0 -64 -33 -112t-90.5 -75t-127 -40t-151.5 -13q-190 0 -325 49l30 246q120 -51 228 -51
q131 0 131 41q0 43 -82 43h-160v219h125q29 0 46.5 2t31.5 10.5t14 24.5q0 23 -24.5 30t-75.5 7q-99 0 -197 -39l-37 231q135 49 297 49q168 0 263.5 -59.5t95.5 -179.5q0 -62 -38.5 -109t-97.5 -72z" />
    <glyph glyph-name="questiondown" unicode="&#xbf;" horiz-adv-x="1054" 
d="M543 96q0 -69 116 -69q134 0 285 57l66 -326q-217 -84 -459 -84q-107 0 -193.5 17t-156.5 54t-108 101.5t-38 153.5q0 60 20 116t50.5 96t66 81.5t66 75t50.5 75t20 82.5v43h409v-69q0 -55 -30.5 -110.5t-66.5 -94.5t-66.5 -92.5t-30.5 -106.5zM768 1085v-409h-481v409
h481z" />
    <glyph glyph-name="Agrave" unicode="&#xc0;" horiz-adv-x="1552" 
d="M1094 1384l485 -1384h-535l-63 231h-410l-61 -231h-537l484 1384h637zM776 981l-117 -426h234zM666 1507l-336 318h407l226 -318h-297z" />
    <glyph glyph-name="Aacute" unicode="&#xc1;" horiz-adv-x="1552" 
d="M1094 1384l485 -1384h-535l-63 231h-410l-61 -231h-537l484 1384h637zM776 981l-117 -426h234zM1202 1825l-336 -318h-297l226 318h407z" />
    <glyph glyph-name="Acircumflex" unicode="&#xc2;" horiz-adv-x="1552" 
d="M1094 1384l485 -1384h-535l-63 231h-410l-61 -231h-537l484 1384h637zM776 981l-117 -426h234zM975 1825l244 -318h-297l-146 144l-145 -144h-297l244 318h397z" />
    <glyph glyph-name="Atilde" unicode="&#xc3;" horiz-adv-x="1552" 
d="M1094 1384l485 -1384h-535l-63 231h-410l-61 -231h-537l484 1384h637zM776 981l-117 -426h234zM358 1503q0 50 17.5 104.5t49.5 102.5t82 78.5t109 30.5q53 0 102.5 -16t79 -35.5t63 -35.5t59.5 -16q31 0 59.5 32.5t40.5 80.5h170q-1 -76 -34 -152t-94.5 -128t-133.5 -52
q-53 0 -99.5 15.5t-74.5 34.5t-64 34.5t-69 15.5q-32 0 -59 -28t-38 -66h-166z" />
    <glyph glyph-name="Adieresis" unicode="&#xc4;" horiz-adv-x="1552" 
d="M1094 1384l485 -1384h-535l-63 231h-410l-61 -231h-537l484 1384h637zM776 981l-117 -426h234zM352 1524v268h334v-268h-334zM868 1524v268h334v-268h-334z" />
    <glyph glyph-name="Aring" unicode="&#xc5;" horiz-adv-x="1552" 
d="M1094 1384l485 -1384h-535l-63 231h-410l-61 -231h-537l484 1384h637zM776 981l-117 -426h234zM776 1456q-105 0 -178.5 64.5t-73.5 167.5t73.5 167t178.5 64t178.5 -64t73.5 -167t-73.5 -167.5t-178.5 -64.5zM776 1788q-45 0 -75.5 -28t-30.5 -72t30.5 -72.5t75.5 -28.5
t76 28.5t31 72.5t-31 72t-76 28z" />
    <glyph glyph-name="AE" unicode="&#xc6;" horiz-adv-x="2146" 
d="M1065 0l-16 223h-459l-113 -223h-540l733 1384h1390v-389h-583l8 -121h487v-360h-461l9 -127h540v-387h-995zM981 995l-223 -440h266l-31 440h-12z" />
    <glyph glyph-name="Ccedilla" unicode="&#xc7;" horiz-adv-x="1361" 
d="M461 -424l53 119q250 -53 250 53q0 62 -176 72l94 164q-288 37 -456.5 224.5t-168.5 483.5q0 220 95.5 383.5t267.5 249.5t399 86q244 0 502 -86l-102 -373q-122 52 -267 52q-168 0 -260 -82t-92 -230t92 -229.5t260 -81.5q147 0 267 51l102 -373q-250 -83 -498 -86
l-59 -92q101 -3 170.5 -51t69.5 -121q0 -81 -66 -133.5t-190 -52.5q-152 0 -287 53z" />
    <glyph glyph-name="Egrave" unicode="&#xc8;" horiz-adv-x="1347" 
d="M1262 995h-623v-121h545v-360h-545v-127h623v-387h-1143v1384h1143v-389zM588 1507l-336 318h407l226 -318h-297z" />
    <glyph glyph-name="Eacute" unicode="&#xc9;" horiz-adv-x="1347" 
d="M1262 995h-623v-121h545v-360h-545v-127h623v-387h-1143v1384h1143v-389zM1077 1825l-336 -318h-297l226 318h407z" />
    <glyph glyph-name="Ecircumflex" unicode="&#xca;" horiz-adv-x="1347" 
d="M1262 995h-623v-121h545v-360h-545v-127h623v-387h-1143v1384h1143v-389zM889 1825l244 -318h-297l-146 144l-145 -144h-297l244 318h397z" />
    <glyph glyph-name="Edieresis" unicode="&#xcb;" horiz-adv-x="1347" 
d="M1262 995h-623v-121h545v-360h-545v-127h623v-387h-1143v1384h1143v-389zM270 1524v268h334v-268h-334zM786 1524v268h334v-268h-334z" />
    <glyph glyph-name="Igrave" unicode="&#xcc;" horiz-adv-x="772" 
d="M653 1384v-1384h-534v1384h534zM301 1507l-336 318h408l225 -318h-297z" />
    <glyph glyph-name="Iacute" unicode="&#xcd;" horiz-adv-x="772" 
d="M653 1384v-1384h-534v1384h534zM811 1825l-336 -318h-297l225 318h408z" />
    <glyph glyph-name="Icircumflex" unicode="&#xce;" horiz-adv-x="772" 
d="M653 1384v-1384h-534v1384h534zM584 1825l243 -318h-297l-145 144l-145 -144h-297l243 318h398z" />
    <glyph glyph-name="Idieresis" unicode="&#xcf;" horiz-adv-x="772" 
d="M653 1384v-1384h-534v1384h534zM-39 1524v268h334v-268h-334zM477 1524v268h334v-268h-334z" />
    <glyph glyph-name="Eth" unicode="&#xd0;" horiz-adv-x="1624" 
d="M8 811h133v565q231 35 533 35q265 0 466 -83.5t315 -249t114 -394.5q0 -127 -33.5 -232t-88.5 -177t-134.5 -127.5t-163 -88t-182.5 -52.5t-183.5 -27t-175.5 -7q-189 0 -467 29v604h-133v205zM735 365q149 0 222 93.5t73 250.5q0 154 -76 238.5t-215 84.5q-49 0 -65 -2
v-219h215v-205h-215v-239q16 -2 61 -2z" />
    <glyph glyph-name="Ntilde" unicode="&#xd1;" horiz-adv-x="1667" 
d="M1059 1384h489v-1384h-506l-434 711v-711h-489v1384h532l408 -706v706zM434 1503q0 50 17.5 104.5t49.5 102.5t82 78.5t109 30.5q53 0 102 -16t79 -35.5t63 -35.5t59 -16q31 0 60 33t41 80h170q-1 -76 -34 -152t-94.5 -128t-133.5 -52q-53 0 -99.5 15.5t-75 34.5
t-64.5 34.5t-69 15.5q-32 0 -58.5 -28t-37.5 -66h-166z" />
    <glyph glyph-name="Ograve" unicode="&#xd2;" horiz-adv-x="1677" 
d="M840 1411q232 0 408.5 -85.5t275 -249t98.5 -384.5t-98.5 -384.5t-275 -249t-408.5 -85.5q-233 0 -410 85.5t-276 249t-99 384.5t99 384.5t276 249t410 85.5zM840 371q120 0 181.5 83t61.5 238q0 156 -61.5 239t-181.5 83q-122 0 -184 -83t-62 -239q0 -155 62 -238
t184 -83zM758 1507l-336 318h407l226 -318h-297z" />
    <glyph glyph-name="Oacute" unicode="&#xd3;" horiz-adv-x="1677" 
d="M840 1411q232 0 408.5 -85.5t275 -249t98.5 -384.5t-98.5 -384.5t-275 -249t-408.5 -85.5q-233 0 -410 85.5t-276 249t-99 384.5t99 384.5t276 249t410 85.5zM840 371q120 0 181.5 83t61.5 238q0 156 -61.5 239t-181.5 83q-122 0 -184 -83t-62 -239q0 -155 62 -238
t184 -83zM1243 1825l-336 -318h-297l226 318h407z" />
    <glyph glyph-name="Ocircumflex" unicode="&#xd4;" horiz-adv-x="1677" 
d="M840 1411q232 0 408.5 -85.5t275 -249t98.5 -384.5t-98.5 -384.5t-275 -249t-408.5 -85.5q-233 0 -410 85.5t-276 249t-99 384.5t99 384.5t276 249t410 85.5zM840 371q120 0 181.5 83t61.5 238q0 156 -61.5 239t-181.5 83q-122 0 -184 -83t-62 -239q0 -155 62 -238
t184 -83zM1036 1825l244 -318h-297l-145 144l-146 -144h-297l244 318h397z" />
    <glyph glyph-name="Otilde" unicode="&#xd5;" horiz-adv-x="1677" 
d="M840 1411q232 0 408.5 -85.5t275 -249t98.5 -384.5t-98.5 -384.5t-275 -249t-408.5 -85.5q-233 0 -410 85.5t-276 249t-99 384.5t99 384.5t276 249t410 85.5zM840 371q120 0 181.5 83t61.5 238q0 156 -61.5 239t-181.5 83q-122 0 -184 -83t-62 -239q0 -155 62 -238
t184 -83zM420 1503q0 50 17.5 104.5t49.5 102.5t82 78.5t109 30.5q53 0 102 -16t79 -35.5t63 -35.5t59 -16q31 0 59.5 32.5t40.5 80.5h170q-1 -76 -34 -152t-94.5 -128t-133.5 -52q-53 0 -99.5 15.5t-74.5 34.5t-64 34.5t-69 15.5q-32 0 -58.5 -28t-37.5 -66h-166z" />
    <glyph glyph-name="Odieresis" unicode="&#xd6;" horiz-adv-x="1677" 
d="M840 1411q232 0 408.5 -85.5t275 -249t98.5 -384.5t-98.5 -384.5t-275 -249t-408.5 -85.5q-233 0 -410 85.5t-276 249t-99 384.5t99 384.5t276 249t410 85.5zM840 371q120 0 181.5 83t61.5 238q0 156 -61.5 239t-181.5 83q-122 0 -184 -83t-62 -239q0 -155 62 -238
t184 -83zM414 1524v268h334v-268h-334zM930 1524v268h334v-268h-334z" />
    <glyph glyph-name="multiply" unicode="&#xd7;" horiz-adv-x="1142" 
d="M1085 231l-223 -223l-287 287l-286 -287l-230 232l285 284l-287 287l226 225l286 -286l287 286l229 -231l-286 -287z" />
    <glyph glyph-name="Oslash" unicode="&#xd8;" horiz-adv-x="1677" 
d="M840 1411q220 0 395 -82l117 160l96 -72l-109 -145q136 -94 209.5 -241.5t73.5 -338.5q0 -221 -98.5 -384.5t-275 -249t-408.5 -85.5q-220 0 -400 80l-116 -157l-97 69l109 148q-135 94 -208 241.5t-73 337.5q0 221 99 384.5t276 249t410 85.5zM840 371q120 0 181.5 83
t61.5 238q0 109 -32 187l-349 -471q55 -37 138 -37zM594 692q0 -110 31 -186l348 471q-52 37 -133 37q-122 0 -184 -83t-62 -239z" />
    <glyph glyph-name="Ugrave" unicode="&#xd9;" horiz-adv-x="1546" 
d="M907 1384h535v-837q0 -289 -174 -431.5t-496 -142.5t-495 142.5t-173 431.5v837h535v-831q0 -84 27.5 -128t105.5 -44q79 0 107 44.5t28 127.5v831zM690 1507l-336 318h408l225 -318h-297z" />
    <glyph glyph-name="Uacute" unicode="&#xda;" horiz-adv-x="1546" 
d="M907 1384h535v-837q0 -289 -174 -431.5t-496 -142.5t-495 142.5t-173 431.5v837h535v-831q0 -84 27.5 -128t105.5 -44q79 0 107 44.5t28 127.5v831zM1210 1825l-336 -318h-296l225 318h407z" />
    <glyph glyph-name="Ucircumflex" unicode="&#xdb;" horiz-adv-x="1546" 
d="M907 1384h535v-837q0 -289 -174 -431.5t-496 -142.5t-495 142.5t-173 431.5v837h535v-831q0 -84 27.5 -128t105.5 -44q79 0 107 44.5t28 127.5v831zM971 1825l243 -318h-296l-146 144l-145 -144h-297l243 318h398z" />
    <glyph glyph-name="Udieresis" unicode="&#xdc;" horiz-adv-x="1546" 
d="M907 1384h535v-837q0 -289 -174 -431.5t-496 -142.5t-495 142.5t-173 431.5v837h535v-831q0 -84 27.5 -128t105.5 -44q79 0 107 44.5t28 127.5v831zM348 1524v268h334v-268h-334zM864 1524v268h334v-268h-334z" />
    <glyph glyph-name="Yacute" unicode="&#xdd;" horiz-adv-x="1464" 
d="M961 1384h538l-500 -890v-494h-534v494l-502 890h541l225 -499zM1114 1825l-336 -318h-297l226 318h407z" />
    <glyph glyph-name="Thorn" unicode="&#xde;" horiz-adv-x="1472" 
d="M119 1384h524v-159q102 -3 191.5 -14.5t181 -35t163 -63.5t128.5 -96t87.5 -137t30.5 -181q0 -112 -44.5 -202.5t-118.5 -149t-176 -97t-212 -54t-231 -13.5v-182h-524v1384zM903 702q0 38 -19.5 67.5t-49.5 44.5t-66 24.5t-68 9t-57 -1.5v-293q39 -3 78 1t83 17t71.5 47
t27.5 84z" />
    <glyph glyph-name="germandbls" unicode="&#xdf;" horiz-adv-x="1523" 
d="M709 -8l45 356q40 -4 71 -4q65 0 108.5 27t43.5 78q0 53 -40 81.5t-106 28.5h-67v359h22q71 0 115.5 29.5t44.5 92.5q0 48 -42 82.5t-122 34.5q-95 0 -142.5 -53t-47.5 -133v-971h-492v967q0 89 24.5 171.5t78 156t132 127.5t193.5 86t254 32q172 0 316 -56.5
t228.5 -156.5t84.5 -223q0 -120 -59 -214t-154 -136q132 -40 204.5 -139.5t72.5 -229.5q0 -93 -31 -165t-82.5 -118t-124 -75.5t-149.5 -41.5t-166 -12q-108 0 -213 19z" />
    <glyph glyph-name="agrave" unicode="&#xe0;" horiz-adv-x="1329" 
d="M639 1112q301 0 451.5 -119t150.5 -352v-641h-516v100q-137 -127 -317 -127q-160 0 -264.5 102t-104.5 247q0 172 121 261t346 89q40 0 109 -7t104 -14v11q0 100 -191 100q-184 0 -340 -60l-71 324q222 86 522 86zM731 403v37q-30 6 -76 6q-60 0 -93.5 -27t-33.5 -73
q0 -38 24 -61t66 -23q59 0 86 39t27 102zM565 1208l-336 318h408l225 -318h-297z" />
    <glyph glyph-name="aacute" unicode="&#xe1;" horiz-adv-x="1329" 
d="M639 1112q301 0 451.5 -119t150.5 -352v-641h-516v100q-137 -127 -317 -127q-160 0 -264.5 102t-104.5 247q0 172 121 261t346 89q40 0 109 -7t104 -14v11q0 100 -191 100q-184 0 -340 -60l-71 324q222 86 522 86zM731 403v37q-30 6 -76 6q-60 0 -93.5 -27t-33.5 -73
q0 -38 24 -61t66 -23q59 0 86 39t27 102zM1022 1526l-336 -318h-297l225 318h408z" />
    <glyph glyph-name="acircumflex" unicode="&#xe2;" horiz-adv-x="1329" 
d="M639 1112q301 0 451.5 -119t150.5 -352v-641h-516v100q-137 -127 -317 -127q-160 0 -264.5 102t-104.5 247q0 172 121 261t346 89q40 0 109 -7t104 -14v11q0 100 -191 100q-184 0 -340 -60l-71 324q222 86 522 86zM731 403v37q-30 6 -76 6q-60 0 -93.5 -27t-33.5 -73
q0 -38 24 -61t66 -23q59 0 86 39t27 102zM842 1526l243 -318h-297l-145 144l-145 -144h-297l243 318h398z" />
    <glyph glyph-name="atilde" unicode="&#xe3;" horiz-adv-x="1329" 
d="M639 1112q301 0 451.5 -119t150.5 -352v-641h-516v100q-137 -127 -317 -127q-160 0 -264.5 102t-104.5 247q0 172 121 261t346 89q40 0 109 -7t104 -14v11q0 100 -191 100q-184 0 -340 -60l-71 324q222 86 522 86zM731 403v37q-30 6 -76 6q-60 0 -93.5 -27t-33.5 -73
q0 -38 24 -61t66 -23q59 0 86 39t27 102zM242 1204q0 50 17.5 104.5t49.5 102.5t82 78.5t109 30.5q68 0 126.5 -26t102 -51.5t74.5 -25.5t59.5 32.5t40.5 80.5h170q-1 -76 -34 -152t-94.5 -128t-133.5 -52q-53 0 -99.5 15.5t-74.5 34.5t-64 34.5t-69 15.5q-32 0 -58.5 -28
t-37.5 -66h-166z" />
    <glyph glyph-name="adieresis" unicode="&#xe4;" horiz-adv-x="1329" 
d="M639 1112q301 0 451.5 -119t150.5 -352v-641h-516v100q-137 -127 -317 -127q-160 0 -264.5 102t-104.5 247q0 172 121 261t346 89q40 0 109 -7t104 -14v11q0 100 -191 100q-184 0 -340 -60l-71 324q222 86 522 86zM731 403v37q-30 6 -76 6q-60 0 -93.5 -27t-33.5 -73
q0 -38 24 -61t66 -23q59 0 86 39t27 102zM229 1225v268h334v-268h-334zM745 1225v268h334v-268h-334z" />
    <glyph glyph-name="aring" unicode="&#xe5;" horiz-adv-x="1329" 
d="M639 1112q301 0 451.5 -119t150.5 -352v-641h-516v100q-137 -127 -317 -127q-160 0 -264.5 102t-104.5 247q0 172 121 261t346 89q40 0 109 -7t104 -14v11q0 100 -191 100q-184 0 -340 -60l-71 324q222 86 522 86zM731 403v37q-30 6 -76 6q-60 0 -93.5 -27t-33.5 -73
q0 -38 24 -61t66 -23q59 0 86 39t27 102zM643 1200q-105 0 -178.5 64.5t-73.5 167.5t73.5 167t178.5 64t178.5 -64t73.5 -167t-73.5 -167.5t-178.5 -64.5zM643 1532q-45 0 -75.5 -28t-30.5 -72t30.5 -72.5t75.5 -28.5t76 28.5t31 72.5t-31 72t-76 28z" />
    <glyph glyph-name="ae" unicode="&#xe6;" horiz-adv-x="1972" 
d="M580 1112q288 0 426 -162q127 162 368 162q138 0 244.5 -41.5t174 -117t102 -178.5t34.5 -230q0 -37 -8 -123h-682q57 -117 297 -117q134 0 285 51l53 -307q-194 -76 -434 -76q-308 0 -455 181q-153 -181 -479 -181q-218 0 -343.5 100t-125.5 249q0 172 121 261t346 89
q40 0 109 -7t104 -14v11q0 100 -191 100q-184 0 -340 -60l-71 324q222 86 465 86zM735 403v37q-30 6 -76 6q-60 0 -93.5 -27t-33.5 -73q0 -37 24.5 -60.5t66.5 -23.5q59 0 85.5 39t26.5 102zM1217 666h270q-8 64 -39.5 103.5t-89.5 39.5q-112 0 -141 -143z" />
    <glyph glyph-name="ccedilla" unicode="&#xe7;" horiz-adv-x="1103" 
d="M317 -424l54 119q250 -53 250 53q0 62 -177 72l95 162q-228 32 -359 183t-131 378q0 254 165 411.5t443 157.5q190 0 402 -74l-68 -336q-105 43 -209 43q-62 0 -107.5 -17.5t-69 -47.5t-34 -62t-10.5 -69q0 -36 10.5 -68.5t34 -63.5t69 -49t107.5 -18q113 0 209 45
l68 -350q-195 -67 -379 -72l-59 -92q101 -3 170 -51t69 -121q0 -81 -66 -133.5t-190 -52.5q-152 0 -287 53z" />
    <glyph glyph-name="egrave" unicode="&#xe8;" horiz-adv-x="1253" 
d="M1202 422q20 149 -3 272.5t-89.5 218t-187.5 147t-287 52.5q-119 0 -226 -40t-187 -110.5t-127.5 -176.5t-47.5 -230q0 -144 51 -257t140 -183t204.5 -106t249.5 -36q269 0 463 76l-53 307q-151 -51 -285 -51q-240 0 -297 117h682zM776 666h-270q29 143 141 143
q58 0 89.5 -39.5t39.5 -103.5zM776 666h-270h270zM555 1208l-336 318h408l225 -318h-297z" />
    <glyph glyph-name="eacute" unicode="&#xe9;" horiz-adv-x="1253" 
d="M1202 422q20 149 -3 272.5t-89.5 218t-187.5 147t-287 52.5q-119 0 -226 -40t-187 -110.5t-127.5 -176.5t-47.5 -230q0 -144 51 -257t140 -183t204.5 -106t249.5 -36q269 0 463 76l-53 307q-151 -51 -285 -51q-240 0 -297 117h682zM776 666h-270q29 143 141 143
q58 0 89.5 -39.5t39.5 -103.5zM776 666h-270h270zM1020 1526l-336 -318h-297l225 318h408z" />
    <glyph glyph-name="ecircumflex" unicode="&#xea;" horiz-adv-x="1253" 
d="M1202 422q20 149 -3 272.5t-89.5 218t-187.5 147t-287 52.5q-119 0 -226 -40t-187 -110.5t-127.5 -176.5t-47.5 -230q0 -144 51 -257t140 -183t204.5 -106t249.5 -36q269 0 463 76l-53 307q-151 -51 -285 -51q-240 0 -297 117h682zM776 666h-270q29 143 141 143
q58 0 89.5 -39.5t39.5 -103.5zM776 666h-270h270zM834 1526l243 -318h-297l-145 144l-146 -144h-296l243 318h398z" />
    <glyph glyph-name="edieresis" unicode="&#xeb;" horiz-adv-x="1253" 
d="M1202 422q20 149 -3 272.5t-89.5 218t-187.5 147t-287 52.5q-119 0 -226 -40t-187 -110.5t-127.5 -176.5t-47.5 -230q0 -144 51 -257t140 -183t204.5 -106t249.5 -36q269 0 463 76l-53 307q-151 -51 -285 -51q-240 0 -297 117h682zM776 666h-270q29 143 141 143
q58 0 89.5 -39.5t39.5 -103.5zM776 666h-270h270zM209 1225v268h334v-268h-334zM725 1225v268h334v-268h-334z" />
    <glyph glyph-name="igrave" unicode="&#xec;" horiz-adv-x="727" 
d="M102 0v1085h523v-1085h-523zM287 1208l-336 318h407l226 -318h-297z" />
    <glyph glyph-name="iacute" unicode="&#xed;" horiz-adv-x="727" 
d="M102 0v1085h523v-1085h-523zM786 1526l-335 -318h-297l225 318h407z" />
    <glyph glyph-name="icircumflex" unicode="&#xee;" horiz-adv-x="727" 
d="M102 0v1085h523v-1085h-523zM561 1526l244 -318h-297l-146 144l-145 -144h-297l244 318h397z" />
    <glyph glyph-name="idieresis" unicode="&#xef;" horiz-adv-x="727" 
d="M102 0v1085h523v-1085h-523zM-61 1225v268h333v-268h-333zM455 1225v268h333v-268h-333z" />
    <glyph glyph-name="eth" unicode="&#xf0;" horiz-adv-x="1302" 
d="M1020 1481l49 -127l-111 -45q287 -274 287 -742q0 -139 -48 -253t-129.5 -187.5t-189 -113.5t-227.5 -40q-121 0 -229 35t-190.5 100t-130.5 164.5t-48 219.5t37.5 219.5t100.5 164t144 99.5t169 35q181 0 293 -101q-65 141 -193 260l-297 -118l-49 127l223 88
q-97 67 -243 133l442 100q98 -50 158 -92zM649 324q60 0 98.5 49.5t38.5 118.5q0 71 -38.5 120.5t-98.5 49.5t-98.5 -49.5t-38.5 -120.5q0 -69 38.5 -118.5t98.5 -49.5z" />
    <glyph glyph-name="ntilde" unicode="&#xf1;" horiz-adv-x="1431" 
d="M1339 737v-737h-522v621q0 41 -28 70.5t-68 29.5t-68 -29.5t-28 -70.5v-621h-523v1085h506v-106q133 133 340 133q165 0 278 -107.5t113 -267.5zM303 1204q0 50 17.5 104.5t49.5 102.5t82 78.5t109 30.5q68 0 126.5 -26t102 -51.5t74.5 -25.5t60 33t41 80h170
q-2 -120 -78.5 -226t-184.5 -106q-53 0 -99.5 15.5t-74.5 34.5t-64 34.5t-69 15.5q-32 0 -58.5 -28t-37.5 -66h-166z" />
    <glyph glyph-name="ograve" unicode="&#xf2;" horiz-adv-x="1400" 
d="M702 1112q133 0 251 -39t208 -110t142.5 -180t52.5 -240t-52.5 -240t-142.5 -180.5t-208 -110.5t-251 -39t-252 39t-209 110t-143 180t-53 241t53 241t143 180t209 109.5t252 38.5zM700 352q67 0 110.5 56t43.5 135t-43.5 134.5t-110.5 55.5t-110 -55.5t-43 -134.5
t43 -135t110 -56zM604 1208l-336 318h408l225 -318h-297z" />
    <glyph glyph-name="oacute" unicode="&#xf3;" horiz-adv-x="1400" 
d="M702 1112q133 0 251 -39t208 -110t142.5 -180t52.5 -240t-52.5 -240t-142.5 -180.5t-208 -110.5t-251 -39t-252 39t-209 110t-143 180t-53 241t53 241t143 180t209 109.5t252 38.5zM700 352q67 0 110.5 56t43.5 135t-43.5 134.5t-110.5 55.5t-110 -55.5t-43 -134.5
t43 -135t110 -56zM1100 1526l-336 -318h-297l225 318h408z" />
    <glyph glyph-name="ocircumflex" unicode="&#xf4;" horiz-adv-x="1400" 
d="M702 1112q133 0 251 -39t208 -110t142.5 -180t52.5 -240t-52.5 -240t-142.5 -180.5t-208 -110.5t-251 -39t-252 39t-209 110t-143 180t-53 241t53 241t143 180t209 109.5t252 38.5zM700 352q67 0 110.5 56t43.5 135t-43.5 134.5t-110.5 55.5t-110 -55.5t-43 -134.5
t43 -135t110 -56zM899 1526l244 -318h-297l-146 144l-145 -144h-297l244 318h397z" />
    <glyph glyph-name="otilde" unicode="&#xf5;" horiz-adv-x="1400" 
d="M702 1112q133 0 251 -39t208 -110t142.5 -180t52.5 -240t-52.5 -240t-142.5 -180.5t-208 -110.5t-251 -39t-252 39t-209 110t-143 180t-53 241t53 241t143 180t209 109.5t252 38.5zM700 352q67 0 110.5 56t43.5 135t-43.5 134.5t-110.5 55.5t-110 -55.5t-43 -134.5
t43 -135t110 -56zM272 1204q0 50 17.5 104.5t49.5 102.5t82 78.5t109 30.5q53 0 102.5 -16t79 -35.5t63 -35.5t59.5 -16q31 0 59.5 32.5t40.5 80.5h170q-1 -76 -34 -152t-94.5 -128t-133.5 -52q-53 0 -99.5 15.5t-74.5 34.5t-64 34.5t-69 15.5q-32 0 -59 -28t-38 -66h-166z
" />
    <glyph glyph-name="odieresis" unicode="&#xf6;" horiz-adv-x="1400" 
d="M702 1112q133 0 251 -39t208 -110t142.5 -180t52.5 -240t-52.5 -240t-142.5 -180.5t-208 -110.5t-251 -39t-252 39t-209 110t-143 180t-53 241t53 241t143 180t209 109.5t252 38.5zM700 352q67 0 110.5 56t43.5 135t-43.5 134.5t-110.5 55.5t-110 -55.5t-43 -134.5
t43 -135t110 -56zM276 1225v268h334v-268h-334zM793 1225v268h333v-268h-333z" />
    <glyph glyph-name="divide" unicode="&#xf7;" horiz-adv-x="1177" 
d="M61 680h1055v-318h-1055v318zM782 1100v-289h-387v289h387zM782 229v-288h-387v288h387z" />
    <glyph glyph-name="oslash" unicode="&#xf8;" horiz-adv-x="1400" 
d="M1157 1149l70 -59l-92 -109q104 -74 162.5 -185.5t58.5 -252.5q0 -131 -52.5 -240t-142.5 -180.5t-208 -110.5t-251 -39q-200 0 -354 80l-102 -121l-70 60l92 108q-106 76 -164.5 188.5t-58.5 254.5q0 132 53 241t143 180t209 109.5t252 38.5q194 0 355 -82zM547 543
q0 -55 16 -94l225 264q-38 35 -88 35q-70 0 -111.5 -61.5t-41.5 -143.5zM700 338q70 0 112 61.5t42 143.5q0 49 -14 90l-226 -264q36 -31 86 -31z" />
    <glyph glyph-name="ugrave" unicode="&#xf9;" horiz-adv-x="1431" 
d="M92 348v737h522v-620q0 -41 28.5 -70.5t68.5 -29.5t68 29.5t28 70.5v620h522v-1085h-506v106q-133 -133 -340 -133q-165 0 -278 107.5t-113 267.5zM578 1208l-336 318h407l225 -318h-296z" />
    <glyph glyph-name="uacute" unicode="&#xfa;" horiz-adv-x="1431" 
d="M92 348v737h522v-620q0 -41 28.5 -70.5t68.5 -29.5t68 29.5t28 70.5v620h522v-1085h-506v106q-133 -133 -340 -133q-165 0 -278 107.5t-113 267.5zM1153 1526l-336 -318h-297l225 318h408z" />
    <glyph glyph-name="ucircumflex" unicode="&#xfb;" horiz-adv-x="1431" 
d="M92 348v737h522v-620q0 -41 28.5 -70.5t68.5 -29.5t68 29.5t28 70.5v620h522v-1085h-506v106q-133 -133 -340 -133q-165 0 -278 107.5t-113 267.5zM909 1526l244 -318h-297l-145 144l-146 -144h-297l244 318h397z" />
    <glyph glyph-name="udieresis" unicode="&#xfc;" horiz-adv-x="1431" 
d="M92 348v737h522v-620q0 -41 28.5 -70.5t68.5 -29.5t68 29.5t28 70.5v620h522v-1085h-506v106q-133 -133 -340 -133q-165 0 -278 107.5t-113 267.5zM287 1225v268h334v-268h-334zM803 1225v268h334v-268h-334z" />
    <glyph glyph-name="yacute" unicode="&#xfd;" horiz-adv-x="1425" 
d="M803 1085h522v-913q0 -315 -149.5 -455.5t-489.5 -140.5q-123 0 -219 15.5t-157 42t-101 64t-56 79t-16 90.5q0 93 60.5 165.5t173.5 110.5q-137 10 -210 85t-73 200v657h522v-587q0 -43 28.5 -73t68.5 -30t68 30t28 73v587zM803 -6v145q-8 -1 -20.5 -3.5t-45 -15
t-57.5 -29.5t-45.5 -49.5t-20.5 -72.5q0 -42 21 -69t67 -27q101 0 101 121zM1145 1526l-336 -318h-297l225 318h408z" />
    <glyph glyph-name="thorn" unicode="&#xfe;" horiz-adv-x="1441" 
d="M934 1112q133 0 238 -76.5t162 -205.5t57 -285t-57 -286.5t-162 -208t-238 -77.5q-98 0 -183 44t-147 122v-536h-502v1910h523v-538q127 137 309 137zM733 362q66 0 109 53.5t43 129.5t-43 129t-109 53t-108.5 -52.5t-42.5 -129.5t42.5 -130t108.5 -53z" />
    <glyph glyph-name="ydieresis" unicode="&#xff;" horiz-adv-x="1425" 
d="M803 1085h522v-913q0 -315 -149.5 -455.5t-489.5 -140.5q-123 0 -219 15.5t-157 42t-101 64t-56 79t-16 90.5q0 93 60.5 165.5t173.5 110.5q-137 10 -210 85t-73 200v657h522v-587q0 -43 28.5 -73t68.5 -30t68 30t28 73v587zM803 -6v145q-8 -1 -20.5 -3.5t-45 -15
t-57.5 -29.5t-45.5 -49.5t-20.5 -72.5q0 -42 21 -69t67 -27q101 0 101 121zM283 1225v268h333v-268h-333zM799 1225v268h334v-268h-334z" />
    <glyph glyph-name="Amacron" unicode="&#x100;" horiz-adv-x="1552" 
d="M1094 1384l485 -1384h-535l-63 231h-410l-61 -231h-537l484 1384h637zM776 981l-117 -426h234zM412 1538v207h731v-207h-731z" />
    <glyph glyph-name="amacron" unicode="&#x101;" horiz-adv-x="1329" 
d="M639 1112q301 0 451.5 -119t150.5 -352v-641h-516v100q-137 -127 -317 -127q-160 0 -264.5 102t-104.5 247q0 172 121 261t346 89q40 0 109 -7t104 -14v11q0 100 -191 100q-184 0 -340 -60l-71 324q222 86 522 86zM731 403v37q-30 6 -76 6q-60 0 -93.5 -27t-33.5 -73
q0 -38 24 -61t66 -23q59 0 86 39t27 102zM297 1247v207h731v-207h-731z" />
    <glyph glyph-name="Abreve" unicode="&#x102;" horiz-adv-x="1552" 
d="M1094 1384l485 -1384h-535l-63 231h-410l-61 -231h-537l484 1384h637zM776 981l-117 -426h234zM973 1815h186q-13 -155 -115 -235.5t-268 -80.5t-268 80.5t-115 235.5h187q14 -61 68.5 -92t127.5 -31t128 31t69 92z" />
    <glyph glyph-name="abreve" unicode="&#x103;" horiz-adv-x="1329" 
d="M639 1112q301 0 451.5 -119t150.5 -352v-641h-516v100q-137 -127 -317 -127q-160 0 -264.5 102t-104.5 247q0 172 121 261t346 89q40 0 109 -7t104 -14v11q0 100 -191 100q-184 0 -340 -60l-71 324q222 86 522 86zM731 403v37q-30 6 -76 6q-60 0 -93.5 -27t-33.5 -73
q0 -38 24 -61t66 -23q59 0 86 39t27 102zM856 1516h186q-13 -155 -115 -235.5t-268 -80.5t-268 80.5t-115 235.5h187q14 -61 68.5 -92t127.5 -31t128 31t69 92z" />
    <glyph glyph-name="Aogonek" unicode="&#x104;" horiz-adv-x="1552" 
d="M1559 -252l79 -51q-40 -58 -112 -93.5t-164 -35.5q-59 0 -111.5 18t-89.5 60t-37 100q0 77 52 143t122 111h-254l-63 231h-410l-61 -231h-537l484 1384h637l485 -1384q-225 -95 -225 -209q0 -45 27.5 -64.5t64.5 -19.5q72 0 113 41zM776 981l-117 -426h234z" />
    <glyph glyph-name="aogonek" unicode="&#x105;" horiz-adv-x="1329" 
d="M1286 -252l80 -51q-40 -58 -112 -93.5t-164 -35.5q-93 0 -165.5 47t-72.5 133q0 76 52 140t122 112h-301v100q-137 -127 -317 -127q-160 0 -264.5 102t-104.5 247q0 172 121 261t346 89q40 0 109 -7t104 -14v11q0 100 -191 100q-184 0 -340 -60l-71 324q222 86 522 86
q301 0 451.5 -119t150.5 -352v-641q-78 -45 -119 -100t-41 -109q0 -45 28 -64.5t65 -19.5q71 0 112 41zM731 403v37q-30 6 -76 6q-60 0 -93.5 -27t-33.5 -73q0 -38 24 -61t66 -23q59 0 86 39t27 102z" />
    <glyph glyph-name="Cacute" unicode="&#x106;" horiz-adv-x="1361" 
d="M952 381q147 0 267 51l102 -373q-258 -86 -502 -86q-344 0 -553 194.5t-209 524.5q0 220 95.5 383.5t267.5 249.5t399 86q244 0 502 -86l-102 -373q-122 52 -267 52q-168 0 -260 -82t-92 -230t92 -229.5t260 -81.5zM1200 1825l-336 -318h-297l226 318h407z" />
    <glyph glyph-name="cacute" unicode="&#x107;" horiz-adv-x="1103" 
d="M782 350q113 0 209 45l68 -350q-206 -72 -402 -72q-279 0 -443.5 157t-164.5 413q0 254 165 411.5t443 157.5q190 0 402 -74l-68 -336q-105 43 -209 43q-62 0 -107.5 -17.5t-69 -47.5t-34 -62t-10.5 -69q0 -36 10.5 -68.5t34 -63.5t69 -49t107.5 -18zM1014 1526
l-336 -318h-297l225 318h408z" />
    <glyph glyph-name="Ccircumflex" unicode="&#x108;" horiz-adv-x="1361" 
d="M952 381q147 0 267 51l102 -373q-258 -86 -502 -86q-344 0 -553 194.5t-209 524.5q0 220 95.5 383.5t267.5 249.5t399 86q244 0 502 -86l-102 -373q-122 52 -267 52q-168 0 -260 -82t-92 -230t92 -229.5t260 -81.5zM973 1825l244 -318h-297l-146 144l-145 -144h-297
l243 318h398z" />
    <glyph glyph-name="ccircumflex" unicode="&#x109;" horiz-adv-x="1103" 
d="M782 350q113 0 209 45l68 -350q-206 -72 -402 -72q-279 0 -443.5 157t-164.5 413q0 254 165 411.5t443 157.5q190 0 402 -74l-68 -336q-105 43 -209 43q-62 0 -107.5 -17.5t-69 -47.5t-34 -62t-10.5 -69q0 -36 10.5 -68.5t34 -63.5t69 -49t107.5 -18zM801 1526l243 -318
h-296l-146 144l-145 -144h-297l243 318h398z" />
    <glyph glyph-name="Cdotaccent" unicode="&#x10a;" horiz-adv-x="1361" 
d="M952 381q147 0 267 51l102 -373q-258 -86 -502 -86q-344 0 -553 194.5t-209 524.5q0 220 95.5 383.5t267.5 249.5t399 86q244 0 502 -86l-102 -373q-122 52 -267 52q-168 0 -260 -82t-92 -230t92 -229.5t260 -81.5zM594 1524v268h334v-268h-334z" />
    <glyph glyph-name="cdotaccent" unicode="&#x10b;" horiz-adv-x="1103" 
d="M782 350q113 0 209 45l68 -350q-206 -72 -402 -72q-279 0 -443.5 157t-164.5 413q0 254 165 411.5t443 157.5q190 0 402 -74l-68 -336q-105 43 -209 43q-62 0 -107.5 -17.5t-69 -47.5t-34 -62t-10.5 -69q0 -36 10.5 -68.5t34 -63.5t69 -49t107.5 -18zM428 1225v268h334
v-268h-334z" />
    <glyph glyph-name="Ccaron" unicode="&#x10c;" horiz-adv-x="1361" 
d="M952 381q147 0 267 51l102 -373q-258 -86 -502 -86q-344 0 -553 194.5t-209 524.5q0 220 95.5 383.5t267.5 249.5t399 86q244 0 502 -86l-102 -373q-122 52 -267 52q-168 0 -260 -82t-92 -230t92 -229.5t260 -81.5zM1196 1825l-244 -318h-397l-244 318h297l146 -144
l145 144h297z" />
    <glyph glyph-name="ccaron" unicode="&#x10d;" horiz-adv-x="1103" 
d="M782 350q113 0 209 45l68 -350q-206 -72 -402 -72q-279 0 -443.5 157t-164.5 413q0 254 165 411.5t443 157.5q190 0 402 -74l-68 -336q-105 43 -209 43q-62 0 -107.5 -17.5t-69 -47.5t-34 -62t-10.5 -69q0 -36 10.5 -68.5t34 -63.5t69 -49t107.5 -18zM1042 1526
l-243 -318h-398l-243 318h297l145 -144l145 144h297z" />
    <glyph glyph-name="Dcaron" unicode="&#x10e;" horiz-adv-x="1601" 
d="M651 1411q265 0 466 -83.5t315 -249t114 -394.5q0 -127 -33.5 -232t-88.5 -177t-134.5 -127.5t-162.5 -88t-182 -52.5t-183.5 -27t-175.5 -7q-189 0 -467 29v1374q231 35 532 35zM651 367q16 -2 62 -2q149 0 222 93.5t73 250.5q0 154 -76 238.5t-215 84.5q-50 0 -66 -2
v-663zM1153 1825l-244 -318h-397l-244 318h297l146 -144l145 144h297z" />
    <glyph glyph-name="dcaron" unicode="&#x10f;" horiz-adv-x="1718" 
d="M526 1112q171 0 291 -133v534h522v-1513h-501v139q-62 -78 -147 -122t-183 -44q-133 0 -238 77.5t-162 208t-57 286.5t59.5 285t169 205.5t246.5 76.5zM709 362q66 0 108.5 53t42.5 130t-42.5 129.5t-108.5 52.5t-109 -53t-43 -129t43 -129.5t109 -53.5zM1473 1513h380
v-294l-182 -269h-188l147 240h-157v323z" />
    <glyph glyph-name="Dcroat" unicode="&#x110;" horiz-adv-x="1624" 
d="M8 811h133v565q231 35 533 35q265 0 466 -83.5t315 -249t114 -394.5q0 -127 -33.5 -232t-88.5 -177t-134.5 -127.5t-163 -88t-182.5 -52.5t-183.5 -27t-175.5 -7q-189 0 -467 29v604h-133v205zM735 365q149 0 222 93.5t73 250.5q0 154 -76 238.5t-215 84.5q-49 0 -65 -2
v-219h215v-205h-215v-239q16 -2 61 -2z" />
    <glyph glyph-name="dcroat" unicode="&#x111;" horiz-adv-x="1441" 
d="M594 1384h223v129h522v-129h144v-198h-144v-1186h-501v139q-62 -78 -147 -122t-183 -44q-133 0 -238 77.5t-162 208t-57 286.5t59.5 285t169 205.5t246.5 76.5q171 0 291 -133v207h-223v198zM709 362q66 0 108.5 53t42.5 130t-42.5 129.5t-108.5 52.5t-109 -53t-43 -129
t43 -129.5t109 -53.5z" />
    <glyph glyph-name="Emacron" unicode="&#x112;" horiz-adv-x="1347" 
d="M1262 995h-623v-121h545v-360h-545v-127h623v-387h-1143v1384h1143v-389zM334 1538v207h731v-207h-731z" />
    <glyph glyph-name="emacron" unicode="&#x113;" horiz-adv-x="1253" 
d="M1202 422q20 149 -3 272.5t-89.5 218t-187.5 147t-287 52.5q-119 0 -226 -40t-187 -110.5t-127.5 -176.5t-47.5 -230q0 -144 51 -257t140 -183t204.5 -106t249.5 -36q269 0 463 76l-53 307q-151 -51 -285 -51q-240 0 -297 117h682zM776 666h-270q29 143 141 143
q58 0 89.5 -39.5t39.5 -103.5zM776 666h-270h270zM270 1247v207h731v-207h-731z" />
    <glyph glyph-name="Ebreve" unicode="&#x114;" horiz-adv-x="1347" 
d="M1262 995h-623v-121h545v-360h-545v-127h623v-387h-1143v1384h1143v-389zM891 1815h186q-13 -155 -115 -235.5t-268 -80.5t-268 80.5t-115 235.5h187q14 -61 68.5 -92t127.5 -31t128 31t69 92z" />
    <glyph glyph-name="ebreve" unicode="&#x115;" horiz-adv-x="1253" 
d="M1202 422q20 149 -3 272.5t-89.5 218t-187.5 147t-287 52.5q-119 0 -226 -40t-187 -110.5t-127.5 -176.5t-47.5 -230q0 -144 51 -257t140 -183t204.5 -106t249.5 -36q269 0 463 76l-53 307q-151 -51 -285 -51q-240 0 -297 117h682zM776 666h-270q29 143 141 143
q58 0 89.5 -39.5t39.5 -103.5zM776 666h-270h270zM840 1516h186q-13 -155 -115 -235.5t-268 -80.5t-268 80.5t-115 235.5h186q14 -61 69 -92t128 -31t128 31t69 92z" />
    <glyph glyph-name="Edotaccent" unicode="&#x116;" horiz-adv-x="1347" 
d="M1262 995h-623v-121h545v-360h-545v-127h623v-387h-1143v1384h1143v-389zM522 1524v268h334v-268h-334z" />
    <glyph glyph-name="edotaccent" unicode="&#x117;" horiz-adv-x="1253" 
d="M1202 422q20 149 -3 272.5t-89.5 218t-187.5 147t-287 52.5q-119 0 -226 -40t-187 -110.5t-127.5 -176.5t-47.5 -230q0 -144 51 -257t140 -183t204.5 -106t249.5 -36q269 0 463 76l-53 307q-151 -51 -285 -51q-240 0 -297 117h682zM776 666h-270q29 143 141 143
q58 0 89.5 -39.5t39.5 -103.5zM776 666h-270h270zM473 1225v268h334v-268h-334z" />
    <glyph glyph-name="Eogonek" unicode="&#x118;" horiz-adv-x="1347" 
d="M1305 -252l79 -51q-40 -58 -112 -93.5t-164 -35.5q-60 0 -111.5 15.5t-89 55t-37.5 97.5q0 38 16 75.5t37 64t53.5 54t52 40.5t46.5 30h-956v1384h1143v-389h-623v-121h545v-360h-545v-127h623v-387q-82 -61 -122 -110t-40 -99q0 -45 27.5 -64.5t64.5 -19.5q72 0 113 41z
" />
    <glyph glyph-name="eogonek" unicode="&#x119;" horiz-adv-x="1257" 
d="M1176 -252l79 -51q-40 -58 -112 -93.5t-164 -35.5q-59 0 -111 17.5t-89.5 59t-37.5 99.5q0 124 152 242q-107 -13 -201 -13q-134 0 -249.5 36t-204.5 106t-140 183t-51 257q0 124 47.5 230t127.5 176.5t187 110.5t226 40q166 0 287 -52.5t187.5 -147t89.5 -218t3 -272.5
h-682q57 -117 297 -117q134 0 285 51l53 -307q-83 -62 -133.5 -129t-50.5 -129q0 -45 27.5 -64.5t64.5 -19.5q72 0 113 41zM647 809q-112 0 -141 -143h270q-8 64 -39.5 103.5t-89.5 39.5z" />
    <glyph glyph-name="Ecaron" unicode="&#x11a;" horiz-adv-x="1347" 
d="M1262 995h-623v-121h545v-360h-545v-127h623v-387h-1143v1384h1143v-389zM1135 1825l-244 -318h-397l-244 318h297l145 -144l146 144h297z" />
    <glyph glyph-name="ecaron" unicode="&#x11b;" horiz-adv-x="1253" 
d="M1202 422q20 149 -3 272.5t-89.5 218t-187.5 147t-287 52.5q-119 0 -226 -40t-187 -110.5t-127.5 -176.5t-47.5 -230q0 -144 51 -257t140 -183t204.5 -106t249.5 -36q269 0 463 76l-53 307q-151 -51 -285 -51q-240 0 -297 117h682zM776 666h-270q29 143 141 143
q58 0 89.5 -39.5t39.5 -103.5zM776 666h-270h270zM1079 1526l-243 -318h-398l-243 318h297l145 -144l145 144h297z" />
    <glyph glyph-name="Gcircumflex" unicode="&#x11c;" horiz-adv-x="1495" 
d="M952 768h465v-690q-243 -105 -575 -105q-169 0 -312.5 48.5t-249 138t-165.5 225.5t-60 303q0 219 104 384t287.5 252t419.5 87q154 0 261.5 -16t230.5 -49l-68 -381q-165 49 -319 49q-373 0 -373 -326q0 -79 26.5 -141.5t71 -99.5t97.5 -56.5t110 -19.5q21 0 49 4v393z
M1012 1825l243 -318h-297l-145 144l-145 -144h-297l243 318h398z" />
    <glyph glyph-name="gcircumflex" unicode="&#x11d;" horiz-adv-x="1437" 
d="M836 1085h501v-913q0 -315 -149.5 -455.5t-489.5 -140.5q-153 0 -263 23t-170.5 64.5t-87.5 91.5t-27 112q0 96 64 170t183 110q-158 35 -254 168t-96 308q0 134 57.5 245.5t163 177.5t238.5 66q199 0 330 -141v114zM696 750q-61 0 -100 -49.5t-39 -120.5
q0 -72 38.5 -122t100.5 -50t102 50t40 122q0 71 -40 120.5t-102 49.5zM827 -4v143q-8 -1 -21.5 -3t-48 -13t-61 -27t-48 -47.5t-21.5 -71.5q0 -51 25 -77.5t71 -26.5q48 0 76 31.5t28 91.5zM907 1526l244 -318h-297l-145 144l-146 -144h-297l244 318h397z" />
    <glyph glyph-name="Gbreve" unicode="&#x11e;" horiz-adv-x="1495" 
d="M952 768h465v-690q-243 -105 -575 -105q-169 0 -312.5 48.5t-249 138t-165.5 225.5t-60 303q0 219 104 384t287.5 252t419.5 87q154 0 261.5 -16t230.5 -49l-68 -381q-165 49 -319 49q-373 0 -373 -326q0 -79 26.5 -141.5t71 -99.5t97.5 -56.5t110 -19.5q21 0 49 4v393z
M1001 1815h187q-13 -155 -115 -235.5t-268 -80.5t-268 80.5t-115 235.5h186q14 -61 69 -92t128 -31t127.5 31t68.5 92z" />
    <glyph glyph-name="gbreve" unicode="&#x11f;" horiz-adv-x="1437" 
d="M836 1085h501v-913q0 -315 -149.5 -455.5t-489.5 -140.5q-153 0 -263 23t-170.5 64.5t-87.5 91.5t-27 112q0 96 64 170t183 110q-158 35 -254 168t-96 308q0 134 57.5 245.5t163 177.5t238.5 66q199 0 330 -141v114zM696 750q-61 0 -100 -49.5t-39 -120.5
q0 -72 38.5 -122t100.5 -50t102 50t40 122q0 71 -40 120.5t-102 49.5zM827 -4v143q-8 -1 -21.5 -3t-48 -13t-61 -27t-48 -47.5t-21.5 -71.5q0 -51 25 -77.5t71 -26.5q48 0 76 31.5t28 91.5zM911 1516h187q-13 -155 -115 -235.5t-268 -80.5t-268 80.5t-115 235.5h186
q14 -61 69 -92t128 -31t127.5 31t68.5 92z" />
    <glyph glyph-name="Gdotaccent" unicode="&#x120;" horiz-adv-x="1495" 
d="M952 768h465v-690q-243 -105 -575 -105q-169 0 -312.5 48.5t-249 138t-165.5 225.5t-60 303q0 219 104 384t287.5 252t419.5 87q154 0 261.5 -16t230.5 -49l-68 -381q-165 49 -319 49q-373 0 -373 -326q0 -79 26.5 -141.5t71 -99.5t97.5 -56.5t110 -19.5q21 0 49 4v393z
M637 1524v268h334v-268h-334z" />
    <glyph glyph-name="gdotaccent" unicode="&#x121;" horiz-adv-x="1437" 
d="M836 1085h501v-913q0 -315 -149.5 -455.5t-489.5 -140.5q-153 0 -263 23t-170.5 64.5t-87.5 91.5t-27 112q0 96 64 170t183 110q-158 35 -254 168t-96 308q0 134 57.5 245.5t163 177.5t238.5 66q199 0 330 -141v114zM696 750q-61 0 -100 -49.5t-39 -120.5
q0 -72 38.5 -122t100.5 -50t102 50t40 122q0 71 -40 120.5t-102 49.5zM827 -4v143q-8 -1 -21.5 -3t-48 -13t-61 -27t-48 -47.5t-21.5 -71.5q0 -51 25 -77.5t71 -26.5q48 0 76 31.5t28 91.5zM545 1225v268h334v-268h-334z" />
    <glyph glyph-name="Gcommaaccent" unicode="&#x122;" horiz-adv-x="1495" 
d="M952 768h465v-690q-243 -105 -575 -105q-169 0 -312.5 48.5t-249 138t-165.5 225.5t-60 303q0 219 104 384t287.5 252t419.5 87q154 0 261.5 -16t230.5 -49l-68 -381q-165 49 -319 49q-373 0 -373 -326q0 -79 26.5 -141.5t71 -99.5t97.5 -56.5t110 -19.5q21 0 49 4v393z
M606 -150h381v-294l-182 -269h-189l148 240h-158v323z" />
    <glyph glyph-name="gcommaaccent" unicode="&#x123;" horiz-adv-x="1437" 
d="M836 1085h501v-913q0 -315 -149.5 -455.5t-489.5 -140.5q-153 0 -263 23t-170.5 64.5t-87.5 91.5t-27 112q0 96 64 170t183 110q-158 35 -254 168t-96 308q0 134 57.5 245.5t163 177.5t238.5 66q199 0 330 -141v114zM696 750q-61 0 -100 -49.5t-39 -120.5
q0 -72 38.5 -122t100.5 -50t102 50t40 122q0 71 -40 120.5t-102 49.5zM827 -4v143q-8 -1 -21.5 -3t-48 -13t-61 -27t-48 -47.5t-21.5 -71.5q0 -51 25 -77.5t71 -26.5q48 0 76 31.5t28 91.5zM899 1217h-381v294l182 269h189l-148 -240h158v-323z" />
    <glyph glyph-name="Hcircumflex" unicode="&#x124;" horiz-adv-x="1642" 
d="M993 1384h531v-1384h-531v514h-344v-514h-530v1384h530v-497h344v497zM1020 1825l244 -318h-297l-146 144l-145 -144h-297l244 318h397z" />
    <glyph glyph-name="hcircumflex" unicode="&#x125;" horiz-adv-x="1431" 
d="M1339 737v-737h-522v621q0 41 -28 70.5t-68 29.5t-68 -29.5t-28 -70.5v-621h-523v1513h523v-528q124 127 323 127q165 0 278 -107.5t113 -267.5zM553 1915l244 -318h-297l-146 144l-145 -144h-297l244 318h397z" />
    <glyph glyph-name="Hbar" unicode="&#x126;" horiz-adv-x="1669" 
d="M1006 1384h530v-141h111v-201h-111v-1042h-530v514h-344v-514h-531v1042h-108v201h108v141h531v-141h344v141zM662 887h344v155h-344v-155z" />
    <glyph glyph-name="hbar" unicode="&#x127;" horiz-adv-x="1431" 
d="M1339 737v-737h-522v621q0 41 -28 70.5t-68 29.5t-68 -29.5t-28 -70.5v-621h-523v1186h-135v198h135v129h523v-129h231v-198h-231v-201q124 127 323 127q165 0 278 -107.5t113 -267.5z" />
    <glyph glyph-name="Itilde" unicode="&#x128;" horiz-adv-x="772" 
d="M653 1384v-1384h-534v1384h534zM-33 1503q0 50 17.5 104.5t49.5 102.5t82 78.5t109 30.5q53 0 102 -16t79 -35.5t63 -35.5t59 -16q31 0 60 33t41 80h170q-1 -76 -34 -152t-94.5 -128t-133.5 -52q-53 0 -99.5 15.5t-75 34.5t-64.5 34.5t-69 15.5q-32 0 -58.5 -28
t-37.5 -66h-166z" />
    <glyph glyph-name="itilde" unicode="&#x129;" horiz-adv-x="727" 
d="M102 0v1085h523v-1085h-523zM-51 1204q0 50 17.5 104.5t49.5 102.5t82 78.5t109 30.5q68 0 126.5 -26t102 -51.5t74.5 -25.5t59.5 32.5t40.5 80.5h170q-1 -76 -34 -152t-94.5 -128t-133.5 -52q-53 0 -99.5 15.5t-74.5 34.5t-64 34.5t-69 15.5q-32 0 -58.5 -28t-37.5 -66
h-166z" />
    <glyph glyph-name="Imacron" unicode="&#x12a;" horiz-adv-x="772" 
d="M653 1384v-1384h-534v1384h534zM20 1538v207h732v-207h-732z" />
    <glyph glyph-name="imacron" unicode="&#x12b;" horiz-adv-x="727" 
d="M102 0v1085h523v-1085h-523zM-2 1247v207h731v-207h-731z" />
    <glyph glyph-name="Ibreve" unicode="&#x12c;" horiz-adv-x="772" 
d="M653 1384v-1384h-534v1384h534zM582 1815h186q-13 -155 -115 -235.5t-268 -80.5t-268 80.5t-115 235.5h186q14 -61 69 -92t128 -31t128 31t69 92z" />
    <glyph glyph-name="ibreve" unicode="&#x12d;" horiz-adv-x="727" 
d="M102 0v1085h523v-1085h-523zM559 1516h186q-13 -155 -115 -235.5t-268 -80.5q-165 0 -267 80.5t-115 235.5h186q14 -61 68.5 -92t127.5 -31t128 31t69 92z" />
    <glyph glyph-name="Iogonek" unicode="&#x12e;" horiz-adv-x="772" 
d="M696 -252l80 -51q-40 -58 -112 -93.5t-164 -35.5q-60 0 -111.5 15.5t-89 55t-37.5 97.5q0 38 16 75.5t37 64t53.5 54t52 40.5t46.5 30h-348v1384h534v-1384q-82 -61 -121.5 -110t-39.5 -99q0 -45 27.5 -64.5t64.5 -19.5q71 0 112 41z" />
    <glyph glyph-name="iogonek" unicode="&#x12f;" horiz-adv-x="727" 
d="M102 0v1085h523v-1085q-82 -61 -122 -110t-40 -99q0 -45 27.5 -64.5t64.5 -19.5q72 0 113 41l80 -51q-40 -58 -112.5 -93.5t-164.5 -35.5q-60 0 -111.5 15.5t-89 55t-37.5 97.5q0 38 16 75.5t37 64t53.5 54t52 40.5t46.5 30h-336zM631 1513v-323h-535v323h535z" />
    <glyph glyph-name="Idotaccent" unicode="&#x130;" horiz-adv-x="772" 
d="M653 1384v-1384h-534v1384h534zM219 1524v268h334v-268h-334z" />
    <glyph glyph-name="dotlessi" unicode="&#x131;" horiz-adv-x="727" 
d="M102 0v1085h523v-1085h-523z" />
    <glyph glyph-name="IJ" unicode="&#x132;" horiz-adv-x="1787" 
d="M653 1384v-1384h-534v1384h534zM905 1384h778v-811q0 -600 -598 -600q-207 0 -366 76l92 363q80 -23 141 -23q100 0 150.5 32t50.5 124v440h-248v399z" />
    <glyph glyph-name="ij" unicode="&#x133;" horiz-adv-x="1447" 
d="M102 0v1085h523v-1085h-523zM631 1513v-323h-535v323h535zM823 1085h523v-976q0 -97 -22 -175t-56.5 -131.5t-89 -94t-108 -63.5t-125.5 -38.5t-129 -21.5t-130 -9l-37 330q29 10 47 17.5t45 23t42.5 33t27.5 45t12 61.5v999zM1352 1513v-323h-535v323h535z" />
    <glyph glyph-name="Jcircumflex" unicode="&#x134;" horiz-adv-x="1085" 
d="M203 1384h778v-811q0 -600 -598 -600q-208 0 -367 76l93 363q81 -23 141 -23q100 0 150.5 32t50.5 124v440h-248v399zM807 1825l244 -318h-297l-146 144l-145 -144h-297l244 318h397z" />
    <glyph glyph-name="jcircumflex" unicode="&#x135;" horiz-adv-x="729" 
d="M104 1085h523v-976q0 -97 -22 -175t-56.5 -131.5t-89 -94t-108 -63.5t-125.5 -38.5t-129 -21.5t-130 -9l-37 330q29 10 47 17.5t45 23t42.5 33t27.5 45t12 61.5v999zM567 1526l244 -318h-297l-145 144l-146 -144h-297l244 318h397z" />
    <glyph glyph-name="Kcommaaccent" unicode="&#x136;" horiz-adv-x="1536" 
d="M1100 762l461 -762h-611l-297 563v-563h-534v1384h534v-491l297 491h574zM588 -150h381v-294l-183 -269h-188l147 240h-157v323z" />
    <glyph glyph-name="kcommaaccent" unicode="&#x137;" horiz-adv-x="1400" 
d="M1415 0h-555l-235 442v-442h-523v1513h523v-778l221 350h526l-334 -442zM532 -150h381v-294l-182 -269h-188l147 240h-158v323z" />
    <glyph glyph-name="Lacute" unicode="&#x139;" horiz-adv-x="1198" 
d="M653 1384v-995h525v-389h-1059v1384h534zM825 1825l-336 -318h-296l225 318h407z" />
    <glyph glyph-name="lacute" unicode="&#x13a;" horiz-adv-x="727" 
d="M102 0v1513h523v-1513h-523zM784 1919l-335 -317h-297l225 317h407z" />
    <glyph glyph-name="Lcommaaccent" unicode="&#x13b;" horiz-adv-x="1198" 
d="M653 1384v-995h525v-389h-1059v1384h534zM461 -150h381v-294l-183 -269h-188l147 240h-157v323z" />
    <glyph glyph-name="lcommaaccent" unicode="&#x13c;" horiz-adv-x="727" 
d="M102 0v1513h523v-1513h-523zM176 -150h381v-294l-182 -269h-189l148 240h-158v323z" />
    <glyph glyph-name="Lcaron" unicode="&#x13d;" horiz-adv-x="1230" 
d="M653 1384v-995h525v-389h-1059v1384h534zM815 1384h381v-294l-182 -269h-189l148 240h-158v323z" />
    <glyph glyph-name="lcaron" unicode="&#x13e;" horiz-adv-x="1011" 
d="M102 0v1513h523v-1513h-523zM764 1513h381v-294l-182 -269h-189l148 240h-158v323z" />
    <glyph glyph-name="Ldot" unicode="&#x13f;" horiz-adv-x="1247" 
d="M829 659v269h334v-269h-334zM653 1384v-995h525v-389h-1059v1384h534z" />
    <glyph glyph-name="ldot" unicode="&#x140;" horiz-adv-x="1052" 
d="M723 530v269h334v-269h-334zM102 0v1513h523v-1513h-523z" />
    <glyph glyph-name="Lslash" unicode="&#x141;" horiz-adv-x="1275" 
d="M39 563l158 86v735h534v-444l305 168v-274l-305 -168v-277h524v-389h-1058v373l-158 -86v276z" />
    <glyph glyph-name="lslash" unicode="&#x142;" horiz-adv-x="882" 
d="M37 643l131 72v798h522v-509l150 81v-274l-150 -84v-727h-522v438l-131 -71v276z" />
    <glyph glyph-name="Nacute" unicode="&#x143;" horiz-adv-x="1667" 
d="M1059 1384h489v-1384h-506l-434 711v-711h-489v1384h532l408 -706v706zM1227 1825l-336 -318h-297l225 318h408z" />
    <glyph glyph-name="nacute" unicode="&#x144;" horiz-adv-x="1431" 
d="M1339 737v-737h-522v621q0 41 -28 70.5t-68 29.5t-68 -29.5t-28 -70.5v-621h-523v1085h506v-106q133 133 340 133q165 0 278 -107.5t113 -267.5zM1098 1526l-336 -318h-297l225 318h408z" />
    <glyph glyph-name="Ncommaaccent" unicode="&#x145;" horiz-adv-x="1667" 
d="M1059 1384h489v-1384h-506l-434 711v-711h-489v1384h532l408 -706v706zM649 -150h381v-294l-182 -269h-189l148 240h-158v323z" />
    <glyph glyph-name="ncommaaccent" unicode="&#x146;" horiz-adv-x="1431" 
d="M1339 737v-737h-522v621q0 41 -28 70.5t-68 29.5t-68 -29.5t-28 -70.5v-621h-523v1085h506v-106q133 133 340 133q165 0 278 -107.5t113 -267.5zM530 -150h381v-294l-182 -269h-188l147 240h-158v323z" />
    <glyph glyph-name="Ncaron" unicode="&#x147;" horiz-adv-x="1667" 
d="M1059 1384h489v-1384h-506l-434 711v-711h-489v1384h532l408 -706v706zM1266 1825l-244 -318h-397l-244 318h297l145 -144l146 144h297z" />
    <glyph glyph-name="ncaron" unicode="&#x148;" horiz-adv-x="1431" 
d="M1339 737v-737h-522v621q0 41 -28 70.5t-68 29.5t-68 -29.5t-28 -70.5v-621h-523v1085h506v-106q133 133 340 133q165 0 278 -107.5t113 -267.5zM1147 1526l-244 -318h-397l-244 318h297l146 -144l145 144h297z" />
    <glyph glyph-name="napostrophe" unicode="&#x149;" horiz-adv-x="1431" 
d="M1339 737v-737h-522v621q0 41 -28 70.5t-68 29.5t-68 -29.5t-28 -70.5v-621h-523v1085h506v-106q133 133 340 133q165 0 278 -107.5t113 -267.5zM-98 1784h381v-295l-183 -268h-188l147 239h-157v324z" />
    <glyph glyph-name="Eng" unicode="&#x14a;" horiz-adv-x="1667" 
d="M1059 1384h489v-1196q0 -120 -15.5 -212t-53 -169t-98.5 -127t-152.5 -77t-214.5 -27q-220 0 -389 76l92 362q77 -22 147 -22q69 0 111.5 13.5t64.5 51.5l-432 654v-711h-489v1384h532l408 -651v651z" />
    <glyph glyph-name="eng" unicode="&#x14b;" horiz-adv-x="1429" 
d="M817 78v543q0 41 -28 70.5t-68 29.5t-68 -29.5t-28 -70.5v-621h-523v1085h506v-106q133 133 340 133q165 0 278 -107.5t113 -267.5v-628q0 -97 -22 -175t-56.5 -131.5t-89 -94t-107.5 -63.5t-125 -38.5t-129 -21.5t-130 -9l-37 330q29 10 46 17t44.5 22.5t43 32t28 43
t12.5 57.5z" />
    <glyph glyph-name="Omacron" unicode="&#x14c;" horiz-adv-x="1677" 
d="M840 1411q232 0 408.5 -85.5t275 -249t98.5 -384.5t-98.5 -384.5t-275 -249t-408.5 -85.5q-233 0 -410 85.5t-276 249t-99 384.5t99 384.5t276 249t410 85.5zM840 371q120 0 181.5 83t61.5 238q0 156 -61.5 239t-181.5 83q-122 0 -184 -83t-62 -239q0 -155 62 -238
t184 -83zM473 1538v207h731v-207h-731z" />
    <glyph glyph-name="omacron" unicode="&#x14d;" horiz-adv-x="1400" 
d="M702 1112q133 0 251 -39t208 -110t142.5 -180t52.5 -240t-52.5 -240t-142.5 -180.5t-208 -110.5t-251 -39t-252 39t-209 110t-143 180t-53 241t53 241t143 180t209 109.5t252 38.5zM700 352q67 0 110.5 56t43.5 135t-43.5 134.5t-110.5 55.5t-110 -55.5t-43 -134.5
t43 -135t110 -56zM336 1247v207h731v-207h-731z" />
    <glyph glyph-name="Obreve" unicode="&#x14e;" horiz-adv-x="1677" 
d="M840 1411q232 0 408.5 -85.5t275 -249t98.5 -384.5t-98.5 -384.5t-275 -249t-408.5 -85.5q-233 0 -410 85.5t-276 249t-99 384.5t99 384.5t276 249t410 85.5zM840 371q120 0 181.5 83t61.5 238q0 156 -61.5 239t-181.5 83q-122 0 -184 -83t-62 -239q0 -155 62 -238
t184 -83zM1034 1815h187q-13 -155 -115 -235.5t-268 -80.5t-268 80.5t-115 235.5h186q14 -61 69 -92t128 -31t127.5 31t68.5 92z" />
    <glyph glyph-name="obreve" unicode="&#x14f;" horiz-adv-x="1400" 
d="M702 1112q133 0 251 -39t208 -110t142.5 -180t52.5 -240t-52.5 -240t-142.5 -180.5t-208 -110.5t-251 -39t-252 39t-209 110t-143 180t-53 241t53 241t143 180t209 109.5t252 38.5zM700 352q67 0 110.5 56t43.5 135t-43.5 134.5t-110.5 55.5t-110 -55.5t-43 -134.5
t43 -135t110 -56zM897 1516h186q-13 -155 -115 -235.5t-268 -80.5t-268 80.5t-115 235.5h187q14 -61 68.5 -92t127.5 -31t128 31t69 92z" />
    <glyph glyph-name="Ohungarumlaut" unicode="&#x150;" horiz-adv-x="1677" 
d="M840 1411q232 0 408.5 -85.5t275 -249t98.5 -384.5t-98.5 -384.5t-275 -249t-408.5 -85.5q-233 0 -410 85.5t-276 249t-99 384.5t99 384.5t276 249t410 85.5zM840 371q120 0 181.5 83t61.5 238q0 156 -61.5 239t-181.5 83q-122 0 -184 -83t-62 -239q0 -155 62 -238
t184 -83zM1020 1825l-336 -318h-297l225 318h408zM1554 1825l-335 -318h-297l225 318h407z" />
    <glyph glyph-name="ohungarumlaut" unicode="&#x151;" horiz-adv-x="1400" 
d="M702 1112q133 0 251 -39t208 -110t142.5 -180t52.5 -240t-52.5 -240t-142.5 -180.5t-208 -110.5t-251 -39t-252 39t-209 110t-143 180t-53 241t53 241t143 180t209 109.5t252 38.5zM700 352q67 0 110.5 56t43.5 135t-43.5 134.5t-110.5 55.5t-110 -55.5t-43 -134.5
t43 -135t110 -56zM840 1526l-336 -318h-297l225 318h408zM1374 1526l-336 -318h-297l226 318h407z" />
    <glyph glyph-name="OE" unicode="&#x152;" horiz-adv-x="2207" 
d="M840 1384h1282v-389h-596v-121h518v-360h-518v-127h596v-387h-1282q-234 0 -409 78.5t-274.5 236t-99.5 377.5t99.5 377.5t274.5 236t409 78.5zM1014 987h-174q-123 0 -183.5 -71.5t-60.5 -223.5t60.5 -223.5t183.5 -71.5h174v590z" />
    <glyph glyph-name="oe" unicode="&#x153;" horiz-adv-x="2052" 
d="M662 1112q279 0 417 -170q60 82 157.5 126t217.5 44q138 0 244.5 -41.5t174 -117t102 -178.5t34.5 -230q0 -37 -8 -123h-682q57 -117 297 -117q134 0 285 51l53 -307q-194 -76 -434 -76q-293 0 -443 166q-137 -166 -415 -166q-124 0 -235 39t-196 110t-134.5 180
t-49.5 241t49.5 241t134.5 180t196 109.5t235 38.5zM702 352q67 0 110.5 56t43.5 135t-43.5 134.5t-110.5 55.5t-110 -55.5t-43 -134.5t43 -135t110 -56zM1296 666h271q-8 64 -39.5 103.5t-89.5 39.5q-113 0 -142 -143z" />
    <glyph glyph-name="Racute" unicode="&#x154;" horiz-adv-x="1519" 
d="M1186 569q216 -42 287 -569h-531q-21 108 -40 182t-43 122t-41.5 74t-52 38t-57.5 14t-73 2h-2v-432h-514v1370q96 16 248.5 28.5t283.5 12.5q127 0 235.5 -12.5t213 -46t178 -86.5t118 -138.5t44.5 -197.5q0 -246 -254 -361zM678 756q39 0 76 5.5t78 19.5t65.5 44.5
t24.5 73.5q0 41 -22.5 70t-59.5 43t-73 20t-75 6q-29 0 -61 -4v-276q14 -2 47 -2zM1116 1825l-336 -318h-297l226 318h407z" />
    <glyph glyph-name="racute" unicode="&#x155;" horiz-adv-x="976" 
d="M946 696q-153 20 -237 -55.5t-84 -234.5v-406h-523v1085h488v-192q10 23 15 33.5t18.5 35t24 38t29 35t36 32.5t43.5 24t53 17t62.5 3.5t74.5 -9.5v-406zM991 1526l-336 -318h-297l226 318h407z" />
    <glyph glyph-name="Rcommaaccent" unicode="&#x156;" horiz-adv-x="1519" 
d="M1186 569q216 -42 287 -569h-531q-21 108 -40 182t-43 122t-41.5 74t-52 38t-57.5 14t-73 2h-2v-432h-514v1370q96 16 248.5 28.5t283.5 12.5q127 0 235.5 -12.5t213 -46t178 -86.5t118 -138.5t44.5 -197.5q0 -246 -254 -361zM678 756q39 0 76 5.5t78 19.5t65.5 44.5
t24.5 73.5q0 41 -22.5 70t-59.5 43t-73 20t-75 6q-29 0 -61 -4v-276q14 -2 47 -2zM580 -150h381v-294l-183 -269h-188l147 240h-157v323z" />
    <glyph glyph-name="rcommaaccent" unicode="&#x157;" horiz-adv-x="976" 
d="M946 696q-153 20 -237 -55.5t-84 -234.5v-406h-523v1085h488v-192q10 23 15 33.5t18.5 35t24 38t29 35t36 32.5t43.5 24t53 17t62.5 3.5t74.5 -9.5v-406zM176 -150h381v-294l-182 -269h-189l148 240h-158v323z" />
    <glyph glyph-name="Rcaron" unicode="&#x158;" horiz-adv-x="1519" 
d="M1186 569q216 -42 287 -569h-531q-21 108 -40 182t-43 122t-41.5 74t-52 38t-57.5 14t-73 2h-2v-432h-514v1370q96 16 248.5 28.5t283.5 12.5q127 0 235.5 -12.5t213 -46t178 -86.5t118 -138.5t44.5 -197.5q0 -246 -254 -361zM678 756q39 0 76 5.5t78 19.5t65.5 44.5
t24.5 73.5q0 41 -22.5 70t-59.5 43t-73 20t-75 6q-29 0 -61 -4v-276q14 -2 47 -2zM1198 1825l-244 -318h-397l-244 318h297l146 -144l145 144h297z" />
    <glyph glyph-name="rcaron" unicode="&#x159;" horiz-adv-x="976" 
d="M946 696q-153 20 -237 -55.5t-84 -234.5v-406h-523v1085h488v-192q10 23 15 33.5t18.5 35t24 38t29 35t36 32.5t43.5 24t53 17t62.5 3.5t74.5 -9.5v-406zM995 1526l-243 -318h-398l-243 318h297l145 -144l145 144h297z" />
    <glyph glyph-name="Sacute" unicode="&#x15a;" horiz-adv-x="1300" 
d="M586 989q0 -16 22.5 -28t61 -22t88 -21t104.5 -27.5t109.5 -38.5t104 -56.5t88 -78.5t61 -109t22.5 -143q0 -248 -159.5 -370t-442.5 -122q-306 0 -575 105l84 375q116 -56 218.5 -84.5t237.5 -28.5q115 0 115 51q0 18 -28 31.5t-74 22.5t-105 24.5t-120 34.5t-119.5 55
t-104.5 83t-73.5 122.5t-26.5 169.5q1 152 75.5 260.5t206 162.5t308.5 54q256 0 530 -80l-84 -373q-75 34 -185.5 58t-224.5 24q-57 0 -85.5 -11t-28.5 -40zM1069 1825l-336 -318h-297l226 318h407z" />
    <glyph glyph-name="sacute" unicode="&#x15b;" horiz-adv-x="1120" 
d="M588 756q0 -15 26.5 -25t68.5 -18.5t93.5 -20.5t102.5 -37t93 -60.5t68.5 -98t26.5 -144.5q0 -188 -139 -283.5t-387 -95.5q-262 0 -494 125l47 312q73 -49 171.5 -80t197.5 -31q86 0 86 41q0 13 -26 22t-67 17t-90.5 20t-99.5 36t-91 59t-67 96t-26 141
q0 188 142.5 284.5t391.5 96.5q210 0 418 -88l-45 -297q-58 26 -144.5 46t-148.5 20q-50 0 -79 -7t-29 -30zM961 1526l-336 -318h-297l225 318h408z" />
    <glyph glyph-name="Scircumflex" unicode="&#x15c;" horiz-adv-x="1300" 
d="M586 989q0 -16 22.5 -28t61 -22t88 -21t104.5 -27.5t109.5 -38.5t104 -56.5t88 -78.5t61 -109t22.5 -143q0 -248 -159.5 -370t-442.5 -122q-306 0 -575 105l84 375q116 -56 218.5 -84.5t237.5 -28.5q115 0 115 51q0 18 -28 31.5t-74 22.5t-105 24.5t-120 34.5t-119.5 55
t-104.5 83t-73.5 122.5t-26.5 169.5q1 152 75.5 260.5t206 162.5t308.5 54q256 0 530 -80l-84 -373q-75 34 -185.5 58t-224.5 24q-57 0 -85.5 -11t-28.5 -40zM860 1825l244 -318h-297l-145 144l-146 -144h-297l244 318h397z" />
    <glyph glyph-name="scircumflex" unicode="&#x15d;" horiz-adv-x="1120" 
d="M588 756q0 -15 26.5 -25t68.5 -18.5t93.5 -20.5t102.5 -37t93 -60.5t68.5 -98t26.5 -144.5q0 -188 -139 -283.5t-387 -95.5q-262 0 -494 125l47 312q73 -49 171.5 -80t197.5 -31q86 0 86 41q0 13 -26 22t-67 17t-90.5 20t-99.5 36t-91 59t-67 96t-26 141
q0 188 142.5 284.5t391.5 96.5q210 0 418 -88l-45 -297q-58 26 -144.5 46t-148.5 20q-50 0 -79 -7t-29 -30zM766 1526l244 -318h-297l-146 144l-145 -144h-297l244 318h397z" />
    <glyph glyph-name="Scedilla" unicode="&#x15e;" horiz-adv-x="1302" 
d="M334 -424l53 119q250 -53 250 53q0 62 -176 72l90 155q-251 13 -481 103l84 375q116 -56 218.5 -84.5t237.5 -28.5q115 0 115 51q0 18 -28 31.5t-74 22.5t-105 24.5t-120 34.5t-119.5 55t-104.5 83t-73.5 122.5t-26.5 169.5q1 152 75.5 260.5t206 162.5t308.5 54
q256 0 530 -80l-84 -373q-75 34 -185.5 58t-224.5 24q-57 0 -85.5 -11t-28.5 -40q0 -16 22.5 -28t61 -22t88 -21t104.5 -27.5t109.5 -38.5t104 -56.5t88 -78.5t61 -109t22.5 -143q0 -236 -145 -357.5t-406 -132.5l-59 -94q101 -3 170.5 -51t69.5 -121q0 -81 -66 -133.5
t-190 -52.5q-152 0 -287 53z" />
    <glyph glyph-name="scedilla" unicode="&#x15f;" horiz-adv-x="1124" 
d="M262 -424l53 119q250 -53 250 53q0 62 -176 72l90 155q-231 15 -430 123l47 312q73 -49 171.5 -80t197.5 -31q86 0 86 41q0 13 -26 22t-67 17t-90.5 20t-99.5 36t-91 59t-67 96t-26 141q0 188 142.5 284.5t391.5 96.5q210 0 418 -88l-45 -297q-58 26 -144.5 46t-148.5 20
q-50 0 -79 -7t-29 -30q0 -15 26.5 -25t68.5 -18.5t93.5 -20.5t102.5 -37t93 -60.5t68.5 -98t26.5 -144.5q0 -171 -116.5 -265.5t-325.5 -109.5l-62 -96q101 -3 170.5 -51t69.5 -121q0 -81 -66 -133.5t-190 -52.5q-152 0 -287 53z" />
    <glyph glyph-name="Scaron" unicode="&#x160;" horiz-adv-x="1300" 
d="M586 989q0 -16 22.5 -28t61 -22t88 -21t104.5 -27.5t109.5 -38.5t104 -56.5t88 -78.5t61 -109t22.5 -143q0 -248 -159.5 -370t-442.5 -122q-306 0 -575 105l84 375q116 -56 218.5 -84.5t237.5 -28.5q115 0 115 51q0 18 -28 31.5t-74 22.5t-105 24.5t-120 34.5t-119.5 55
t-104.5 83t-73.5 122.5t-26.5 169.5q1 152 75.5 260.5t206 162.5t308.5 54q256 0 530 -80l-84 -373q-75 34 -185.5 58t-224.5 24q-57 0 -85.5 -11t-28.5 -40zM1100 1825l-244 -318h-397l-244 318h297l145 -144l146 144h297z" />
    <glyph glyph-name="scaron" unicode="&#x161;" horiz-adv-x="1120" 
d="M588 756q0 -15 26.5 -25t68.5 -18.5t93.5 -20.5t102.5 -37t93 -60.5t68.5 -98t26.5 -144.5q0 -188 -139 -283.5t-387 -95.5q-262 0 -494 125l47 312q73 -49 171.5 -80t197.5 -31q86 0 86 41q0 13 -26 22t-67 17t-90.5 20t-99.5 36t-91 59t-67 96t-26 141
q0 188 142.5 284.5t391.5 96.5q210 0 418 -88l-45 -297q-58 26 -144.5 46t-148.5 20q-50 0 -79 -7t-29 -30zM1006 1526l-244 -318h-397l-244 318h297l145 -144l146 144h297z" />
    <glyph glyph-name="Tcommaaccent" unicode="&#x162;" horiz-adv-x="1361" 
d="M948 989v-989h-534v989h-394v395h1321v-395h-393zM496 -150h381v-294l-183 -269h-188l147 240h-157v323z" />
    <glyph glyph-name="tcommaaccent" unicode="&#x163;" horiz-adv-x="960" 
d="M55 727v358h113v252h522v-252h189v-358h-189v-289q0 -60 37 -88t90 -28q23 0 55 4l41 -289q-63 -28 -158 -46t-192 -18q-395 0 -395 338v416h-113zM311 -150h381v-294l-182 -269h-188l147 240h-158v323z" />
    <glyph glyph-name="Tcaron" unicode="&#x164;" horiz-adv-x="1361" 
d="M948 989v-989h-534v989h-394v395h1321v-395h-393zM1122 1825l-243 -318h-398l-243 318h297l145 -144l145 144h297z" />
    <glyph glyph-name="tcaron" unicode="&#x165;" horiz-adv-x="960" 
d="M55 727v358h113v252h522v-252h189v-358h-189v-289q0 -60 37 -88t90 -28q23 0 55 4l41 -289q-63 -28 -158 -46t-192 -18q-395 0 -395 338v416h-113zM809 1851h381v-295l-182 -268h-189l148 240h-158v323z" />
    <glyph glyph-name="Tbar" unicode="&#x166;" horiz-adv-x="1361" 
d="M948 989v-252h269v-221h-269v-516h-534v516h-269v221h269v252h-394v395h1321v-395h-393z" />
    <glyph glyph-name="tbar" unicode="&#x167;" horiz-adv-x="960" 
d="M72 422v221h96v84h-113v358h113v252h522v-252h189v-358h-189v-84h152v-221h-152q6 -52 41.5 -76t85.5 -24q23 0 55 4l41 -289q-63 -28 -158 -46t-192 -18q-395 0 -395 338v111h-96z" />
    <glyph glyph-name="Utilde" unicode="&#x168;" horiz-adv-x="1546" 
d="M907 1384h535v-837q0 -289 -174 -431.5t-496 -142.5t-495 142.5t-173 431.5v837h535v-831q0 -84 27.5 -128t105.5 -44q79 0 107 44.5t28 127.5v831zM362 1503q0 69 29.5 140t91 123.5t138.5 52.5q53 0 102 -16t79 -35.5t63 -35.5t59 -16q31 0 59.5 32.5t40.5 80.5h170
q-1 -76 -34 -152t-94.5 -128t-133.5 -52q-53 0 -99.5 15.5t-74.5 34.5t-64 34.5t-69 15.5q-32 0 -59 -28t-38 -66h-166z" />
    <glyph glyph-name="utilde" unicode="&#x169;" horiz-adv-x="1431" 
d="M92 348v737h522v-620q0 -41 28.5 -70.5t68.5 -29.5t68 29.5t28 70.5v620h522v-1085h-506v106q-133 -133 -340 -133q-165 0 -278 107.5t-113 267.5zM299 1204q0 50 17.5 104.5t49.5 102.5t82 78.5t109 30.5q68 0 126.5 -26t102 -51.5t74.5 -25.5t60 33t41 80h169
q-1 -76 -34 -152t-94.5 -128t-133.5 -52q-53 0 -99.5 15.5t-74.5 34.5t-64 34.5t-69 15.5q-32 0 -58.5 -28t-37.5 -66h-166z" />
    <glyph glyph-name="Umacron" unicode="&#x16a;" horiz-adv-x="1546" 
d="M907 1384h535v-837q0 -289 -174 -431.5t-496 -142.5t-495 142.5t-173 431.5v837h535v-831q0 -84 27.5 -128t105.5 -44q79 0 107 44.5t28 127.5v831zM408 1538v207h731v-207h-731z" />
    <glyph glyph-name="umacron" unicode="&#x16b;" horiz-adv-x="1431" 
d="M92 348v737h522v-620q0 -41 28.5 -70.5t68.5 -29.5t68 29.5t28 70.5v620h522v-1085h-506v106q-133 -133 -340 -133q-165 0 -278 107.5t-113 267.5zM346 1247v207h731v-207h-731z" />
    <glyph glyph-name="Ubreve" unicode="&#x16c;" horiz-adv-x="1546" 
d="M907 1384h535v-837q0 -289 -174 -431.5t-496 -142.5t-495 142.5t-173 431.5v837h535v-831q0 -84 27.5 -128t105.5 -44q79 0 107 44.5t28 127.5v831zM969 1815h186q-13 -155 -115 -235.5t-268 -80.5t-268 80.5t-115 235.5h186q14 -61 69 -92t128 -31t128 31t69 92z" />
    <glyph glyph-name="ubreve" unicode="&#x16d;" horiz-adv-x="1431" 
d="M92 348v737h522v-620q0 -41 28.5 -70.5t68.5 -29.5t68 29.5t28 70.5v620h522v-1085h-506v106q-133 -133 -340 -133q-165 0 -278 107.5t-113 267.5zM907 1516h187q-13 -155 -115 -235.5t-268 -80.5t-268 80.5t-115 235.5h186q14 -61 69 -92t128 -31t127.5 31t68.5 92z" />
    <glyph glyph-name="Uring" unicode="&#x16e;" horiz-adv-x="1546" 
d="M907 1384h535v-837q0 -289 -174 -431.5t-496 -142.5t-495 142.5t-173 431.5v837h535v-831q0 -84 27.5 -128t105.5 -44q79 0 107 44.5t28 127.5v831zM772 1456q-105 0 -178.5 64.5t-73.5 167.5t73.5 167t178.5 64t178.5 -64t73.5 -167t-73.5 -167.5t-178.5 -64.5z
M772 1788q-45 0 -75.5 -28t-30.5 -72t30.5 -72.5t75.5 -28.5t76 28.5t31 72.5t-31 72t-76 28z" />
    <glyph glyph-name="uring" unicode="&#x16f;" horiz-adv-x="1431" 
d="M92 348v737h522v-620q0 -41 28.5 -70.5t68.5 -29.5t68 29.5t28 70.5v620h522v-1085h-506v106q-133 -133 -340 -133q-165 0 -278 107.5t-113 267.5zM711 1200q-105 0 -178.5 64.5t-73.5 167.5t73.5 167t178.5 64t178.5 -64t73.5 -167t-73.5 -167.5t-178.5 -64.5zM711 1532
q-45 0 -76 -28t-31 -72t31 -72.5t76 -28.5t75.5 28.5t30.5 72.5t-30.5 72t-75.5 28z" />
    <glyph glyph-name="Uhungarumlaut" unicode="&#x170;" horiz-adv-x="1546" 
d="M907 1384h535v-837q0 -289 -174 -431.5t-496 -142.5t-495 142.5t-173 431.5v837h535v-831q0 -84 27.5 -128t105.5 -44q79 0 107 44.5t28 127.5v831zM963 1825l-336 -318h-297l225 318h408zM1497 1825l-336 -318h-297l226 318h407z" />
    <glyph glyph-name="uhungarumlaut" unicode="&#x171;" horiz-adv-x="1431" 
d="M92 348v737h522v-620q0 -41 28.5 -70.5t68.5 -29.5t68 29.5t28 70.5v620h522v-1085h-506v106q-133 -133 -340 -133q-165 0 -278 107.5t-113 267.5zM868 1526l-336 -318h-296l225 318h407zM1403 1526l-336 -318h-297l225 318h408z" />
    <glyph glyph-name="Uogonek" unicode="&#x172;" horiz-adv-x="1548" 
d="M1192 -252l80 -51q-40 -58 -112.5 -93.5t-164.5 -35.5q-93 0 -165 46t-72 132q0 122 139 234q-72 -7 -125 -7q-322 0 -495 142.5t-173 431.5v837h535v-831q0 -84 27.5 -128t105.5 -44q79 0 107 44.5t28 127.5v831h535v-837q0 -109 -25 -194.5t-65 -139t-88.5 -96
t-97.5 -75t-89 -64.5t-65 -76.5t-25 -100.5q0 -46 28.5 -70t63.5 -24q72 0 113 41z" />
    <glyph glyph-name="uogonek" unicode="&#x173;" horiz-adv-x="1431" 
d="M1372 -252l80 -51q-40 -58 -112 -93.5t-164 -35.5q-60 0 -111.5 15.5t-89 55t-37.5 97.5q0 38 16 75.5t37 64t53.5 54t52 40.5t46.5 30h-320v106q-133 -133 -340 -133q-165 0 -278 107.5t-113 267.5v737h522v-620q0 -41 28.5 -70.5t68.5 -29.5t68 29.5t28 70.5v620h522
v-1085q-82 -61 -122 -110t-40 -99q0 -45 28 -64.5t65 -19.5q71 0 112 41z" />
    <glyph glyph-name="Wcircumflex" unicode="&#x174;" horiz-adv-x="2258" 
d="M1722 1384h531l-309 -1384h-652l-164 778l-165 -778h-648l-309 1384h529l139 -942l209 942h487l211 -942zM1327 1825l244 -318h-297l-146 144l-145 -144h-297l244 318h397z" />
    <glyph glyph-name="wcircumflex" unicode="&#x175;" horiz-adv-x="1955" 
d="M1432 1085h526l-328 -1085h-506l-145 494l-150 -494h-503l-328 1085h532l105 -591l153 591h371l162 -591zM1176 1526l243 -318h-297l-145 144l-146 -144h-296l243 318h398z" />
    <glyph glyph-name="Ycircumflex" unicode="&#x176;" horiz-adv-x="1464" 
d="M961 1384h538l-500 -890v-494h-534v494l-502 890h541l225 -499zM930 1825l244 -318h-297l-146 144l-145 -144h-297l243 318h398z" />
    <glyph glyph-name="ycircumflex" unicode="&#x177;" horiz-adv-x="1425" 
d="M803 1085h522v-913q0 -315 -149.5 -455.5t-489.5 -140.5q-123 0 -219 15.5t-157 42t-101 64t-56 79t-16 90.5q0 93 60.5 165.5t173.5 110.5q-137 10 -210 85t-73 200v657h522v-587q0 -43 28.5 -73t68.5 -30t68 30t28 73v587zM803 -6v145q-8 -1 -20.5 -3.5t-45 -15
t-57.5 -29.5t-45.5 -49.5t-20.5 -72.5q0 -42 21 -69t67 -27q101 0 101 121zM905 1526l244 -318h-297l-145 144l-146 -144h-297l244 318h397z" />
    <glyph glyph-name="Ydieresis" unicode="&#x178;" horiz-adv-x="1464" 
d="M961 1384h538l-500 -890v-494h-534v494l-502 890h541l225 -499zM305 1524v268h334v-268h-334zM821 1524v268h334v-268h-334z" />
    <glyph glyph-name="Zacute" unicode="&#x179;" horiz-adv-x="1351" 
d="M98 1384h1159v-380l-520 -613h533v-391h-1202v317l583 676h-553v391zM1085 1825l-335 -318h-297l225 318h407z" />
    <glyph glyph-name="zacute" unicode="&#x17a;" horiz-adv-x="1161" 
d="M1077 772l-391 -422h401v-350h-1028v295l418 440h-381v350h981v-313zM977 1526l-336 -318h-297l225 318h408z" />
    <glyph glyph-name="Zdotaccent" unicode="&#x17b;" horiz-adv-x="1351" 
d="M98 1384h1159v-380l-520 -613h533v-391h-1202v317l583 676h-553v391zM514 1524v268h334v-268h-334z" />
    <glyph glyph-name="zdotaccent" unicode="&#x17c;" horiz-adv-x="1161" 
d="M1077 772l-391 -422h401v-350h-1028v295l418 440h-381v350h981v-313zM416 1225v268h334v-268h-334z" />
    <glyph glyph-name="Zcaron" unicode="&#x17d;" horiz-adv-x="1351" 
d="M98 1384h1159v-380l-520 -613h533v-391h-1202v317l583 676h-553v391zM1118 1825l-244 -318h-397l-244 318h297l146 -144l145 144h297z" />
    <glyph glyph-name="zcaron" unicode="&#x17e;" horiz-adv-x="1161" 
d="M1077 772l-391 -422h401v-350h-1028v295l418 440h-381v350h981v-313zM1036 1526l-243 -318h-398l-243 318h297l145 -144l145 144h297z" />
    <glyph glyph-name="florin" unicode="&#x192;" horiz-adv-x="1030" 
d="M874 971q-64 0 -100.5 -24t-36.5 -89v-8h172v-358h-172v-519q0 -104 -25 -184.5t-65.5 -130t-98 -80.5t-116.5 -43t-127 -12q-123 0 -233 28v297q78 -8 124 19.5t46 93.5v531h-115v358h115v4q0 104 25 184.5t65.5 130t98 81t116.5 43.5t127 12q172 0 301 -52l-35 -288
q-42 6 -66 6z" />
    <glyph glyph-name="Acaron" unicode="&#x1cd;" horiz-adv-x="1552" 
d="M1094 1384l485 -1384h-535l-63 231h-410l-61 -231h-537l484 1384h637zM776 981l-117 -426h234zM1219 1825l-244 -318h-397l-244 318h297l145 -144l146 144h297z" />
    <glyph glyph-name="acaron" unicode="&#x1ce;" horiz-adv-x="1329" 
d="M639 1112q301 0 451.5 -119t150.5 -352v-641h-516v100q-137 -127 -317 -127q-160 0 -264.5 102t-104.5 247q0 172 121 261t346 89q40 0 109 -7t104 -14v11q0 100 -191 100q-184 0 -340 -60l-71 324q222 86 522 86zM731 403v37q-30 6 -76 6q-60 0 -93.5 -27t-33.5 -73
q0 -38 24 -61t66 -23q59 0 86 39t27 102zM1090 1526l-244 -318h-397l-244 318h297l145 -144l146 144h297z" />
    <glyph glyph-name="Icaron" unicode="&#x1cf;" horiz-adv-x="772" 
d="M653 1384v-1384h-534v1384h534zM827 1825l-243 -318h-398l-243 318h297l145 -144l145 144h297z" />
    <glyph glyph-name="icaron" unicode="&#x1d0;" horiz-adv-x="727" 
d="M102 0v1085h523v-1085h-523zM805 1526l-244 -318h-397l-244 318h297l145 -144l146 144h297z" />
    <glyph glyph-name="Ocaron" unicode="&#x1d1;" horiz-adv-x="1677" 
d="M840 1411q232 0 408.5 -85.5t275 -249t98.5 -384.5t-98.5 -384.5t-275 -249t-408.5 -85.5q-233 0 -410 85.5t-276 249t-99 384.5t99 384.5t276 249t410 85.5zM840 371q120 0 181.5 83t61.5 238q0 156 -61.5 239t-181.5 83q-122 0 -184 -83t-62 -239q0 -155 62 -238
t184 -83zM1280 1825l-244 -318h-397l-244 318h297l146 -144l145 144h297z" />
    <glyph glyph-name="ocaron" unicode="&#x1d2;" horiz-adv-x="1400" 
d="M702 1112q133 0 251 -39t208 -110t142.5 -180t52.5 -240t-52.5 -240t-142.5 -180.5t-208 -110.5t-251 -39t-252 39t-209 110t-143 180t-53 241t53 241t143 180t209 109.5t252 38.5zM700 352q67 0 110.5 56t43.5 135t-43.5 134.5t-110.5 55.5t-110 -55.5t-43 -134.5
t43 -135t110 -56zM1143 1526l-244 -318h-397l-244 318h297l145 -144l146 144h297z" />
    <glyph glyph-name="Ucaron" unicode="&#x1d3;" horiz-adv-x="1546" 
d="M907 1384h535v-837q0 -289 -174 -431.5t-496 -142.5t-495 142.5t-173 431.5v837h535v-831q0 -84 27.5 -128t105.5 -44q79 0 107 44.5t28 127.5v831zM1214 1825l-243 -318h-398l-243 318h297l145 -144l146 144h296z" />
    <glyph glyph-name="ucaron" unicode="&#x1d4;" horiz-adv-x="1431" 
d="M92 348v737h522v-620q0 -41 28.5 -70.5t68.5 -29.5t68 29.5t28 70.5v620h522v-1085h-506v106q-133 -133 -340 -133q-165 0 -278 107.5t-113 267.5zM1153 1526l-244 -318h-397l-244 318h297l146 -144l145 144h297z" />
    <glyph glyph-name="Udieresismacron" unicode="&#x1d5;" horiz-adv-x="1546" 
d="M408 1890v207h731v-207h-731zM907 1384h535v-837q0 -289 -174 -431.5t-496 -142.5t-495 142.5t-173 431.5v837h535v-831q0 -84 27.5 -128t105.5 -44q79 0 107 44.5t28 127.5v831zM348 1518v268h334v-268h-334zM864 1518v268h334v-268h-334z" />
    <glyph glyph-name="udieresismacron" unicode="&#x1d6;" horiz-adv-x="1431" 
d="M346 1632v207h731v-207h-731zM92 348v737h522v-620q0 -41 28.5 -70.5t68.5 -29.5t68 29.5t28 70.5v620h522v-1085h-506v106q-133 -133 -340 -133q-165 0 -278 107.5t-113 267.5zM287 1225v268h334v-268h-334zM803 1225v268h334v-268h-334z" />
    <glyph glyph-name="Udieresisacute" unicode="&#x1d7;" horiz-adv-x="1546" 
d="M1196 2228l-336 -317h-297l225 317h408zM907 1384h535v-837q0 -289 -174 -431.5t-496 -142.5t-495 142.5t-173 431.5v837h535v-831q0 -84 27.5 -128t105.5 -44q79 0 107 44.5t28 127.5v831zM348 1518v268h334v-268h-334zM864 1518v268h334v-268h-334z" />
    <glyph glyph-name="udieresisacute" unicode="&#x1d8;" horiz-adv-x="1431" 
d="M1137 1952l-336 -318h-297l225 318h408zM92 348v737h522v-620q0 -41 28.5 -70.5t68.5 -29.5t68 29.5t28 70.5v620h522v-1085h-506v106q-133 -133 -340 -133q-165 0 -278 107.5t-113 267.5zM287 1225v268h334v-268h-334zM803 1225v268h334v-268h-334z" />
    <glyph glyph-name="Udieresiscaron" unicode="&#x1d9;" horiz-adv-x="1546" 
d="M1214 2216l-243 -318h-398l-243 318h297l145 -143l146 143h296zM907 1384h535v-837q0 -289 -174 -431.5t-496 -142.5t-495 142.5t-173 431.5v837h535v-831q0 -84 27.5 -128t105.5 -44q79 0 107 44.5t28 127.5v831zM348 1518v268h334v-268h-334zM864 1518v268h334v-268
h-334z" />
    <glyph glyph-name="udieresiscaron" unicode="&#x1da;" horiz-adv-x="1431" 
d="M1153 1958l-244 -318h-397l-244 318h297l146 -143l145 143h297zM92 348v737h522v-620q0 -41 28.5 -70.5t68.5 -29.5t68 29.5t28 70.5v620h522v-1085h-506v106q-133 -133 -340 -133q-165 0 -278 107.5t-113 267.5zM287 1225v268h334v-268h-334zM803 1225v268h334v-268
h-334z" />
    <glyph glyph-name="Udieresisgrave" unicode="&#x1db;" horiz-adv-x="1546" 
d="M674 1911l-336 317h407l226 -317h-297zM907 1384h535v-837q0 -289 -174 -431.5t-496 -142.5t-495 142.5t-173 431.5v837h535v-831q0 -84 27.5 -128t105.5 -44q79 0 107 44.5t28 127.5v831zM348 1518v268h334v-268h-334zM864 1518v268h334v-268h-334z" />
    <glyph glyph-name="udieresisgrave" unicode="&#x1dc;" horiz-adv-x="1431" 
d="M610 1634l-336 318h408l225 -318h-297zM92 348v737h522v-620q0 -41 28.5 -70.5t68.5 -29.5t68 29.5t28 70.5v620h522v-1085h-506v106q-133 -133 -340 -133q-165 0 -278 107.5t-113 267.5zM287 1225v268h334v-268h-334zM803 1225v268h334v-268h-334z" />
    <glyph glyph-name="uni01DD" unicode="&#x1dd;" horiz-adv-x="1255" 
d="M53 664h682q-32 65 -107 90.5t-190 25.5q-133 0 -284 -51l-54 307q194 76 463 76q134 0 249.5 -36t204.5 -106t140 -183t51 -257q0 -124 -47 -230t-127.5 -176.5t-187 -110.5t-225.5 -40q-166 0 -287.5 53t-188 147.5t-89.5 218t-3 272.5zM750 420h-271q8 -64 39.5 -104
t89.5 -40q112 0 142 144z" />
    <glyph glyph-name="Adieresismacron" unicode="&#x1de;" horiz-adv-x="1552" 
d="M1094 1384l485 -1384h-535l-63 231h-410l-61 -231h-537l484 1384h637zM776 981l-117 -426h234zM412 1890v207h731v-207h-731zM352 1518v268h334v-268h-334zM868 1518v268h334v-268h-334z" />
    <glyph glyph-name="adieresismacron" unicode="&#x1df;" horiz-adv-x="1329" 
d="M639 1112q301 0 451.5 -119t150.5 -352v-641h-516v100q-137 -127 -317 -127q-160 0 -264.5 102t-104.5 247q0 172 121 261t346 89q40 0 109 -7t104 -14v11q0 100 -191 100q-184 0 -340 -60l-71 324q222 86 522 86zM731 403v37q-30 6 -76 6q-60 0 -93.5 -27t-33.5 -73
q0 -38 24 -61t66 -23q59 0 86 39t27 102zM289 1632v207h731v-207h-731zM229 1225v268h334v-268h-334zM745 1225v268h334v-268h-334z" />
    <glyph glyph-name="Adotaccentmacron" unicode="&#x1e0;" horiz-adv-x="1552" 
d="M1094 1384l485 -1384h-535l-63 231h-410l-61 -231h-537l484 1384h637zM776 981l-117 -426h234zM610 1509v269h334v-269h-334zM412 1901v206h731v-206h-731z" />
    <glyph glyph-name="adotaccentmacron" unicode="&#x1e1;" horiz-adv-x="1329" 
d="M639 1112q301 0 451.5 -119t150.5 -352v-641h-516v100q-137 -127 -317 -127q-160 0 -264.5 102t-104.5 247q0 172 121 261t346 89q40 0 109 -7t104 -14v11q0 100 -191 100q-184 0 -340 -60l-71 324q222 86 522 86zM731 403v37q-30 6 -76 6q-60 0 -93.5 -27t-33.5 -73
q0 -38 24 -61t66 -23q59 0 86 39t27 102zM485 1225v268h334v-268h-334zM287 1610v207h731v-207h-731z" />
    <glyph glyph-name="AEmacron" unicode="&#x1e2;" horiz-adv-x="2146" 
d="M1065 0l-16 223h-459l-113 -223h-540l733 1384h1390v-389h-583l8 -121h487v-360h-461l9 -127h540v-387h-995zM981 995l-223 -440h266l-31 440h-12zM797 1538v207h731v-207h-731z" />
    <glyph glyph-name="aemacron" unicode="&#x1e3;" horiz-adv-x="1972" 
d="M580 1112q288 0 426 -162q127 162 368 162q138 0 244.5 -41.5t174 -117t102 -178.5t34.5 -230q0 -37 -8 -123h-682q57 -117 297 -117q134 0 285 51l53 -307q-194 -76 -434 -76q-308 0 -455 181q-153 -181 -479 -181q-218 0 -343.5 100t-125.5 249q0 172 121 261t346 89
q40 0 109 -7t104 -14v11q0 100 -191 100q-184 0 -340 -60l-71 324q222 86 465 86zM735 403v37q-30 6 -76 6q-60 0 -93.5 -27t-33.5 -73q0 -37 24.5 -60.5t66.5 -23.5q59 0 85.5 39t26.5 102zM1217 666h270q-8 64 -39.5 103.5t-89.5 39.5q-112 0 -141 -143zM614 1247v207h732
v-207h-732z" />
    <glyph glyph-name="Gcaron" unicode="&#x1e6;" horiz-adv-x="1495" 
d="M952 768h465v-690q-243 -105 -575 -105q-169 0 -312.5 48.5t-249 138t-165.5 225.5t-60 303q0 219 104 384t287.5 252t419.5 87q154 0 261.5 -16t230.5 -49l-68 -381q-165 49 -319 49q-373 0 -373 -326q0 -79 26.5 -141.5t71 -99.5t97.5 -56.5t110 -19.5q21 0 49 4v393z
M1255 1825l-243 -318h-398l-243 318h297l145 -144l145 144h297z" />
    <glyph glyph-name="gcaron" unicode="&#x1e7;" horiz-adv-x="1437" 
d="M836 1085h501v-913q0 -315 -149.5 -455.5t-489.5 -140.5q-153 0 -263 23t-170.5 64.5t-87.5 91.5t-27 112q0 96 64 170t183 110q-158 35 -254 168t-96 308q0 134 57.5 245.5t163 177.5t238.5 66q199 0 330 -141v114zM696 750q-61 0 -100 -49.5t-39 -120.5
q0 -72 38.5 -122t100.5 -50t102 50t40 122q0 71 -40 120.5t-102 49.5zM827 -4v143q-8 -1 -21.5 -3t-48 -13t-61 -27t-48 -47.5t-21.5 -71.5q0 -51 25 -77.5t71 -26.5q48 0 76 31.5t28 91.5zM1151 1526l-244 -318h-397l-244 318h297l146 -144l145 144h297z" />
    <glyph glyph-name="Kcaron" unicode="&#x1e8;" horiz-adv-x="1536" 
d="M1100 762l461 -762h-611l-297 563v-563h-534v1384h534v-491l297 491h574zM1217 1825l-244 -318h-398l-243 318h297l145 -144l146 144h297z" />
    <glyph glyph-name="kcaron" unicode="&#x1e9;" horiz-adv-x="1400" 
d="M1415 0h-555l-235 442v-442h-523v1513h523v-778l221 350h526l-334 -442zM1186 1974l-244 -317h-397l-244 317h297l145 -143l146 143h297z" />
    <glyph glyph-name="Oogonek" unicode="&#x1ea;" horiz-adv-x="1679" 
d="M1182 -252l80 -51q-40 -58 -112.5 -93.5t-164.5 -35.5q-44 0 -84.5 9.5t-75.5 28.5t-56 52.5t-21 77.5q0 121 135 239q-14 -2 -43 -2q-233 0 -410 85.5t-276 249t-99 384.5t99 384.5t276 249t410 85.5q232 0 408.5 -85.5t275 -249t98.5 -384.5q0 -107 -22 -196.5
t-58 -156.5t-93 -125t-117 -99.5t-140 -83.5q-215 -113 -215 -240q0 -45 27.5 -64.5t64.5 -19.5q72 0 113 41zM840 371q120 0 181.5 83t61.5 238q0 156 -61.5 239t-181.5 83q-122 0 -184 -83t-62 -239q0 -155 62 -238t184 -83z" />
    <glyph glyph-name="oogonek" unicode="&#x1eb;" horiz-adv-x="1402" 
d="M1032 -252l80 -51q-40 -58 -112 -93.5t-164 -35.5q-60 0 -111.5 15.5t-89 55t-37.5 97.5q0 119 135 237h-31q-133 0 -252 39t-209 110t-143 180t-53 241t53 241t143 180t209 109.5t252 38.5t251 -39t208 -110t142.5 -180t52.5 -240q0 -92 -26.5 -173t-73.5 -142.5
t-102 -107.5t-122 -83q-205 -113 -205 -246q0 -45 28 -64.5t65 -19.5q71 0 112 41zM700 352q67 0 110.5 56t43.5 135t-43.5 134.5t-110.5 55.5t-110 -55.5t-43 -134.5t43 -135t110 -56z" />
    <glyph glyph-name="Oogonekmacron" unicode="&#x1ec;" horiz-adv-x="1679" 
d="M1182 -252l80 -51q-40 -58 -112.5 -93.5t-164.5 -35.5q-44 0 -84.5 9.5t-75.5 28.5t-56 52.5t-21 77.5q0 121 135 239q-14 -2 -43 -2q-233 0 -410 85.5t-276 249t-99 384.5t99 384.5t276 249t410 85.5q232 0 408.5 -85.5t275 -249t98.5 -384.5q0 -107 -22 -196.5
t-58 -156.5t-93 -125t-117 -99.5t-140 -83.5q-215 -113 -215 -240q0 -45 27.5 -64.5t64.5 -19.5q72 0 113 41zM840 371q120 0 181.5 83t61.5 238q0 156 -61.5 239t-181.5 83q-122 0 -184 -83t-62 -239q0 -155 62 -238t184 -83zM475 1538v207h731v-207h-731z" />
    <glyph glyph-name="oogonekmacron" unicode="&#x1ed;" horiz-adv-x="1402" 
d="M1032 -252l80 -51q-40 -58 -112 -93.5t-164 -35.5q-60 0 -111.5 15.5t-89 55t-37.5 97.5q0 119 135 237h-31q-133 0 -252 39t-209 110t-143 180t-53 241t53 241t143 180t209 109.5t252 38.5t251 -39t208 -110t142.5 -180t52.5 -240q0 -92 -26.5 -173t-73.5 -142.5
t-102 -107.5t-122 -83q-205 -113 -205 -246q0 -45 28 -64.5t65 -19.5q71 0 112 41zM700 352q67 0 110.5 56t43.5 135t-43.5 134.5t-110.5 55.5t-110 -55.5t-43 -134.5t43 -135t110 -56zM336 1247v207h731v-207h-731z" />
    <glyph glyph-name="Gacute" unicode="&#x1f4;" horiz-adv-x="1495" 
d="M952 768h465v-690q-243 -105 -575 -105q-169 0 -312.5 48.5t-249 138t-165.5 225.5t-60 303q0 219 104 384t287.5 252t419.5 87q154 0 261.5 -16t230.5 -49l-68 -381q-165 49 -319 49q-373 0 -373 -326q0 -79 26.5 -141.5t71 -99.5t97.5 -56.5t110 -19.5q21 0 49 4v393z
M1225 1825l-336 -318h-297l225 318h408z" />
    <glyph glyph-name="gacute" unicode="&#x1f5;" horiz-adv-x="1437" 
d="M836 1085h501v-913q0 -315 -149.5 -455.5t-489.5 -140.5q-153 0 -263 23t-170.5 64.5t-87.5 91.5t-27 112q0 96 64 170t183 110q-158 35 -254 168t-96 308q0 134 57.5 245.5t163 177.5t238.5 66q199 0 330 -141v114zM696 750q-61 0 -100 -49.5t-39 -120.5
q0 -72 38.5 -122t100.5 -50t102 50t40 122q0 71 -40 120.5t-102 49.5zM827 -4v143q-8 -1 -21.5 -3t-48 -13t-61 -27t-48 -47.5t-21.5 -71.5q0 -51 25 -77.5t71 -26.5q48 0 76 31.5t28 91.5zM1100 1526l-336 -318h-297l225 318h408z" />
    <glyph glyph-name="Ngrave" unicode="&#x1f8;" horiz-adv-x="1667" 
d="M1059 1384h489v-1384h-506l-434 711v-711h-489v1384h532l408 -706v706zM768 1507l-336 318h408l225 -318h-297z" />
    <glyph glyph-name="ngrave" unicode="&#x1f9;" horiz-adv-x="1431" 
d="M1339 737v-737h-522v621q0 41 -28 70.5t-68 29.5t-68 -29.5t-28 -70.5v-621h-523v1085h506v-106q133 133 340 133q165 0 278 -107.5t113 -267.5zM635 1208l-336 318h408l225 -318h-297z" />
    <glyph glyph-name="Aringacute" unicode="&#x1fa;" horiz-adv-x="1552" 
d="M1184 2329l-336 -318h-297l225 318h408zM1094 1384l485 -1384h-535l-63 231h-410l-61 -231h-537l484 1384h637zM776 981l-117 -426h234zM776 1456q-105 0 -178.5 64.5t-73.5 167.5t73.5 167t178.5 64t178.5 -64t73.5 -167t-73.5 -167.5t-178.5 -64.5zM776 1788
q-45 0 -75.5 -28t-30.5 -72t30.5 -72.5t75.5 -28.5t76 28.5t31 72.5t-31 72t-76 28z" />
    <glyph glyph-name="aringacute" unicode="&#x1fb;" horiz-adv-x="1329" 
d="M1055 2087l-336 -318h-297l225 318h408zM639 1112q301 0 451.5 -119t150.5 -352v-641h-516v100q-137 -127 -317 -127q-160 0 -264.5 102t-104.5 247q0 172 121 261t346 89q40 0 109 -7t104 -14v11q0 100 -191 100q-184 0 -340 -60l-71 324q222 86 522 86zM731 403v37
q-30 6 -76 6q-60 0 -93.5 -27t-33.5 -73q0 -38 24 -61t66 -23q59 0 86 39t27 102zM643 1200q-105 0 -178.5 64.5t-73.5 167.5t73.5 167t178.5 64t178.5 -64t73.5 -167t-73.5 -167.5t-178.5 -64.5zM643 1532q-45 0 -75.5 -28t-30.5 -72t30.5 -72.5t75.5 -28.5t76 28.5
t31 72.5t-31 72t-76 28z" />
    <glyph glyph-name="AEacute" unicode="&#x1fc;" horiz-adv-x="2146" 
d="M1065 0l-16 223h-459l-113 -223h-540l733 1384h1390v-389h-583l8 -121h487v-360h-461l9 -127h540v-387h-995zM981 995l-223 -440h266l-31 440h-12zM1497 1825l-336 -318h-297l226 318h407z" />
    <glyph glyph-name="aeacute" unicode="&#x1fd;" horiz-adv-x="1972" 
d="M580 1112q288 0 426 -162q127 162 368 162q138 0 244.5 -41.5t174 -117t102 -178.5t34.5 -230q0 -37 -8 -123h-682q57 -117 297 -117q134 0 285 51l53 -307q-194 -76 -434 -76q-308 0 -455 181q-153 -181 -479 -181q-218 0 -343.5 100t-125.5 249q0 172 121 261t346 89
q40 0 109 -7t104 -14v11q0 100 -191 100q-184 0 -340 -60l-71 324q222 86 465 86zM735 403v37q-30 6 -76 6q-60 0 -93.5 -27t-33.5 -73q0 -37 24.5 -60.5t66.5 -23.5q59 0 85.5 39t26.5 102zM1217 666h270q-8 64 -39.5 103.5t-89.5 39.5q-112 0 -141 -143zM1405 1526
l-336 -318h-297l225 318h408z" />
    <glyph glyph-name="Oslashacute" unicode="&#x1fe;" horiz-adv-x="1677" 
d="M840 1411q220 0 395 -82l117 160l96 -72l-109 -145q136 -94 209.5 -241.5t73.5 -338.5q0 -221 -98.5 -384.5t-275 -249t-408.5 -85.5q-220 0 -400 80l-116 -157l-97 69l109 148q-135 94 -208 241.5t-73 337.5q0 221 99 384.5t276 249t410 85.5zM840 371q120 0 181.5 83
t61.5 238q0 109 -32 187l-349 -471q55 -37 138 -37zM594 692q0 -110 31 -186l348 471q-52 37 -133 37q-122 0 -184 -83t-62 -239zM1243 1825l-336 -318h-297l226 318h407z" />
    <glyph glyph-name="oslashacute" unicode="&#x1ff;" horiz-adv-x="1400" 
d="M1157 1149l70 -59l-92 -109q104 -74 162.5 -185.5t58.5 -252.5q0 -131 -52.5 -240t-142.5 -180.5t-208 -110.5t-251 -39q-200 0 -354 80l-102 -121l-70 60l92 108q-106 76 -164.5 188.5t-58.5 254.5q0 132 53 241t143 180t209 109.5t252 38.5q194 0 355 -82zM547 543
q0 -55 16 -94l225 264q-38 35 -88 35q-70 0 -111.5 -61.5t-41.5 -143.5zM700 338q70 0 112 61.5t42 143.5q0 49 -14 90l-226 -264q36 -31 86 -31zM1100 1526l-336 -318h-297l225 318h408z" />
    <glyph glyph-name="Adblgrave" unicode="&#x200;" horiz-adv-x="1552" 
d="M938 1507l-336 318h408l225 -318h-297zM403 1507l-335 318h407l225 -318h-297zM1094 1384l485 -1384h-535l-63 231h-410l-61 -231h-537l484 1384h637zM776 981l-117 -426h234z" />
    <glyph glyph-name="adblgrave" unicode="&#x201;" horiz-adv-x="1329" 
d="M831 1208l-335 318h407l225 -318h-297zM297 1208l-336 318h408l225 -318h-297zM639 1112q301 0 451.5 -119t150.5 -352v-641h-516v100q-137 -127 -317 -127q-160 0 -264.5 102t-104.5 247q0 172 121 261t346 89q40 0 109 -7t104 -14v11q0 100 -191 100q-184 0 -340 -60
l-71 324q222 86 522 86zM731 403v37q-30 6 -76 6q-60 0 -93.5 -27t-33.5 -73q0 -38 24 -61t66 -23q59 0 86 39t27 102z" />
    <glyph glyph-name="Ainvertedbreve" unicode="&#x202;" horiz-adv-x="1552" 
d="M1094 1384l485 -1384h-535l-63 231h-410l-61 -231h-537l484 1384h637zM776 981l-117 -426h234zM1159 1507h-186q-14 61 -69 92t-128 31t-127.5 -31t-68.5 -92h-187q13 155 115 235.5t268 80.5t268 -80.5t115 -235.5z" />
    <glyph glyph-name="ainvertedbreve" unicode="&#x203;" horiz-adv-x="1329" 
d="M639 1112q301 0 451.5 -119t150.5 -352v-641h-516v100q-137 -127 -317 -127q-160 0 -264.5 102t-104.5 247q0 172 121 261t346 89q40 0 109 -7t104 -14v11q0 100 -191 100q-184 0 -340 -60l-71 324q222 86 522 86zM731 403v37q-30 6 -76 6q-60 0 -93.5 -27t-33.5 -73
q0 -38 24 -61t66 -23q59 0 86 39t27 102zM1051 1200h-187q-14 61 -68.5 92t-127.5 31t-128 -31t-69 -92h-186q13 155 115 235.5t268 80.5t268 -80.5t115 -235.5z" />
    <glyph glyph-name="Edblgrave" unicode="&#x204;" horiz-adv-x="1347" 
d="M897 1507l-336 318h408l225 -318h-297zM362 1507l-335 318h407l225 -318h-297zM1262 995h-623v-121h545v-360h-545v-127h623v-387h-1143v1384h1143v-389z" />
    <glyph glyph-name="edblgrave" unicode="&#x205;" horiz-adv-x="1253" 
d="M823 1208l-336 318h408l225 -318h-297zM289 1208l-336 318h407l226 -318h-297zM1202 422q20 149 -3 272.5t-89.5 218t-187.5 147t-287 52.5q-119 0 -226 -40t-187 -110.5t-127.5 -176.5t-47.5 -230q0 -144 51 -257t140 -183t204.5 -106t249.5 -36q269 0 463 76l-53 307
q-151 -51 -285 -51q-240 0 -297 117h682zM776 666h-270q29 143 141 143q58 0 89.5 -39.5t39.5 -103.5zM776 666h-270h270z" />
    <glyph glyph-name="Einvertedbreve" unicode="&#x206;" horiz-adv-x="1347" 
d="M1262 995h-623v-121h545v-360h-545v-127h623v-387h-1143v1384h1143v-389zM1079 1507h-186q-14 61 -69 92t-128 31t-127.5 -31t-68.5 -92h-187q13 155 115 235.5t268 80.5t268 -80.5t115 -235.5z" />
    <glyph glyph-name="einvertedbreve" unicode="&#x207;" horiz-adv-x="1253" 
d="M1202 422q20 149 -3 272.5t-89.5 218t-187.5 147t-287 52.5q-119 0 -226 -40t-187 -110.5t-127.5 -176.5t-47.5 -230q0 -144 51 -257t140 -183t204.5 -106t249.5 -36q269 0 463 76l-53 307q-151 -51 -285 -51q-240 0 -297 117h682zM776 666h-270q29 143 141 143
q58 0 89.5 -39.5t39.5 -103.5zM776 666h-270h270zM1008 1200h-187q-14 61 -68.5 92t-127.5 31t-128 -31t-69 -92h-186q13 155 115 235.5t268 80.5t268 -80.5t115 -235.5z" />
    <glyph glyph-name="Idblgrave" unicode="&#x208;" horiz-adv-x="772" 
d="M575 1507l-335 318h407l225 -318h-297zM41 1507l-336 318h408l225 -318h-297zM653 1384v-1384h-534v1384h534z" />
    <glyph glyph-name="idblgrave" unicode="&#x209;" horiz-adv-x="727" 
d="M569 1208l-336 318h408l225 -318h-297zM35 1208l-336 318h407l226 -318h-297zM102 0v1085h523v-1085h-523z" />
    <glyph glyph-name="Iinvertedbreve" unicode="&#x20a;" horiz-adv-x="772" 
d="M653 1384v-1384h-534v1384h534zM768 1507h-186q-14 61 -69 92t-128 31t-128 -31t-69 -92h-186q13 155 115 235.5t268 80.5t268 -80.5t115 -235.5z" />
    <glyph glyph-name="iinvertedbreve" unicode="&#x20b;" horiz-adv-x="727" 
d="M102 0v1085h523v-1085h-523zM745 1200h-186q-14 61 -69 92t-128 31t-127.5 -31t-68.5 -92h-186q13 155 115 235.5t267 80.5q166 0 268 -80.5t115 -235.5z" />
    <glyph glyph-name="Odblgrave" unicode="&#x20c;" horiz-adv-x="1677" 
d="M1014 1507l-336 318h407l226 -318h-297zM479 1507l-336 318h408l225 -318h-297zM840 1411q232 0 408.5 -85.5t275 -249t98.5 -384.5t-98.5 -384.5t-275 -249t-408.5 -85.5q-233 0 -410 85.5t-276 249t-99 384.5t99 384.5t276 249t410 85.5zM840 371q120 0 181.5 83
t61.5 238q0 156 -61.5 239t-181.5 83q-122 0 -184 -83t-62 -239q0 -155 62 -238t184 -83z" />
    <glyph glyph-name="odblgrave" unicode="&#x20d;" horiz-adv-x="1400" 
d="M877 1208l-336 318h407l226 -318h-297zM342 1208l-336 318h408l225 -318h-297zM702 1112q133 0 251 -39t208 -110t142.5 -180t52.5 -240t-52.5 -240t-142.5 -180.5t-208 -110.5t-251 -39t-252 39t-209 110t-143 180t-53 241t53 241t143 180t209 109.5t252 38.5zM700 352
q67 0 110.5 56t43.5 135t-43.5 134.5t-110.5 55.5t-110 -55.5t-43 -134.5t43 -135t110 -56z" />
    <glyph glyph-name="Oinvertedbreve" unicode="&#x20e;" horiz-adv-x="1677" 
d="M840 1411q232 0 408.5 -85.5t275 -249t98.5 -384.5t-98.5 -384.5t-275 -249t-408.5 -85.5q-233 0 -410 85.5t-276 249t-99 384.5t99 384.5t276 249t410 85.5zM840 371q120 0 181.5 83t61.5 238q0 156 -61.5 239t-181.5 83q-122 0 -184 -83t-62 -239q0 -155 62 -238
t184 -83zM1221 1507h-187q-14 61 -68.5 92t-127.5 31t-128 -31t-69 -92h-186q13 155 115 235.5t268 80.5t268 -80.5t115 -235.5z" />
    <glyph glyph-name="oinvertedbreve" unicode="&#x20f;" horiz-adv-x="1400" 
d="M702 1112q133 0 251 -39t208 -110t142.5 -180t52.5 -240t-52.5 -240t-142.5 -180.5t-208 -110.5t-251 -39t-252 39t-209 110t-143 180t-53 241t53 241t143 180t209 109.5t252 38.5zM700 352q67 0 110.5 56t43.5 135t-43.5 134.5t-110.5 55.5t-110 -55.5t-43 -134.5
t43 -135t110 -56zM1083 1200h-186q-14 61 -69 92t-128 31t-127.5 -31t-68.5 -92h-187q13 155 115 235.5t268 80.5t268 -80.5t115 -235.5z" />
    <glyph glyph-name="Rdblgrave" unicode="&#x210;" horiz-adv-x="1519" 
d="M922 1507l-336 318h407l226 -318h-297zM387 1507l-336 318h408l225 -318h-297zM1186 569q216 -42 287 -569h-531q-21 108 -40 182t-43 122t-41.5 74t-52 38t-57.5 14t-73 2h-2v-432h-514v1370q96 16 248.5 28.5t283.5 12.5q127 0 235.5 -12.5t213 -46t178 -86.5
t118 -138.5t44.5 -197.5q0 -246 -254 -361zM678 756q39 0 76 5.5t78 19.5t65.5 44.5t24.5 73.5q0 41 -22.5 70t-59.5 43t-73 20t-75 6q-29 0 -61 -4v-276q14 -2 47 -2z" />
    <glyph glyph-name="rdblgrave" unicode="&#x211;" horiz-adv-x="976" 
d="M729 1208l-336 318h408l225 -318h-297zM195 1208l-336 318h407l226 -318h-297zM946 696q-153 20 -237 -55.5t-84 -234.5v-406h-523v1085h488v-192q10 23 15 33.5t18.5 35t24 38t29 35t36 32.5t43.5 24t53 17t62.5 3.5t74.5 -9.5v-406z" />
    <glyph glyph-name="Rinvertedbreve" unicode="&#x212;" horiz-adv-x="1519" 
d="M1186 569q216 -42 287 -569h-531q-21 108 -40 182t-43 122t-41.5 74t-52 38t-57.5 14t-73 2h-2v-432h-514v1370q96 16 248.5 28.5t283.5 12.5q127 0 235.5 -12.5t213 -46t178 -86.5t118 -138.5t44.5 -197.5q0 -246 -254 -361zM678 756q39 0 76 5.5t78 19.5t65.5 44.5
t24.5 73.5q0 41 -22.5 70t-59.5 43t-73 20t-75 6q-29 0 -61 -4v-276q14 -2 47 -2zM1118 1507h-186q-14 61 -69 92t-128 31t-127.5 -31t-68.5 -92h-187q13 155 115 235.5t268 80.5t268 -80.5t115 -235.5z" />
    <glyph glyph-name="rinvertedbreve" unicode="&#x213;" horiz-adv-x="976" 
d="M946 696q-153 20 -237 -55.5t-84 -234.5v-406h-523v1085h488v-192q10 23 15 33.5t18.5 35t24 38t29 35t36 32.5t43.5 24t53 17t62.5 3.5t74.5 -9.5v-406zM913 1200h-186q-14 61 -69 92t-128 31t-127.5 -31t-68.5 -92h-187q13 155 115 235.5t268 80.5t268 -80.5
t115 -235.5z" />
    <glyph glyph-name="Udblgrave" unicode="&#x214;" horiz-adv-x="1546" 
d="M954 1507l-336 318h408l225 -318h-297zM420 1507l-336 318h408l225 -318h-297zM907 1384h535v-837q0 -289 -174 -431.5t-496 -142.5t-495 142.5t-173 431.5v837h535v-831q0 -84 27.5 -128t105.5 -44q79 0 107 44.5t28 127.5v831z" />
    <glyph glyph-name="udblgrave" unicode="&#x215;" horiz-adv-x="1431" 
d="M895 1208l-336 318h408l225 -318h-297zM360 1208l-335 318h407l225 -318h-297zM92 348v737h522v-620q0 -41 28.5 -70.5t68.5 -29.5t68 29.5t28 70.5v620h522v-1085h-506v106q-133 -133 -340 -133q-165 0 -278 107.5t-113 267.5z" />
    <glyph glyph-name="Uinvertedbreve" unicode="&#x216;" horiz-adv-x="1546" 
d="M907 1384h535v-837q0 -289 -174 -431.5t-496 -142.5t-495 142.5t-173 431.5v837h535v-831q0 -84 27.5 -128t105.5 -44q79 0 107 44.5t28 127.5v831zM1155 1507h-186q-14 61 -69 92t-128 31t-128 -31t-69 -92h-186q13 155 115 235.5t268 80.5t268 -80.5t115 -235.5z" />
    <glyph glyph-name="uinvertedbreve" unicode="&#x217;" horiz-adv-x="1431" 
d="M92 348v737h522v-620q0 -41 28.5 -70.5t68.5 -29.5t68 29.5t28 70.5v620h522v-1085h-506v106q-133 -133 -340 -133q-165 0 -278 107.5t-113 267.5zM1094 1200h-187q-14 61 -68.5 92t-127.5 31t-128 -31t-69 -92h-186q13 155 115 235.5t268 80.5t268 -80.5t115 -235.5z
" />
    <glyph glyph-name="Scommaaccent" unicode="&#x218;" horiz-adv-x="1300" 
d="M586 989q0 -16 22.5 -28t61 -22t88 -21t104.5 -27.5t109.5 -38.5t104 -56.5t88 -78.5t61 -109t22.5 -143q0 -248 -159.5 -370t-442.5 -122q-306 0 -575 105l84 375q116 -56 218.5 -84.5t237.5 -28.5q115 0 115 51q0 18 -28 31.5t-74 22.5t-105 24.5t-120 34.5t-119.5 55
t-104.5 83t-73.5 122.5t-26.5 169.5q1 152 75.5 260.5t206 162.5t308.5 54q256 0 530 -80l-84 -373q-75 34 -185.5 58t-224.5 24q-57 0 -85.5 -11t-28.5 -40zM475 -150h381v-294l-182 -269h-189l148 240h-158v323z" />
    <glyph glyph-name="scommaaccent" unicode="&#x219;" horiz-adv-x="1120" 
d="M588 756q0 -15 26.5 -25t68.5 -18.5t93.5 -20.5t102.5 -37t93 -60.5t68.5 -98t26.5 -144.5q0 -188 -139 -283.5t-387 -95.5q-262 0 -494 125l47 312q73 -49 171.5 -80t197.5 -31q86 0 86 41q0 13 -26 22t-67 17t-90.5 20t-99.5 36t-91 59t-67 96t-26 141
q0 188 142.5 284.5t391.5 96.5q210 0 418 -88l-45 -297q-58 26 -144.5 46t-148.5 20q-50 0 -79 -7t-29 -30zM385 -150h381v-294l-182 -269h-189l148 240h-158v323z" />
    <glyph glyph-name="uni021A" unicode="&#x21a;" horiz-adv-x="1361" 
d="M948 989v-989h-534v989h-394v395h1321v-395h-393zM496 -150h381v-294l-183 -269h-188l147 240h-157v323z" />
    <glyph glyph-name="uni021B" unicode="&#x21b;" horiz-adv-x="960" 
d="M55 727v358h113v252h522v-252h189v-358h-189v-289q0 -60 37 -88t90 -28q23 0 55 4l41 -289q-63 -28 -158 -46t-192 -18q-395 0 -395 338v416h-113zM311 -150h381v-294l-182 -269h-188l147 240h-158v323z" />
    <glyph glyph-name="circumflex" unicode="&#x2c6;" horiz-adv-x="1097" 
d="M743 1526l244 -318h-297l-145 144l-146 -144h-297l244 318h397z" />
    <glyph glyph-name="caron" unicode="&#x2c7;" horiz-adv-x="1083" 
d="M987 1526l-244 -318h-397l-244 318h297l146 -144l145 144h297z" />
    <glyph glyph-name="breve" unicode="&#x2d8;" horiz-adv-x="985" 
d="M688 1516h186q-13 -155 -115 -235.5t-267 -80.5q-166 0 -268 80.5t-115 235.5h186q14 -61 69 -92t128 -31t127.5 31t68.5 92z" />
    <glyph glyph-name="dotaccent" unicode="&#x2d9;" horiz-adv-x="718" 
d="M188 1225v268h334v-268h-334z" />
    <glyph glyph-name="ring" unicode="&#x2da;" horiz-adv-x="770" 
d="M383 1200q-105 0 -178.5 64.5t-73.5 167.5t73.5 167t178.5 64t178.5 -64t73.5 -167t-73.5 -167.5t-178.5 -64.5zM383 1532q-45 0 -76 -28t-31 -72t31 -72.5t76 -28.5t75.5 28.5t30.5 72.5t-30.5 72t-75.5 28z" />
    <glyph glyph-name="ogonek" unicode="&#x2db;" horiz-adv-x="700" 
d="M545 -252l80 -51q-40 -58 -112.5 -93.5t-164.5 -35.5q-44 0 -84.5 9.5t-75.5 28.5t-56 52.5t-21 77.5q0 47 22 95.5t57 86t66 64t59 43.5h187q-76 -57 -119 -119t-43 -115q0 -45 27.5 -64.5t64.5 -19.5q72 0 113 41z" />
    <glyph glyph-name="tilde" unicode="&#x2dc;" horiz-adv-x="1087" 
d="M137 1204q0 50 17.5 104.5t49.5 102.5t82 78.5t109 30.5q68 0 126.5 -26t102 -51.5t74.5 -25.5t60 33t41 80h170q-1 -76 -34 -152t-94.5 -128t-133.5 -52q-53 0 -99.5 15.5t-75 34.5t-64.5 34.5t-69 15.5q-32 0 -58.5 -28t-37.5 -66h-166z" />
    <glyph glyph-name="hungarumlaut" unicode="&#x2dd;" horiz-adv-x="1366" 
d="M743 1526l-335 -318h-297l225 318h407zM1278 1526l-336 -318h-297l225 318h408z" />
    <glyph glyph-name="doublegrave" unicode="&#x30f;" horiz-adv-x="1386" 
d="M981 1208l-336 318h408l225 -318h-297zM446 1208l-335 318h407l225 -318h-297z" />
    <glyph glyph-name="invertedbreve" unicode="&#x311;" horiz-adv-x="1005" 
d="M874 1200h-186q-14 61 -68.5 92t-127.5 31t-128 -31t-69 -92h-186q13 155 115 235.5t268 80.5q165 0 267 -80.5t115 -235.5z" />
    <glyph glyph-name="pi" unicode="&#x3c0;" horiz-adv-x="1558" 
d="M1495 315l49 -211q-142 -120 -352 -120q-78 0 -136.5 24.5t-93 68.5t-51 99t-16.5 121v481h-225v-778h-340v778h-17q-143 0 -252 -61l-69 278q162 90 346 90h1104v-307h-207v-444q0 -82 102 -82q28 0 73 14t85 49z" />
    <glyph glyph-name="Aringbelow" unicode="&#x1e00;" horiz-adv-x="1552" 
d="M1094 1384l485 -1384h-535l-63 231h-410l-61 -231h-537l484 1384h637zM776 981l-117 -426h234zM776 -580q-105 0 -178.5 64.5t-73.5 167.5t73.5 167t178.5 64t178.5 -64t73.5 -167t-73.5 -167.5t-178.5 -64.5zM776 -248q-45 0 -75.5 -28t-30.5 -72t30.5 -72.5t75.5 -28.5
t76 28.5t31 72.5t-31 72t-76 28z" />
    <glyph glyph-name="aringbelow" unicode="&#x1e01;" horiz-adv-x="1329" 
d="M639 1112q301 0 451.5 -119t150.5 -352v-641h-516v100q-137 -127 -317 -127q-160 0 -264.5 102t-104.5 247q0 172 121 261t346 89q40 0 109 -7t104 -14v11q0 100 -191 100q-184 0 -340 -60l-71 324q222 86 522 86zM731 403v37q-30 6 -76 6q-60 0 -93.5 -27t-33.5 -73
q0 -38 24 -61t66 -23q59 0 86 39t27 102zM655 -580q-105 0 -178.5 64.5t-73.5 167.5t73.5 167t178.5 64t178.5 -64t73.5 -167t-73.5 -167.5t-178.5 -64.5zM655 -248q-45 0 -75.5 -28t-30.5 -72t30.5 -72.5t75.5 -28.5t76 28.5t31 72.5t-31 72t-76 28z" />
    <glyph glyph-name="Bdotaccent" unicode="&#x1e02;" horiz-adv-x="1466" 
d="M1425 387q0 -83 -29.5 -149t-86.5 -110.5t-129.5 -75.5t-168.5 -48t-192.5 -24t-212.5 -7q-249 0 -487 29v1374q278 35 481 35q95 0 180.5 -7.5t174 -25t158.5 -49t126 -76t86.5 -110.5t30.5 -148q0 -106 -52 -179t-135 -114q29 -6 61.5 -20t67.5 -41t63 -61.5t46 -85
t18 -107.5zM627 1069v-227q18 -2 75 -2q46 0 83 8.5t66.5 37t29.5 75.5q0 42 -28.5 68.5t-64.5 35t-79 8.5q-42 0 -82 -4zM719 324q35 0 68 6t65.5 19t52 38.5t19.5 61.5q0 126 -211 126q-46 0 -86 -4v-245q14 -2 92 -2zM510 1524v268h334v-268h-334z" />
    <glyph glyph-name="bdotaccent" unicode="&#x1e03;" horiz-adv-x="1441" 
d="M934 1112q133 0 238 -76.5t162 -205.5t57 -285t-57 -286.5t-162 -208t-238 -77.5q-98 0 -183 44t-147 122v-139h-502v1513h523v-538q127 137 309 137zM733 362q66 0 109 53.5t43 129.5t-43 129t-109 53t-108.5 -52.5t-42.5 -129.5t42.5 -130t108.5 -53zM731 1571v268h334
v-268h-334z" />
    <glyph glyph-name="Bdotbelow" unicode="&#x1e04;" horiz-adv-x="1466" 
d="M551 -418v268h334v-268h-334zM1425 387q0 -83 -29.5 -149t-86.5 -110.5t-129.5 -75.5t-168.5 -48t-192.5 -24t-212.5 -7q-249 0 -487 29v1374q278 35 481 35q95 0 180.5 -7.5t174 -25t158.5 -49t126 -76t86.5 -110.5t30.5 -148q0 -106 -52 -179t-135 -114q29 -6 61.5 -20
t67.5 -41t63 -61.5t46 -85t18 -107.5zM627 1069v-227q18 -2 75 -2q46 0 83 8.5t66.5 37t29.5 75.5q0 42 -28.5 68.5t-64.5 35t-79 8.5q-42 0 -82 -4zM719 324q35 0 68 6t65.5 19t52 38.5t19.5 61.5q0 126 -211 126q-46 0 -86 -4v-245q14 -2 92 -2z" />
    <glyph glyph-name="bdotbelow" unicode="&#x1e05;" horiz-adv-x="1441" 
d="M561 -418v268h334v-268h-334zM934 1112q133 0 238 -76.5t162 -205.5t57 -285t-57 -286.5t-162 -208t-238 -77.5q-98 0 -183 44t-147 122v-139h-502v1513h523v-538q127 137 309 137zM733 362q66 0 109 53.5t43 129.5t-43 129t-109 53t-108.5 -52.5t-42.5 -129.5t42.5 -130
t108.5 -53z" />
    <glyph glyph-name="Blinebelow" unicode="&#x1e06;" horiz-adv-x="1466" 
d="M369 -356v206h731v-206h-731zM1425 387q0 -83 -29.5 -149t-86.5 -110.5t-129.5 -75.5t-168.5 -48t-192.5 -24t-212.5 -7q-249 0 -487 29v1374q278 35 481 35q95 0 180.5 -7.5t174 -25t158.5 -49t126 -76t86.5 -110.5t30.5 -148q0 -106 -52 -179t-135 -114q29 -6 61.5 -20
t67.5 -41t63 -61.5t46 -85t18 -107.5zM627 1069v-227q18 -2 75 -2q46 0 83 8.5t66.5 37t29.5 75.5q0 42 -28.5 68.5t-64.5 35t-79 8.5q-42 0 -82 -4zM719 324q35 0 68 6t65.5 19t52 38.5t19.5 61.5q0 126 -211 126q-46 0 -86 -4v-245q14 -2 92 -2z" />
    <glyph glyph-name="blinebelow" unicode="&#x1e07;" horiz-adv-x="1441" 
d="M338 -356v206h731v-206h-731zM934 1112q133 0 238 -76.5t162 -205.5t57 -285t-57 -286.5t-162 -208t-238 -77.5q-98 0 -183 44t-147 122v-139h-502v1513h523v-538q127 137 309 137zM733 362q66 0 109 53.5t43 129.5t-43 129t-109 53t-108.5 -52.5t-42.5 -129.5t42.5 -130
t108.5 -53z" />
    <glyph glyph-name="Ccedillaacute" unicode="&#x1e08;" horiz-adv-x="1361" 
d="M461 -424l53 119q250 -53 250 53q0 62 -176 72l94 164q-288 37 -456.5 224.5t-168.5 483.5q0 220 95.5 383.5t267.5 249.5t399 86q244 0 502 -86l-102 -373q-122 52 -267 52q-168 0 -260 -82t-92 -230t92 -229.5t260 -81.5q147 0 267 51l102 -373q-250 -83 -498 -86
l-59 -92q101 -3 170.5 -51t69.5 -121q0 -81 -66 -133.5t-190 -52.5q-152 0 -287 53zM1200 1825l-336 -318h-297l226 318h407z" />
    <glyph glyph-name="ccedillaacute" unicode="&#x1e09;" horiz-adv-x="1103" 
d="M317 -424l54 119q250 -53 250 53q0 62 -177 72l95 162q-228 32 -359 183t-131 378q0 254 165 411.5t443 157.5q190 0 402 -74l-68 -336q-105 43 -209 43q-62 0 -107.5 -17.5t-69 -47.5t-34 -62t-10.5 -69q0 -36 10.5 -68.5t34 -63.5t69 -49t107.5 -18q113 0 209 45
l68 -350q-195 -67 -379 -72l-59 -92q101 -3 170 -51t69 -121q0 -81 -66 -133.5t-190 -52.5q-152 0 -287 53zM1014 1526l-336 -318h-297l225 318h408z" />
    <glyph glyph-name="Ddotaccent" unicode="&#x1e0a;" horiz-adv-x="1601" 
d="M651 1411q265 0 466 -83.5t315 -249t114 -394.5q0 -127 -33.5 -232t-88.5 -177t-134.5 -127.5t-162.5 -88t-182 -52.5t-183.5 -27t-175.5 -7q-189 0 -467 29v1374q231 35 532 35zM651 367q16 -2 62 -2q149 0 222 93.5t73 250.5q0 154 -76 238.5t-215 84.5q-50 0 -66 -2
v-663zM549 1524v268h334v-268h-334z" />
    <glyph glyph-name="ddotaccent" unicode="&#x1e0b;" horiz-adv-x="1441" 
d="M526 1112q171 0 291 -133v534h522v-1513h-501v139q-62 -78 -147 -122t-183 -44q-133 0 -238 77.5t-162 208t-57 286.5t59.5 285t169 205.5t246.5 76.5zM709 362q66 0 108.5 53t42.5 130t-42.5 129.5t-108.5 52.5t-109 -53t-43 -129t43 -129.5t109 -53.5zM369 1571v268
h333v-268h-333z" />
    <glyph glyph-name="Ddotbelow" unicode="&#x1e0c;" horiz-adv-x="1601" 
d="M569 -418v268h334v-268h-334zM651 1411q265 0 466 -83.5t315 -249t114 -394.5q0 -127 -33.5 -232t-88.5 -177t-134.5 -127.5t-162.5 -88t-182 -52.5t-183.5 -27t-175.5 -7q-189 0 -467 29v1374q231 35 532 35zM651 367q16 -2 62 -2q149 0 222 93.5t73 250.5
q0 154 -76 238.5t-215 84.5q-50 0 -66 -2v-663z" />
    <glyph glyph-name="ddotbelow" unicode="&#x1e0d;" horiz-adv-x="1441" 
d="M553 -418v268h334v-268h-334zM526 1112q171 0 291 -133v534h522v-1513h-501v139q-62 -78 -147 -122t-183 -44q-133 0 -238 77.5t-162 208t-57 286.5t59.5 285t169 205.5t246.5 76.5zM709 362q66 0 108.5 53t42.5 130t-42.5 129.5t-108.5 52.5t-109 -53t-43 -129
t43 -129.5t109 -53.5z" />
    <glyph glyph-name="Dlinebelow" unicode="&#x1e0e;" horiz-adv-x="1601" 
d="M385 -356v206h731v-206h-731zM651 1411q265 0 466 -83.5t315 -249t114 -394.5q0 -127 -33.5 -232t-88.5 -177t-134.5 -127.5t-162.5 -88t-182 -52.5t-183.5 -27t-175.5 -7q-189 0 -467 29v1374q231 35 532 35zM651 367q16 -2 62 -2q149 0 222 93.5t73 250.5
q0 154 -76 238.5t-215 84.5q-50 0 -66 -2v-663z" />
    <glyph glyph-name="dlinebelow" unicode="&#x1e0f;" horiz-adv-x="1441" 
d="M354 -356v206h731v-206h-731zM526 1112q171 0 291 -133v534h522v-1513h-501v139q-62 -78 -147 -122t-183 -44q-133 0 -238 77.5t-162 208t-57 286.5t59.5 285t169 205.5t246.5 76.5zM709 362q66 0 108.5 53t42.5 130t-42.5 129.5t-108.5 52.5t-109 -53t-43 -129
t43 -129.5t109 -53.5z" />
    <glyph glyph-name="Dcedilla" unicode="&#x1e10;" horiz-adv-x="1601" 
d="M463 -424l53 119q250 -53 250 53q0 62 -176 72l90 155q-17 0 -48 -1t-46 -1q-189 0 -467 29v1374q231 35 532 35q265 0 466 -83.5t315 -249t114 -394.5q0 -142 -41.5 -255.5t-108.5 -188t-162 -128t-191 -81t-207 -41.5l-70 -109q101 -3 170.5 -51t69.5 -121
q0 -81 -66 -133.5t-190 -52.5q-152 0 -287 53zM651 367q16 -2 62 -2q149 0 222 93.5t73 250.5q0 154 -76 238.5t-215 84.5q-50 0 -66 -2v-663z" />
    <glyph glyph-name="dcedilla" unicode="&#x1e11;" horiz-adv-x="1441" 
d="M332 -422l53 119q250 -53 250 53q0 62 -176 72l90 153q-7 0 -21 -1t-20 -1q-133 0 -238 77.5t-162 208t-57 286.5t59.5 285t169 205.5t246.5 76.5q171 0 291 -133v534h522v-1513h-501v139q-45 -54 -95 -90l-108 -166q101 -3 170 -51t69 -121q0 -81 -66 -133.5t-190 -52.5
q-151 0 -286 53zM709 362q66 0 108.5 53t42.5 130t-42.5 129.5t-108.5 52.5t-109 -53t-43 -129t43 -129.5t109 -53.5z" />
    <glyph glyph-name="Dcircumflexbelow" unicode="&#x1e12;" horiz-adv-x="1601" 
d="M954 -150l244 -317h-297l-145 143l-146 -143h-297l244 317h397zM651 1411q265 0 466 -83.5t315 -249t114 -394.5q0 -127 -33.5 -232t-88.5 -177t-134.5 -127.5t-162.5 -88t-182 -52.5t-183.5 -27t-175.5 -7q-189 0 -467 29v1374q231 35 532 35zM651 367q16 -2 62 -2
q149 0 222 93.5t73 250.5q0 154 -76 238.5t-215 84.5q-50 0 -66 -2v-663z" />
    <glyph glyph-name="dcircumflexbelow" unicode="&#x1e13;" horiz-adv-x="1441" 
d="M911 -150l244 -317h-297l-145 143l-146 -143h-297l244 317h397zM526 1112q171 0 291 -133v534h522v-1513h-501v139q-62 -78 -147 -122t-183 -44q-133 0 -238 77.5t-162 208t-57 286.5t59.5 285t169 205.5t246.5 76.5zM709 362q66 0 108.5 53t42.5 130t-42.5 129.5
t-108.5 52.5t-109 -53t-43 -129t43 -129.5t109 -53.5z" />
    <glyph glyph-name="Emacrongrave" unicode="&#x1e14;" horiz-adv-x="1347" 
d="M1262 995h-623v-121h545v-360h-545v-127h623v-387h-1143v1384h1143v-389zM633 1815l-336 317h408l225 -317h-297zM334 1513v207h731v-207h-731z" />
    <glyph glyph-name="emacrongrave" unicode="&#x1e15;" horiz-adv-x="1253" 
d="M1202 422q20 149 -3 272.5t-89.5 218t-187.5 147t-287 52.5q-119 0 -226 -40t-187 -110.5t-127.5 -176.5t-47.5 -230q0 -144 51 -257t140 -183t204.5 -106t249.5 -36q269 0 463 76l-53 307q-151 -51 -285 -51q-240 0 -297 117h682zM776 666h-270q29 143 141 143
q58 0 89.5 -39.5t39.5 -103.5zM776 666h-270h270zM557 1530l-336 317h408l225 -317h-297zM258 1229v207h731v-207h-731z" />
    <glyph glyph-name="Emacronacute" unicode="&#x1e16;" horiz-adv-x="1347" 
d="M1126 2132l-335 -317h-297l225 317h407zM1262 995h-623v-121h545v-360h-545v-127h623v-387h-1143v1384h1143v-389zM334 1513v207h731v-207h-731z" />
    <glyph glyph-name="emacronacute" unicode="&#x1e17;" horiz-adv-x="1253" 
d="M1040 1847l-335 -317h-297l225 317h407zM1202 422q20 149 -3 272.5t-89.5 218t-187.5 147t-287 52.5q-119 0 -226 -40t-187 -110.5t-127.5 -176.5t-47.5 -230q0 -144 51 -257t140 -183t204.5 -106t249.5 -36q269 0 463 76l-53 307q-151 -51 -285 -51q-240 0 -297 117h682
zM776 666h-270q29 143 141 143q58 0 89.5 -39.5t39.5 -103.5zM776 666h-270h270zM258 1229v207h731v-207h-731z" />
    <glyph glyph-name="Ecircumflexbelow" unicode="&#x1e18;" horiz-adv-x="1347" 
d="M891 -150l244 -317h-297l-146 143l-145 -143h-297l244 317h397zM1262 995h-623v-121h545v-360h-545v-127h623v-387h-1143v1384h1143v-389z" />
    <glyph glyph-name="ecircumflexbelow" unicode="&#x1e19;" horiz-adv-x="1253" 
d="M844 -150l243 -317h-296l-146 143l-145 -143h-297l243 317h398zM1202 422h-682q57 -117 297 -117q134 0 285 51l53 -307q-194 -76 -463 -76q-134 0 -249.5 36t-204.5 106t-140 183t-51 257q0 124 47.5 230t127.5 176.5t187 110.5t226 40q166 0 287 -52.5t187.5 -147
t89.5 -218t3 -272.5zM506 666h270q-8 64 -39.5 103.5t-89.5 39.5q-112 0 -141 -143zM506 666h270h-270z" />
    <glyph glyph-name="Etildebelow" unicode="&#x1e1a;" horiz-adv-x="1347" 
d="M264 -463q0 50 17.5 104.5t49.5 102.5t82 78.5t109 30.5q53 0 102 -16t79 -35.5t63 -35.5t59 -16q31 0 60 33t41 80h170q-1 -76 -34 -152t-94.5 -128t-133.5 -52q-53 0 -99.5 15.5t-75 34.5t-64.5 34.5t-69 15.5q-32 0 -58.5 -28t-37.5 -66h-166zM1262 995h-623v-121h545
v-360h-545v-127h623v-387h-1143v1384h1143v-389z" />
    <glyph glyph-name="etildebelow" unicode="&#x1e1b;" horiz-adv-x="1253" 
d="M233 -463q0 69 29.5 140t91 123.5t138.5 52.5q53 0 102 -16t79 -35.5t63 -35.5t59 -16q31 0 59.5 32.5t40.5 80.5h170q-1 -76 -34 -152t-94.5 -128t-133.5 -52q-53 0 -99.5 15.5t-74.5 34.5t-64 34.5t-69 15.5q-32 0 -59 -28t-38 -66h-166zM1202 422h-682
q57 -117 297 -117q134 0 285 51l53 -307q-194 -76 -463 -76q-134 0 -249.5 36t-204.5 106t-140 183t-51 257q0 124 47.5 230t127.5 176.5t187 110.5t226 40q166 0 287 -52.5t187.5 -147t89.5 -218t3 -272.5zM506 666h270q-8 64 -39.5 103.5t-89.5 39.5q-112 0 -141 -143z
M506 666h270h-270z" />
    <glyph glyph-name="Ecedillabreve" unicode="&#x1e1c;" horiz-adv-x="1347" 
d="M395 -424l54 119q249 -52 249 53q0 62 -176 72l105 180h-508v1384h1143v-389h-623v-121h545v-360h-545v-127h623v-387h-486l-78 -119q101 -3 170.5 -51t69.5 -121q0 -81 -66 -133.5t-190 -52.5q-152 0 -287 53zM891 1815h186q-13 -155 -115 -235.5t-268 -80.5t-268 80.5
t-115 235.5h187q14 -61 68.5 -92t127.5 -31t128 31t69 92z" />
    <glyph glyph-name="ecedillabreve" unicode="&#x1e1d;" horiz-adv-x="1255" 
d="M637 1112q166 0 287 -52.5t187.5 -147t89.5 -218t3 -272.5h-682q57 -117 297 -117q134 0 285 51l53 -307q-191 -76 -455 -76l-59 -92q101 -3 170.5 -51t69.5 -121q0 -81 -66 -133.5t-190 -52.5q-152 0 -287 53l53 119q250 -53 250 53q0 62 -176 72l94 162
q-111 16 -202.5 59.5t-161.5 113.5t-109 172t-39 228q0 124 47.5 230t127.5 176.5t187 110.5t226 40zM508 666h270q-8 64 -39.5 103.5t-89.5 39.5q-112 0 -141 -143zM645 1200q-166 0 -268 80.5t-115 235.5h187q14 -61 68.5 -92t127.5 -31t128 31t69 92h186
q-13 -155 -115 -235.5t-268 -80.5z" />
    <glyph glyph-name="Fdotaccent" unicode="&#x1e1e;" horiz-adv-x="1253" 
d="M1204 991h-557v-170h488v-407h-488v-414h-528v1384h1085v-393zM496 1524v268h333v-268h-333z" />
    <glyph glyph-name="fdotaccent" unicode="&#x1e1f;" horiz-adv-x="905" 
d="M608 1540q174 0 301 -51l-35 -287q-28 4 -49 4q-28 0 -47 -3t-39.5 -13.5t-30.5 -34.5t-10 -61v-9h172v-358h-172v-727h-522v727h-115v358h115v5q0 104 25 184.5t65.5 130t98 80.5t116.5 43t127 12zM338 1659v268h334v-268h-334z" />
    <glyph glyph-name="Gmacron" unicode="&#x1e20;" horiz-adv-x="1495" 
d="M952 768h465v-690q-243 -105 -575 -105q-169 0 -312.5 48.5t-249 138t-165.5 225.5t-60 303q0 219 104 384t287.5 252t419.5 87q154 0 261.5 -16t230.5 -49l-68 -381q-165 49 -319 49q-373 0 -373 -326q0 -79 26.5 -141.5t71 -99.5t97.5 -56.5t110 -19.5q21 0 49 4v393z
M444 1538v207h732v-207h-732z" />
    <glyph glyph-name="gmacron" unicode="&#x1e21;" horiz-adv-x="1437" 
d="M836 1085h501v-913q0 -315 -149.5 -455.5t-489.5 -140.5q-153 0 -263 23t-170.5 64.5t-87.5 91.5t-27 112q0 96 64 170t183 110q-158 35 -254 168t-96 308q0 134 57.5 245.5t163 177.5t238.5 66q199 0 330 -141v114zM696 750q-61 0 -100 -49.5t-39 -120.5
q0 -72 38.5 -122t100.5 -50t102 50t40 122q0 71 -40 120.5t-102 49.5zM827 -4v143q-8 -1 -21.5 -3t-48 -13t-61 -27t-48 -47.5t-21.5 -71.5q0 -51 25 -77.5t71 -26.5q48 0 76 31.5t28 91.5zM346 1247v207h731v-207h-731z" />
    <glyph glyph-name="Hdotaccent" unicode="&#x1e22;" horiz-adv-x="1642" 
d="M993 1384h531v-1384h-531v514h-344v-514h-530v1384h530v-497h344v497zM655 1524v268h334v-268h-334z" />
    <glyph glyph-name="hdotaccent" unicode="&#x1e23;" horiz-adv-x="1431" 
d="M1339 737v-737h-522v621q0 41 -28 70.5t-68 29.5t-68 -29.5t-28 -70.5v-621h-523v1513h523v-528q124 127 323 127q165 0 278 -107.5t113 -267.5zM201 1659v268h334v-268h-334z" />
    <glyph glyph-name="Hdotbelow" unicode="&#x1e24;" horiz-adv-x="1642" 
d="M653 -418v268h334v-268h-334zM993 1384h531v-1384h-531v514h-344v-514h-530v1384h530v-497h344v497z" />
    <glyph glyph-name="hdotbelow" unicode="&#x1e25;" horiz-adv-x="1431" 
d="M555 -418v268h334v-268h-334zM1339 737v-737h-522v621q0 41 -28 70.5t-68 29.5t-68 -29.5t-28 -70.5v-621h-523v1513h523v-528q124 127 323 127q165 0 278 -107.5t113 -267.5z" />
    <glyph glyph-name="Hdieresis" unicode="&#x1e26;" horiz-adv-x="1642" 
d="M993 1384h531v-1384h-531v514h-344v-514h-530v1384h530v-497h344v497zM397 1524v268h334v-268h-334zM913 1524v268h334v-268h-334z" />
    <glyph glyph-name="hdieresis" unicode="&#x1e27;" horiz-adv-x="1431" 
d="M1339 737v-737h-522v621q0 41 -28 70.5t-68 29.5t-68 -29.5t-28 -70.5v-621h-523v1513h523v-528q124 127 323 127q165 0 278 -107.5t113 -267.5zM324 1665v268h333v-268h-333zM840 1665v268h334v-268h-334z" />
    <glyph glyph-name="Hcedilla" unicode="&#x1e28;" horiz-adv-x="1642" 
d="M106 -424l54 119q250 -53 250 53q0 62 -177 72l105 180h-219v1384h530v-497h344v497h531v-1384h-531v514h-344v-514h-162l-77 -119q101 -3 170 -51t69 -121q0 -81 -66 -133.5t-190 -52.5q-152 0 -287 53z" />
    <glyph glyph-name="hcedilla" unicode="&#x1e29;" horiz-adv-x="1431" 
d="M84 -424l53 119q250 -53 250 53q0 62 -176 72l104 180h-213v1513h523v-528q124 127 323 127q165 0 278 -107.5t113 -267.5v-737h-522v621q0 41 -28 70.5t-68 29.5t-68 -29.5t-28 -70.5v-621h-160l-78 -119q101 -3 170.5 -51t69.5 -121q0 -81 -66 -133.5t-190 -52.5
q-152 0 -287 53z" />
    <glyph glyph-name="Hbrevebelow" unicode="&#x1e2a;" horiz-adv-x="1642" 
d="M1018 -145h186q-13 -155 -115 -235.5t-268 -80.5t-268 80.5t-115 235.5h187q14 -61 68.5 -92t127.5 -31t128 31t69 92zM993 1384h531v-1384h-531v514h-344v-514h-530v1384h530v-497h344v497z" />
    <glyph glyph-name="hbrevebelow" unicode="&#x1e2b;" horiz-adv-x="1431" 
d="M918 -145h186q-13 -155 -115 -235.5t-268 -80.5t-268 80.5t-115 235.5h186q14 -61 69 -92t128 -31t128 31t69 92zM1339 737v-737h-522v621q0 41 -28 70.5t-68 29.5t-68 -29.5t-28 -70.5v-621h-523v1513h523v-528q124 127 323 127q165 0 278 -107.5t113 -267.5z" />
    <glyph glyph-name="Itildebelow" unicode="&#x1e2c;" horiz-adv-x="772" 
d="M-14 -463q0 50 17.5 104.5t49.5 102.5t82 78.5t109 30.5q53 0 102 -16t79 -35.5t63 -35.5t59 -16q31 0 59.5 32.5t40.5 80.5h170q-1 -76 -34 -152t-94.5 -128t-133.5 -52q-53 0 -99.5 15.5t-74.5 34.5t-64 34.5t-69 15.5q-32 0 -58.5 -28t-37.5 -66h-166zM653 1384v-1384
h-534v1384h534z" />
    <glyph glyph-name="itildebelow" unicode="&#x1e2d;" horiz-adv-x="727" 
d="M-43 -463q0 50 17.5 104.5t49.5 102.5t82 78.5t109 30.5q53 0 102 -16t79 -35.5t63 -35.5t59 -16q31 0 59.5 32.5t40.5 80.5h170q-1 -76 -34 -152t-94.5 -128t-133.5 -52q-53 0 -99.5 15.5t-74.5 34.5t-64 34.5t-69 15.5q-32 0 -58.5 -28t-37.5 -66h-166zM102 0v1085h523
v-1085h-523zM631 1513v-323h-535v323h535z" />
    <glyph glyph-name="Idieresisacute" unicode="&#x1e2e;" horiz-adv-x="772" 
d="M653 1384v-1384h-534v1384h534zM-39 1503v269h334v-269h-334zM477 1503v269h334v-269h-334zM772 2181l-336 -317h-297l226 317h407z" />
    <glyph glyph-name="idieresisacute" unicode="&#x1e2f;" horiz-adv-x="727" 
d="M102 0v1085h523v-1085h-523zM-61 1225v268h333v-268h-333zM455 1225v268h333v-268h-333zM750 1915l-336 -318h-297l225 318h408z" />
    <glyph glyph-name="Kacute" unicode="&#x1e30;" horiz-adv-x="1536" 
d="M1100 762l461 -762h-611l-297 563v-563h-534v1384h534v-491l297 491h574zM1194 1825l-336 -318h-297l225 318h408z" />
    <glyph glyph-name="kacute" unicode="&#x1e31;" horiz-adv-x="1400" 
d="M1415 0h-555l-235 442v-442h-523v1513h523v-778l221 350h526l-334 -442zM883 1978l-336 -317h-297l225 317h408z" />
    <glyph glyph-name="Kdotbelow" unicode="&#x1e32;" horiz-adv-x="1536" 
d="M629 -418v268h334v-268h-334zM1100 762l461 -762h-611l-297 563v-563h-534v1384h534v-491l297 491h574z" />
    <glyph glyph-name="kdotbelow" unicode="&#x1e33;" horiz-adv-x="1400" 
d="M567 -418v268h334v-268h-334zM1415 0h-555l-235 442v-442h-523v1513h523v-778l221 350h526l-334 -442z" />
    <glyph glyph-name="Klinebelow" unicode="&#x1e34;" horiz-adv-x="1536" 
d="M416 -356v206h731v-206h-731zM1100 762l461 -762h-611l-297 563v-563h-534v1384h534v-491l297 491h574z" />
    <glyph glyph-name="klinebelow" unicode="&#x1e35;" horiz-adv-x="1400" 
d="M338 -356v206h731v-206h-731zM1415 0h-555l-235 442v-442h-523v1513h523v-778l221 350h526l-334 -442z" />
    <glyph glyph-name="Ldotbelow" unicode="&#x1e36;" horiz-adv-x="1198" 
d="M498 -418v268h333v-268h-333zM653 1384v-995h525v-389h-1059v1384h534z" />
    <glyph glyph-name="ldotbelow" unicode="&#x1e37;" horiz-adv-x="727" 
d="M197 -418v268h333v-268h-333zM102 0v1513h523v-1513h-523z" />
    <glyph glyph-name="Ldotbelowmacron" unicode="&#x1e38;" horiz-adv-x="1198" 
d="M498 -418v268h333v-268h-333zM653 1384v-995h525v-389h-1059v1384h534zM301 1538v207h731v-207h-731z" />
    <glyph glyph-name="ldotbelowmacron" unicode="&#x1e39;" horiz-adv-x="727" 
d="M197 -418v268h333v-268h-333zM102 0v1513h523v-1513h-523zM-2 1667v207h731v-207h-731z" />
    <glyph glyph-name="Llinebelow" unicode="&#x1e3a;" horiz-adv-x="1198" 
d="M289 -356v206h731v-206h-731zM653 1384v-995h525v-389h-1059v1384h534z" />
    <glyph glyph-name="llinebelow" unicode="&#x1e3b;" horiz-adv-x="727" 
d="M-2 -356v206h731v-206h-731zM102 0v1513h523v-1513h-523z" />
    <glyph glyph-name="Lcircumflexbelow" unicode="&#x1e3c;" horiz-adv-x="1198" 
d="M850 -150l244 -317h-297l-146 143l-145 -143h-297l244 317h397zM653 1384v-995h525v-389h-1059v1384h534z" />
    <glyph glyph-name="lcircumflexbelow" unicode="&#x1e3d;" horiz-adv-x="727" 
d="M561 -150l244 -317h-297l-146 143l-145 -143h-297l244 317h397zM102 0v1513h523v-1513h-523z" />
    <glyph glyph-name="Macute" unicode="&#x1e3e;" horiz-adv-x="1800" 
d="M1145 1384h536v-1384h-497v707l-279 -443h-12l-277 443v-707h-497v1384h536l244 -452zM1255 1825l-335 -318h-297l225 318h407z" />
    <glyph glyph-name="macute" unicode="&#x1e3f;" horiz-adv-x="2125" 
d="M1649 1112q165 0 275 -107t110 -268v-737h-523v621q0 42 -25.5 71t-64.5 29t-65.5 -29t-26.5 -71v-621h-522v621q0 42 -25.5 71t-64.5 29t-65.5 -29t-26.5 -71v-621h-523v1085h500v-110q57 62 148 99.5t194 37.5q99 0 182.5 -42.5t135.5 -115.5q54 60 152 109t235 49z
M1546 1526l-336 -318h-297l226 318h407z" />
    <glyph glyph-name="Mdotaccent" unicode="&#x1e40;" horiz-adv-x="1800" 
d="M1145 1384h536v-1384h-497v707l-279 -443h-12l-277 443v-707h-497v1384h536l244 -452zM733 1524v268h334v-268h-334z" />
    <glyph glyph-name="mdotaccent" unicode="&#x1e41;" horiz-adv-x="2125" 
d="M1649 1112q165 0 275 -107t110 -268v-737h-523v621q0 42 -25.5 71t-64.5 29t-65.5 -29t-26.5 -71v-621h-522v621q0 42 -25.5 71t-64.5 29t-65.5 -29t-26.5 -71v-621h-523v1085h500v-110q57 62 148 99.5t194 37.5q99 0 182.5 -42.5t135.5 -115.5q54 60 152 109t235 49z
M911 1225v268h334v-268h-334z" />
    <glyph glyph-name="Mdotbelow" unicode="&#x1e42;" horiz-adv-x="1800" 
d="M733 -418v268h334v-268h-334zM1145 1384h536v-1384h-497v707l-279 -443h-12l-277 443v-707h-497v1384h536l244 -452z" />
    <glyph glyph-name="mdotbelow" unicode="&#x1e43;" horiz-adv-x="2125" 
d="M905 -418v268h334v-268h-334zM1649 1112q165 0 275 -107t110 -268v-737h-523v621q0 42 -25.5 71t-64.5 29t-65.5 -29t-26.5 -71v-621h-522v621q0 42 -25.5 71t-64.5 29t-65.5 -29t-26.5 -71v-621h-523v1085h500v-110q57 62 148 99.5t194 37.5q99 0 182.5 -42.5
t135.5 -115.5q54 60 152 109t235 49z" />
    <glyph glyph-name="Ndotaccent" unicode="&#x1e44;" horiz-adv-x="1667" 
d="M1059 1384h489v-1384h-506l-434 711v-711h-489v1384h532l408 -706v706zM664 1524v268h333v-268h-333z" />
    <glyph glyph-name="ndotaccent" unicode="&#x1e45;" horiz-adv-x="1431" 
d="M1339 737v-737h-522v621q0 41 -28 70.5t-68 29.5t-68 -29.5t-28 -70.5v-621h-523v1085h506v-106q133 133 340 133q165 0 278 -107.5t113 -267.5zM561 1225v268h334v-268h-334z" />
    <glyph glyph-name="Ndotbelow" unicode="&#x1e46;" horiz-adv-x="1667" 
d="M668 -418v268h333v-268h-333zM1059 1384h489v-1384h-506l-434 711v-711h-489v1384h532l408 -706v706z" />
    <glyph glyph-name="ndotbelow" unicode="&#x1e47;" horiz-adv-x="1431" 
d="M553 -418v268h334v-268h-334zM1339 737v-737h-522v621q0 41 -28 70.5t-68 29.5t-68 -29.5t-28 -70.5v-621h-523v1085h506v-106q133 133 340 133q165 0 278 -107.5t113 -267.5z" />
    <glyph glyph-name="Nlinebelow" unicode="&#x1e48;" horiz-adv-x="1667" 
d="M485 -356v206h732v-206h-732zM1059 1384h489v-1384h-506l-434 711v-711h-489v1384h532l408 -706v706z" />
    <glyph glyph-name="nlinebelow" unicode="&#x1e49;" horiz-adv-x="1431" 
d="M352 -356v206h731v-206h-731zM1339 737v-737h-522v621q0 41 -28 70.5t-68 29.5t-68 -29.5t-28 -70.5v-621h-523v1085h506v-106q133 133 340 133q165 0 278 -107.5t113 -267.5z" />
    <glyph glyph-name="Ncircumflexbelow" unicode="&#x1e4a;" horiz-adv-x="1667" 
d="M1049 -150l243 -317h-297l-145 143l-145 -143h-297l243 317h398zM1059 1384h489v-1384h-506l-434 711v-711h-489v1384h532l408 -706v706z" />
    <glyph glyph-name="ncircumflexbelow" unicode="&#x1e4b;" horiz-adv-x="1431" 
d="M924 -150l243 -317h-297l-145 143l-145 -143h-297l243 317h398zM1339 737v-737h-522v621q0 41 -28 70.5t-68 29.5t-68 -29.5t-28 -70.5v-621h-523v1085h506v-106q133 133 340 133q165 0 278 -107.5t113 -267.5z" />
    <glyph glyph-name="Otildeacute" unicode="&#x1e4c;" horiz-adv-x="1677" 
d="M1264 2230l-336 -317h-297l225 317h408zM840 1411q232 0 408.5 -85.5t275 -249t98.5 -384.5t-98.5 -384.5t-275 -249t-408.5 -85.5q-233 0 -410 85.5t-276 249t-99 384.5t99 384.5t276 249t410 85.5zM840 371q120 0 181.5 83t61.5 238q0 156 -61.5 239t-181.5 83
q-122 0 -184 -83t-62 -239q0 -155 62 -238t184 -83zM420 1503q0 50 17.5 104.5t49.5 102.5t82 78.5t109 30.5q53 0 102 -16t79 -35.5t63 -35.5t59 -16q31 0 59.5 32.5t40.5 80.5h170q-1 -76 -34 -152t-94.5 -128t-133.5 -52q-53 0 -99.5 15.5t-74.5 34.5t-64 34.5t-69 15.5
q-32 0 -58.5 -28t-37.5 -66h-166z" />
    <glyph glyph-name="otildeacute" unicode="&#x1e4d;" horiz-adv-x="1400" 
d="M1120 1939l-336 -317h-297l226 317h407zM702 1112q133 0 251 -39t208 -110t142.5 -180t52.5 -240t-52.5 -240t-142.5 -180.5t-208 -110.5t-251 -39t-252 39t-209 110t-143 180t-53 241t53 241t143 180t209 109.5t252 38.5zM700 352q67 0 110.5 56t43.5 135t-43.5 134.5
t-110.5 55.5t-110 -55.5t-43 -134.5t43 -135t110 -56zM272 1204q0 50 17.5 104.5t49.5 102.5t82 78.5t109 30.5q53 0 102.5 -16t79 -35.5t63 -35.5t59.5 -16q31 0 59.5 32.5t40.5 80.5h170q-1 -76 -34 -152t-94.5 -128t-133.5 -52q-53 0 -99.5 15.5t-74.5 34.5t-64 34.5
t-69 15.5q-32 0 -59 -28t-38 -66h-166z" />
    <glyph glyph-name="Otildedieresis" unicode="&#x1e4e;" horiz-adv-x="1677" 
d="M418 1929v269h334v-269h-334zM934 1929v269h334v-269h-334zM840 1411q232 0 408.5 -85.5t275 -249t98.5 -384.5t-98.5 -384.5t-275 -249t-408.5 -85.5q-233 0 -410 85.5t-276 249t-99 384.5t99 384.5t276 249t410 85.5zM840 371q120 0 181.5 83t61.5 238q0 156 -61.5 239
t-181.5 83q-122 0 -184 -83t-62 -239q0 -155 62 -238t184 -83zM420 1503q0 50 17.5 104.5t49.5 102.5t82 78.5t109 30.5q53 0 102 -16t79 -35.5t63 -35.5t59 -16q31 0 59.5 32.5t40.5 80.5h170q-1 -76 -34 -152t-94.5 -128t-133.5 -52q-53 0 -99.5 15.5t-74.5 34.5t-64 34.5
t-69 15.5q-32 0 -58.5 -28t-37.5 -66h-166z" />
    <glyph glyph-name="otildedieresis" unicode="&#x1e4f;" horiz-adv-x="1400" 
d="M274 1655v268h334v-268h-334zM791 1655v268h333v-268h-333zM702 1112q133 0 251 -39t208 -110t142.5 -180t52.5 -240t-52.5 -240t-142.5 -180.5t-208 -110.5t-251 -39t-252 39t-209 110t-143 180t-53 241t53 241t143 180t209 109.5t252 38.5zM700 352q67 0 110.5 56
t43.5 135t-43.5 134.5t-110.5 55.5t-110 -55.5t-43 -134.5t43 -135t110 -56zM272 1204q0 50 17.5 104.5t49.5 102.5t82 78.5t109 30.5q53 0 102.5 -16t79 -35.5t63 -35.5t59.5 -16q31 0 59.5 32.5t40.5 80.5h170q-1 -76 -34 -152t-94.5 -128t-133.5 -52q-53 0 -99.5 15.5
t-74.5 34.5t-64 34.5t-69 15.5q-32 0 -59 -28t-38 -66h-166z" />
    <glyph glyph-name="Omacrongrave" unicode="&#x1e50;" horiz-adv-x="1677" 
d="M840 1411q232 0 408.5 -85.5t275 -249t98.5 -384.5t-98.5 -384.5t-275 -249t-408.5 -85.5q-233 0 -410 85.5t-276 249t-99 384.5t99 384.5t276 249t410 85.5zM840 371q120 0 181.5 83t61.5 238q0 156 -61.5 239t-181.5 83q-122 0 -184 -83t-62 -239q0 -155 62 -238
t184 -83zM772 1815l-336 317h408l225 -317h-297zM473 1513v207h731v-207h-731z" />
    <glyph glyph-name="omacrongrave" unicode="&#x1e51;" horiz-adv-x="1400" 
d="M702 1112q133 0 251 -39t208 -110t142.5 -180t52.5 -240t-52.5 -240t-142.5 -180.5t-208 -110.5t-251 -39t-252 39t-209 110t-143 180t-53 241t53 241t143 180t209 109.5t252 38.5zM700 352q67 0 110.5 56t43.5 135t-43.5 134.5t-110.5 55.5t-110 -55.5t-43 -134.5
t43 -135t110 -56zM635 1530l-336 317h408l225 -317h-297zM336 1229v207h731v-207h-731z" />
    <glyph glyph-name="Omacronacute" unicode="&#x1e52;" horiz-adv-x="1677" 
d="M840 1411q232 0 408.5 -85.5t275 -249t98.5 -384.5t-98.5 -384.5t-275 -249t-408.5 -85.5q-233 0 -410 85.5t-276 249t-99 384.5t99 384.5t276 249t410 85.5zM840 371q120 0 181.5 83t61.5 238q0 156 -61.5 239t-181.5 83q-122 0 -184 -83t-62 -239q0 -155 62 -238
t184 -83zM1266 2132l-336 -317h-297l225 317h408zM473 1513v207h731v-207h-731z" />
    <glyph glyph-name="omacronacute" unicode="&#x1e53;" horiz-adv-x="1400" 
d="M702 1112q133 0 251 -39t208 -110t142.5 -180t52.5 -240t-52.5 -240t-142.5 -180.5t-208 -110.5t-251 -39t-252 39t-209 110t-143 180t-53 241t53 241t143 180t209 109.5t252 38.5zM700 352q67 0 110.5 56t43.5 135t-43.5 134.5t-110.5 55.5t-110 -55.5t-43 -134.5
t43 -135t110 -56zM1118 1847l-336 -317h-297l226 317h407zM336 1229v207h731v-207h-731z" />
    <glyph glyph-name="Pacute" unicode="&#x1e54;" horiz-adv-x="1456" 
d="M616 1411q116 0 224 -15t216.5 -53.5t188.5 -98t130 -155t50 -217.5q0 -118 -47 -212.5t-124.5 -154t-180 -97t-211 -49.5t-219.5 -3v-356h-524v1378q217 33 497 33zM639 1020v-293q38 -3 77.5 1t84.5 17t73.5 47t28.5 85q0 39 -20 68.5t-51 44t-67.5 24t-69 8.5
t-56.5 -2zM1071 1825l-336 -318h-297l226 318h407z" />
    <glyph glyph-name="pacute" unicode="&#x1e55;" horiz-adv-x="1441" 
d="M915 -27q-170 0 -290 133v-503h-523v1482h502v-139q62 78 147 122t183 44q133 0 238 -77.5t162 -207.5t57 -286t-59.5 -285.5t-169.5 -206t-247 -76.5zM733 727q-66 0 -108.5 -52.5t-42.5 -129.5t42.5 -130t108.5 -53t109 53.5t43 129.5t-43 129t-109 53zM1049 1526
l-336 -318h-297l225 318h408z" />
    <glyph glyph-name="Pdotaccent" unicode="&#x1e56;" horiz-adv-x="1456" 
d="M616 1411q116 0 224 -15t216.5 -53.5t188.5 -98t130 -155t50 -217.5q0 -118 -47 -212.5t-124.5 -154t-180 -97t-211 -49.5t-219.5 -3v-356h-524v1378q217 33 497 33zM639 1020v-293q38 -3 77.5 1t84.5 17t73.5 47t28.5 85q0 39 -20 68.5t-51 44t-67.5 24t-69 8.5
t-56.5 -2zM541 1524v268h333v-268h-333z" />
    <glyph glyph-name="pdotaccent" unicode="&#x1e57;" horiz-adv-x="1441" 
d="M915 -27q-170 0 -290 133v-503h-523v1482h502v-139q62 78 147 122t183 44q133 0 238 -77.5t162 -207.5t57 -286t-59.5 -285.5t-169.5 -206t-247 -76.5zM733 727q-66 0 -108.5 -52.5t-42.5 -129.5t42.5 -130t108.5 -53t109 53.5t43 129.5t-43 129t-109 53zM502 1225v268
h334v-268h-334z" />
    <glyph glyph-name="Rdotaccent" unicode="&#x1e58;" horiz-adv-x="1519" 
d="M1186 569q216 -42 287 -569h-531q-21 108 -40 182t-43 122t-41.5 74t-52 38t-57.5 14t-73 2h-2v-432h-514v1370q96 16 248.5 28.5t283.5 12.5q127 0 235.5 -12.5t213 -46t178 -86.5t118 -138.5t44.5 -197.5q0 -246 -254 -361zM678 756q39 0 76 5.5t78 19.5t65.5 44.5
t24.5 73.5q0 41 -22.5 70t-59.5 43t-73 20t-75 6q-29 0 -61 -4v-276q14 -2 47 -2zM545 1524v268h334v-268h-334z" />
    <glyph glyph-name="rdotaccent" unicode="&#x1e59;" horiz-adv-x="976" 
d="M946 696q-153 20 -237 -55.5t-84 -234.5v-406h-523v1085h488v-192q10 23 15 33.5t18.5 35t24 38t29 35t36 32.5t43.5 24t53 17t62.5 3.5t74.5 -9.5v-406zM362 1225v268h334v-268h-334z" />
    <glyph glyph-name="Rdotbelow" unicode="&#x1e5a;" horiz-adv-x="1519" 
d="M602 -418v268h334v-268h-334zM1186 569q216 -42 287 -569h-531q-21 108 -40 182t-43 122t-41.5 74t-52 38t-57.5 14t-73 2h-2v-432h-514v1370q96 16 248.5 28.5t283.5 12.5q127 0 235.5 -12.5t213 -46t178 -86.5t118 -138.5t44.5 -197.5q0 -246 -254 -361zM678 756
q39 0 76 5.5t78 19.5t65.5 44.5t24.5 73.5q0 41 -22.5 70t-59.5 43t-73 20t-75 6q-29 0 -61 -4v-276q14 -2 47 -2z" />
    <glyph glyph-name="rdotbelow" unicode="&#x1e5b;" horiz-adv-x="976" 
d="M203 -418v268h334v-268h-334zM946 696q-153 20 -237 -55.5t-84 -234.5v-406h-523v1085h488v-192q10 23 15 33.5t18.5 35t24 38t29 35t36 32.5t43.5 24t53 17t62.5 3.5t74.5 -9.5v-406z" />
    <glyph glyph-name="Rdotbelowmacron" unicode="&#x1e5c;" horiz-adv-x="1519" 
d="M602 -418v268h334v-268h-334zM1186 569q216 -42 287 -569h-531q-21 108 -40 182t-43 122t-41.5 74t-52 38t-57.5 14t-73 2h-2v-432h-514v1370q96 16 248.5 28.5t283.5 12.5q127 0 235.5 -12.5t213 -46t178 -86.5t118 -138.5t44.5 -197.5q0 -246 -254 -361zM678 756
q39 0 76 5.5t78 19.5t65.5 44.5t24.5 73.5q0 41 -22.5 70t-59.5 43t-73 20t-75 6q-29 0 -61 -4v-276q14 -2 47 -2zM387 1538v207h731v-207h-731z" />
    <glyph glyph-name="rdotbelowmacron" unicode="&#x1e5d;" horiz-adv-x="976" 
d="M203 -418v268h334v-268h-334zM946 696q-153 20 -237 -55.5t-84 -234.5v-406h-523v1085h488v-192q10 23 15 33.5t18.5 35t24 38t29 35t36 32.5t43.5 24t53 17t62.5 3.5t74.5 -9.5v-406zM139 1247v207h731v-207h-731z" />
    <glyph glyph-name="Rlinebelow" unicode="&#x1e5e;" horiz-adv-x="1519" 
d="M418 -356v206h731v-206h-731zM1186 569q216 -42 287 -569h-531q-21 108 -40 182t-43 122t-41.5 74t-52 38t-57.5 14t-73 2h-2v-432h-514v1370q96 16 248.5 28.5t283.5 12.5q127 0 235.5 -12.5t213 -46t178 -86.5t118 -138.5t44.5 -197.5q0 -246 -254 -361zM678 756
q39 0 76 5.5t78 19.5t65.5 44.5t24.5 73.5q0 41 -22.5 70t-59.5 43t-73 20t-75 6q-29 0 -61 -4v-276q14 -2 47 -2z" />
    <glyph glyph-name="rlinebelow" unicode="&#x1e5f;" horiz-adv-x="976" 
d="M113 -356v206h731v-206h-731zM946 696q-153 20 -237 -55.5t-84 -234.5v-406h-523v1085h488v-192q10 23 15 33.5t18.5 35t24 38t29 35t36 32.5t43.5 24t53 17t62.5 3.5t74.5 -9.5v-406z" />
    <glyph glyph-name="Sdotaccent" unicode="&#x1e60;" horiz-adv-x="1300" 
d="M586 989q0 -16 22.5 -28t61 -22t88 -21t104.5 -27.5t109.5 -38.5t104 -56.5t88 -78.5t61 -109t22.5 -143q0 -248 -159.5 -370t-442.5 -122q-306 0 -575 105l84 375q116 -56 218.5 -84.5t237.5 -28.5q115 0 115 51q0 18 -28 31.5t-74 22.5t-105 24.5t-120 34.5t-119.5 55
t-104.5 83t-73.5 122.5t-26.5 169.5q1 152 75.5 260.5t206 162.5t308.5 54q256 0 530 -80l-84 -373q-75 34 -185.5 58t-224.5 24q-57 0 -85.5 -11t-28.5 -40zM487 1524v268h334v-268h-334z" />
    <glyph glyph-name="sdotaccent" unicode="&#x1e61;" horiz-adv-x="1120" 
d="M588 756q0 -15 26.5 -25t68.5 -18.5t93.5 -20.5t102.5 -37t93 -60.5t68.5 -98t26.5 -144.5q0 -188 -139 -283.5t-387 -95.5q-262 0 -494 125l47 312q73 -49 171.5 -80t197.5 -31q86 0 86 41q0 13 -26 22t-67 17t-90.5 20t-99.5 36t-91 59t-67 96t-26 141
q0 188 142.5 284.5t391.5 96.5q210 0 418 -88l-45 -297q-58 26 -144.5 46t-148.5 20q-50 0 -79 -7t-29 -30zM381 1225v268h334v-268h-334z" />
    <glyph glyph-name="Sdotbelow" unicode="&#x1e62;" horiz-adv-x="1300" 
d="M494 -418v268h333v-268h-333zM586 989q0 -16 22.5 -28t61 -22t88 -21t104.5 -27.5t109.5 -38.5t104 -56.5t88 -78.5t61 -109t22.5 -143q0 -248 -159.5 -370t-442.5 -122q-306 0 -575 105l84 375q116 -56 218.5 -84.5t237.5 -28.5q115 0 115 51q0 18 -28 31.5t-74 22.5
t-105 24.5t-120 34.5t-119.5 55t-104.5 83t-73.5 122.5t-26.5 169.5q1 152 75.5 260.5t206 162.5t308.5 54q256 0 530 -80l-84 -373q-75 34 -185.5 58t-224.5 24q-57 0 -85.5 -11t-28.5 -40z" />
    <glyph glyph-name="sdotbelow" unicode="&#x1e63;" horiz-adv-x="1120" 
d="M410 -418v268h333v-268h-333zM588 756q0 -15 26.5 -25t68.5 -18.5t93.5 -20.5t102.5 -37t93 -60.5t68.5 -98t26.5 -144.5q0 -188 -139 -283.5t-387 -95.5q-262 0 -494 125l47 312q73 -49 171.5 -80t197.5 -31q86 0 86 41q0 13 -26 22t-67 17t-90.5 20t-99.5 36t-91 59
t-67 96t-26 141q0 188 142.5 284.5t391.5 96.5q210 0 418 -88l-45 -297q-58 26 -144.5 46t-148.5 20q-50 0 -79 -7t-29 -30z" />
    <glyph glyph-name="Sacutedotaccent" unicode="&#x1e64;" horiz-adv-x="1300" 
d="M586 989q0 -16 22.5 -28t61 -22t88 -21t104.5 -27.5t109.5 -38.5t104 -56.5t88 -78.5t61 -109t22.5 -143q0 -248 -159.5 -370t-442.5 -122q-306 0 -575 105l84 375q116 -56 218.5 -84.5t237.5 -28.5q115 0 115 51q0 18 -28 31.5t-74 22.5t-105 24.5t-120 34.5t-119.5 55
t-104.5 83t-73.5 122.5t-26.5 169.5q1 152 75.5 260.5t206 162.5t308.5 54q256 0 530 -80l-84 -373q-75 34 -185.5 58t-224.5 24q-57 0 -85.5 -11t-28.5 -40zM1235 1823l-336 -318h-297l225 318h408zM248 1649v268h334v-268h-334z" />
    <glyph glyph-name="sacutedotaccent" unicode="&#x1e65;" horiz-adv-x="1120" 
d="M588 756q0 -15 26.5 -25t68.5 -18.5t93.5 -20.5t102.5 -37t93 -60.5t68.5 -98t26.5 -144.5q0 -188 -139 -283.5t-387 -95.5q-262 0 -494 125l47 312q73 -49 171.5 -80t197.5 -31q86 0 86 41q0 13 -26 22t-67 17t-90.5 20t-99.5 36t-91 59t-67 96t-26 141
q0 188 142.5 284.5t391.5 96.5q210 0 418 -88l-45 -297q-58 26 -144.5 46t-148.5 20q-50 0 -79 -7t-29 -30zM1153 1524l-336 -318h-297l225 318h408zM162 1323v268h334v-268h-334z" />
    <glyph glyph-name="Scarondotaccent" unicode="&#x1e66;" horiz-adv-x="1300" 
d="M479 1905v268h334v-268h-334zM586 989q0 -16 22.5 -28t61 -22t88 -21t104.5 -27.5t109.5 -38.5t104 -56.5t88 -78.5t61 -109t22.5 -143q0 -248 -159.5 -370t-442.5 -122q-306 0 -575 105l84 375q116 -56 218.5 -84.5t237.5 -28.5q115 0 115 51q0 18 -28 31.5t-74 22.5
t-105 24.5t-120 34.5t-119.5 55t-104.5 83t-73.5 122.5t-26.5 169.5q1 152 75.5 260.5t206 162.5t308.5 54q256 0 530 -80l-84 -373q-75 34 -185.5 58t-224.5 24q-57 0 -85.5 -11t-28.5 -40zM1090 1815l-244 -318h-397l-244 318h297l145 -144l146 144h297z" />
    <glyph glyph-name="scarondotaccent" unicode="&#x1e67;" horiz-adv-x="1120" 
d="M395 1634v269h334v-269h-334zM588 756q0 -15 26.5 -25t68.5 -18.5t93.5 -20.5t102.5 -37t93 -60.5t68.5 -98t26.5 -144.5q0 -188 -139 -283.5t-387 -95.5q-262 0 -494 125l47 312q73 -49 171.5 -80t197.5 -31q86 0 86 41q0 13 -26 22t-67 17t-90.5 20t-99.5 36t-91 59
t-67 96t-26 141q0 188 142.5 284.5t391.5 96.5q210 0 418 -88l-45 -297q-58 26 -144.5 46t-148.5 20q-50 0 -79 -7t-29 -30zM1006 1524l-244 -318h-397l-244 318h297l145 -144l146 144h297z" />
    <glyph glyph-name="Sdotbelowdotaccent" unicode="&#x1e68;" horiz-adv-x="1300" 
d="M494 -418v268h333v-268h-333zM586 989q0 -16 22.5 -28t61 -22t88 -21t104.5 -27.5t109.5 -38.5t104 -56.5t88 -78.5t61 -109t22.5 -143q0 -248 -159.5 -370t-442.5 -122q-306 0 -575 105l84 375q116 -56 218.5 -84.5t237.5 -28.5q115 0 115 51q0 18 -28 31.5t-74 22.5
t-105 24.5t-120 34.5t-119.5 55t-104.5 83t-73.5 122.5t-26.5 169.5q1 152 75.5 260.5t206 162.5t308.5 54q256 0 530 -80l-84 -373q-75 34 -185.5 58t-224.5 24q-57 0 -85.5 -11t-28.5 -40zM487 1524v268h334v-268h-334z" />
    <glyph glyph-name="sdotbelowdotaccent" unicode="&#x1e69;" horiz-adv-x="1120" 
d="M410 -418v268h333v-268h-333zM588 756q0 -15 26.5 -25t68.5 -18.5t93.5 -20.5t102.5 -37t93 -60.5t68.5 -98t26.5 -144.5q0 -188 -139 -283.5t-387 -95.5q-262 0 -494 125l47 312q73 -49 171.5 -80t197.5 -31q86 0 86 41q0 13 -26 22t-67 17t-90.5 20t-99.5 36t-91 59
t-67 96t-26 141q0 188 142.5 284.5t391.5 96.5q210 0 418 -88l-45 -297q-58 26 -144.5 46t-148.5 20q-50 0 -79 -7t-29 -30zM381 1225v268h334v-268h-334z" />
    <glyph glyph-name="Tdotaccent" unicode="&#x1e6a;" horiz-adv-x="1361" 
d="M948 989v-989h-534v989h-394v395h1321v-395h-393zM514 1524v268h334v-268h-334z" />
    <glyph glyph-name="tdotaccent" unicode="&#x1e6b;" horiz-adv-x="960" 
d="M55 727v358h113v252h522v-252h189v-358h-189v-289q0 -60 37 -88t90 -28q23 0 55 4l41 -289q-63 -28 -158 -46t-192 -18q-395 0 -395 338v416h-113zM268 1491v268h334v-268h-334z" />
    <glyph glyph-name="Tdotbelow" unicode="&#x1e6c;" horiz-adv-x="1361" 
d="M514 -418v268h334v-268h-334zM948 989v-989h-534v989h-394v395h1321v-395h-393z" />
    <glyph glyph-name="tdotbelow" unicode="&#x1e6d;" horiz-adv-x="960" 
d="M367 -418v268h333v-268h-333zM55 727v358h113v252h522v-252h189v-358h-189v-289q0 -60 37 -88t90 -28q23 0 55 4l41 -289q-63 -28 -158 -46t-192 -18q-395 0 -395 338v416h-113z" />
    <glyph glyph-name="Tlinebelow" unicode="&#x1e6e;" horiz-adv-x="1361" 
d="M315 -356v206h732v-206h-732zM948 989v-989h-534v989h-394v395h1321v-395h-393z" />
    <glyph glyph-name="tlinebelow" unicode="&#x1e6f;" horiz-adv-x="960" 
d="M127 -356v206h731v-206h-731zM55 727v358h113v252h522v-252h189v-358h-189v-289q0 -60 37 -88t90 -28q23 0 55 4l41 -289q-63 -28 -158 -46t-192 -18q-395 0 -395 338v416h-113z" />
    <glyph glyph-name="Tcircumflexbelow" unicode="&#x1e70;" horiz-adv-x="1361" 
d="M879 -150l243 -317h-297l-145 143l-145 -143h-297l243 317h398zM948 989v-989h-534v989h-394v395h1321v-395h-393z" />
    <glyph glyph-name="tcircumflexbelow" unicode="&#x1e71;" horiz-adv-x="960" 
d="M692 -150l244 -317h-297l-145 143l-146 -143h-297l244 317h397zM55 727v358h113v252h522v-252h189v-358h-189v-289q0 -60 37 -88t90 -28q23 0 55 4l41 -289q-63 -28 -158 -46t-192 -18q-395 0 -395 338v416h-113z" />
    <glyph glyph-name="Udieresisbelow" unicode="&#x1e72;" horiz-adv-x="1546" 
d="M348 -418v268h334v-268h-334zM864 -418v268h334v-268h-334zM907 1384h535v-837q0 -289 -174 -431.5t-496 -142.5t-495 142.5t-173 431.5v837h535v-831q0 -84 27.5 -128t105.5 -44q79 0 107 44.5t28 127.5v831z" />
    <glyph glyph-name="udieresisbelow" unicode="&#x1e73;" horiz-adv-x="1431" 
d="M301 -418v268h334v-268h-334zM817 -418v268h334v-268h-334zM92 348v737h522v-620q0 -41 28.5 -70.5t68.5 -29.5t68 29.5t28 70.5v620h522v-1085h-506v106q-133 -133 -340 -133q-165 0 -278 107.5t-113 267.5z" />
    <glyph glyph-name="Utildebelow" unicode="&#x1e74;" horiz-adv-x="1546" 
d="M354 -463q0 50 17.5 104.5t49.5 102.5t82 78.5t109 30.5q53 0 102 -16t79 -35.5t63 -35.5t59 -16q31 0 60 33t41 80h170q-1 -76 -34 -152t-94.5 -128t-133.5 -52q-53 0 -99.5 15.5t-75 34.5t-64.5 34.5t-69 15.5q-32 0 -58.5 -28t-37.5 -66h-166zM907 1384h535v-837
q0 -289 -174 -431.5t-496 -142.5t-495 142.5t-173 431.5v837h535v-831q0 -84 27.5 -128t105.5 -44q79 0 107 44.5t28 127.5v831z" />
    <glyph glyph-name="utildebelow" unicode="&#x1e75;" horiz-adv-x="1431" 
d="M293 -463q0 50 17.5 104.5t49.5 102.5t82 78.5t109 30.5q53 0 102 -16t79 -35.5t63 -35.5t59 -16q31 0 59.5 32.5t40.5 80.5h170q-1 -76 -34 -152t-94.5 -128t-133.5 -52q-53 0 -99.5 15.5t-74.5 34.5t-64 34.5t-69 15.5q-32 0 -58.5 -28t-37.5 -66h-166zM92 348v737h522
v-620q0 -41 28.5 -70.5t68.5 -29.5t68 29.5t28 70.5v620h522v-1085h-506v106q-133 -133 -340 -133q-165 0 -278 107.5t-113 267.5z" />
    <glyph glyph-name="Ucircumflexbelow" unicode="&#x1e76;" horiz-adv-x="1546" 
d="M971 -150l243 -317h-296l-146 143l-145 -143h-297l243 317h398zM907 1384h535v-837q0 -289 -174 -431.5t-496 -142.5t-495 142.5t-173 431.5v837h535v-831q0 -84 27.5 -128t105.5 -44q79 0 107 44.5t28 127.5v831z" />
    <glyph glyph-name="ucircumflexbelow" unicode="&#x1e77;" horiz-adv-x="1431" 
d="M924 -150l243 -317h-297l-145 143l-145 -143h-297l243 317h398zM92 348v737h522v-620q0 -41 28.5 -70.5t68.5 -29.5t68 29.5t28 70.5v620h522v-1085h-506v106q-133 -133 -340 -133q-165 0 -278 107.5t-113 267.5z" />
    <glyph glyph-name="Utildeacute" unicode="&#x1e78;" horiz-adv-x="1546" 
d="M907 1384h535v-837q0 -289 -174 -431.5t-496 -142.5t-495 142.5t-173 431.5v837h535v-831q0 -84 27.5 -128t105.5 -44q79 0 107 44.5t28 127.5v831zM1206 2230l-336 -317h-297l226 317h407zM362 1503q0 69 29.5 140t91 123.5t138.5 52.5q53 0 102 -16t79 -35.5t63 -35.5
t59 -16q31 0 59.5 32.5t40.5 80.5h170q-1 -76 -34 -152t-94.5 -128t-133.5 -52q-53 0 -99.5 15.5t-74.5 34.5t-64 34.5t-69 15.5q-32 0 -59 -28t-38 -66h-166z" />
    <glyph glyph-name="utildeacute" unicode="&#x1e79;" horiz-adv-x="1431" 
d="M92 348v737h522v-620q0 -41 28.5 -70.5t68.5 -29.5t68 29.5t28 70.5v620h522v-1085h-506v106q-133 -133 -340 -133q-165 0 -278 107.5t-113 267.5zM1147 1939l-336 -317h-297l225 317h408zM299 1204q0 50 17.5 104.5t49.5 102.5t82 78.5t109 30.5q68 0 126.5 -26
t102 -51.5t74.5 -25.5t60 33t41 80h169q-1 -76 -34 -152t-94.5 -128t-133.5 -52q-53 0 -99.5 15.5t-74.5 34.5t-64 34.5t-69 15.5q-32 0 -58.5 -28t-37.5 -66h-166z" />
    <glyph glyph-name="Umacrondieresis" unicode="&#x1e7a;" horiz-adv-x="1546" 
d="M348 1841v268h334v-268h-334zM864 1841v268h334v-268h-334zM907 1384h535v-837q0 -289 -174 -431.5t-496 -142.5t-495 142.5t-173 431.5v837h535v-831q0 -84 27.5 -128t105.5 -44q79 0 107 44.5t28 127.5v831zM408 1520v206h731v-206h-731z" />
    <glyph glyph-name="umacrondieresis" unicode="&#x1e7b;" horiz-adv-x="1431" 
d="M287 1565v268h334v-268h-334zM803 1565v268h334v-268h-334zM92 348v737h522v-620q0 -41 28.5 -70.5t68.5 -29.5t68 29.5t28 70.5v620h522v-1085h-506v106q-133 -133 -340 -133q-165 0 -278 107.5t-113 267.5zM346 1247v207h731v-207h-731z" />
    <glyph glyph-name="Vtilde" unicode="&#x1e7c;" horiz-adv-x="1533" 
d="M401 0l-413 1384h544l234 -919l235 919h547l-418 -1384h-729zM356 1503q0 50 17.5 104.5t49.5 102.5t82 78.5t109 30.5q53 0 102.5 -16t79 -35.5t63 -35.5t59.5 -16q31 0 59.5 32.5t40.5 80.5h170q-1 -76 -34 -152t-94.5 -128t-133.5 -52q-53 0 -99.5 15.5t-75 34.5
t-64.5 34.5t-69 15.5q-32 0 -58.5 -28t-37.5 -66h-166z" />
    <glyph glyph-name="vtilde" unicode="&#x1e7d;" horiz-adv-x="1318" 
d="M811 1085h522l-381 -1085h-585l-381 1085h522l151 -641zM252 1204q0 50 17.5 104.5t49.5 102.5t82 78.5t109 30.5q68 0 126.5 -26t102 -51.5t74.5 -25.5t59.5 32.5t40.5 80.5h170q-1 -76 -34 -152t-94.5 -128t-133.5 -52q-53 0 -99.5 15.5t-74.5 34.5t-64 34.5t-69 15.5
q-32 0 -58.5 -28t-37.5 -66h-166z" />
    <glyph glyph-name="Vdotbelow" unicode="&#x1e7e;" horiz-adv-x="1533" 
d="M600 -418v268h334v-268h-334zM401 0l-413 1384h544l234 -919l235 919h547l-418 -1384h-729z" />
    <glyph glyph-name="vdotbelow" unicode="&#x1e7f;" horiz-adv-x="1318" 
d="M494 -418v268h333v-268h-333zM811 1085h522l-381 -1085h-585l-381 1085h522l151 -641z" />
    <glyph glyph-name="Wgrave" unicode="&#x1e80;" horiz-adv-x="2258" 
d="M1722 1384h531l-309 -1384h-652l-164 778l-165 -778h-648l-309 1384h529l139 -942l209 942h487l211 -942zM1061 1507l-336 318h408l225 -318h-297z" />
    <glyph glyph-name="wgrave" unicode="&#x1e81;" horiz-adv-x="1955" 
d="M1432 1085h526l-328 -1085h-506l-145 494l-150 -494h-503l-328 1085h532l105 -591l153 591h371l162 -591zM905 1208l-336 318h408l225 -318h-297z" />
    <glyph glyph-name="Wacute" unicode="&#x1e82;" horiz-adv-x="2258" 
d="M1722 1384h531l-309 -1384h-652l-164 778l-165 -778h-648l-309 1384h529l139 -942l209 942h487l211 -942zM1507 1825l-336 -318h-297l226 318h407z" />
    <glyph glyph-name="wacute" unicode="&#x1e83;" horiz-adv-x="1955" 
d="M1432 1085h526l-328 -1085h-506l-145 494l-150 -494h-503l-328 1085h532l105 -591l153 591h371l162 -591zM1378 1526l-336 -318h-297l226 318h407z" />
    <glyph glyph-name="Wdieresis" unicode="&#x1e84;" horiz-adv-x="2258" 
d="M1722 1384h531l-309 -1384h-652l-164 778l-165 -778h-648l-309 1384h529l139 -942l209 942h487l211 -942zM705 1524v268h333v-268h-333zM1221 1524v268h333v-268h-333z" />
    <glyph glyph-name="wdieresis" unicode="&#x1e85;" horiz-adv-x="1955" 
d="M1432 1085h526l-328 -1085h-506l-145 494l-150 -494h-503l-328 1085h532l105 -591l153 591h371l162 -591zM555 1225v268h334v-268h-334zM1071 1225v268h334v-268h-334z" />
    <glyph glyph-name="Wdotaccent" unicode="&#x1e86;" horiz-adv-x="2258" 
d="M1722 1384h531l-309 -1384h-652l-164 778l-165 -778h-648l-309 1384h529l139 -942l209 942h487l211 -942zM963 1524v268h333v-268h-333z" />
    <glyph glyph-name="wdotaccent" unicode="&#x1e87;" horiz-adv-x="1955" 
d="M1432 1085h526l-328 -1085h-506l-145 494l-150 -494h-503l-328 1085h532l105 -591l153 591h371l162 -591zM813 1225v268h334v-268h-334z" />
    <glyph glyph-name="Wdotbelow" unicode="&#x1e88;" horiz-adv-x="2258" 
d="M963 -418v268h333v-268h-333zM1722 1384h531l-309 -1384h-652l-164 778l-165 -778h-648l-309 1384h529l139 -942l209 942h487l211 -942z" />
    <glyph glyph-name="wdotbelow" unicode="&#x1e89;" horiz-adv-x="1955" 
d="M811 -418v268h334v-268h-334zM1432 1085h526l-328 -1085h-506l-145 494l-150 -494h-503l-328 1085h532l105 -591l153 591h371l162 -591z" />
    <glyph glyph-name="Xdotaccent" unicode="&#x1e8a;" horiz-adv-x="1525" 
d="M12 1384h553l197 -389l194 389h557l-387 -667l408 -717h-553l-219 422l-219 -422h-553l405 717zM596 1524v268h334v-268h-334z" />
    <glyph glyph-name="xdotaccent" unicode="&#x1e8b;" horiz-adv-x="1384" 
d="M1040 567l355 -567h-555l-148 324l-147 -324h-555l354 567l-317 518h503l162 -284l162 284h504zM526 1225v268h334v-268h-334z" />
    <glyph glyph-name="Xdieresis" unicode="&#x1e8c;" horiz-adv-x="1525" 
d="M12 1384h553l197 -389l194 389h557l-387 -667l408 -717h-553l-219 422l-219 -422h-553l405 717zM338 1524v268h334v-268h-334zM854 1524v268h334v-268h-334z" />
    <glyph glyph-name="xdieresis" unicode="&#x1e8d;" horiz-adv-x="1384" 
d="M1040 567l355 -567h-555l-148 324l-147 -324h-555l354 567l-317 518h503l162 -284l162 284h504zM268 1225v268h334v-268h-334zM784 1225v268h334v-268h-334z" />
    <glyph glyph-name="Ydotaccent" unicode="&#x1e8e;" horiz-adv-x="1464" 
d="M961 1384h538l-500 -890v-494h-534v494l-502 890h541l225 -499zM563 1524v268h334v-268h-334z" />
    <glyph glyph-name="ydotaccent" unicode="&#x1e8f;" horiz-adv-x="1425" 
d="M803 1085h522v-913q0 -315 -149.5 -455.5t-489.5 -140.5q-123 0 -219 15.5t-157 42t-101 64t-56 79t-16 90.5q0 93 60.5 165.5t173.5 110.5q-137 10 -210 85t-73 200v657h522v-587q0 -43 28.5 -73t68.5 -30t68 30t28 73v587zM803 -6v145q-8 -1 -20.5 -3.5t-45 -15
t-57.5 -29.5t-45.5 -49.5t-20.5 -72.5q0 -42 21 -69t67 -27q101 0 101 121zM541 1225v268h333v-268h-333z" />
    <glyph glyph-name="Zcircumflex" unicode="&#x1e90;" horiz-adv-x="1351" 
d="M98 1384h1159v-380l-520 -613h533v-391h-1202v317l583 676h-553v391zM874 1825l244 -318h-297l-145 144l-146 -144h-297l244 318h397z" />
    <glyph glyph-name="zcircumflex" unicode="&#x1e91;" horiz-adv-x="1161" 
d="M1077 772l-391 -422h401v-350h-1028v295l418 440h-381v350h981v-313zM791 1526l243 -318h-297l-145 144l-146 -144h-296l243 318h398z" />
    <glyph glyph-name="Zdotbelow" unicode="&#x1e92;" horiz-adv-x="1351" 
d="M514 -418v268h334v-268h-334zM98 1384h1159v-380l-520 -613h533v-391h-1202v317l583 676h-553v391z" />
    <glyph glyph-name="zdotbelow" unicode="&#x1e93;" horiz-adv-x="1161" 
d="M430 -418v268h334v-268h-334zM1077 772l-391 -422h401v-350h-1028v295l418 440h-381v350h981v-313z" />
    <glyph glyph-name="Zlinebelow" unicode="&#x1e94;" horiz-adv-x="1351" 
d="M305 -356v206h731v-206h-731zM98 1384h1159v-380l-520 -613h533v-391h-1202v317l583 676h-553v391z" />
    <glyph glyph-name="zlinebelow" unicode="&#x1e95;" horiz-adv-x="1161" 
d="M221 -356v206h731v-206h-731zM1077 772l-391 -422h401v-350h-1028v295l418 440h-381v350h981v-313z" />
    <glyph glyph-name="hlinebelow" unicode="&#x1e96;" horiz-adv-x="1431" 
d="M354 -356v206h731v-206h-731zM1339 737v-737h-522v621q0 41 -28 70.5t-68 29.5t-68 -29.5t-28 -70.5v-621h-523v1513h523v-528q124 127 323 127q165 0 278 -107.5t113 -267.5z" />
    <glyph glyph-name="tdieresis" unicode="&#x1e97;" horiz-adv-x="960" 
d="M55 727v358h113v252h522v-252h189v-358h-189v-289q0 -60 37 -88t90 -28q23 0 55 4l41 -289q-63 -28 -158 -46t-192 -18q-395 0 -395 338v416h-113zM25 1485v268h333v-268h-333zM541 1485v268h333v-268h-333z" />
    <glyph glyph-name="wring" unicode="&#x1e98;" horiz-adv-x="1955" 
d="M1432 1085h526l-328 -1085h-506l-145 494l-150 -494h-503l-328 1085h532l105 -591l153 591h371l162 -591zM979 1200q-105 0 -178.5 64.5t-73.5 167.5t73.5 167t178.5 64t178.5 -64t73.5 -167t-73.5 -167.5t-178.5 -64.5zM979 1532q-45 0 -76 -28t-31 -72t31 -72.5
t76 -28.5t75.5 28.5t30.5 72.5t-30.5 72t-75.5 28z" />
    <glyph glyph-name="yring" unicode="&#x1e99;" horiz-adv-x="1425" 
d="M803 1085h522v-913q0 -315 -149.5 -455.5t-489.5 -140.5q-123 0 -219 15.5t-157 42t-101 64t-56 79t-16 90.5q0 93 60.5 165.5t173.5 110.5q-137 10 -210 85t-73 200v657h522v-587q0 -43 28.5 -73t68.5 -30t68 30t28 73v587zM803 -6v145q-8 -1 -20.5 -3.5t-45 -15
t-57.5 -29.5t-45.5 -49.5t-20.5 -72.5q0 -42 21 -69t67 -27q101 0 101 121zM707 1200q-105 0 -178.5 64.5t-73.5 167.5t73.5 167t178.5 64t178 -64t73 -167t-73.5 -167.5t-177.5 -64.5zM707 1532q-45 0 -76 -28t-31 -72t31 -72.5t76 -28.5t75.5 28.5t30.5 72.5t-30.5 72
t-75.5 28z" />
    <glyph glyph-name="endash" unicode="&#x2013;" horiz-adv-x="1359" 
d="M1262 692v-317h-1164v317h1164z" />
    <glyph glyph-name="emdash" unicode="&#x2014;" horiz-adv-x="1941" 
d="M1843 692v-317h-1745v317h1745z" />
    <glyph glyph-name="quoteleft" unicode="&#x2018;" horiz-adv-x="659" 
d="M565 670h-481v372l231 342h240l-188 -305h198v-409z" />
    <glyph glyph-name="quoteright" unicode="&#x2019;" horiz-adv-x="638" 
d="M96 1384h482v-372l-232 -342h-240l189 305h-199v409z" />
    <glyph glyph-name="quotesinglbase" unicode="&#x201a;" horiz-adv-x="675" 
d="M98 410h482v-373l-232 -342h-239l188 305h-199v410z" />
    <glyph glyph-name="quotedblleft" unicode="&#x201c;" horiz-adv-x="1280" 
d="M565 670h-481v372l231 342h240l-188 -305h198v-409zM1186 670h-481v372l231 342h240l-189 -305h199v-409z" />
    <glyph glyph-name="quotedblright" unicode="&#x201d;" horiz-adv-x="1259" 
d="M717 1384h481v-372l-231 -342h-240l188 305h-198v409zM96 1384h482v-372l-232 -342h-240l189 305h-199v409z" />
    <glyph glyph-name="quotedblbase" unicode="&#x201e;" horiz-adv-x="1296" 
d="M719 410h481v-373l-231 -342h-240l189 305h-199v410zM98 410h482v-373l-232 -342h-239l188 305h-199v410z" />
    <glyph glyph-name="dagger" unicode="&#x2020;" horiz-adv-x="1161" 
d="M1008 987l104 -49v-240l-104 -49h-66l-252 47l60 -233v-49l-50 -811h-239l-49 811v49l59 233l-252 -47h-65l-105 49v240l105 49h65l240 -47l-47 274v66l49 104h239l50 -104v-66l-48 -274l240 47h66zM600 676l117 117v38l-117 119h-39l-117 -119v-38l117 -117h39z" />
    <glyph glyph-name="daggerdbl" unicode="&#x2021;" horiz-adv-x="1189" 
d="M1022 649h-66l-251 47l59 -202l-59 -203l251 47h66l104 -49v-240l-104 -49h-66l-239 47l47 -274v-66l-49 -104h-240l-49 104v66l47 274l-240 -47h-65l-105 49v240l105 49h65l252 -47l-59 203l59 202l-252 -47h-65l-105 49v240l105 49h65l240 -47l-47 274v66l49 104h240
l49 -104v-66l-47 -274l239 47h66l104 -49v-240zM731 195l-117 116h-39l-116 -116v-39l116 -119h39l117 119v39zM731 793v38l-117 119h-39l-116 -119v-38l116 -117h39z" />
    <glyph glyph-name="bullet" unicode="&#x2022;" horiz-adv-x="917" 
d="M102 651q0 149 104 253t253 104t252.5 -104t103.5 -253t-103.5 -252.5t-252.5 -103.5t-253 103.5t-104 252.5z" />
    <glyph glyph-name="ellipsis" unicode="&#x2026;" horiz-adv-x="2177" 
d="M98 0v410h482v-410h-482zM848 0v410h481v-410h-481zM1597 0v410h482v-410h-482z" />
    <glyph glyph-name="perthousand" unicode="&#x2030;" horiz-adv-x="2488" 
d="M311 -20l897 1425h205l-899 -1425h-203zM395 670q-164 0 -252 101t-88 269t88 269.5t252 101.5t252 -101.5t88 -269.5t-88 -269t-252 -101zM395 1214q-44 0 -69 -47t-25 -127t25 -127t69 -47t69 47t25 127t-25 127t-69 47zM1329 -27q-164 0 -252 101.5t-88 269.5
t88 269.5t252 101.5t252 -101.5t88 -269.5t-88 -269.5t-252 -101.5zM1329 518q-44 0 -69 -47t-25 -127t25 -127t69 -47t69 47t25 127t-25 127t-69 47zM2095 -27q-164 0 -252 101.5t-88 269.5t88 269.5t252 101.5t252 -101.5t88 -269.5t-88 -269.5t-252 -101.5zM2095 518
q-44 0 -69 -47t-25 -127t25 -127t69 -47t69 47t25 127t-25 127t-69 47z" />
    <glyph glyph-name="uni2031" unicode="&#x2031;" horiz-adv-x="3223" 
d="M303 -20l897 1425h205l-899 -1425h-203zM393 670q-164 0 -252 101t-88 269t88 269.5t252 101.5t252 -101.5t88 -269.5t-88 -269t-252 -101zM393 1214q-44 0 -69 -47t-25 -127t25 -127t69 -47t69 47t25 127t-25 127t-69 47zM1315 -27q-164 0 -252 101.5t-88 269.5
t88 269.5t252 101.5t252 -101.5t88 -269.5t-88 -269.5t-252 -101.5zM1315 518q-44 0 -69 -47t-25 -127t25 -127t69 -47t69 47t25 127t-25 127t-69 47zM2075 -27q-164 0 -252 101.5t-88 269.5t88 269.5t252 101.5t252 -101.5t88 -269.5t-88 -269.5t-252 -101.5zM2075 518
q-44 0 -69.5 -47t-25.5 -127t25.5 -127t69.5 -47t69 47t25 127t-25 127t-69 47zM2834 -27q-164 0 -252 101.5t-88 269.5t88 269.5t252 101.5t252 -101.5t88 -269.5t-88 -269.5t-252 -101.5zM2834 518q-44 0 -69 -47t-25 -127t25 -127t69 -47t69.5 47t25.5 127t-25.5 127
t-69.5 47z" />
    <glyph glyph-name="guilsinglleft" unicode="&#x2039;" horiz-adv-x="950" 
d="M903 1042l-428 -493l428 -494h-461l-393 494l393 493h461z" />
    <glyph glyph-name="guilsinglright" unicode="&#x203a;" horiz-adv-x="950" 
d="M475 549l-428 493h461l393 -493l-393 -494h-461z" />
    <glyph glyph-name="fraction" unicode="&#x2044;" horiz-adv-x="624" 
d="M614 1434h314l-918 -1473h-313z" />
    <glyph glyph-name="zerosuperior" unicode="&#x2070;" horiz-adv-x="829" 
d="M414 1706q192 0 293.5 -117t101.5 -313t-101.5 -314t-293.5 -118q-191 0 -293.5 118.5t-102.5 313.5t102.5 312.5t293.5 117.5zM414 1073q65 0 65 203q0 100 -14.5 151.5t-50.5 51.5q-66 0 -66 -203t66 -203z" />
    <glyph glyph-name="foursuperior" unicode="&#x2074;" horiz-adv-x="829" 
d="M791 1243v-233h-80v-150h-303v150h-400v231l322 451h381v-449h80zM268 1237h146v207z" />
    <glyph glyph-name="fivesuperior" unicode="&#x2075;" horiz-adv-x="829" 
d="M78 1280l61 412h600v-246h-317l-14 -55q7 0 23 1t24 1q61 0 115.5 -15.5t100 -47t72.5 -87t27 -127.5q0 -73 -34 -127.5t-92.5 -85t-128 -45t-150.5 -14.5q-150 0 -310 47l33 239q112 -49 205 -49q125 0 125 54q0 65 -117 65q-50 0 -100 -10z" />
    <glyph glyph-name="sixsuperior" unicode="&#x2076;" horiz-adv-x="829" 
d="M528 1409q132 0 199.5 -75.5t67.5 -198.5q0 -131 -98.5 -211t-278.5 -80q-184 0 -281.5 114.5t-97.5 317.5q0 196 118.5 313t295.5 117q167 0 295 -61l-46 -222q-80 37 -190 37q-66 0 -111 -25.5t-51 -76.5q79 51 178 51zM428 1059q25 0 39 22t14 54q0 77 -53 77
q-25 0 -39 -21.5t-14 -55.5q0 -76 53 -76z" />
    <glyph glyph-name="sevensuperior" unicode="&#x2077;" horiz-adv-x="829" 
d="M66 1692h706v-228q-110 -140 -172.5 -283t-69.5 -321h-333q5 246 219 570h-350v262z" />
    <glyph glyph-name="eightsuperior" unicode="&#x2078;" horiz-adv-x="829" 
d="M629 1284q166 -54 166 -207q0 -69 -28.5 -116t-83 -72t-119 -35t-150.5 -10t-150.5 10t-119 35t-83 72t-28.5 116q0 154 168 207q-138 45 -138 201q0 111 93 166t258 55q166 0 259 -55t93 -166q0 -155 -137 -201zM414 1534q-47 0 -47 -74q0 -32 12.5 -51.5t34.5 -19.5
q47 0 47 71q0 74 -47 74zM414 1022q57 0 57 84q0 45 -12.5 67.5t-44.5 22.5q-58 0 -58 -90q0 -84 58 -84z" />
    <glyph glyph-name="ninesuperior" unicode="&#x2079;" horiz-adv-x="829" 
d="M315 1141q-137 0 -209.5 78.5t-72.5 201.5q0 127 101.5 206t260.5 79q107 0 186 -32.5t125.5 -91t68.5 -132.5t22 -164q0 -207 -106.5 -324.5t-315.5 -117.5q-81 0 -167 17t-147 46l45 228q95 -45 220 -45q76 0 114 20.5t45 69.5q-76 -39 -170 -39zM406 1491
q-28 0 -42 -22.5t-14 -57.5q0 -78 56 -78q55 0 55 78q0 35 -13.5 57.5t-41.5 22.5z" />
    <glyph glyph-name="plus.sups" unicode="&#x207a;" horiz-adv-x="778" 
d="M739 1380v-211h-241v-239h-217v239h-242v211h242v242h217v-242h241z" />
    <glyph glyph-name="minus.sups" unicode="&#x207b;" horiz-adv-x="851" 
d="M776 1380v-211h-700v211h700z" />
    <glyph glyph-name="equal.sups" unicode="&#x207c;" horiz-adv-x="851" 
d="M776 1219v-213h-700v213h700zM776 1546v-211h-700v211h700z" />
    <glyph glyph-name="parenleft.sups" unicode="&#x207d;" horiz-adv-x="495" 
d="M502 604h-271q-98 166 -143 318.5t-45 322.5t45 323t143 320h271q-201 -280 -201 -643q0 -361 201 -641z" />
    <glyph glyph-name="parenright.sups" unicode="&#x207e;" horiz-adv-x="546" 
d="M299 604h-270q200 279 200 641q0 364 -200 643h270q98 -167 143 -320t45 -323t-45 -322.5t-143 -318.5z" />
    <glyph glyph-name="zeroinferior" unicode="&#x2080;" horiz-adv-x="829" 
d="M414 541q192 0 293.5 -117t101.5 -313t-101.5 -314.5t-293.5 -118.5q-191 0 -293.5 119t-102.5 314t102.5 312.5t293.5 117.5zM414 -92q65 0 65 203q0 100 -14.5 151t-50.5 51q-66 0 -66 -202q0 -203 66 -203z" />
    <glyph glyph-name="oneinferior" unicode="&#x2081;" horiz-adv-x="829" 
d="M324 -305v469h-201v184q244 0 254 178h270v-831h-323z" />
    <glyph glyph-name="twoinferior" unicode="&#x2082;" horiz-adv-x="829" 
d="M403 541q63 0 113.5 -7t97 -25.5t78 -47.5t50 -76.5t18.5 -110.5q0 -64 -32.5 -123t-79 -101.5t-124.5 -98.5h244v-256h-713v244q34 21 89 53t89 52t75 47.5t64.5 48.5t39.5 45.5t16 47.5q0 25 -27.5 38.5t-70.5 13.5q-118 0 -228 -54l-47 240q68 28 169 49t179 21z" />
    <glyph glyph-name="threeinferior" unicode="&#x2083;" horiz-adv-x="829" 
d="M600 121q72 -18 124 -74t52 -129q0 -64 -32.5 -112t-90 -75t-127 -40t-151.5 -13q-188 0 -326 50l31 245q120 -51 227 -51q131 0 131 41q0 43 -82 43h-159v219h125q29 0 46.5 2t31.5 10.5t14 24.5q0 23 -25 30t-76 7q-98 0 -196 -39l-37 232q135 49 297 49
q167 0 262.5 -59.5t95.5 -180.5q0 -62 -38 -108.5t-97 -71.5z" />
    <glyph glyph-name="fourinferior" unicode="&#x2084;" horiz-adv-x="829" 
d="M795 78v-234h-80v-149h-303v149h-400v232l322 450h381v-448h80zM272 72h146v207z" />
    <glyph glyph-name="fiveinferior" unicode="&#x2085;" horiz-adv-x="829" 
d="M76 115l61 411h600v-245h-317l-14 -56q7 0 23 1t24 1q61 0 115.5 -15.5t100 -47t72.5 -86.5t27 -127q0 -73 -34 -127.5t-93 -85.5t-128.5 -45.5t-150.5 -14.5q-145 0 -309 48l33 239q112 -49 205 -49q125 0 125 53q0 66 -117 66q-50 0 -100 -10z" />
    <glyph glyph-name="sixinferior" unicode="&#x2086;" horiz-adv-x="829" 
d="M528 244q132 0 199.5 -76t67.5 -199q0 -131 -98.5 -211t-278.5 -80q-184 0 -281.5 115t-97.5 318q0 196 118.5 313t295.5 117q165 0 295 -62l-46 -221q-80 37 -190 37q-66 0 -111 -25.5t-51 -76.5q79 51 178 51zM428 -106q25 0 39 21.5t14 53.5q0 78 -53 78
q-25 0 -39 -22t-14 -56q0 -75 53 -75z" />
    <glyph glyph-name="seveninferior" unicode="&#x2087;" horiz-adv-x="829" 
d="M63 526h707v-227q-110 -140 -172.5 -283t-69.5 -321h-333q3 138 60.5 277.5t158.5 291.5h-351v262z" />
    <glyph glyph-name="eightinferior" unicode="&#x2088;" horiz-adv-x="829" 
d="M629 119q166 -54 166 -207q0 -56 -19.5 -97.5t-52.5 -67t-83 -41.5t-104 -22t-122 -6t-122 6t-104 22t-83 41.5t-52.5 67t-19.5 97.5q0 154 168 207q-138 45 -138 200q0 111 93 166.5t258 55.5q166 0 259 -55.5t93 -166.5q0 -154 -137 -200zM414 369q-47 0 -47 -74
q0 -33 12.5 -52.5t34.5 -19.5q23 0 35 19.5t12 52.5q0 74 -47 74zM414 -143q57 0 57 84q0 45 -12.5 67.5t-44.5 22.5q-58 0 -58 -90q0 -84 58 -84z" />
    <glyph glyph-name="nineinferior" unicode="&#x2089;" horiz-adv-x="829" 
d="M315 -25q-137 0 -209.5 79t-72.5 202q0 127 101.5 206t260.5 79q107 0 186 -32.5t125.5 -91t68.5 -132.5t22 -164q0 -207 -107 -325t-315 -118q-80 0 -166.5 17.5t-147.5 46.5l45 227q95 -45 220 -45q76 0 114 20.5t45 69.5q-76 -39 -170 -39zM406 326q-28 0 -42 -22.5
t-14 -57.5q0 -78 56 -78q55 0 55 78q0 35 -13.5 57.5t-41.5 22.5z" />
    <glyph glyph-name="parenleft.sinf" unicode="&#x208d;" horiz-adv-x="544" 
d="M518 -561h-270q-98 166 -143.5 318.5t-45.5 322.5t45.5 322.5t143.5 320.5h270q-201 -280 -201 -643q0 -361 201 -641z" />
    <glyph glyph-name="parenright.sinf" unicode="&#x208e;" horiz-adv-x="544" 
d="M297 -561h-270q200 279 200 641q0 364 -200 643h270q98 -167 143 -320t45 -323t-45 -322.5t-143 -318.5z" />
    <glyph glyph-name="colonmonetary" unicode="&#x20a1;" horiz-adv-x="1386" 
d="M1061 1606h172l-76 -236q66 -13 164 -45l-102 -373q-122 52 -267 52q-168 0 -260 -82t-92 -230t92 -229.5t260 -81.5q147 0 267 51l102 -373q-258 -86 -502 -86q-47 0 -108 7l-62 -193h-172l72 223q-61 16 -125 49l-88 -272h-172l117 367q-107 94 -165.5 231.5
t-58.5 306.5q0 298 169 486t458 225l66 203h172l-64 -195q47 -2 137 -10z" />
    </font>
</defs>
</svg>
